<svg viewBox="0 0 1600 1550" xmlns="http://www.w3.org/2000/svg" fill-rule="evenodd" clip-rule="evenodd" stroke-linejoin="round" stroke-miterlimit="2"><path fill="none" d="M0 0h1600v1549.998H0z"/><g fill-rule="nonzero"><path d="M203.8 887.399c0 10 1.8 17.867 5.4 23.6 3.6 5.733 8.933 8.6 16 8.6 5.733 0 10.4-1.833 14-5.5 3.6-3.667 5.4-8.7 5.4-15.1 0-7.2-2.333-12.9-7-17.1-4.667-4.2-10.067-8.1-16.2-11.7-10-6.267-17.567-12.6-22.7-19-5.133-6.4-7.7-14.267-7.7-23.6 0-10.8 3.033-19.3 9.1-25.5 6.067-6.2 14.5-9.3 25.3-9.3 12.267 0 21.367 4.2 27.3 12.6 5.933 8.4 8.9 19.867 8.9 34.4h-16.2c0-10-1.767-17.867-5.3-23.6-3.533-5.733-8.567-8.6-15.1-8.6-4.933 0-8.933 1.633-12 4.9-3.067 3.267-4.6 8.033-4.6 14.3 0 7.733 2.333 13.8 7 18.2 4.667 4.4 10.6 8.867 17.8 13.4 7.067 4.267 13.667 9.5 19.8 15.7 6.133 6.2 9.2 14.767 9.2 25.7s-3.433 19.4-10.3 25.4c-6.867 6-15.767 9-26.7 9-12.133 0-21.5-3.833-28.1-11.5-6.6-7.667-9.9-19.433-9.9-35.3h16.6zM298.4 882.399c.133 14.933 1.433 25.1 3.9 30.5 2.467 5.4 7.1 8.1 13.9 8.1 5.6 0 9.667-1.6 12.2-4.8 2.533-3.2 4.133-8.6 4.8-16.2H349c-2 22.8-13 34.2-33 34.2-12.267 0-21-4.267-26.2-12.8-5.2-8.533-7.8-22.933-7.8-43.2 0-20.267 2.6-34.633 7.8-43.1 5.2-8.467 13.933-12.7 26.2-12.7 12.4 0 21.233 4.2 26.5 12.6 5.267 8.4 7.9 22.4 7.9 42v5.4h-52zm35.4-12.6c-.267-13.067-1.633-22.033-4.1-26.9-2.467-4.867-6.967-7.3-13.5-7.3s-11.067 2.433-13.6 7.3c-2.533 4.867-3.933 13.833-4.2 26.9h35.4zM383.8 878.4c0 16.799 1.067 28.099 3.2 33.899 2.133 5.8 6.6 8.7 13.4 8.7 5.2 0 8.933-1.533 11.2-4.6 2.267-3.067 3.667-8.533 4.2-16.4h15.4c-.667 12.133-3.633 20.867-8.9 26.2-5.267 5.333-12.9 8-22.9 8-11.6 0-19.8-4.033-24.6-12.1-4.8-8.067-7.2-22.567-7.2-43.5s2.367-35.533 7.1-43.8c4.733-8.267 13.167-12.4 25.3-12.4 9.867 0 17.4 2.633 22.6 7.9 5.2 5.267 8.133 14.033 8.8 26.3h-15.6c-.667-7.867-2.133-13.333-4.4-16.4-2.267-3.067-6-4.6-11.2-4.6-6.667 0-11.067 2.9-13.2 8.7-2.133 5.8-3.2 17.167-3.2 34.1zM473 883.399c0 15.333.933 25.433 2.8 30.3 1.867 4.867 5.6 7.3 11.2 7.3 6.8 0 11.633-2.667 14.5-8 2.867-5.333 4.3-14.533 4.3-27.6v-61h16.6v107.8H510l-3.8-10.4c-5.867 8.267-14.267 12.4-25.2 12.4-9.333 0-15.767-3.3-19.3-9.9-3.533-6.6-5.3-18.833-5.3-36.7v-63.2H473v59zM563.8 882.399c.133 14.933 1.433 25.1 3.9 30.5 2.467 5.4 7.1 8.1 13.9 8.1 5.6 0 9.667-1.6 12.2-4.8 2.533-3.2 4.133-8.6 4.8-16.2h15.8c-2 22.8-13 34.2-33 34.2-12.267 0-21-4.267-26.2-12.8-5.2-8.533-7.8-22.933-7.8-43.2 0-20.267 2.6-34.633 7.8-43.1 5.2-8.467 13.933-12.7 26.2-12.7 12.4 0 21.233 4.2 26.5 12.6 5.267 8.4 7.9 22.4 7.9 42v5.4h-52zm35.4-12.6c-.267-13.067-1.633-22.033-4.1-26.9-2.467-4.867-6.967-7.3-13.5-7.3s-11.067 2.433-13.6 7.3c-2.533 4.867-3.933 13.833-4.2 26.9h35.4zM642.8 786.2h16.6v145.999h-16.6zM687.4 856.6c1.2-22.8 12-34.2 32.4-34.2 10.933 0 18.733 3.632 23.4 10.9 4.667 7.266 7 19.7 7 37.3v44.799l2.2 16.8h-15.8l-2-9.8c-2.933 4-6.6 6.967-11 8.9-4.4 1.933-9 2.9-13.8 2.9-8.133 0-14.5-2.567-19.1-7.7-4.6-5.133-6.9-12.1-6.9-20.9 0-12.533 4.5-22 13.5-28.4 9-6.4 21.033-9.6 36.1-9.6 0-12.4-.933-20.833-2.8-25.3-1.867-4.467-5.533-6.7-11-6.7-10.133 0-15.667 7-16.6 21h-15.6zm46.2 22.999c-22.267 0-33.4 8.333-33.4 25 0 10.933 4.933 16.4 14.8 16.4 5.6 0 10.1-1.967 13.5-5.9 3.4-3.933 5.1-10.167 5.1-18.7v-16.8zM809 794.8h17.6l26.2 107.199 26.4-107.2h17.6l-35.2 137.4H844l-35-137.4z"/><g><path d="M910.6 856.6c1.2-22.8 12-34.2 32.4-34.2 10.933 0 18.733 3.632 23.4 10.9 4.667 7.266 7 19.7 7 37.3v44.799l2.2 16.8h-15.8l-2-9.8c-2.933 4-6.6 6.967-11 8.9-4.4 1.933-9 2.9-13.8 2.9-8.133 0-14.5-2.567-19.1-7.7-4.6-5.133-6.9-12.1-6.9-20.9 0-12.533 4.5-22 13.5-28.4 9-6.4 21.033-9.6 36.1-9.6 0-12.4-.933-20.833-2.8-25.3-1.867-4.467-5.533-6.7-11-6.7-10.133 0-15.667 7-16.6 21h-15.6zm46.2 22.999c-22.267 0-33.4 8.333-33.4 25 0 10.933 4.933 16.4 14.8 16.4 5.6 0 10.1-1.967 13.5-5.9 3.4-3.933 5.1-10.167 5.1-18.7v-16.8zM998.6 824.4h12.6l3.6 10.2c2.8-4.4 6.3-7.568 10.5-9.5 4.2-1.934 8.633-2.9 13.3-2.9 1.2 0 2.867.132 5 .4v14.2c-1.733-.4-3.667-.6-5.8-.6-6.133 0-11.433 1.866-15.9 5.6-4.467 3.732-6.7 10.8-6.7 21.2v69.199h-16.6v-107.8zM1061.8 932.199v-107.8h16.6v107.8h-16.6zm-2.2-133.4c0-3.067 1.033-5.6 3.1-7.6s4.567-3 7.5-3 5.4 1 7.4 3 3 4.533 3 7.6c0 3.067-1 5.6-3 7.6s-4.467 3-7.4 3c-2.933 0-5.433-1-7.5-3s-3.1-4.533-3.1-7.6z"/></g><g><path d="M1112.602 856.6c1.2-22.8 12-34.2 32.4-34.2 10.933 0 18.733 3.632 23.4 10.9 4.667 7.266 7 19.7 7 37.3v44.799l2.2 16.8h-15.8l-2-9.8c-2.933 4-6.6 6.967-11 8.9-4.4 1.933-9 2.9-13.8 2.9-8.133 0-14.5-2.567-19.1-7.7-4.6-5.133-6.9-12.1-6.9-20.9 0-12.533 4.5-22 13.5-28.4 9-6.4 21.033-9.6 36.1-9.6 0-12.4-.933-20.833-2.8-25.3-1.867-4.467-5.533-6.7-11-6.7-10.133 0-15.667 7-16.6 21h-15.6zm46.2 22.999c-22.267 0-33.4 8.333-33.4 25 0 10.933 4.933 16.4 14.8 16.4 5.6 0 10.1-1.967 13.5-5.9 3.4-3.933 5.1-10.167 5.1-18.7v-16.8zM1200.202 786.2h16.6v48.4c5.2-8.134 13.2-12.2 24-12.2 10.133 0 17.467 4.266 22 12.8 4.533 8.532 6.8 22.666 6.8 42.4 0 19.866-2.333 34.266-7 43.199s-12.133 13.4-22.4 13.4c-10.533 0-18.467-4-23.8-12l-3.6 10h-12.6v-146zm16.2 92.4c0 15.999 1.367 27.066 4.1 33.199 2.733 6.133 7.7 9.2 14.9 9.2 7.067 0 11.833-2.933 14.3-8.8 2.467-5.867 3.7-17.133 3.7-33.8 0-16.667-1.233-27.967-3.7-33.9s-7.233-8.9-14.3-8.9c-7.2 0-12.167 3.1-14.9 9.3-2.733 6.2-4.1 17.433-4.1 33.7zM1293.202 786.2h16.6v145.999h-16.6zM1351.002 882.399c.133 14.933 1.433 25.1 3.9 30.5 2.467 5.4 7.1 8.1 13.9 8.1 5.6 0 9.667-1.6 12.2-4.8 2.533-3.2 4.133-8.6 4.8-16.2h15.8c-2 22.8-13 34.2-33 34.2-12.267 0-21-4.267-26.2-12.8-5.2-8.533-7.8-22.933-7.8-43.2 0-20.267 2.6-34.633 7.8-43.1 5.2-8.467 13.933-12.7 26.2-12.7 12.4 0 21.233 4.2 26.5 12.6 5.267 8.4 7.9 22.4 7.9 42v5.4h-52zm35.4-12.6c-.267-13.067-1.633-22.033-4.1-26.9-2.467-4.867-6.967-7.3-13.5-7.3s-11.067 2.433-13.6 7.3c-2.533 4.867-3.933 13.833-4.2 26.9h35.4z"/></g></g><g fill-rule="nonzero"><path d="M185.8 719.198c0 10 1.8 17.867 5.4 23.6 3.6 5.733 8.933 8.6 16 8.6 5.733 0 10.4-1.833 14-5.5 3.6-3.667 5.4-8.7 5.4-15.1 0-7.2-2.333-12.9-7-17.1-4.667-4.2-10.067-8.1-16.2-11.7-10-6.267-17.567-12.6-22.7-19-5.133-6.4-7.7-14.267-7.7-23.6 0-10.8 3.033-19.3 9.1-25.5 6.067-6.2 14.5-9.3 25.3-9.3 12.267 0 21.367 4.2 27.3 12.6 5.933 8.4 8.9 19.868 8.9 34.4h-16.2c0-10-1.767-17.866-5.3-23.6-3.533-5.732-8.567-8.6-15.1-8.6-4.933 0-8.933 1.634-12 4.9-3.067 3.268-4.6 8.034-4.6 14.3 0 7.734 2.333 13.8 7 18.2 4.667 4.4 10.6 8.867 17.8 13.4 7.067 4.267 13.667 9.5 19.8 15.7 6.133 6.2 9.2 14.767 9.2 25.7s-3.433 19.4-10.3 25.4c-6.867 6-15.767 9-26.7 9-12.133 0-21.5-3.833-28.1-11.5-6.6-7.667-9.9-19.433-9.9-35.3h16.6zM280.4 714.198c.133 14.933 1.433 25.1 3.9 30.5 2.467 5.4 7.1 8.1 13.9 8.1 5.6 0 9.667-1.6 12.2-4.8 2.533-3.2 4.133-8.6 4.8-16.2H331c-2 22.8-13 34.2-33 34.2-12.267 0-21-4.267-26.2-12.8-5.2-8.533-7.8-22.933-7.8-43.2 0-20.267 2.6-34.633 7.8-43.1 5.2-8.466 13.933-12.7 26.2-12.7 12.4 0 21.233 4.2 26.5 12.6 5.267 8.4 7.9 22.4 7.9 42v5.4h-52zm35.4-12.6c-.267-13.067-1.633-22.033-4.1-26.9-2.467-4.867-6.967-7.3-13.5-7.3s-11.067 2.433-13.6 7.3c-2.533 4.867-3.933 13.833-4.2 26.9h35.4zM365.8 710.198c0 16.8 1.067 28.1 3.2 33.9 2.133 5.8 6.6 8.7 13.4 8.7 5.2 0 8.933-1.533 11.2-4.6 2.267-3.067 3.667-8.533 4.2-16.4h15.4c-.667 12.133-3.633 20.867-8.9 26.2-5.267 5.333-12.9 8-22.9 8-11.6 0-19.8-4.033-24.6-12.1-4.8-8.067-7.2-22.567-7.2-43.5s2.367-35.533 7.1-43.8c4.733-8.266 13.167-12.4 25.3-12.4 9.867 0 17.4 2.634 22.6 7.9 5.2 5.268 8.133 14.033 8.8 26.3h-15.6c-.667-7.867-2.133-13.333-4.4-16.4-2.267-3.067-6-4.6-11.2-4.6-6.667 0-11.067 2.9-13.2 8.7-2.133 5.8-3.2 17.167-3.2 34.1zM461.6 715.198c0 15.333.933 25.433 2.8 30.3 1.867 4.867 5.6 7.3 11.2 7.3 6.8 0 11.633-2.667 14.5-8 2.867-5.333 4.3-14.533 4.3-27.6v-61H511v107.8h-12.4l-3.8-10.4c-5.867 8.267-14.267 12.4-25.2 12.4-9.333 0-15.767-3.3-19.3-9.9-3.533-6.6-5.3-18.833-5.3-36.7v-63.2h16.6v59zM555 714.198c.133 14.933 1.433 25.1 3.9 30.5 2.467 5.4 7.1 8.1 13.9 8.1 5.6 0 9.667-1.6 12.2-4.8 2.533-3.2 4.133-8.6 4.8-16.2h15.8c-2 22.8-13 34.2-33 34.2-12.267 0-21-4.267-26.2-12.8-5.2-8.533-7.8-22.933-7.8-43.2 0-20.267 2.6-34.633 7.8-43.1 5.2-8.466 13.933-12.7 26.2-12.7 12.4 0 21.233 4.2 26.5 12.6 5.267 8.4 7.9 22.4 7.9 42v5.4h-52zm35.4-12.6c-.267-13.067-1.633-22.033-4.1-26.9-2.467-4.867-6.967-7.3-13.5-7.3s-11.067 2.433-13.6 7.3c-2.533 4.867-3.933 13.833-4.2 26.9h35.4zM636.4 617.999H653v146h-16.6zM682.8 688.398c1.2-22.8 12-34.2 32.4-34.2 10.933 0 18.733 3.634 23.4 10.9 4.667 7.267 7 19.7 7 37.3v44.8l2.2 16.8H732l-2-9.8c-2.933 4-6.6 6.967-11 8.9-4.4 1.933-9 2.9-13.8 2.9-8.133 0-14.5-2.567-19.1-7.7-4.6-5.133-6.9-12.1-6.9-20.9 0-12.533 4.5-22 13.5-28.4 9-6.4 21.033-9.6 36.1-9.6 0-12.4-.933-20.833-2.8-25.3-1.867-4.467-5.533-6.7-11-6.7-10.133 0-15.667 7-16.6 21h-15.6zm46.2 23c-22.267 0-33.4 8.333-33.4 25 0 10.933 4.933 16.4 14.8 16.4 5.6 0 10.1-1.967 13.5-5.9 3.4-3.933 5.1-10.167 5.1-18.7v-16.8zM804.4 626.599H822l26.2 107.2 26.4-107.2h17.6l-35.2 137.4h-17.6l-35-137.4z"/><g><path d="M910.8 688.398c1.2-22.8 12-34.2 32.4-34.2 10.933 0 18.733 3.634 23.4 10.9 4.667 7.267 7 19.7 7 37.3v44.8l2.2 16.8H960l-2-9.8c-2.933 4-6.6 6.967-11 8.9-4.4 1.933-9 2.9-13.8 2.9-8.133 0-14.5-2.567-19.1-7.7-4.6-5.133-6.9-12.1-6.9-20.9 0-12.533 4.5-22 13.5-28.4 9-6.4 21.033-9.6 36.1-9.6 0-12.4-.933-20.833-2.8-25.3-1.867-4.467-5.533-6.7-11-6.7-10.133 0-15.667 7-16.6 21h-15.6zm46.2 23c-22.267 0-33.4 8.333-33.4 25 0 10.933 4.933 16.4 14.8 16.4 5.6 0 10.1-1.967 13.5-5.9 3.4-3.933 5.1-10.167 5.1-18.7v-16.8zM998.8 656.199h12.6l3.6 10.2c2.8-4.4 6.3-7.567 10.5-9.5 4.2-1.933 8.633-2.9 13.3-2.9 1.2 0 2.867.133 5 .4v14.2c-1.733-.4-3.667-.6-5.8-.6-6.133 0-11.433 1.866-15.9 5.6-4.467 3.732-6.7 10.8-6.7 21.2v69.2h-16.6v-107.8zM1062 763.998v-107.8h16.6v107.8H1062zm-2.2-133.4c0-3.066 1.033-5.6 3.1-7.6s4.567-3 7.5-3 5.4 1 7.4 3 3 4.534 3 7.6c0 3.068-1 5.6-3 7.6s-4.467 3-7.4 3c-2.933 0-5.433-1-7.5-3s-3.1-4.532-3.1-7.6z"/></g><g><path d="M1120.202 688.398c1.2-22.8 12-34.2 32.4-34.2 10.933 0 18.733 3.634 23.4 10.9 4.667 7.267 7 19.7 7 37.3v44.8l2.2 16.8h-15.8l-2-9.8c-2.933 4-6.6 6.967-11 8.9-4.4 1.933-9 2.9-13.8 2.9-8.133 0-14.5-2.567-19.1-7.7-4.6-5.133-6.9-12.1-6.9-20.9 0-12.533 4.5-22 13.5-28.4 9-6.4 21.033-9.6 36.1-9.6 0-12.4-.933-20.833-2.8-25.3-1.867-4.467-5.533-6.7-11-6.7-10.133 0-15.667 7-16.6 21h-15.6zm46.2 23c-22.267 0-33.4 8.333-33.4 25 0 10.933 4.933 16.4 14.8 16.4 5.6 0 10.1-1.967 13.5-5.9 3.4-3.933 5.1-10.167 5.1-18.7v-16.8zM1207.802 617.999h16.6v48.4c5.2-8.133 13.2-12.2 24-12.2 10.133 0 17.467 4.267 22 12.8 4.533 8.532 6.8 22.666 6.8 42.4 0 19.866-2.333 34.266-7 43.2-4.667 8.932-12.133 13.4-22.4 13.4-10.533 0-18.467-4-23.8-12l-3.6 10h-12.6v-146zm16.2 92.4c0 16 1.367 27.066 4.1 33.2 2.733 6.132 7.7 9.2 14.9 9.2 7.067 0 11.833-2.934 14.3-8.8 2.467-5.868 3.7-17.134 3.7-33.8 0-16.668-1.233-27.968-3.7-33.9-2.467-5.934-7.233-8.9-14.3-8.9-7.2 0-12.167 3.1-14.9 9.3-2.733 6.2-4.1 17.432-4.1 33.7zM1300.802 617.999h16.6v146h-16.6zM1358.602 714.198c.133 14.933 1.433 25.1 3.9 30.5 2.467 5.4 7.1 8.1 13.9 8.1 5.6 0 9.667-1.6 12.2-4.8 2.533-3.2 4.133-8.6 4.8-16.2h15.8c-2 22.8-13 34.2-33 34.2-12.267 0-21-4.267-26.2-12.8-5.2-8.533-7.8-22.933-7.8-43.2 0-20.267 2.6-34.633 7.8-43.1 5.2-8.466 13.933-12.7 26.2-12.7 12.4 0 21.233 4.2 26.5 12.6 5.267 8.4 7.9 22.4 7.9 42v5.4h-52zm35.4-12.6c-.267-13.067-1.633-22.033-4.1-26.9-2.467-4.867-6.967-7.3-13.5-7.3s-11.067 2.433-13.6 7.3c-2.533 4.867-3.933 13.833-4.2 26.9h35.4z"/></g></g><g fill-rule="nonzero"><path d="M175 546.999c0 8.4 1.367 14.967 4.1 19.7 2.733 4.732 6.967 7.1 12.7 7.1 4 0 7.433-1.234 10.3-3.7 2.867-2.468 4.3-6.1 4.3-10.9 0-6-2.167-10.767-6.5-14.3-4.333-3.533-9.3-7.033-14.9-10.5-8.4-5.067-15.667-10.8-21.8-17.2-6.133-6.4-9.2-15-9.2-25.8 0-11.067 3.433-20.033 10.3-26.9 6.867-6.867 16.367-10.3 28.5-10.3 13.867 0 23.733 4.467 29.6 13.4 5.867 8.933 8.8 20.6 8.8 35h-23.6c0-8-1.333-14.467-4-19.4-2.667-4.933-6.467-7.4-11.4-7.4-3.467 0-6.433 1.2-8.9 3.6-2.467 2.4-3.7 6.133-3.7 11.2 0 5.6 1.833 10.267 5.5 14 3.667 3.733 9.433 7.933 17.3 12.6 7.2 4.267 14 9.567 20.4 15.9 6.4 6.333 9.6 15.233 9.6 26.7 0 12.266-3.967 21.3-11.9 27.1-7.933 5.8-17.567 8.7-28.9 8.7-12.667 0-22.733-3.834-30.2-11.5-7.467-7.668-11.2-20.033-11.2-37.1H175zM276.4 545.399c0 12.533.833 20.833 2.5 24.9 1.667 4.066 5.033 6.1 10.1 6.1 4.667 0 8-1.368 10-4.1 2-2.734 3.133-7.3 3.4-13.7h23.8c-1.733 24.666-14.267 37-37.6 37-13.333 0-22.9-4.334-28.7-13-5.8-8.668-8.7-23.133-8.7-43.4s2.9-34.7 8.7-43.3c5.8-8.6 15.567-12.9 29.3-12.9s23.533 4.133 29.4 12.4c5.867 8.267 8.8 21.933 8.8 41v9h-51zm26-17.8c-.267-10-1.3-16.733-3.1-20.2-1.8-3.467-5.167-5.2-10.1-5.2-4.8 0-8.067 1.733-9.8 5.2-1.733 3.467-2.733 10.2-3 20.2h26zM369.8 539.399c0 14.533.667 24.333 2 29.4 1.333 5.066 4.467 7.6 9.4 7.6 3.733 0 6.4-1.3 8-3.9 1.6-2.6 2.533-7.3 2.8-14.1h23.8c-.267 13.066-3.6 22.532-10 28.4-6.4 5.866-15 8.8-25.8 8.8-12.267 0-21.2-4.1-26.8-12.3-5.6-8.2-8.4-23.1-8.4-44.7 0-20.4 2.7-34.767 8.1-43.1 5.4-8.333 14.7-12.5 27.9-12.5 10.933 0 19.433 2.833 25.5 8.5s9.233 15.233 9.5 28.7H392c-.267-6.8-1.233-11.467-2.9-14-1.667-2.533-4.3-3.8-7.9-3.8-4.933 0-8.067 2.533-9.4 7.6-1.333 5.067-2 14.867-2 29.4zM458.2 541.399c0 15.067.667 24.667 2 28.8 1.333 4.132 4.4 6.2 9.2 6.2 5.467 0 9.133-2.2 11-6.6 1.867-4.4 2.8-13.6 2.8-27.6v-57.2h25v108.6h-18.8l-5.8-10.8c-5.467 8.532-14.133 12.8-26 12.8-9.467 0-15.9-3.568-19.3-10.7-3.4-7.134-5.1-20.567-5.1-40.3v-59.6h25v56.4zM555 545.399c0 12.533.833 20.833 2.5 24.9 1.667 4.066 5.033 6.1 10.1 6.1 4.667 0 8-1.368 10-4.1 2-2.734 3.133-7.3 3.4-13.7h23.8c-1.733 24.666-14.267 37-37.6 37-13.333 0-22.9-4.334-28.7-13-5.8-8.668-8.7-23.133-8.7-43.4s2.9-34.7 8.7-43.3c5.8-8.6 15.567-12.9 29.3-12.9s23.533 4.133 29.4 12.4c5.867 8.267 8.8 21.933 8.8 41v9h-51zm26-17.8c-.267-10-1.3-16.733-3.1-20.2-1.8-3.467-5.167-5.2-10.1-5.2-4.8 0-8.067 1.733-9.8 5.2-1.733 3.467-2.733 10.2-3 20.2h26zM629.4 447.599h25v146h-25zM679.8 520.199c.267-13.333 3.533-22.867 9.8-28.6 6.267-5.733 15-8.6 26.2-8.6 12.533 0 21.433 3.867 26.7 11.6 5.267 7.733 7.9 21.667 7.9 41.8v37.8l2.8 19.4h-23.4l-2-10.4c-3.467 4.666-7.533 7.9-12.2 9.7-4.667 1.8-9.2 2.7-13.6 2.7-8.533 0-15.067-2.668-19.6-8-4.533-5.334-6.8-12.4-6.8-21.2 0-13.2 4.733-22.833 14.2-28.9 9.467-6.067 21.333-9.1 35.6-9.1-.267-10-1.033-16.833-2.3-20.5-1.267-3.667-3.833-5.5-7.7-5.5-3.733 0-6.6 1.333-8.6 4s-3.133 7.267-3.4 13.8h-23.6zm45.6 24c-16.933 0-25.4 6.333-25.4 19 0 8.8 3.733 13.2 11.2 13.2 3.6 0 6.867-1.4 9.8-4.2 2.933-2.8 4.4-8.2 4.4-16.2v-11.8zM808.6 455.999h26.6l21.6 96.2 21.8-96.2h26.6l-35 137.6h-26.6l-35-137.6z"/><g><path d="M912.6 520.199c.267-13.333 3.533-22.867 9.8-28.6 6.267-5.733 15-8.6 26.2-8.6 12.533 0 21.433 3.867 26.7 11.6 5.267 7.733 7.9 21.667 7.9 41.8v37.8l2.8 19.4h-23.4l-2-10.4c-3.467 4.666-7.533 7.9-12.2 9.7-4.667 1.8-9.2 2.7-13.6 2.7-8.533 0-15.067-2.668-19.6-8-4.533-5.334-6.8-12.4-6.8-21.2 0-13.2 4.733-22.833 14.2-28.9 9.467-6.067 21.333-9.1 35.6-9.1-.267-10-1.033-16.833-2.3-20.5-1.267-3.667-3.833-5.5-7.7-5.5-3.733 0-6.6 1.333-8.6 4s-3.133 7.267-3.4 13.8h-23.6zm45.6 24c-16.933 0-25.4 6.333-25.4 19 0 8.8 3.733 13.2 11.2 13.2 3.6 0 6.867-1.4 9.8-4.2 2.933-2.8 4.4-8.2 4.4-16.2v-11.8zM1007.6 484.999h19l5.6 11c2.4-4.133 5.967-7.333 10.7-9.6 4.733-2.267 9.5-3.4 14.3-3.4.933 0 2.333.133 4.2.4v20.8c-1.067-.267-2.667-.4-4.8-.4-6.933 0-12.667 2-17.2 6-4.533 4-6.8 11.667-6.8 23v60.8h-25v-108.6zM1078 593.598v-108.6h25v108.6h-25zm-2-136.2c0-4 1.4-7.4 4.2-10.2 2.8-2.8 6.2-4.2 10.2-4.2 4 0 7.4 1.4 10.2 4.2 2.8 2.8 4.2 6.2 4.2 10.2 0 4-1.4 7.4-4.2 10.2-2.8 2.8-6.2 4.2-10.2 4.2-4 0-7.4-1.4-10.2-4.2-2.8-2.8-4.2-6.2-4.2-10.2z"/></g><g><path d="M1129.202 520.199c.267-13.333 3.533-22.867 9.8-28.6 6.267-5.733 15-8.6 26.2-8.6 12.533 0 21.433 3.867 26.7 11.6 5.267 7.733 7.9 21.667 7.9 41.8v37.8l2.8 19.4h-23.4l-2-10.4c-3.467 4.666-7.533 7.9-12.2 9.7-4.667 1.8-9.2 2.7-13.6 2.7-8.533 0-15.067-2.668-19.6-8-4.533-5.334-6.8-12.4-6.8-21.2 0-13.2 4.733-22.833 14.2-28.9 9.467-6.067 21.333-9.1 35.6-9.1-.267-10-1.033-16.833-2.3-20.5-1.267-3.667-3.833-5.5-7.7-5.5-3.733 0-6.6 1.333-8.6 4s-3.133 7.267-3.4 13.8h-23.6zm45.6 24c-16.933 0-25.4 6.333-25.4 19 0 8.8 3.733 13.2 11.2 13.2 3.6 0 6.867-1.4 9.8-4.2 2.933-2.8 4.4-8.2 4.4-16.2v-11.8zM1224.002 447.599h25v48.4c2.267-3.733 5.767-6.833 10.5-9.3 4.733-2.467 9.9-3.7 15.5-3.7 9.333 0 16.1 4.2 20.3 12.6 4.2 8.4 6.3 22.333 6.3 41.8 0 20.4-2.233 35.2-6.7 44.4-4.467 9.2-11.5 13.8-21.1 13.8-5.333 0-10.267-1.1-14.8-3.3-4.533-2.2-8-5.1-10.4-8.7l-5.6 10h-19v-146zm24.8 92.2c0 14.267 1 23.933 3 29 2 5.066 6 7.6 12 7.6 5.333 0 8.867-2.4 10.6-7.2 1.733-4.8 2.6-14.8 2.6-30s-.867-25.167-2.6-29.9c-1.733-4.733-5.267-7.1-10.6-7.1-5.867 0-9.833 2.6-11.9 7.8-2.067 5.2-3.1 15.133-3.1 29.8zM1325.002 447.599h25v146h-25zM1398.802 545.399c0 12.533.833 20.833 2.5 24.9 1.667 4.066 5.033 6.1 10.1 6.1 4.667 0 8-1.368 10-4.1 2-2.734 3.133-7.3 3.4-13.7h23.8c-1.733 24.666-14.267 37-37.6 37-13.333 0-22.9-4.334-28.7-13-5.8-8.668-8.7-23.133-8.7-43.4s2.9-34.7 8.7-43.3c5.8-8.6 15.567-12.9 29.3-12.9s23.533 4.133 29.4 12.4c5.867 8.267 8.8 21.933 8.8 41v9h-51zm26-17.8c-.267-10-1.3-16.733-3.1-20.2-1.8-3.467-5.167-5.2-10.1-5.2-4.8 0-8.067 1.733-9.8 5.2-1.733 3.467-2.733 10.2-3 20.2h26z"/></g></g><g fill-rule="nonzero"><path d="M150.5 376.2c0 10 1.8 17.867 5.4 23.6 3.6 5.732 8.933 8.6 16 8.6 5.733 0 10.4-1.834 14-5.5 3.6-3.668 5.4-8.7 5.4-15.1 0-7.2-2.333-12.9-7-17.1-4.667-4.2-10.067-8.1-16.2-11.7-10-6.267-17.567-12.6-22.7-19-5.133-6.4-7.7-14.267-7.7-23.6 0-10.8 3.033-19.3 9.1-25.5 6.067-6.2 14.5-9.3 25.3-9.3 12.267 0 21.367 4.2 27.3 12.6 5.933 8.4 8.9 19.867 8.9 34.4h-16.2c0-10-1.767-17.867-5.3-23.6-3.533-5.733-8.567-8.6-15.1-8.6-4.933 0-8.933 1.633-12 4.9-3.067 3.267-4.6 8.033-4.6 14.3 0 7.733 2.333 13.8 7 18.2 4.667 4.4 10.6 8.867 17.8 13.4 7.067 4.267 13.667 9.5 19.8 15.7 6.133 6.2 9.2 14.767 9.2 25.7 0 10.932-3.433 19.4-10.3 25.4-6.867 6-15.767 9-26.7 9-12.133 0-21.5-3.834-28.1-11.5-6.6-7.668-9.9-19.433-9.9-35.3h16.6zM245.1 371.2c.133 14.933 1.433 25.1 3.9 30.5 2.467 5.4 7.1 8.1 13.9 8.1 5.6 0 9.667-1.6 12.2-4.8 2.533-3.2 4.133-8.6 4.8-16.2h15.8c-2 22.8-13 34.2-33 34.2-12.267 0-21-4.268-26.2-12.8-5.2-8.534-7.8-22.933-7.8-43.2 0-20.267 2.6-34.633 7.8-43.1 5.2-8.467 13.933-12.7 26.2-12.7 12.4 0 21.233 4.2 26.5 12.6 5.267 8.4 7.9 22.4 7.9 42v5.4h-52zm35.4-12.6c-.267-13.067-1.633-22.033-4.1-26.9-2.467-4.867-6.967-7.3-13.5-7.3s-11.067 2.433-13.6 7.3c-2.533 4.867-3.933 13.833-4.2 26.9h35.4zM330.5 367.2c0 16.8 1.067 28.1 3.2 33.9 2.133 5.8 6.6 8.7 13.4 8.7 5.2 0 8.933-1.534 11.2-4.6 2.267-3.068 3.667-8.533 4.2-16.4h15.4c-.667 12.132-3.633 20.866-8.9 26.2-5.267 5.332-12.9 8-22.9 8-11.6 0-19.8-4.034-24.6-12.1-4.8-8.068-7.2-22.567-7.2-43.5s2.367-35.533 7.1-43.8c4.733-8.267 13.167-12.4 25.3-12.4 9.867 0 17.4 2.633 22.6 7.9 5.2 5.267 8.133 14.033 8.8 26.3h-15.6c-.667-7.867-2.133-13.333-4.4-16.4-2.267-3.067-6-4.6-11.2-4.6-6.667 0-11.067 2.9-13.2 8.7-2.133 5.8-3.2 17.167-3.2 34.1zM439.1 372.2c0 15.333.933 25.433 2.8 30.3 1.867 4.866 5.6 7.3 11.2 7.3 6.8 0 11.633-2.668 14.5-8 2.867-5.333 4.3-14.533 4.3-27.6v-61h16.6V421h-12.4l-3.8-10.4c-5.867 8.266-14.267 12.4-25.2 12.4-9.333 0-15.767-3.3-19.3-9.9-3.533-6.6-5.3-18.833-5.3-36.7v-63.2h16.6v59zM538.1 371.2c.133 14.933 1.433 25.1 3.9 30.5 2.467 5.4 7.1 8.1 13.9 8.1 5.6 0 9.667-1.6 12.2-4.8 2.533-3.2 4.133-8.6 4.8-16.2h15.8c-2 22.8-13 34.2-33 34.2-12.267 0-21-4.268-26.2-12.8-5.2-8.534-7.8-22.933-7.8-43.2 0-20.267 2.6-34.633 7.8-43.1 5.2-8.467 13.933-12.7 26.2-12.7 12.4 0 21.233 4.2 26.5 12.6 5.267 8.4 7.9 22.4 7.9 42v5.4h-52zm35.4-12.6c-.267-13.067-1.633-22.033-4.1-26.9-2.467-4.867-6.967-7.3-13.5-7.3s-11.067 2.433-13.6 7.3c-2.533 4.867-3.933 13.833-4.2 26.9h35.4zM624.1 275h16.6v146h-16.6zM674.1 345.4c1.2-22.8 12-34.2 32.4-34.2 10.933 0 18.733 3.633 23.4 10.9 4.667 7.267 7 19.7 7 37.3v44.8l2.2 16.8h-15.8l-2-9.8c-2.933 4-6.6 6.966-11 8.9-4.4 1.932-9 2.9-13.8 2.9-8.133 0-14.5-2.568-19.1-7.7-4.6-5.134-6.9-12.1-6.9-20.9 0-12.533 4.5-22 13.5-28.4 9-6.4 21.033-9.6 36.1-9.6 0-12.4-.933-20.833-2.8-25.3-1.867-4.467-5.533-6.7-11-6.7-10.133 0-15.667 7-16.6 21h-15.6zm46.2 23c-22.267 0-33.4 8.333-33.4 25 0 10.932 4.933 16.4 14.8 16.4 5.6 0 10.1-1.968 13.5-5.9 3.4-3.934 5.1-10.167 5.1-18.7v-16.8zM795.7 283.6h17.6l26.2 107.2 26.4-107.2h17.6L848.3 421h-17.6l-35-137.4z"/><g><path d="M911.7 345.4c1.2-22.8 12-34.2 32.4-34.2 10.933 0 18.733 3.633 23.4 10.9 4.667 7.267 7 19.7 7 37.3v44.8l2.2 16.8h-15.8l-2-9.8c-2.933 4-6.6 6.966-11 8.9-4.4 1.932-9 2.9-13.8 2.9-8.133 0-14.5-2.568-19.1-7.7-4.6-5.134-6.9-12.1-6.9-20.9 0-12.533 4.5-22 13.5-28.4 9-6.4 21.033-9.6 36.1-9.6 0-12.4-.933-20.833-2.8-25.3-1.867-4.467-5.533-6.7-11-6.7-10.133 0-15.667 7-16.6 21h-15.6zm46.2 23c-22.267 0-33.4 8.333-33.4 25 0 10.932 4.933 16.4 14.8 16.4 5.6 0 10.1-1.968 13.5-5.9 3.4-3.934 5.1-10.167 5.1-18.7v-16.8zM999.7 313.2h12.6l3.6 10.2c2.8-4.4 6.3-7.567 10.5-9.5 4.2-1.933 8.633-2.9 13.3-2.9 1.2 0 2.867.133 5 .4v14.2c-1.733-.4-3.667-.6-5.8-.6-6.133 0-11.433 1.867-15.9 5.6-4.467 3.733-6.7 10.8-6.7 21.2V421h-16.6V313.2zM1062.9 421V313.2h16.6V421h-16.6zm-2.2-133.4c0-3.067 1.033-5.6 3.1-7.6s4.567-3 7.5-3 5.4 1 7.4 3 3 4.533 3 7.6c0 3.067-1 5.6-3 7.6s-4.467 3-7.4 3c-2.933 0-5.433-1-7.5-3s-3.1-4.533-3.1-7.6z"/></g><g><path d="M1135.902 345.4c1.2-22.8 12-34.2 32.4-34.2 10.933 0 18.733 3.633 23.4 10.9 4.667 7.267 7 19.7 7 37.3v44.8l2.2 16.8h-15.8l-2-9.8c-2.933 4-6.6 6.966-11 8.9-4.4 1.932-9 2.9-13.8 2.9-8.133 0-14.5-2.568-19.1-7.7-4.6-5.134-6.9-12.1-6.9-20.9 0-12.533 4.5-22 13.5-28.4 9-6.4 21.033-9.6 36.1-9.6 0-12.4-.933-20.833-2.8-25.3-1.867-4.467-5.533-6.7-11-6.7-10.133 0-15.667 7-16.6 21h-15.6zm46.2 23c-22.267 0-33.4 8.333-33.4 25 0 10.932 4.933 16.4 14.8 16.4 5.6 0 10.1-1.968 13.5-5.9 3.4-3.934 5.1-10.167 5.1-18.7v-16.8zM1223.502 275h16.6v48.4c5.2-8.133 13.2-12.2 24-12.2 10.133 0 17.467 4.267 22 12.8 4.533 8.533 6.8 22.667 6.8 42.4 0 19.867-2.333 34.266-7 43.2-4.667 8.932-12.133 13.4-22.4 13.4-10.533 0-18.467-4-23.8-12l-3.6 10h-12.6V275zm16.2 92.4c0 16 1.367 27.067 4.1 33.2 2.733 6.132 7.7 9.2 14.9 9.2 7.067 0 11.833-2.934 14.3-8.8 2.467-5.867 3.7-17.133 3.7-33.8 0-16.667-1.233-27.967-3.7-33.9s-7.233-8.9-14.3-8.9c-7.2 0-12.167 3.1-14.9 9.3-2.733 6.2-4.1 17.433-4.1 33.7zM1316.502 275h16.6v146h-16.6zM1374.302 371.2c.133 14.933 1.433 25.1 3.9 30.5 2.467 5.4 7.1 8.1 13.9 8.1 5.6 0 9.667-1.6 12.2-4.8 2.533-3.2 4.133-8.6 4.8-16.2h15.8c-2 22.8-13 34.2-33 34.2-12.267 0-21-4.268-26.2-12.8-5.2-8.534-7.8-22.933-7.8-43.2 0-20.267 2.6-34.633 7.8-43.1 5.2-8.467 13.933-12.7 26.2-12.7 12.4 0 21.233 4.2 26.5 12.6 5.267 8.4 7.9 22.4 7.9 42v5.4h-52zm35.4-12.6c-.267-13.067-1.633-22.033-4.1-26.9-2.467-4.867-6.967-7.3-13.5-7.3s-11.067 2.433-13.6 7.3c-2.533 4.867-3.933 13.833-4.2 26.9h35.4z"/></g></g><g fill-rule="nonzero"><path d="M114.1 198.2c0 18 4 30.8 12 38.4 8 7.6 18.533 11.4 31.6 11.4 11.467 0 21.567-2.867 30.3-8.6s13.1-15.133 13.1-28.2c0-11.733-3.367-20.8-10.1-27.2-6.733-6.4-13.7-11.733-20.9-16-8.267-5.067-13.867-9.233-16.8-12.5-2.933-3.267-4.4-6.9-4.4-10.9 0-4.267 1.067-7.3 3.2-9.1 2.133-1.8 4.333-2.7 6.6-2.7 3.867 0 6.833 2.2 8.9 6.6 2.067 4.4 3.1 9.933 3.1 16.6h28.8c0-14.133-2.933-25.933-8.8-35.4-5.867-9.467-16.267-14.2-31.2-14.2-13.067 0-23.333 3.667-30.8 11-7.467 7.333-11.2 16.667-11.2 28 0 11.733 3.433 20.833 10.3 27.3 6.867 6.467 13.9 11.833 21.1 16.1 5.467 3.067 10.2 6.2 14.2 9.4s6 7.333 6 12.4c0 3.867-1.133 6.667-3.4 8.4-2.267 1.733-4.867 2.6-7.8 2.6-4.933 0-8.433-2.1-10.5-6.3-2.067-4.2-3.1-9.9-3.1-17.1h-30.2zM300.3 198.8v-11.4c0-18.533-3.2-31.9-9.6-40.1-6.4-8.2-16.867-12.3-31.4-12.3-14.533 0-24.9 4.3-31.1 12.9-6.2 8.6-9.3 23.033-9.3 43.3 0 20.4 3.1 34.967 9.3 43.7 6.2 8.733 16.367 13.1 30.5 13.1 12.8 0 22.533-3.233 29.2-9.7 6.667-6.467 10.467-16.233 11.4-29.3h-29.2c0 5.733-.833 9.833-2.5 12.3-1.667 2.467-4.5 3.7-8.5 3.7-3.867 0-6.4-1.633-7.6-4.9-1.2-3.267-1.8-10.367-1.8-21.3h50.6zm-30.8-21h-19.8c.267-8 1.033-13.3 2.3-15.9 1.267-2.6 3.767-3.9 7.5-3.9 3.867 0 6.433 1.3 7.7 3.9 1.267 2.6 2.033 7.9 2.3 15.9zM348.5 191.6c0-13.2.4-22.067 1.2-26.6.8-4.533 3-6.8 6.6-6.8 2.667 0 4.633 1.167 5.9 3.5 1.267 2.333 1.9 6.5 1.9 12.5h29.4c0-14.4-3.333-24.533-10-30.4-6.667-5.867-15.867-8.8-27.6-8.8-14 0-23.867 4.133-29.6 12.4-5.733 8.267-8.6 22.533-8.6 42.8 0 22 3.067 37.133 9.2 45.4 6.133 8.267 15.533 12.4 28.2 12.4 11.467 0 20.7-3.1 27.7-9.3 7-6.2 10.5-16.167 10.5-29.9h-29.2c0 6.267-.6 10.533-1.8 12.8-1.2 2.267-3.133 3.4-5.8 3.4-3.733 0-6-2.267-6.8-6.8-.8-4.533-1.2-13.4-1.2-26.6zM440.7 137h-30.8v57.2c0 20.933 1.7 35.133 5.1 42.6 3.4 7.467 9.9 11.2 19.5 11.2 6 0 11.3-1.133 15.9-3.4s8.1-5.533 10.5-9.8l7.2 11.2h23.2V137h-30.8v54.4c0 14.533-.6 23.767-1.8 27.7-1.2 3.933-4.133 5.9-8.8 5.9-2 0-3.633-.333-4.9-1-1.267-.667-2.2-2.167-2.8-4.5-.6-2.333-1-5.7-1.2-10.1-.2-4.4-.3-10.333-.3-17.8V137zM593.9 198.8v-11.4c0-18.533-3.2-31.9-9.6-40.1-6.4-8.2-16.867-12.3-31.4-12.3-14.533 0-24.9 4.3-31.1 12.9-6.2 8.6-9.3 23.033-9.3 43.3 0 20.4 3.1 34.967 9.3 43.7 6.2 8.733 16.367 13.1 30.5 13.1 12.8 0 22.533-3.233 29.2-9.7 6.667-6.467 10.467-16.233 11.4-29.3h-29.2c0 5.733-.833 9.833-2.5 12.3-1.667 2.467-4.5 3.7-8.5 3.7-3.867 0-6.4-1.633-7.6-4.9-1.2-3.267-1.8-10.367-1.8-21.3h50.6zm-30.8-21h-19.8c.267-8 1.033-13.3 2.3-15.9 1.267-2.6 3.767-3.9 7.5-3.9 3.867 0 6.433 1.3 7.7 3.9 1.267 2.6 2.033 7.9 2.3 15.9zM616.1 100h30.8v146h-30.8zM671.7 174.2h28.6c0-6 .833-10.167 2.5-12.5s3.833-3.5 6.5-3.5c3.067 0 5 1.567 5.8 4.7.8 3.133 1.333 8.967 1.6 17.5-13.733 0-25.467 2.9-35.2 8.7-9.733 5.8-14.6 15.567-14.6 29.3 0 8.8 2.267 15.933 6.8 21.4 4.533 5.467 11.133 8.2 19.8 8.2 4.133 0 8.6-.867 13.4-2.6 4.8-1.733 9.133-5.067 13-10l2.2 10.6h28.6l-3.2-21.2v-33.2c0-21.6-2.833-36.433-8.5-44.5S723.633 135 709.9 135c-12 0-21.367 2.9-28.1 8.7-6.733 5.8-10.1 15.967-10.1 30.5zm45 24.6v8.6c0 7.6-1.3 12.433-3.9 14.5-2.6 2.067-4.967 3.1-7.1 3.1-3.067 0-5.3-1.1-6.7-3.3-1.4-2.2-2.1-4.9-2.1-8.1 0-5.2 1.7-8.967 5.1-11.3 3.4-2.333 8.3-3.5 14.7-3.5zM839.9 246h32.6l35-137.6h-32.6L856.1 197l-18.4-88.6h-32.6L839.9 246z"/><g><path d="M914.1 174.2h28.6c0-6 .833-10.167 2.5-12.5s3.833-3.5 6.5-3.5c3.067 0 5 1.567 5.8 4.7.8 3.133 1.333 8.967 1.6 17.5-13.733 0-25.467 2.9-35.2 8.7-9.733 5.8-14.6 15.567-14.6 29.3 0 8.8 2.267 15.933 6.8 21.4 4.533 5.467 11.133 8.2 19.8 8.2 4.133 0 8.6-.867 13.4-2.6 4.8-1.733 9.133-5.067 13-10l2.2 10.6h28.6l-3.2-21.2v-33.2c0-21.6-2.833-36.433-8.5-44.5S966.033 135 952.3 135c-12 0-21.367 2.9-28.1 8.7-6.733 5.8-10.1 15.967-10.1 30.5zm45 24.6v8.6c0 7.6-1.3 12.433-3.9 14.5-2.6 2.067-4.967 3.1-7.1 3.1-3.067 0-5.3-1.1-6.7-3.3-1.4-2.2-2.1-4.9-2.1-8.1 0-5.2 1.7-8.967 5.1-11.3 3.4-2.333 8.3-3.5 14.7-3.5zM1013.3 246h30.8v-55c0-12.133 2.3-20.3 6.9-24.5 4.6-4.2 10.567-6.3 17.9-6.3h2.1c.733 0 1.433.067 2.1.2v-25.2c-5.067-.8-10.6.067-16.6 2.6-6 2.533-10.267 6-12.8 10.4l-6.8-11.2h-23.6v109zM1119.5 246V137h-30.8v109h30.8zm-32.4-138.2c0 4.667 1.667 8.667 5 12s7.333 5 12 5 8.667-1.667 12-5 5-7.333 5-12-1.667-8.667-5-12-7.333-5-12-5-8.667 1.667-12 5-5 7.333-5 12z"/></g><g><path d="M1145.502 174.2h28.6c0-6 .833-10.167 2.5-12.5s3.833-3.5 6.5-3.5c3.067 0 5 1.567 5.8 4.7.8 3.133 1.333 8.967 1.6 17.5-13.733 0-25.467 2.9-35.2 8.7-9.733 5.8-14.6 15.567-14.6 29.3 0 8.8 2.267 15.933 6.8 21.4 4.533 5.467 11.133 8.2 19.8 8.2 4.133 0 8.6-.867 13.4-2.6 4.8-1.733 9.133-5.067 13-10l2.2 10.6h28.6l-3.2-21.2v-33.2c0-21.6-2.833-36.433-8.5-44.5s-15.367-12.1-29.1-12.1c-12 0-21.367 2.9-28.1 8.7-6.733 5.8-10.1 15.967-10.1 30.5zm45 24.6v8.6c0 7.6-1.3 12.433-3.9 14.5-2.6 2.067-4.967 3.1-7.1 3.1-3.067 0-5.3-1.1-6.7-3.3-1.4-2.2-2.1-4.9-2.1-8.1 0-5.2 1.7-8.967 5.1-11.3 3.4-2.333 8.3-3.5 14.7-3.5zM1244.702 246h23.6l6.8-10c2.267 3.467 5.833 6.333 10.7 8.6 4.867 2.267 9.967 3.4 15.3 3.4 9.2 0 16-4.7 20.4-14.1 4.4-9.4 6.6-24.433 6.6-45.1 0-19.467-2-33.3-6-41.5-4-8.2-10.4-12.3-19.2-12.3-5.733 0-11.233 1.333-16.5 4-5.267 2.667-8.9 5.733-10.9 9.2V100h-30.8v146zm30.6-53.8c0-13.733.833-22.867 2.5-27.4 1.667-4.533 4.9-6.8 9.7-6.8 4.267 0 7.033 2.033 8.3 6.1 1.267 4.067 1.9 13.167 1.9 27.3 0 14.267-.633 23.433-1.9 27.5s-4.033 6.1-8.3 6.1c-4.933 0-8.2-2.2-9.8-6.6-1.6-4.4-2.4-13.133-2.4-26.2zM1351.102 100h30.8v146h-30.8zM1485.902 198.8v-11.4c0-18.533-3.2-31.9-9.6-40.1-6.4-8.2-16.867-12.3-31.4-12.3-14.533 0-24.9 4.3-31.1 12.9-6.2 8.6-9.3 23.033-9.3 43.3 0 20.4 3.1 34.967 9.3 43.7 6.2 8.733 16.367 13.1 30.5 13.1 12.8 0 22.533-3.233 29.2-9.7 6.667-6.467 10.467-16.233 11.4-29.3h-29.2c0 5.733-.833 9.833-2.5 12.3-1.667 2.467-4.5 3.7-8.5 3.7-3.867 0-6.4-1.633-7.6-4.9-1.2-3.267-1.8-10.367-1.8-21.3h50.6zm-30.8-21h-19.8c.267-8 1.033-13.3 2.3-15.9 1.267-2.6 3.767-3.9 7.5-3.9 3.867 0 6.433 1.3 7.7 3.9 1.267 2.6 2.033 7.9 2.3 15.9z"/></g></g><g fill-rule="nonzero"><path d="M237.1 1223.999c0 10.667 1.967 18.967 5.9 24.9 3.933 5.933 9.633 8.9 17.1 8.9 6.267 0 11.367-2 15.3-6s5.9-9.4 5.9-16.2c0-7.867-2.433-13.933-7.3-18.2-4.867-4.267-10.367-8.333-16.5-12.2-10.8-6.533-18.533-13-23.2-19.4-4.667-6.4-7-14.067-7-23 0-10.533 2.9-18.8 8.7-24.8 5.8-6 13.767-9 23.9-9 11.733 0 20.567 4.033 26.5 12.1s8.9 19.433 8.9 34.1h-13.4c0-10.533-1.933-18.833-5.8-24.9s-9.333-9.1-16.4-9.1c-5.6 0-10 1.8-13.2 5.4-3.2 3.6-4.8 8.733-4.8 15.4 0 8.533 2.533 15.133 7.6 19.8 5.067 4.667 11.067 9.133 18 13.4 7.067 4.267 13.567 9.5 19.5 15.7 5.933 6.2 8.9 14.7 8.9 25.5 0 10.533-3.233 18.8-9.7 24.8-6.467 6-15.1 9-25.9 9-24.667 0-37-15.4-37-46.2h14zM329.9 1217.999c.133 15.733 1.533 26.467 4.2 32.2 2.667 5.733 7.667 8.6 15 8.6 6 0 10.367-1.633 13.1-4.9 2.733-3.267 4.433-8.9 5.1-16.9h13.2c-2 22.133-12.533 33.2-31.6 33.2-11.867 0-20.3-4.233-25.3-12.7-5-8.467-7.5-22.833-7.5-43.1 0-20.267 2.5-34.633 7.5-43.1 5-8.467 13.5-12.7 25.5-12.7 11.867 0 20.3 4.233 25.3 12.7 5 8.467 7.5 22.633 7.5 42.5v4.2h-52zm38.4-11.2c-.267-14.133-1.767-23.8-4.5-29-2.733-5.2-7.633-7.8-14.7-7.8-7.2 0-12.133 2.6-14.8 7.8-2.667 5.2-4.133 14.867-4.4 29h38.4zM412.5 1214.399c0 17.467 1.233 29.233 3.7 35.3 2.467 6.067 7.367 9.1 14.7 9.1 5.733 0 9.833-1.6 12.3-4.8 2.467-3.2 4.033-8.867 4.7-17h12.8c-.933 11.733-3.9 20.2-8.9 25.4-5 5.2-12.3 7.8-21.9 7.8-11.333 0-19.267-4-23.8-12-4.533-8-6.8-22.4-6.8-43.2 0-21.067 2.3-35.733 6.9-44 4.6-8.267 12.767-12.4 24.5-12.4 9.467 0 16.6 2.6 21.4 7.8 4.8 5.2 7.667 13.667 8.6 25.4h-12.8c-.8-8.267-2.433-13.967-4.9-17.1-2.467-3.133-6.5-4.7-12.1-4.7-7.333 0-12.233 3.033-14.7 9.1-2.467 6.067-3.7 17.833-3.7 35.3zM493.3 1220.399c0 15.6 1 25.9 3 30.9s6 7.5 12 7.5c7.2 0 12.4-2.8 15.6-8.4 3.2-5.6 4.8-14.733 4.8-27.4v-62.4h13.6v107.6h-10.2l-3-10.2c-6.4 8.133-14.733 12.2-25 12.2-9.333 0-15.733-3.2-19.2-9.6-3.467-6.4-5.2-18.267-5.2-35.6v-64.4h13.6v59.8zM578.3 1217.999c.133 15.733 1.533 26.467 4.2 32.2 2.667 5.733 7.667 8.6 15 8.6 6 0 10.367-1.633 13.1-4.9 2.733-3.267 4.433-8.9 5.1-16.9h13.2c-2 22.133-12.533 33.2-31.6 33.2-11.867 0-20.3-4.233-25.3-12.7-5-8.467-7.5-22.833-7.5-43.1 0-20.267 2.5-34.633 7.5-43.1 5-8.467 13.5-12.7 25.5-12.7 11.867 0 20.3 4.233 25.3 12.7 5 8.467 7.5 22.633 7.5 42.5v4.2h-52zm38.4-11.2c-.267-14.133-1.767-23.8-4.5-29-2.733-5.2-7.633-7.8-14.7-7.8-7.2 0-12.133 2.6-14.8 7.8-2.667 5.2-4.133 14.867-4.4 29h38.4zM655.7 1122.2h13.6v145.999h-13.6z"/><g><path d="M695.9 1191.799c1.6-22.133 12.067-33.2 31.4-33.2 10.4 0 17.8 3.533 22.2 10.6 4.4 7.067 6.6 19.067 6.6 36v47.2l2 15.8h-13.2l-1.8-9.8c-2.667 3.867-6.167 6.8-10.5 8.8-4.333 2-9.033 3-14.1 3-8.133 0-14.467-2.533-19-7.6-4.533-5.067-6.8-12-6.8-20.8 0-12.133 4.433-21.5 13.3-28.1 8.867-6.6 20.967-9.9 36.3-9.9-.133-13.067-1.233-21.967-3.3-26.7-2.067-4.733-6.033-7.1-11.9-7.1-10.8 0-16.8 7.267-18 21.8h-13.2zm46.6 22.6c-24.267 0-36.4 9.067-36.4 27.2 0 11.467 5.333 17.2 16 17.2 13.6 0 20.4-8.667 20.4-26v-18.4zM815.1 1130.8h14.6l28 110.999 27.8-111h14.6l-35.2 137.4h-14.6l-35.2-137.4z"/></g><g><path d="M909.5 1191.799c1.6-22.133 12.067-33.2 31.4-33.2 10.4 0 17.8 3.533 22.2 10.6 4.4 7.067 6.6 19.067 6.6 36v47.2l2 15.8h-13.2l-1.8-9.8c-2.667 3.867-6.167 6.8-10.5 8.8-4.333 2-9.033 3-14.1 3-8.133 0-14.467-2.533-19-7.6-4.533-5.067-6.8-12-6.8-20.8 0-12.133 4.433-21.5 13.3-28.1 8.867-6.6 20.967-9.9 36.3-9.9-.133-13.067-1.233-21.967-3.3-26.7-2.067-4.733-6.033-7.1-11.9-7.1-10.8 0-16.8 7.267-18 21.8h-13.2zm46.6 22.6c-24.267 0-36.4 9.067-36.4 27.2 0 11.467 5.333 17.2 16 17.2 13.6 0 20.4-8.667 20.4-26v-18.4zM995.5 1160.6h10.2l3 10.2c5.2-8.134 12.933-12.2 23.2-12.2 1.067 0 2.933.132 5.6.4v12c-1.733-.534-3.8-.8-6.2-.8-6 0-11.2 1.8-15.6 5.4-4.4 3.6-6.6 10.4-6.6 20.399v72.2h-13.6v-107.6zM1056.1 1268.199v-107.6h13.6v107.6h-13.6zm-2.6-132.4c0-2.667.9-4.867 2.7-6.6 1.8-1.733 4.033-2.6 6.7-2.6 2.533 0 4.667.867 6.4 2.6 1.733 1.733 2.6 3.933 2.6 6.6s-.867 4.9-2.6 6.7c-1.733 1.8-3.867 2.7-6.4 2.7-2.667 0-4.9-.9-6.7-2.7-1.8-1.8-2.7-4.033-2.7-6.7zM1096.9 1191.799c1.6-22.133 12.067-33.2 31.4-33.2 10.4 0 17.8 3.533 22.2 10.6 4.4 7.067 6.6 19.067 6.6 36v47.2l2 15.8h-13.2l-1.8-9.8c-2.667 3.867-6.167 6.8-10.5 8.8-4.333 2-9.033 3-14.1 3-8.133 0-14.467-2.533-19-7.6-4.533-5.067-6.8-12-6.8-20.8 0-12.133 4.433-21.5 13.3-28.1 8.867-6.6 20.967-9.9 36.3-9.9-.133-13.067-1.233-21.967-3.3-26.7-2.067-4.733-6.033-7.1-11.9-7.1-10.8 0-16.8 7.267-18 21.8h-13.2zm46.6 22.6c-24.267 0-36.4 9.067-36.4 27.2 0 11.467 5.333 17.2 16 17.2 13.6 0 20.4-8.667 20.4-26v-18.4zM1182.3 1122.2h13.6v48.6c5.333-8.134 13.133-12.2 23.4-12.2 10.4 0 17.9 4.332 22.5 13 4.6 8.666 6.9 22.799 6.9 42.399 0 19.867-2.333 34.2-7 43-4.667 8.8-12.2 13.2-22.6 13.2-10.267 0-18.133-4-23.6-12l-3 10h-10.2v-146zm13.4 92.399c0 16.667 1.467 28.2 4.4 34.6 2.933 6.4 8.267 9.6 16 9.6 7.467 0 12.567-3.1 15.3-9.3 2.733-6.2 4.1-17.9 4.1-35.1 0-17.2-1.367-28.9-4.1-35.1-2.733-6.2-7.833-9.3-15.3-9.3-7.733 0-13.067 3.233-16 9.7-2.933 6.467-4.4 18.1-4.4 34.9zM1272.5 1122.2h13.6v145.999h-13.6zM1325.3 1217.999c.133 15.733 1.533 26.467 4.2 32.2 2.667 5.733 7.667 8.6 15 8.6 6 0 10.367-1.633 13.1-4.9 2.733-3.267 4.433-8.9 5.1-16.9h13.2c-2 22.133-12.533 33.2-31.6 33.2-11.867 0-20.3-4.233-25.3-12.7-5-8.467-7.5-22.833-7.5-43.1 0-20.267 2.5-34.633 7.5-43.1 5-8.467 13.5-12.7 25.5-12.7 11.867 0 20.3 4.233 25.3 12.7 5 8.467 7.5 22.633 7.5 42.5v4.2h-52zm38.4-11.2c-.267-14.133-1.767-23.8-4.5-29-2.733-5.2-7.633-7.8-14.7-7.8-7.2 0-12.133 2.6-14.8 7.8-2.667 5.2-4.133 14.867-4.4 29h38.4z"/></g></g><g fill-rule="nonzero"><path d="M221.8 1055.398c0 10 1.8 17.867 5.4 23.6 3.6 5.733 8.933 8.6 16 8.6 5.733 0 10.4-1.833 14-5.5 3.6-3.667 5.4-8.7 5.4-15.1 0-7.2-2.333-12.9-7-17.1-4.667-4.2-10.067-8.1-16.2-11.7-10-6.267-17.567-12.6-22.7-19-5.133-6.4-7.7-14.267-7.7-23.6 0-10.8 3.033-19.3 9.1-25.5 6.067-6.2 14.5-9.3 25.3-9.3 12.267 0 21.367 4.2 27.3 12.6 5.933 8.4 8.9 19.867 8.9 34.4h-16.2c0-10-1.767-17.867-5.3-23.6-3.533-5.733-8.567-8.6-15.1-8.6-4.933 0-8.933 1.633-12 4.9-3.067 3.267-4.6 8.033-4.6 14.3 0 7.733 2.333 13.8 7 18.2 4.667 4.4 10.6 8.867 17.8 13.4 7.067 4.267 13.667 9.5 19.8 15.7 6.133 6.2 9.2 14.767 9.2 25.7s-3.433 19.4-10.3 25.4c-6.867 6-15.767 9-26.7 9-12.133 0-21.5-3.833-28.1-11.5-6.6-7.667-9.9-19.433-9.9-35.3h16.6zM316.4 1050.398c.133 14.933 1.433 25.1 3.9 30.5 2.467 5.4 7.1 8.1 13.9 8.1 5.6 0 9.667-1.6 12.2-4.8 2.533-3.2 4.133-8.6 4.8-16.2H367c-2 22.8-13 34.2-33 34.2-12.267 0-21-4.267-26.2-12.8-5.2-8.533-7.8-22.933-7.8-43.2 0-20.267 2.6-34.633 7.8-43.1 5.2-8.467 13.933-12.7 26.2-12.7 12.4 0 21.233 4.2 26.5 12.6 5.267 8.4 7.9 22.4 7.9 42v5.4h-52zm35.4-12.6c-.267-13.067-1.633-22.033-4.1-26.9-2.467-4.867-6.967-7.3-13.5-7.3s-11.067 2.433-13.6 7.3c-2.533 4.867-3.933 13.833-4.2 26.9h35.4zM401.8 1046.398c0 16.8 1.067 28.1 3.2 33.9 2.133 5.8 6.6 8.7 13.4 8.7 5.2 0 8.933-1.533 11.2-4.6 2.267-3.067 3.667-8.533 4.2-16.4h15.4c-.667 12.133-3.633 20.867-8.9 26.2-5.267 5.333-12.9 8-22.9 8-11.6 0-19.8-4.033-24.6-12.1-4.8-8.067-7.2-22.567-7.2-43.5s2.367-35.533 7.1-43.8c4.733-8.267 13.167-12.4 25.3-12.4 9.867 0 17.4 2.633 22.6 7.9 5.2 5.267 8.133 14.033 8.8 26.3h-15.6c-.667-7.867-2.133-13.333-4.4-16.4-2.267-3.067-6-4.6-11.2-4.6-6.667 0-11.067 2.9-13.2 8.7-2.133 5.8-3.2 17.167-3.2 34.1zM484.4 1051.398c0 15.333.933 25.433 2.8 30.3 1.867 4.867 5.6 7.3 11.2 7.3 6.8 0 11.633-2.667 14.5-8 2.867-5.333 4.3-14.533 4.3-27.6v-61h16.6v107.8h-12.4l-3.8-10.4c-5.867 8.267-14.267 12.4-25.2 12.4-9.333 0-15.767-3.3-19.3-9.9-3.533-6.6-5.3-18.833-5.3-36.7v-63.2h16.6v59zM572.4 1050.398c.133 14.933 1.433 25.1 3.9 30.5 2.467 5.4 7.1 8.1 13.9 8.1 5.6 0 9.667-1.6 12.2-4.8 2.533-3.2 4.133-8.6 4.8-16.2H623c-2 22.8-13 34.2-33 34.2-12.267 0-21-4.267-26.2-12.8-5.2-8.533-7.8-22.933-7.8-43.2 0-20.267 2.6-34.633 7.8-43.1 5.2-8.467 13.933-12.7 26.2-12.7 12.4 0 21.233 4.2 26.5 12.6 5.267 8.4 7.9 22.4 7.9 42v5.4h-52zm35.4-12.6c-.267-13.067-1.633-22.033-4.1-26.9-2.467-4.867-6.967-7.3-13.5-7.3s-11.067 2.433-13.6 7.3c-2.533 4.867-3.933 13.833-4.2 26.9h35.4zM649 954.198h16.6v146H649zM691.6 1024.598c1.2-22.8 12-34.2 32.4-34.2 10.933 0 18.733 3.633 23.4 10.9 4.667 7.267 7 19.7 7 37.3v44.8l2.2 16.8h-15.8l-2-9.8c-2.933 4-6.6 6.967-11 8.9-4.4 1.933-9 2.9-13.8 2.9-8.133 0-14.5-2.567-19.1-7.7-4.6-5.133-6.9-12.1-6.9-20.9 0-12.533 4.5-22 13.5-28.4 9-6.4 21.033-9.6 36.1-9.6 0-12.4-.933-20.833-2.8-25.3-1.867-4.467-5.533-6.7-11-6.7-10.133 0-15.667 7-16.6 21h-15.6zm46.2 23c-22.267 0-33.4 8.333-33.4 25 0 10.933 4.933 16.4 14.8 16.4 5.6 0 10.1-1.967 13.5-5.9 3.4-3.933 5.1-10.167 5.1-18.7v-16.8zM813.2 962.798h17.6l26.2 107.2 26.4-107.2H901l-35.2 137.4h-17.6l-35-137.4z"/><g><path d="M910 1024.598c1.2-22.8 12-34.2 32.4-34.2 10.933 0 18.733 3.633 23.4 10.9 4.667 7.267 7 19.7 7 37.3v44.8l2.2 16.8h-15.8l-2-9.8c-2.933 4-6.6 6.967-11 8.9-4.4 1.933-9 2.9-13.8 2.9-8.133 0-14.5-2.567-19.1-7.7-4.6-5.133-6.9-12.1-6.9-20.9 0-12.533 4.5-22 13.5-28.4 9-6.4 21.033-9.6 36.1-9.6 0-12.4-.933-20.833-2.8-25.3-1.867-4.467-5.533-6.7-11-6.7-10.133 0-15.667 7-16.6 21H910zm46.2 23c-22.267 0-33.4 8.333-33.4 25 0 10.933 4.933 16.4 14.8 16.4 5.6 0 10.1-1.967 13.5-5.9 3.4-3.933 5.1-10.167 5.1-18.7v-16.8zM998 992.398h12.6l3.6 10.2c2.8-4.4 6.3-7.567 10.5-9.5 4.2-1.933 8.633-2.9 13.3-2.9 1.2 0 2.867.133 5 .4v14.2c-1.733-.4-3.667-.6-5.8-.6-6.133 0-11.433 1.867-15.9 5.6-4.467 3.733-6.7 10.8-6.7 21.2v69.2H998v-107.8zM1061.2 1100.198v-107.8h16.6v107.8h-16.6zm-2.2-133.4c0-3.067 1.033-5.6 3.1-7.6s4.567-3 7.5-3 5.4 1 7.4 3 3 4.533 3 7.6c0 3.067-1 5.6-3 7.6s-4.467 3-7.4 3c-2.933 0-5.433-1-7.5-3s-3.1-4.533-3.1-7.6z"/></g><g><path d="M1104.802 1024.598c1.2-22.8 12-34.2 32.4-34.2 10.933 0 18.733 3.633 23.4 10.9 4.667 7.267 7 19.7 7 37.3v44.8l2.2 16.8h-15.8l-2-9.8c-2.933 4-6.6 6.967-11 8.9-4.4 1.933-9 2.9-13.8 2.9-8.133 0-14.5-2.567-19.1-7.7-4.6-5.133-6.9-12.1-6.9-20.9 0-12.533 4.5-22 13.5-28.4 9-6.4 21.033-9.6 36.1-9.6 0-12.4-.933-20.833-2.8-25.3-1.867-4.467-5.533-6.7-11-6.7-10.133 0-15.667 7-16.6 21h-15.6zm46.2 23c-22.267 0-33.4 8.333-33.4 25 0 10.933 4.933 16.4 14.8 16.4 5.6 0 10.1-1.967 13.5-5.9 3.4-3.933 5.1-10.167 5.1-18.7v-16.8zM1192.402 954.198h16.6v48.4c5.2-8.133 13.2-12.2 24-12.2 10.133 0 17.467 4.267 22 12.8 4.533 8.533 6.8 22.667 6.8 42.4 0 19.867-2.333 34.267-7 43.2s-12.133 13.4-22.4 13.4c-10.533 0-18.467-4-23.8-12l-3.6 10h-12.6v-146zm16.2 92.4c0 16 1.367 27.067 4.1 33.2 2.733 6.133 7.7 9.2 14.9 9.2 7.067 0 11.833-2.933 14.3-8.8 2.467-5.867 3.7-17.133 3.7-33.8 0-16.667-1.233-27.967-3.7-33.9s-7.233-8.9-14.3-8.9c-7.2 0-12.167 3.1-14.9 9.3-2.733 6.2-4.1 17.433-4.1 33.7zM1285.402 954.198h16.6v146h-16.6zM1343.202 1050.398c.133 14.933 1.433 25.1 3.9 30.5 2.467 5.4 7.1 8.1 13.9 8.1 5.6 0 9.667-1.6 12.2-4.8 2.533-3.2 4.133-8.6 4.8-16.2h15.8c-2 22.8-13 34.2-33 34.2-12.267 0-21-4.267-26.2-12.8-5.2-8.533-7.8-22.933-7.8-43.2 0-20.267 2.6-34.633 7.8-43.1 5.2-8.467 13.933-12.7 26.2-12.7 12.4 0 21.233 4.2 26.5 12.6 5.267 8.4 7.9 22.4 7.9 42v5.4h-52zm35.4-12.6c-.267-13.067-1.633-22.033-4.1-26.9-2.467-4.867-6.967-7.3-13.5-7.3s-11.067 2.433-13.6 7.3c-2.533 4.867-3.933 13.833-4.2 26.9h35.4z"/></g></g><g fill-rule="nonzero"><path d="M257.1 1391.398c0 10 1.8 17.867 5.4 23.6 3.601 5.734 8.935 8.6 16.001 8.6 5.734 0 10.4-1.833 14-5.5 3.6-3.666 5.4-8.7 5.4-15.1 0-7.2-2.333-12.9-7-17.1-4.666-4.2-10.066-8.1-16.2-11.7-10-6.266-17.567-12.6-22.7-19-5.134-6.4-7.7-14.267-7.7-23.6 0-10.8 3.033-19.3 9.1-25.5 6.067-6.2 14.5-9.3 25.3-9.3 12.267 0 21.367 4.2 27.3 12.6 5.934 8.4 8.9 19.867 8.9 34.4h-16.2c0-10-1.766-17.866-5.3-23.6-3.533-5.733-8.567-8.6-15.1-8.6-4.934 0-8.933 1.633-12 4.9-3.066 3.266-4.6 8.034-4.6 14.3 0 7.734 2.333 13.8 7 18.2 4.666 4.4 10.6 8.866 17.8 13.4 7.067 4.267 13.667 9.5 19.8 15.7 6.134 6.2 9.2 14.767 9.2 25.7 0 10.934-3.433 19.4-10.3 25.4-6.866 6-15.766 9-26.7 9-12.133 0-21.5-3.833-28.1-11.5-6.6-7.667-9.9-19.433-9.9-35.3h16.6zM351.702 1386.399c.133 14.933 1.433 25.1 3.9 30.5 2.466 5.4 7.1 8.1 13.9 8.1 5.6 0 9.666-1.6 12.2-4.801 2.533-3.2 4.133-8.6 4.8-16.2h15.8c-2 22.8-13 34.2-33 34.2-12.267 0-21-4.267-26.2-12.8-5.2-8.533-7.8-22.933-7.8-43.2 0-20.267 2.6-34.633 7.8-43.1 5.2-8.466 13.933-12.7 26.2-12.7 12.4 0 21.234 4.2 26.5 12.6 5.267 8.4 7.9 22.4 7.9 42v5.4h-52zm35.4-12.6c-.267-13.068-1.633-22.034-4.1-26.9-2.467-4.867-6.967-7.301-13.5-7.301s-11.067 2.434-13.6 7.3c-2.534 4.867-3.934 13.833-4.2 26.9h35.4zM437.102 1382.398c0 16.8 1.067 28.1 3.2 33.9 2.134 5.8 6.6 8.7 13.4 8.7 5.2 0 8.933-1.533 11.2-4.6 2.267-3.067 3.667-8.533 4.2-16.4h15.4c-.666 12.133-3.633 20.866-8.9 26.2s-12.9 8-22.9 8c-11.6 0-19.8-4.033-24.6-12.1-4.8-8.067-7.2-22.566-7.2-43.5 0-20.933 2.367-35.533 7.1-43.8 4.733-8.267 13.167-12.4 25.3-12.4 9.867 0 17.4 2.633 22.6 7.9 5.2 5.266 8.134 14.033 8.8 26.3h-15.6c-.666-7.867-2.134-13.333-4.4-16.4-2.267-3.067-6-4.6-11.2-4.6-6.667 0-11.066 2.9-13.2 8.7-2.133 5.8-3.2 17.167-3.2 34.1z"/><g><path d="M506.902 1387.399c0 15.332.934 25.432 2.8 30.3 1.867 4.866 5.6 7.3 11.2 7.3 6.8 0 11.634-2.667 14.5-8.001 2.868-5.333 4.3-14.533 4.3-27.6v-61h16.6v107.8h-12.4l-3.8-10.4c-5.866 8.267-14.266 12.4-25.2 12.4-9.333 0-15.766-3.3-19.3-9.9-3.533-6.6-5.3-18.833-5.3-36.7v-63.2h16.6v59zM594.902 1386.399c.134 14.933 1.434 25.1 3.9 30.5 2.467 5.4 7.101 8.1 13.9 8.1 5.6 0 9.668-1.6 12.201-4.801 2.534-3.2 4.133-8.6 4.8-16.2h15.8c-2 22.8-13 34.2-33 34.2-12.266 0-21-4.267-26.2-12.8-5.2-8.533-7.8-22.933-7.8-43.2 0-20.267 2.6-34.633 7.8-43.1 5.2-8.466 13.934-12.7 26.2-12.7 12.4 0 21.233 4.2 26.5 12.6 5.266 8.4 7.9 22.4 7.9 42v5.4h-52zm35.4-12.6c-.266-13.068-1.633-22.034-4.099-26.9-2.466-4.867-6.967-7.301-13.5-7.301-6.534 0-11.067 2.434-13.6 7.3-2.534 4.867-3.933 13.833-4.2 26.9h35.4zM671.503 1290.198h16.6v146h-16.6zM714.103 1360.598c1.2-22.8 12-34.2 32.4-34.2 10.934 0 18.734 3.633 23.4 10.9 4.667 7.267 7 19.7 7 37.3v44.8l2.2 16.8h-15.8l-2-9.8c-2.932 4-6.599 6.967-11 8.9-4.4 1.934-9 2.9-13.8 2.9-8.133 0-14.5-2.567-19.1-7.7-4.6-5.133-6.9-12.1-6.9-20.9 0-12.533 4.5-22 13.5-28.4 9-6.4 21.034-9.6 36.1-9.6 0-12.4-.933-20.833-2.8-25.3-1.866-4.466-5.533-6.7-10.999-6.7-10.134 0-15.667 7-16.6 21h-15.601zm46.2 23c-22.266 0-33.4 8.334-33.4 25 0 10.933 4.934 16.4 14.8 16.4 5.6 0 10.1-1.967 13.501-5.9 3.4-3.933 5.1-10.167 5.1-18.7v-16.8zM835.704 1298.798h17.6l26.2 107.2 26.4-107.2h17.6l-35.2 137.4h-17.6l-35-137.4z"/></g><g><path d="M909.103 1360.598c1.2-22.8 12.001-34.2 32.4-34.2 10.934 0 18.735 3.633 23.401 10.9 4.667 7.267 7 19.7 7 37.3v44.8l2.2 16.8h-15.8l-2-9.8c-2.933 4-6.6 6.967-11 8.9-4.4 1.934-9 2.9-13.8 2.9-8.134 0-14.5-2.567-19.1-7.7-4.6-5.133-6.9-12.1-6.9-20.9 0-12.533 4.5-22 13.5-28.4 9-6.4 21.033-9.6 36.1-9.6 0-12.4-.933-20.833-2.8-25.3-1.867-4.466-5.533-6.7-11-6.7-10.133 0-15.667 7-16.6 21h-15.6zm46.2 23c-22.266 0-33.4 8.334-33.4 25 0 10.933 4.934 16.4 14.801 16.4 5.6 0 10.1-1.967 13.5-5.9 3.4-3.933 5.1-10.167 5.1-18.7v-16.8zM997.104 1328.398h12.6l3.6 10.2c2.8-4.4 6.3-7.567 10.5-9.5 4.2-1.933 8.634-2.9 13.3-2.9 1.2 0 2.867.133 5 .4v14.2c-1.732-.4-3.666-.6-5.8-.6-6.133 0-11.433 1.867-15.9 5.6-4.466 3.733-6.7 10.8-6.7 21.2v69.2h-16.6v-107.8zM1060.305 1436.198v-107.8h16.6v107.8h-16.6zm-2.2-133.4c0-3.066 1.033-5.6 3.1-7.6 2.066-2 4.566-3 7.5-3 2.933 0 5.4 1 7.4 3s3 4.534 3 7.6c0 3.067-1 5.6-3 7.6s-4.467 3-7.4 3c-2.934 0-5.434-1-7.5-3-2.067-2-3.1-4.533-3.1-7.6zM1103.905 1360.598c1.2-22.8 12-34.2 32.4-34.2 10.933 0 18.734 3.633 23.4 10.9 4.667 7.267 7 19.7 7 37.3v44.8l2.2 16.8h-15.8l-2-9.8c-2.933 4-6.6 6.967-11 8.9-4.4 1.934-9 2.9-13.8 2.9-8.134 0-14.5-2.567-19.1-7.7-4.6-5.133-6.9-12.1-6.9-20.9 0-12.533 4.5-22 13.5-28.4 9-6.4 21.033-9.6 36.1-9.6 0-12.4-.933-20.833-2.8-25.3-1.867-4.466-5.533-6.7-11-6.7-10.133 0-15.666 7-16.6 21h-15.6zm46.2 23c-22.266 0-33.4 8.334-33.4 25 0 10.933 4.934 16.4 14.8 16.4 5.6 0 10.1-1.967 13.5-5.9 3.4-3.933 5.1-10.167 5.1-18.7v-16.8zM1191.506 1290.198h16.6v48.4c5.2-8.133 13.2-12.2 24-12.2 10.133 0 17.467 4.266 22 12.8 4.533 8.534 6.8 22.667 6.8 42.4 0 19.867-2.334 34.267-7 43.2-4.667 8.934-12.134 13.4-22.4 13.4-10.534 0-18.467-4-23.8-12l-3.6 10h-12.6v-146zm16.2 92.4c0 16 1.366 27.067 4.1 33.2 2.733 6.134 7.7 9.2 14.9 9.2 7.067 0 11.834-2.933 14.3-8.8 2.466-5.866 3.7-17.133 3.7-33.8 0-16.666-1.234-27.966-3.7-33.9-2.466-5.933-7.233-8.9-14.3-8.9-7.2 0-12.167 3.1-14.9 9.3-2.734 6.2-4.1 17.433-4.1 33.7zM1284.506 1290.198h16.6v146h-16.6zM1342.307 1386.399c.133 14.933 1.433 25.1 3.9 30.5 2.466 5.4 7.1 8.1 13.9 8.1 5.6 0 9.666-1.6 12.2-4.801 2.533-3.2 4.133-8.6 4.8-16.2h15.8c-2 22.8-13 34.2-33 34.2-12.267 0-21-4.267-26.2-12.8-5.2-8.533-7.8-22.933-7.8-43.2 0-20.267 2.6-34.633 7.8-43.1 5.2-8.466 13.933-12.7 26.2-12.7 12.4 0 21.233 4.2 26.5 12.6 5.267 8.4 7.9 22.4 7.9 42v5.4h-52zm35.4-12.6c-.267-13.068-1.633-22.034-4.1-26.9-2.467-4.867-6.967-7.301-13.5-7.301s-11.067 2.434-13.6 7.3c-2.534 4.867-3.934 13.833-4.2 26.9h35.4z"/></g></g></svg>