<svg clip-rule="evenodd" fill-rule="evenodd" stroke-linejoin="round" stroke-miterlimit="2" viewBox="0 0 558 177" xmlns="http://www.w3.org/2000/svg"><g fill="#333" fill-rule="nonzero"><path d="m34.205 69.408c0 .576-.096.96-.288 1.152-.288.192-1.056.288-2.304.288-1.248.096-2.976.096-5.184.096v-27.36l-13.249-38.592c-.096-.48-.096-.768.192-.96.288-.096 1.152-.192 2.592-.288h5.952l3.84 13.152c.96 2.976 2.016 6.72 3.072 11.232s1.632 7.488 1.728 8.928c.096-1.44.768-4.416 1.824-8.928s2.112-8.256 3.072-11.232l3.36-11.712c.096-.48.384-.864.672-1.056s1.056-.288 2.4-.384h5.28l-12.96 39.36v26.304zm24.192 2.496c-4.128 0-7.296-.96-9.6-2.976-2.4-1.92-3.552-5.76-3.552-11.616 0-6.048 1.152-10.272 3.552-12.48 2.304-2.208 5.376-3.264 9.312-3.264 2.976 0 5.376.384 7.008 1.248v-7.584c0-2.208-.48-3.648-1.44-4.512s-2.496-1.248-4.512-1.248a44.03 44.03 0 0 0 -7.008.576c-2.4.48-4.32.96-5.76 1.632a10.073 10.073 0 0 1 -1.056-4.512c0-1.248.384-2.112 1.056-2.592.96-.672 2.784-1.248 5.568-1.824 2.784-.48 5.76-.768 9.12-.768 4.128 0 7.2.864 9.024 2.688s2.784 4.8 2.784 9.024v5.088c0 14.112-.192 24-.576 29.856-1.536.96-3.456 1.728-5.856 2.4-2.4.576-5.088.864-8.064.864zm1.344-6.528c1.056 0 2.016-.192 2.976-.48s1.632-.672 2.112-1.056c.192-2.208.288-7.392.288-15.552-1.248-.672-2.688-.96-4.512-.96-2.304 0-4.128.672-5.376 2.016s-1.92 3.936-1.92 7.776c0 3.264.576 5.472 1.632 6.528.96 1.152 2.592 1.728 4.8 1.728zm21.024-40.128c2.016-.864 4.416-1.632 7.296-2.304s5.568-.96 7.968-.96c4.992 0 8.448.96 10.464 2.88 2.016 2.016 2.976 5.28 2.976 9.984v34.56c0 .576-.096.96-.384 1.152s-1.056.288-2.304.288c-1.344.096-3.072.096-5.28.096v-33.792c0-3.168-.384-5.376-1.152-6.624s-2.304-1.824-4.608-1.824c-1.152 0-2.4.096-3.744.384-1.344.384-2.496.768-3.456 1.344v38.976c0 .576-.096.96-.384 1.152s-1.056.288-2.304.288c-1.248.096-2.976.096-5.088.096zm51.072 46.656c-3.552 0-6.432-.576-8.544-1.824s-3.744-3.648-4.8-7.296c-1.152-3.552-1.728-8.832-1.728-15.84 0-16.608 5.376-24.96 16.032-24.96 3.552 0 6.336.672 8.448 2.112 2.112 1.536 3.744 4.032 4.8 7.584 1.056 3.648 1.632 8.64 1.632 15.072 0 8.736-1.344 15.072-3.936 19.104-2.688 4.032-6.624 6.048-11.904 6.048zm.192-6.528c2.304 0 4.128-1.344 5.376-4.032s1.824-7.584 1.824-14.592c0-4.992-.192-8.832-.672-11.424s-1.248-4.416-2.208-5.376-2.208-1.44-3.84-1.44c-2.4 0-4.128 1.344-5.376 4.032s-1.92 7.584-1.92 14.592c0 5.088.288 9.024.768 11.616s1.248 4.416 2.208 5.28 2.208 1.344 3.84 1.344zm22.56-40.128c2.016-.864 4.416-1.632 7.296-2.304s5.568-.96 7.968-.96c4.992 0 8.448.96 10.464 2.88 2.016 2.016 2.976 5.28 2.976 9.984v34.56c0 .576-.096.96-.384 1.152s-1.056.288-2.304.288c-1.344.096-3.072.096-5.28.096v-33.792c0-3.168-.384-5.376-1.152-6.624s-2.304-1.824-4.608-1.824c-1.152 0-2.4.096-3.744.384-1.344.384-2.496.768-3.456 1.344v38.976c0 .576-.096.96-.384 1.152s-1.056.288-2.304.288c-1.248.096-2.976.096-5.088.096zm53.28 39.168c3.84 0 7.488-1.056 10.944-3.072.48 1.44.672 3.168.672 5.28 0 1.44-1.248 2.688-3.84 3.744s-5.76 1.536-9.408 1.536c-3.264 0-5.952-.576-8.16-1.824s-4.032-3.456-5.28-6.72-1.92-7.872-1.92-13.92c0-7.488.768-13.248 2.4-17.28 1.536-4.032 3.552-6.72 5.952-8.16 2.4-1.344 5.28-2.016 8.64-2.016 8.16 0 12.192 5.088 12.192 15.36 0 5.088-.384 9.312-1.056 12.48-2.784.576-6.048.96-9.792 1.152-3.744.288-7.2.384-10.368.384.096 3.456.576 6.144 1.248 7.968s1.536 3.168 2.88 3.936c1.248.768 2.88 1.152 4.896 1.152zm-.864-35.616c-2.304 0-4.128 1.152-5.568 3.552s-2.208 6.72-2.496 12.864c6.336 0 10.752-.384 13.152-1.152.288-1.44.48-3.36.48-5.76-.096-3.552-.48-6.048-1.248-7.488-.768-1.344-2.208-2.016-4.32-2.016zm62.975-25.152c2.305 0 3.457.48 3.457 1.44 0 .288-.096.576-.288.864l-15.552 26.784c7.68 5.856 12.864 17.952 15.456 36.48.096.768-.096 1.248-.48 1.536-.48.288-1.344.384-2.688.384-1.632 0-3.456-.096-5.376-.288-1.536-8.16-3.072-14.592-4.704-19.296s-3.648-8.352-6.24-11.136c-.864-.96-2.112-1.824-3.84-2.592v31.584c0 .576-.096.96-.288 1.152-.288.192-1.056.288-2.304.288-1.248.096-3.072.096-5.28.096v-65.664c0-.576.096-.96.384-1.152.192-.192.96-.288 2.208-.384h5.28v28.992l15.36-28.512c1.824-.384 3.456-.576 4.896-.576zm21.12 68.256c-4.127 0-7.295-.96-9.6-2.976-2.4-1.92-3.551-5.76-3.551-11.616 0-6.048 1.152-10.272 3.552-12.48 2.304-2.208 5.376-3.264 9.312-3.264 2.976 0 5.376.384 7.008 1.248v-7.584c0-2.208-.48-3.648-1.44-4.512s-2.496-1.248-4.512-1.248a44.03 44.03 0 0 0 -7.008.576c-2.4.48-4.32.96-5.76 1.632a10.073 10.073 0 0 1 -1.056-4.512c0-1.248.384-2.112 1.056-2.592.96-.672 2.784-1.248 5.568-1.824 2.784-.48 5.76-.768 9.12-.768 4.128 0 7.2.864 9.024 2.688s2.784 4.8 2.784 9.024v5.088c0 14.112-.192 24-.576 29.856-1.536.96-3.456 1.728-5.856 2.4-2.4.576-5.088.864-8.064.864zm1.345-6.528c1.056 0 2.016-.192 2.976-.48s1.632-.672 2.112-1.056c.192-2.208.288-7.392.288-15.552-1.248-.672-2.688-.96-4.512-.96-2.304 0-4.128.672-5.376 2.016s-1.92 3.936-1.92 7.776c0 3.264.576 5.472 1.632 6.528.96 1.152 2.592 1.728 4.8 1.728zm59.52-65.376c3.168 0 5.376.384 6.816 1.056 1.44.768 2.112 1.92 2.112 3.456 0 1.056-.288 2.304-.864 3.648-1.824-.768-4.128-1.152-6.816-1.152-2.976 0-5.376.672-7.008 1.92-1.728 1.248-2.592 3.84-2.592 7.584v6.432h8.64c0 1.728 0 3.072-.096 4.128s-.192 1.728-.384 2.016-.576.384-1.152.384h-7.008v39.936c0 .288-.096.576-.288.96s-.672.576-1.344.576h-6.144v-41.472h-11.712v39.936c0 .288-.096.576-.288.96s-.672.576-1.344.576h-6.048v-41.472h-6.624c0-1.728 0-3.072.096-4.224.096-1.056.192-1.632.48-1.92.192-.288.672-.384 1.344-.384h4.704v-6.624c0-10.56 4.992-15.84 14.976-15.84 3.456 0 6.624.864 9.6 2.592 2.592-2.016 6.239-3.072 10.944-3.072zm-16.128 17.088c0-3.552.48-6.432 1.44-8.736-1.632-.864-3.552-1.344-5.76-1.344-4.896 0-7.392 2.784-7.392 8.448v7.488h11.712zm34.848 47.328c3.84 0 7.488-1.056 10.944-3.072.48 1.44.672 3.168.672 5.28 0 1.44-1.248 2.688-3.84 3.744s-5.76 1.536-9.408 1.536c-3.264 0-5.952-.576-8.16-1.824s-4.032-3.456-5.28-6.72-1.92-7.872-1.92-13.92c0-7.488.768-13.248 2.4-17.28 1.536-4.032 3.552-6.72 5.952-8.16 2.4-1.344 5.28-2.016 8.64-2.016 8.16 0 12.192 5.088 12.192 15.36 0 5.088-.384 9.312-1.056 12.48-2.784.576-6.048.96-9.792 1.152-3.744.288-7.2.384-10.368.384.096 3.456.576 6.144 1.248 7.968s1.536 3.168 2.88 3.936c1.248.768 2.88 1.152 4.896 1.152zm-.865-35.616c-2.304 0-4.128 1.152-5.568 3.552s-2.208 6.72-2.496 12.864c6.336 0 10.752-.384 13.152-1.152.288-1.44.48-3.36.48-5.76-.096-3.552-.48-6.048-1.248-7.488-.768-1.344-2.208-2.016-4.32-2.016zm35.52 35.616c3.84 0 7.489-1.056 10.945-3.072.48 1.44.672 3.168.672 5.28 0 1.44-1.248 2.688-3.84 3.744s-5.76 1.536-9.408 1.536c-3.264 0-5.952-.576-8.16-1.824s-4.032-3.456-5.28-6.72-1.92-7.872-1.92-13.92c0-7.488.768-13.248 2.4-17.28 1.536-4.032 3.552-6.72 5.952-8.16 2.4-1.344 5.28-2.016 8.64-2.016 8.16 0 12.192 5.088 12.192 15.36 0 5.088-.384 9.312-1.056 12.48-2.784.576-6.048.96-9.792 1.152-3.744.288-7.2.384-10.368.384.096 3.456.576 6.144 1.248 7.968s1.536 3.168 2.88 3.936c1.248.768 2.88 1.152 4.896 1.152zm-.863-35.616c-2.304 0-4.128 1.152-5.568 3.552s-2.208 6.72-2.496 12.864c6.336 0 10.752-.384 13.152-1.152.288-1.44.48-3.36.48-5.76-.096-3.552-.48-6.048-1.248-7.488-.768-1.344-2.208-2.016-4.32-2.016zm30.24 43.104c-3.552 0-6.336-.384-8.448-1.248-2.208-.864-3.264-2.016-3.264-3.552s.48-3.072 1.44-4.512c2.592 1.536 5.76 2.304 9.504 2.304 2.496 0 4.416-.48 5.856-1.536 1.344-.96 2.016-2.4 2.016-4.32 0-1.44-.288-2.688-.864-3.936s-1.536-2.4-2.976-3.648l-9.312-7.968c-3.744-2.976-5.568-6.432-5.568-10.176 0-3.552 1.344-6.336 4.032-8.352 2.592-2.016 6.528-2.976 11.712-2.976 4.32 0 7.488.576 9.312 1.728s2.688 2.4 2.688 3.648c0 .576-.192 1.248-.48 1.92a6.906 6.906 0 0 1 -1.152 2.016c-2.784-1.728-5.952-2.592-9.504-2.592-2.304 0-4.128.384-5.472 1.248-1.44.864-2.112 2.016-2.112 3.456 0 .96.288 1.824.768 2.688s1.536 2.016 3.072 3.264l8.928 7.2c2.112 2.016 3.648 3.936 4.512 5.76s1.248 3.84 1.248 6.24c0 4.224-1.44 7.488-4.224 9.792-2.88 2.4-6.816 3.552-11.712 3.552zm34.56 0c-4.128 0-7.296-.96-9.6-2.976-2.4-1.92-3.552-5.76-3.552-11.616 0-6.048 1.152-10.272 3.552-12.48 2.304-2.208 5.376-3.264 9.312-3.264 2.976 0 5.376.384 7.008 1.248v-7.584c0-2.208-.48-3.648-1.44-4.512s-2.496-1.248-4.512-1.248a44.03 44.03 0 0 0 -7.008.576c-2.4.48-4.32.96-5.76 1.632a10.073 10.073 0 0 1 -1.056-4.512c0-1.248.384-2.112 1.056-2.592.96-.672 2.784-1.248 5.568-1.824 2.784-.48 5.76-.768 9.12-.768 4.128 0 7.2.864 9.024 2.688s2.784 4.8 2.784 9.024v5.088c0 14.112-.192 24-.576 29.856-1.536.96-3.456 1.728-5.856 2.4-2.4.576-5.088.864-8.064.864zm1.344-6.528c1.056 0 2.016-.192 2.976-.48s1.632-.672 2.112-1.056c.192-2.208.288-7.392.288-15.552-1.248-.672-2.688-.96-4.512-.96-2.304 0-4.128.672-5.376 2.016s-1.92 3.936-1.92 7.776c0 3.264.576 5.472 1.632 6.528.96 1.152 2.592 1.728 4.8 1.728zm33.599 6.528c-2.591 0-4.607-.576-5.855-1.728-1.344-1.056-2.208-2.688-2.592-4.704-.48-2.016-.672-4.608-.672-7.872v-28.032h-6.528c0-1.728 0-3.168.096-4.224s.192-1.728.48-2.016c.192-.288.576-.384 1.056-.384h4.896v-14.592c0-.864.192-1.536.672-1.92.384-.288 1.056-.576 2.016-.672.864-.096 2.592-.096 4.992-.096v17.28h9.984c0 1.728 0 3.168-.096 4.224s-.192 1.728-.384 2.016c-.288.288-.672.384-1.152.384h-8.352v28.032c0 2.592.192 4.512.672 5.76.384 1.248 1.344 1.92 2.88 1.92 1.056 0 1.92-.096 2.688-.384.768-.192 1.728-.576 2.88-1.056.384 1.248.576 2.592.576 3.84 0 1.536-.768 2.592-2.4 3.264s-3.552.96-5.856.96zm13.825-.96c-.096-.096-.192-.288-.384-.576s-.384-.672-.576-1.248-.288-1.248-.288-2.016c0-1.152.192-2.112.672-2.88l18.72-34.752h-9.889c-3.648 0-6.624.192-8.832.48-.192-1.056-.288-2.304-.288-3.648 0-1.152.192-2.016.576-2.592.384-.48 1.056-.768 1.92-.768h24.48c.096.096.192.288.48.672.192.48.288 1.056.288 1.728 0 1.248-.288 2.496-.864 3.744l-18.24 34.656h8.544c4.224 0 7.584-.288 10.176-.96.096.48.192 1.632.192 3.36s-.192 2.976-.576 3.648c-.48.768-1.248 1.152-2.496 1.152h-23.616z"/><path d="m45.84 119.463c.192.192.192.48-.096.864-.288.48-.672.96-1.248 1.536-.48.576-1.056 1.152-1.632 1.728-.672.48-1.152.96-1.536 1.344l-1.536-.288a22.955 22.955 0 0 0 -3.168-2.4c-1.152-.672-2.304-1.152-3.456-1.44-1.248-.384-2.496-.672-3.84-.768s-2.784-.192-4.32-.192c-.768 0-1.728.192-2.976.48-1.152.384-2.4.96-3.648 1.824-1.344.768-2.592 1.824-3.84 3.072-1.344 1.344-2.496 2.88-3.552 4.8s-1.824 4.128-2.496 6.624-.96 5.376-.96 8.64c0 4.32.576 8.16 1.728 11.328 1.152 3.264 2.688 5.856 4.512 7.968 1.92 2.112 4.032 3.744 6.336 4.8 2.4 1.056 4.704 1.536 7.104 1.536 2.304 0 4.416-.192 6.336-.672a25.294 25.294 0 0 0 5.184-1.92v-15.936c0-.288-.192-.672-.48-.96-.288-.384-.864-.672-1.536-.96-.768-.384-1.728-.672-2.976-.96s-2.784-.672-4.704-.96v-2.016h21.6v2.016c-1.728.48-3.072 1.056-3.744 1.728-.768.672-1.152 1.44-1.152 2.112v15.552a57.624 57.624 0 0 1 -6.24 4.512c-1.824 1.152-3.456 2.016-4.992 2.592a16.168 16.168 0 0 1 -4.416 1.248 29.836 29.836 0 0 1 -4.128.288c-3.168 0-6.336-.576-9.312-1.824-3.072-1.152-5.856-2.88-8.256-5.28s-4.416-5.376-5.856-9.024c-1.536-3.552-2.304-7.776-2.304-12.576 0-5.184.864-9.888 2.496-13.92 1.632-4.128 3.84-7.68 6.72-10.464 2.88-2.88 6.144-5.088 9.984-6.528 3.744-1.536 7.776-2.304 12.096-2.304 1.056 0 2.112.096 3.36.384 1.248.192 2.496.48 3.84.864 1.248.48 2.496.96 3.744 1.536s2.304 1.248 3.36 2.016zm30.337 15.648c-1.632 0-3.072.288-4.416.864a11.258 11.258 0 0 0 -3.648 2.688c-1.056 1.152-1.92 2.496-2.592 4.032-.768 1.632-1.248 3.36-1.536 5.28h20.064c.768 0 1.248-.096 1.44-.384.288-.192.384-.672.384-1.344 0-.864-.096-1.92-.384-3.168a9.081 9.081 0 0 0 -1.44-3.648 8.036 8.036 0 0 0 -2.88-3.072c-1.248-.864-2.976-1.248-4.992-1.248zm17.376 13.92c-.576.672-1.344 1.248-2.304 1.728a13.46 13.46 0 0 1 -2.88 1.44h-24.672c.096 2.4.384 4.704 1.056 6.912.576 2.208 1.536 4.128 2.784 5.856a14.45 14.45 0 0 0 4.32 4.032c1.728.96 3.648 1.44 5.76 1.44.96 0 1.92 0 2.784-.192.96-.096 1.92-.384 2.976-.864 1.056-.384 2.304-1.056 3.552-1.92 1.344-.768 2.88-1.92 4.608-3.36.384.192.768.48 1.056.96.288.384.48.672.672.96-2.112 2.304-3.936 4.128-5.472 5.472-1.632 1.44-3.072 2.496-4.512 3.264-1.344.672-2.784 1.248-4.128 1.44s-2.784.384-4.416.384c-2.4 0-4.704-.576-6.816-1.536-2.208-1.056-4.128-2.496-5.76-4.416-1.728-1.92-2.976-4.224-4.032-6.816-.96-2.688-1.44-5.664-1.44-9.024 0-2.112.288-4.128.672-6.144.48-2.112 1.152-4.032 2.112-5.76.864-1.824 1.92-3.552 3.264-5.088 1.248-1.536 2.688-2.784 4.32-3.936.672-.48 1.44-.96 2.304-1.44a75.354 75.354 0 0 1 2.688-1.152c.96-.384 1.92-.576 2.784-.864.96-.192 1.824-.288 2.688-.288 2.016 0 3.84.288 5.472.864 1.536.576 2.976 1.344 4.128 2.304s2.208 2.016 2.976 3.264c.864 1.344 1.536 2.592 2.016 4.032s.864 2.88 1.056 4.32c.288 1.44.384 2.784.384 4.128zm35.128 26.112v-2.016a47.993 47.993 0 0 0 4.992-1.536c1.056-.48 1.632-.864 1.632-1.344v-24.768c0-1.92-.192-3.456-.384-4.608-.192-1.248-.576-2.208-1.056-2.88s-1.056-1.152-1.824-1.344c-.768-.288-1.728-.384-2.784-.384-.96 0-2.016.192-3.264.672-1.152.48-2.4 1.248-3.744 2.208-1.44 1.056-2.784 2.4-4.32 4.128-1.44 1.632-2.976 3.744-4.512 6.144v20.832c0 .48.672.96 1.824 1.44 1.152.576 2.784.96 4.8 1.44v2.016h-20.16v-2.016c2.016-.576 3.648-.96 4.8-1.44 1.152-.384 1.728-.864 1.728-1.44v-28.416c0-1.248 0-2.208-.096-2.88-.096-.768-.384-1.344-.768-1.728-.48-.384-1.056-.672-2.016-.864-.864-.192-2.112-.384-3.648-.576v-1.92a27.514 27.514 0 0 0 5.856-1.44 53.254 53.254 0 0 0 5.376-2.304l1.632 1.632.576 11.712c1.344-2.112 2.88-3.936 4.512-5.568 1.632-1.728 3.36-3.072 4.992-4.224 1.728-1.152 3.36-2.016 4.896-2.592 1.632-.672 2.976-.96 4.224-.96 1.344 0 2.592.192 3.84.672 1.248.384 2.4.96 3.36 1.824s1.728 1.92 2.304 3.264c.576 1.248.864 2.784.864 4.512v29.856c0 .48.48.864 1.44 1.344.96.384 2.592.864 5.088 1.536v2.016zm53.256-5.472c-1.536 1.152-3.072 2.112-4.512 2.976a44.13 44.13 0 0 1 -4.32 2.112c-1.344.576-2.592 1.056-3.744 1.344s-2.208.48-2.976.48a7.53 7.53 0 0 1 -3.168-.672c-.96-.384-1.824-1.056-2.592-1.92-.672-.96-1.344-2.208-1.728-3.648-.48-1.536-.672-3.36-.672-5.568v-28.8h-6.048l-.96-1.248 3.648-3.168h3.36v-11.52l5.568-4.896 1.44 1.152v15.264h15.36l1.344 1.344c-.288.48-.672.864-1.056 1.44-.384.48-.864.96-1.248 1.344-.48.48-.864.864-1.344 1.248a2.711 2.711 0 0 1 -1.056.672c-.768-.384-1.92-.672-3.456-1.056s-3.552-.576-6.048-.576h-2.496v24.768c0 1.92.096 3.456.288 4.704s.48 2.208.864 2.976.96 1.248 1.536 1.536c.672.384 1.44.48 2.4.48 1.056 0 2.496-.192 4.128-.672 1.632-.384 3.744-1.248 6.144-2.496zm4.631 5.472v-2.016c2.112-.48 3.744-.96 4.896-1.44s1.728-.96 1.728-1.44v-26.496c0-1.632-.096-2.88-.096-3.84-.096-1.056-.384-1.824-.768-2.304-.384-.576-1.056-.96-1.92-1.248-.864-.192-2.208-.48-3.84-.576v-1.92c.96-.192 2.016-.384 3.072-.672s2.208-.576 3.264-.864 2.016-.672 2.976-1.056 1.92-.768 2.688-1.152h1.632v40.128c0 .384.48.864 1.536 1.44 1.056.48 2.688.96 4.992 1.44v2.016zm14.976-59.136c0 .864-.096 1.728-.384 2.496a6.906 6.906 0 0 1 -1.152 2.016 6.287 6.287 0 0 1 -1.728 1.44c-.672.288-1.344.48-2.112.48-1.44 0-2.4-.384-3.072-1.152-.576-.768-.864-1.92-.864-3.36 0-.864.096-1.632.384-2.496a6.906 6.906 0 0 1 1.152-2.016c.576-.576 1.152-1.056 1.728-1.344.672-.288 1.344-.48 2.112-.48 2.688 0 3.936 1.44 3.936 4.416zm57.888 55.296c-1.152.768-2.304 1.44-3.36 2.112-1.056.576-2.016 1.152-2.88 1.632-.96.48-1.728.864-2.4 1.056-.768.288-1.248.48-1.632.48-1.056 0-2.016-.768-2.688-2.208s-1.152-3.84-1.248-7.008c-2.016 1.92-3.744 3.456-5.376 4.704s-3.072 2.112-4.416 2.784-2.592 1.152-3.744 1.344-2.208.384-3.264.384c-1.44 0-2.88-.192-4.224-.672-1.344-.384-2.496-1.152-3.552-2.208s-1.824-2.592-2.4-4.416c-.672-1.92-.96-4.32-.96-7.2v-20.256c0-1.536 0-2.688-.096-3.552-.096-.768-.384-1.44-.768-1.824s-.96-.672-1.824-.864c-.768-.192-1.92-.288-3.36-.48v-1.92c1.152-.096 2.208-.192 3.168-.384s1.92-.48 2.88-.672a99.491 99.491 0 0 1 2.784-.864c.96-.384 1.92-.768 2.976-1.152l1.248 1.824v27.552c0 2.208.192 4.032.48 5.472.384 1.44.864 2.688 1.44 3.552s1.344 1.44 2.208 1.824c.96.384 1.92.576 3.072.576.96 0 2.016-.096 3.072-.48 1.056-.288 2.112-.768 3.264-1.344 1.056-.672 2.208-1.536 3.456-2.496 1.248-1.056 2.496-2.304 3.936-3.744v-21.024c0-1.44-.096-2.592-.288-3.36-.096-.864-.384-1.536-.864-2.016s-1.152-.768-2.016-.96-2.016-.288-3.456-.384v-1.92c2.304-.192 4.416-.672 6.528-1.248 2.016-.576 3.936-1.248 5.664-1.824l1.44 1.824v31.296c0 1.92.096 3.552.192 4.704.096 1.248.384 2.016.864 2.304.384.288 1.056.288 1.92.192.864-.192 2.112-.576 3.744-1.248zm56.331 3.84v-2.016a47.993 47.993 0 0 0 4.992-1.536c1.056-.48 1.536-.864 1.536-1.344v-24.768c0-1.92-.096-3.456-.288-4.8a9.847 9.847 0 0 0 -.96-2.976c-.384-.672-.96-1.152-1.632-1.536-.672-.288-1.44-.384-2.4-.384-1.056 0-2.112.288-3.264.864s-2.4 1.44-3.552 2.496c-1.248 1.056-2.496 2.4-3.744 3.936s-2.4 3.264-3.648 5.184v21.984c0 .48.48.864 1.44 1.344 1.056.384 2.688.864 5.184 1.536v2.016h-20.16v-2.016a47.993 47.993 0 0 0 4.992-1.536c1.056-.48 1.536-.864 1.536-1.344v-24.768c0-1.92-.096-3.456-.288-4.8-.192-1.248-.48-2.208-.864-2.976-.48-.672-.96-1.152-1.632-1.536-.672-.288-1.536-.384-2.496-.384-2.112 0-4.32 1.056-6.72 3.264-2.304 2.208-4.8 5.28-7.488 9.216v21.984c0 .48.672.96 1.824 1.44 1.152.576 2.784.96 4.8 1.44v2.016h-20.16v-2.016c2.016-.576 3.648-.96 4.8-1.44 1.152-.384 1.728-.864 1.728-1.44v-28.416c0-1.248 0-2.208-.096-2.976-.192-.672-.48-1.248-.864-1.632-.48-.384-1.152-.672-2.016-.864s-2.112-.384-3.552-.576v-1.92c1.152-.192 2.304-.384 3.264-.672l2.88-.864c.864-.288 1.728-.672 2.592-1.056.864-.288 1.632-.768 2.496-1.152l1.632 1.632.576 10.752c1.344-2.016 2.784-3.84 4.224-5.376s2.88-2.88 4.224-3.936c1.44-.96 2.784-1.728 4.128-2.304 1.344-.48 2.496-.768 3.648-.768 1.536 0 2.88.192 4.128.576s2.4.96 3.264 1.824c.96.864 1.728 2.016 2.208 3.36.576 1.44.768 3.168.768 5.28v.96c1.344-1.92 2.688-3.648 4.128-5.184a30.3 30.3 0 0 1 4.224-3.744c1.344-.96 2.688-1.728 4.032-2.304 1.344-.48 2.592-.768 3.744-.768 1.44 0 2.88.192 4.128.672 1.248.384 2.4.96 3.264 1.824.96.864 1.632 1.92 2.208 3.264.48 1.248.768 2.784.768 4.512v29.856c0 .48.48.864 1.44 1.344.96.384 2.688.864 5.184 1.536v2.016zm62.058-56.544h-1.344c-.48.096-.96.096-1.44.096v22.464h1.632c3.552 0 6.432-.384 8.64-1.056s3.936-1.632 5.088-2.688c1.248-1.056 2.112-2.304 2.496-3.744.48-1.344.672-2.688.672-4.032 0-1.536-.192-3.072-.768-4.416-.48-1.344-1.344-2.496-2.592-3.456s-2.784-1.728-4.8-2.304-4.608-.864-7.584-.864zm4.992 26.112c-1.536 0-2.88 0-4.128.192-1.248.096-2.496.288-3.648.48v24.864c0 .288.192.48.48.768.48.096 1.152.288 1.824.384s1.344.192 2.112.288c.672.096 1.44.096 2.112.096.768.096 1.44.096 2.016.096 2.304 0 4.32-.288 6.144-.864a14.912 14.912 0 0 0 4.608-2.4 10.107 10.107 0 0 0 2.976-3.744 11.341 11.341 0 0 0 1.056-4.8c0-1.728-.288-3.552-.96-5.28a14.216 14.216 0 0 0 -2.784-4.992c-1.248-1.536-2.88-2.784-4.8-3.648-1.92-.96-4.32-1.44-7.008-1.44zm23.232 13.728c0 2.688-.48 5.088-1.536 7.2a16.13 16.13 0 0 1 -4.416 5.472c-1.92 1.536-4.128 2.688-6.816 3.456-2.592.864-5.472 1.248-8.64 1.248h-2.496c-.96-.096-1.92-.096-3.072-.096-1.056 0-2.208-.096-3.36-.096s-2.304-.096-3.36-.192c-2.592-.096-5.28-.192-8.16-.288h-3.456v-2.016c2.208-.48 3.84-.96 4.992-1.44 1.248-.48 1.824-.96 1.824-1.44v-50.88c-1.152.192-2.304.288-3.456.48s-2.304.384-3.36.576l-.384-2.976c1.248-.288 2.592-.672 4.224-.96a43.266 43.266 0 0 1 5.088-.864c1.824-.288 3.648-.48 5.472-.672a50.003 50.003 0 0 1 5.28-.288c3.168 0 5.952.288 8.448.864 2.592.576 4.704 1.44 6.528 2.496 1.728 1.152 3.072 2.496 4.032 4.032s1.44 3.264 1.44 5.28c0 3.36-.768 6.24-2.4 8.736-1.632 2.4-3.744 4.128-6.528 5.184 2.016.384 3.84 1.056 5.568 2.112s3.264 2.304 4.512 3.84a19.154 19.154 0 0 1 2.976 5.088 18.774 18.774 0 0 1 1.056 6.144zm21.678 12c1.824 0 3.84-.48 5.952-1.44s4.32-2.4 6.72-4.512v-12.096c-2.592.384-4.8.864-6.432 1.248-1.728.384-3.168.768-4.224 1.248-1.152.384-2.016.864-2.592 1.344-.672.48-1.248.96-1.824 1.44-.768.864-1.44 1.824-1.92 2.88a9.783 9.783 0 0 0 -.768 3.84c0 1.248.192 2.304.576 3.072s.864 1.344 1.344 1.824c.576.48 1.056.768 1.632.96.672.096 1.152.192 1.536.192zm26.88.864c-2.688 1.824-4.8 3.168-6.528 4.032-1.824.768-3.072 1.248-3.936 1.248-1.056 0-1.92-.768-2.592-2.208s-1.056-3.36-1.152-5.952c-1.344 1.44-2.784 2.688-4.224 3.648a24.39 24.39 0 0 1 -4.128 2.592c-1.344.576-2.592 1.152-3.84 1.44-1.152.288-2.304.48-3.264.48-1.152 0-2.304-.192-3.456-.576s-2.304-.96-3.264-1.824c-.864-.768-1.728-1.824-2.304-3.072-.672-1.344-.96-2.88-.96-4.704 0-2.4.384-4.32 1.248-5.952.864-1.536 1.824-2.976 2.976-4.128.768-.768 1.632-1.44 2.592-2.112s2.208-1.344 3.744-1.92c1.632-.672 3.552-1.248 5.952-1.824s5.376-1.056 8.928-1.632v-6.624c0-1.056-.096-2.016-.384-2.976-.192-.864-.672-1.728-1.248-2.4s-1.344-1.152-2.4-1.536-2.304-.48-3.84-.48c-.96 0-2.016.192-2.976.48-.96.384-1.728.768-2.496 1.344a8.731 8.731 0 0 0 -1.728 2.016c-.384.768-.48 1.632-.384 2.496 0 .288-.288.672-.96.96-.672.384-1.536.768-2.4 1.056-.96.192-1.824.48-2.784.576-.864.192-1.536.192-1.824.096l-.672-1.824c.672-1.536 1.824-3.072 3.264-4.512s3.168-2.688 4.992-3.744a23.965 23.965 0 0 1 6.048-2.592c2.112-.672 4.128-1.056 6.144-1.056 3.36 0 6.048.96 7.872 2.688 1.92 1.824 2.784 4.32 2.784 7.584v26.4c0 1.344.192 2.304.576 2.784.288.576.768.864 1.344.864.48 0 .96-.096 1.728-.192.672-.192 1.632-.48 2.88-1.056zm33.502-9.408c0 2.208-.288 4.128-.96 5.664-.576 1.632-1.44 2.88-2.4 4.032-1.056 1.056-2.112 1.92-3.36 2.592a19.716 19.716 0 0 1 -3.648 1.536c-1.152.288-2.304.576-3.36.672-.96.096-1.824.192-2.4.192-1.536 0-3.36-.288-5.472-.864s-4.128-1.44-6.24-2.592c-.288-.096-.384-.576-.48-1.536-.096-.864-.096-2.016 0-3.168 0-1.248.096-2.4.288-3.648.096-1.248.288-2.208.48-2.88l2.016.48c.096 1.344.384 2.592 1.056 3.744.576 1.152 1.44 2.112 2.496 2.976s2.304 1.536 3.648 2.016c1.44.48 2.88.768 4.512.768 1.152 0 2.208-.192 3.072-.576.96-.384 1.824-.864 2.496-1.44.672-.672 1.248-1.44 1.536-2.4.384-.864.576-1.824.576-2.976 0-1.248-.288-2.304-.96-3.36-.672-.96-1.536-1.824-2.688-2.592-1.056-.768-2.304-1.536-3.744-2.304-1.344-.672-2.784-1.344-4.224-2.112-1.248-.672-2.592-1.344-3.744-2.112a17.632 17.632 0 0 1 -3.264-2.592c-.96-.864-1.728-1.92-2.304-3.072s-.864-2.496-.864-4.032c0-1.92.384-3.648 1.152-5.184s1.824-2.784 3.072-3.84c1.344-.96 2.784-1.824 4.512-2.304 1.632-.576 3.36-.864 5.184-.864.96 0 2.016.096 3.168.288s2.304.384 3.456.768c1.152.288 2.208.672 3.264 1.056.96.48 1.824.96 2.4 1.536.192.192.192.576.096 1.248a26.22 26.22 0 0 1 -.672 2.112c-.288.864-.576 1.536-.96 2.208-.288.768-.576 1.152-.768 1.44l-1.824-.384c-1.536-2.208-3.072-3.84-4.704-4.704s-3.168-1.344-4.704-1.344c-1.056 0-1.92.192-2.784.576-.768.288-1.44.768-2.016 1.248-.576.576-1.056 1.152-1.344 1.824s-.48 1.344-.48 2.016c0 .96.288 1.92.96 2.688a10.171 10.171 0 0 0 2.304 2.208c.96.768 2.112 1.44 3.264 2.016 1.248.672 2.496 1.344 3.84 2.016s2.688 1.44 4.128 2.208c1.344.768 2.592 1.632 3.648 2.688a12.948 12.948 0 0 1 2.688 3.456c.672 1.344 1.056 2.88 1.056 4.608zm7.51 13.248v-2.016c2.112-.48 3.744-.96 4.896-1.44s1.728-.96 1.728-1.44v-26.496c0-1.632-.096-2.88-.096-3.84-.096-1.056-.384-1.824-.768-2.304-.384-.576-1.056-.96-1.92-1.248-.864-.192-2.208-.48-3.84-.576v-1.92c.96-.192 2.016-.384 3.072-.672s2.208-.576 3.264-.864 2.016-.672 2.976-1.056 1.92-.768 2.688-1.152h1.632v40.128c0 .384.48.864 1.536 1.44 1.056.48 2.688.96 4.992 1.44v2.016zm14.976-59.136c0 .864-.096 1.728-.384 2.496a6.906 6.906 0 0 1 -1.152 2.016 6.287 6.287 0 0 1 -1.728 1.44c-.672.288-1.344.48-2.112.48-1.44 0-2.4-.384-3.072-1.152-.576-.768-.864-1.92-.864-3.36 0-.864.096-1.632.384-2.496a6.906 6.906 0 0 1 1.152-2.016c.576-.576 1.152-1.056 1.728-1.344.672-.288 1.344-.48 2.112-.48 2.688 0 3.936 1.44 3.936 4.416zm47.136 50.208c-2.016 2.4-3.84 4.32-5.376 5.664s-2.976 2.4-4.224 3.072a10.845 10.845 0 0 1 -3.84 1.344c-1.248.192-2.688.288-4.128.288-2.304 0-4.512-.576-6.72-1.536-2.112-1.056-4.032-2.496-5.76-4.416-1.632-1.92-2.976-4.224-4.032-7.008-1.056-2.688-1.536-5.856-1.536-9.312 0-3.36.576-6.528 1.824-9.408 1.248-2.976 2.976-5.568 5.088-7.68 2.112-2.208 4.704-3.936 7.584-5.184s6.048-1.92 9.408-1.92c1.056 0 2.112.096 3.168.288s2.112.384 3.072.768c1.056.288 1.92.672 2.784 1.152.768.48 1.44.96 2.016 1.536 0 .384 0 .864-.192 1.536-.096.768-.384 1.44-.576 2.208-.288.768-.672 1.536-.96 2.208-.384.672-.672 1.248-.96 1.728l-1.728-.48c-.288-.576-.672-1.152-1.248-1.824s-1.248-1.248-2.112-1.92a14.566 14.566 0 0 0 -3.264-1.44c-1.248-.384-2.592-.576-4.224-.576s-3.264.384-4.704 1.056c-1.536.768-2.88 1.92-4.032 3.36-1.248 1.44-2.112 3.264-2.88 5.472-.672 2.208-1.056 4.704-1.056 7.68 0 2.688.384 5.088 1.248 7.296.768 2.112 1.824 3.936 3.168 5.472s2.88 2.784 4.608 3.552a11.92 11.92 0 0 0 5.376 1.248c.864 0 1.728 0 2.496-.096.672-.096 1.536-.288 2.4-.768.96-.384 1.92-.96 3.072-1.824 1.248-.768 2.688-1.92 4.416-3.456z"/></g></svg>