<svg viewBox="0 0 257 257" xmlns="http://www.w3.org/2000/svg" fill-rule="evenodd" clip-rule="evenodd" stroke-linejoin="round" stroke-miterlimit="2"><path d="M253.511 28.716l-1.526.94c-.433 1.047 1.825 1.267 2.208 1.651.109 2.682.128 5.364.135 8.047.011 6.165-1.292 12.955-.707 19.007.605 6.26.057 12.037-1.073 18.185-1.352 7.343.584 14.627-.536 21.982-1.904 12.505.257 25.135-1.203 37.388-1.758 14.757-.573 29.163-.314 44.185.245 14.25-1.096 28.067.362 42.258.577 5.613-.239 25.054-8.53 24.851-6.94 8.838-23.441 6.308-33.142 5.864-14.008-.633-28.02-.926-41.93-2.035-7.159-.57-14.052.37-21.112 1.249-5.845.727-11.82-1.382-17.847-.99a118.97 118.97 0 01-15.674.004c-6.253-.403-11.997 1.1-18.149-.042-6.07-1.126-12.942-.412-19.029.3-6.204.727-12.075-.69-18.253-.175-5.44.454-30.469 6.011-33.763-1.04-1.515-3.246-8.329-2.714-10.751-6.949-3.112-5.44-5.151-11.608-5.069-17.914.082-6.353.188-13.237 1.39-19.474 1.475-7.656-.903-16.303-1.511-23.995-1.143-14.45.292-29.853.867-44.352.666-16.821-.36-33.36-1.023-50.16-.28-7.252 1.367-14.769-.723-21.877-.363-1.236-2.586-1.606-2.396-2.945.428-3.025.896-4.735.196-8.083C2.12 43.658 2.205 24.781 7.964 14.861c2.844-4.9 7.088-6.246 12.131-7.88 4.273-1.386 10.337.206 14.021-1.636 6.881-3.441 13.034-1.85 20.541-.77 5.574.805 11.22.4 16.841.855 28.565 2.32 57.474-.327 86.163 1.79 15.137 1.117 32.084.04 47.285-.785 7.197-.39 39.123-6.528 42.154 3.595-.334.613-.538-1.799 0 0-2.154 3.939 2.379 3.37 3.964 7.814 0 0 2.702 10.715 2.447 10.872zM90.8 103.456c-.674-11.367 1.709-23.119 1.752-34.273.05-13.298 5.715-26.268 18.301-31.796 7.84-3.444 19.243-3.048 15.407-14.029-1.926-5.51-2.129-8.212-8.046-8.69-7.388-.597-16.954-1.219-24.242.031-6.575 1.127-13.662-.89-20.42-.129-3.617.407-13.502 1.196-16.628-.83-2.217-1.437-11.23-1.426-13.966-1.277-6.122.333-14.376.872-19.771 3.908-4.245 2.39-8.845 8.144-9.078 13.154-.187 4.027.707 7.604-1.28 11.516-1.998 3.934.9 9.755.151 14.027-1.256 7.167 1.854 14.582 1.955 21.891.077 5.564-2.727 14.325-.282 19.502.804 1.703 6.063-1.476 8.241 3.578 2.036 4.723 2.962 9.092 7.084 12.624 3.088 2.646 12.346 7.136 15.89 3.044 3.064-3.536-15.003-8.753-16.896-13.197-1.619-3.799-2.295-8.319-1.293-12.369 1.624-6.56 6.386-6.038 11.555-8.233 8.668-3.682 26.654-1.149 34.309 4.472 10.867 7.981 6.048 22.69-7.521 23.922-4.16.378-10.874-1.42-11.879 3.701-1.21 6.17 10.83 2.521 14.313 2.177 4.819-.476 11.353-3.301 14.85-6.75 1.49-1.47 1.431-2.958 2.478-4.588 1.463-2.282 4.468 1.715 4.912.662l.104-2.048zm140.615-89.06c-4.865-1.629-8.293-.122-13.111-.33-6.732-.29-4.91 3.898-4.703 10.017.523 15.483.211 30.974.492 46.504 12.74 2.633 19.617-18.315 22.463-26.855 2.08-6.241 2.924-12.443 4.004-18.89 1.41-8.416-2.233-8.129-9.144-10.447-2.567-.859 2.841.953 0 0zm-28.504-.274c-4.015 1.14-7.852.714-12.218 1.348-3.919.57-4.579 15.98-4.46 19.322.434 12.221 4.202 27.436 15.552 33.446 4.477 2.37 5.382 1.547 5.047-3.67-.448-6.988.197-13.971-.281-20.954-.102-1.492-.8-29.845-3.64-29.492zm-17.322 48.964c-3.053-10.287-5.221-18.309-5.732-29.145-.433-9.214 4.175-20.479-8.385-19.195-2.745.28-7.367-.018-9.737 1.577-1.593 1.071 2.407 8.657 3.122 9.802 2.577 4.121 6.315 4.896 7.783 10.305 1.255 4.621-.536 7.31-2.675 11.15-3.547 6.37 7.032 9.893 9.203 14.989 1.463 3.433.85 6.848-3.694 4.79-3.839-1.739-5.972-5.881-8.227-9.19-1.1-1.613-6.35-6.865-7.554-2.28-.777 2.96 4.44 8.832 5.948 11.28.852 1.383 7.053 8.206 2.361 9.44-3.481.915-7.34-5.509-8.544-7.621-1.736-3.043-3.651-7.257-7.353-8.302-3.105-.877-9.211 1.276-8.876 5.348.282 3.442 3.679 6.138 3.215 9.872-.531 4.285-3.746 8.513-5.456 12.411-.748 1.71-4.82 5.342-.273 5.183 5.752-.203 11.067-1.215 16.92-1.129 2.55.038 9.086-1.115 10.311 2.433 1.471 4.258-3.407 5.979-6.363 5.788-8.232-.526-15.692-2.114-13.811 8.322 1.446 8.021 18.573-1.634 20.277 5.249 1.441 5.817-18.787 4.778-22.377 4.586-5.292-.283-19.093 3.024-22.724-1.226-3.666-4.29 6.347-4.459 8.374-4.523 7.65-.241 9.97-.289 8.666-9.286-1.323-9.127-9.742-1.473-15.796-5.11-10.173-6.113 10.205-6.618 10.884-7.312 8.276-8.465 2.266-16.884 1.394-26.446-.091-1.566-.871-2.666-2.34-3.301-2.787-1.242-2.534-4.352-3.907-6.577-2.271-3.681 1.286-9.434-3.08-12.256-14.014-9.057-30.787 16.687-27.278 28.491 1.394 4.69 36.229-.77 31.678 6.868-1.654 2.777-6.361-.034-8.723 1.567-2.435 1.651-1.995 7.436-3.277 9.956-4.077 8.013-21.954 2.8-22.496 7.973-1.128 10.778 5.339 11.528 14.596 11.159 2.486-.1 14.959.434 8.728 4.864-2.978 2.116-5.429-.771-6.25 3.914-.875 4.998-3.34 7.725-8.519 8.072-10.052.674-8.552 6.801-8.802 15.385 2.843 1.69 11.068.289 14.329.168 1.506-.056 5.153-.96 6.532.387 1.02.996 1.772 3.623-.176 4.14-3.948 1.046-4.684.73-4.448 5.469.228 4.547-8.02 8.005-11.72 8.498-4.636.617-5.847 1.278-4.892 6.586 1.124 6.238-.876 12.146-.063 18.372 1.338 10.242-2.727 25.09-11.505 30.901-7.373 4.881-6.81 13.966-14.626 19.061-1.811 1.18-9.747 5.581-9.59 7.816.29 4.132 12.13 1.152 14.423 1.194 13.013.235 26.028.934 39.045.628 10.306-.243 21-1.187 31.18.101 12.545 1.587 1.185-5.823-1.341-9.916-2.643-4.283-6.203-7.044-7.959-11.954-1.956-5.474-2.649-11.288-4.503-16.763-2.476-7.312-19.585 2.724-22.452-10.269-2.892-13.104 4.893-17.807 15.365-21.94 4.089-1.614 5.565-17.353.68-18.848-1.367-.418-6.357-2.886-2.755-4.429 2.915-1.248 6.53-.018 9.527.21 3.99.303 33.976-1.266 27.686-9.002-3.301-4.062-11.569-1.653-15.803-.962-6.266 1.023-11.451-.84-17.529-.749-5.055.076-7.794-4.404-1.9-5.455 4.456-.794 8.802-.191 13.26-.197 5.974-.008 13.094.584 18.911-.918 5.622-1.45-9.267-5.467-11.005-5.446-6.934.084-13.808 1.093-20.703 1.217-2.537.045-7.951-.476-6.462-4.486 1.099-2.959 9.147-.986 11.392-1.133 11.626-.762 34.364-5.039 39.081 10.64 2.411 8.013 7.415 3.85 7.398-1.92-.031-7.192 2.904-14.963 7.335-20.615 4.135-5.274 10.636-8.94 16.198-12.481 7.651-4.872 8.338-6.225 8.295-15.088-.034-6.94-2.86-6.9-8.977-8.323-5.038-1.17-11.916-7.236-13.439-12.369zM159.13 32.944c-2.744-4.719-2.257-11.514-6.094-15.572-3.256-3.443-10.102-1.753-14.26-1.78-6.062-.039-7.788-.423-5.849 5.582 1.304 4.04 3.736 8.853 4.152 13.063.511 5.178 1.012 13.043.502 18.211 2.984 4.503 8.761.413 12.549-.273 4.356-.788 9.574-1.966 12.593-5.712 1.29-1.603 1.938-3.949 1.944-5.983.019-5.728-3.334-3.751-5.537-7.536-2.371-4.078.91 1.565 0 0zm85.652 13.23c-2.219.854-3.34 6.353-4.04 8.279-1.704 4.688-4.272 9.271-7.166 13.325-2.854 3.998-7.108 7.347-11.836 8.82-5.169 1.61-7.707.743-7.52 7.04.358 12.06 11.893 7.163 17.06 16.681 3.11 5.762 5.791 11.277 6.353 17.891.199 2.335 2.612 10.374 5.102 11.433 3.533-5.505-3.689-14.174.051-19.712 1.23-1.822-.881-4.427.21-6.765 2.077-4.447 1.24-11.014 1.177-15.782-.032-2.517 1.789-41.21.609-41.21zM98.574 85.999c-.141 5.352 6.593 5.49 10.379 5.634 6.289.24 7.066-3.57 8.306-8.908 1.375-5.904-7.341-4.576-10.785-4.798-6.062-.39-7.742 2.091-7.9 8.072zm-64.511 8.046c-1.472 13.491 31.197 17.031 37.668 7.565 4.556-6.664-9.151-14.364-13.61-15.483-6.297-1.581-23.074-1.147-24.058 7.918-.402 3.688.449-4.132 0 0zm-19.095 9.684c2.738 11.1.047 23.407-.19 34.673-.254 12.053.417 24.087.103 36.163-.158 6.058.906 11.6 1.38 17.57.434 5.458-.779 10.883-.474 16.341.543 9.66-3.353 22.722 3.129 31.038 3.461 4.441 19.12 7.503 24.012 4.013 7.182.459 8.23-.48 13.776-4.365 4.548-3.196 8.648-5.446 11.711-10.199 5.065-7.855 3.874-16.088-1.925-23.759-2.659-3.517-5.36-5.534-9.231-7.514-4.434-2.269-3.553 2.397-4.096 5.184-1.732 8.885-10.741 13.367-17.186 18.044-3.296 2.392-9.795.924-5.398-3.47 2.659-2.66 6.169-3.885 9.142-6.049 5.327-3.877 10.124-15.373 6.638-21.501-2.313-4.064-7.687-6.39-10.606-10.15-3.663-4.72-4.99-10.475-5.128-16.349-.211-9.044 3.642-16.452 11.347-21.754 3.773-2.592 5.886-2.55 6.133-7.82.139-2.942.962-10.136-2.633-11.329-6.82-2.262-13.342-.638-19.277-5.654-3.042-2.571-5.302-6.26-6.543-10.027-.585-1.774-6.02-8.522-4.684-3.086zM219.14 245.572c6.599.793 12.767 3.449 18.598-1.377 5.81-4.809 4.841-10.527 3.953-17.12-.947-7.044.347-14.354.543-21.432.077-2.826-1.672-4.707-1.317-7.71.407-3.438.875-7.513.488-11.108-1.439-13.354-2.248-26.643-2.958-40.091-.35-6.649-3.804-11.839-4.713-18.182-1.098-7.701-2.183-14.157-7.061-20.563-1.585-2.082-9.186-9.998-11.385-4.699-2.071 4.992-.03 11.727.078 16.906.345 16.65 1.055 33.587.704 50.217-.152 7.234-.334 14.475-.242 21.711.084 6.672-1.469 12.898-.082 19.534 1.415 6.775 1.421 12.22.722 19.062-.446 4.373-2.754 14.211 2.673 14.852zm-16.638-138.16c-5.143-.564-9.36 6.42-12.412 9.546-3.82 3.917-4.498 9.266-4.495 15.063.005 8.301-3.373 17.077-1.713 25.285 1.432 7.078.62 14.404.085 21.61-.447 6.006-1.457 10.467-2.587 16.211-1.308 6.65.13 13.402-.663 20.081-.829 6.963-.887 13.205-1.328 20.24-.482 7.673.154 6.612 5.853 9.39 5.192 2.53 12.786 1.144 18.335 1.47 4.01.237 3.321-10.049 3.547-12.554 1.448-16.044-.321-31.919.807-47.945.22-3.132.872-6.222.873-9.373 0-3.917-2.922-6.364-2.311-10.524 1.258-8.57 1.435-17.37 1.858-26.03.406-8.324-.51-16.649-.236-24.979.155-4.669-.251-10.909-5.613-7.491-.613-.067 1.082-.69 0 0zM80.434 208.747c6.736-4.461 11.614-17.092 9.716-25.059-.963-4.045-1.03-9.987-.963-14.154a13.1 13.1 0 01.88-4.692c1.298-2.759-.99-5.178-.768-7.923.715-8.616-.388-17.547.736-25.946.38-2.832 3.273-18.75-.066-20.738 2.33 1.387-14.733 10.94-16.218 11.496-6.772 2.534-18.283-3.031-17.513 8.05.335 4.816-1.568 9.917-1.523 14.863.042 4.494 1.23 8.856 1 13.381-.516 10.2-8.056 8.23-7.309-.9.573-7.006-.264-14.345-7.218-5.946-5.136 6.203-3.712 16.07-.047 22.133 6.33 10.47 13.96 13.704 24.425 19.447 4.141 2.273 7.153 5.042 8.72 9.593.748 2.173 2.534 8.785 6.148 6.395zm19.231-95.743c-6.313 1.851 3.352 14.446 8.32 6.547 4.45-7.095-1.361-8.606-8.32-6.547-2.561.751 2.735-.809 0 0zm63.148 39.143c-2.989 1.311-8.868-.629-9.53 3.869-.606 4.109-.039 9.29 2.679 12.561 3.548 4.27 9.47 5.233 13.052 9.341 3.688 4.23 3.532 12.04 1.262 16.85-2.145 4.546-8.395 6.886-13.122 5.697-7.619-1.915-6.708.67-10.034 6.977-3.155 5.981-6.513 7.391-3.868 14.765 1.7 4.741 4.979 9.563 8.65 13 6.209 5.822 21.614 16.792 21.263.88-.309-14.059.126-28.3 1.89-42.246 1.657-13.093 1.196-25.635.455-38.69-.153-2.7-.109-11.631-5.486-9.49-2.956 1.176-4.503 4.807-7.211 6.486zm-55.237-6.41c-6.912-4.16-16.059 2.775-9.539 9.516 4.204 4.347 14.909-6.283 9.538-9.517-1.93-1.162 5.84 3.516 0 0zm45.554 29.46c-4.934-3.272-4.521-7.895-5.702-13.169-1.512-6.747-2.189-6.499-8.612-6.402-12.5.189.913 17.628-10.659 21.72-5.093 1.801-9.29 1.723-11.809 7.408-1.564 3.529-2.697 10.102 1.46 12.421 12.496 6.973 12.183-15.178 17.132-12.728 2.466 1.22 1.474 24.65 5.177 21.512 5.809-4.919 2.599-14.16 5.884-20.095 2.178-3.934 5.577-.65 6.054 2.028.759 4.26 5.244 7.164 9.59 7.104 5.874-.08 6.128-6.217 3.934-10.106-2.585-4.585-8.232-6.895-12.45-9.693zM46.2 39.491c0 4.379-.179 11.445-5.417 12.948-4.709 1.351-3.136-6.088-2.997-8.457.36-6.099 1.194-14.29-.314-20.256-1.783-7.058-5.213-1.074-5.028 2.835.364 7.684 3.193 18.915-.364 26.119-2.166 4.388-5.724-1.336-6.313-3.68-1.072-4.272-.546-8.686-1.147-13.016-.676-4.878-3.55-6.039-4.758-.076-1.056 5.215.383 13.931 3.005 18.625 2.904 5.2 10.376 3.967 10.401 10.939.008 2.112-1.559 11.011 1.942 11.677 4.525.86 2.832-9.162 2.647-11.488-.603-7.626 2.933-4.721 7.18-9.053 4.313-4.4 6.485-11.446 6.209-17.527-.351-7.654-5.046-6.66-5.046.41zm38.735 15.684c1.26-3.17 7.521-24.899 1.548-26.029-4.606-.872-1.871 20.555-7.471 24.083-5.52 3.477-.858-34.846-8.387-32.894-4.01 1.04 1.398 27.038 1.226 30.688-.341 7.222-7.084-1.382-8.292-3.469-2.812-4.855 2.228-13.113-2.492-16.929-6.5.427-4.413 16.534-2.209 20.144 1.378 2.257 2.057 5.027 3.968 7.123 1.812 1.988 8.03 1.686 8.563 4.48.657 3.442-.666 7.003.108 10.472.8 3.594 5.462 4.224 5.878.143.349-3.423-1.504-7.37-.303-10.675 1.317-3.62 6.372-3.385 7.863-7.137zm-23.46 37.098c-3.864 2.522-11.66.056-15.956.545-5.342.608-13.17 4.207-3.274 5.046 5.444.461 17.205 5.003 21.996.499 4.977-4.679-3.845-5.788-2.765-6.09z" fill="#b42b2c" fill-rule="nonzero"/></svg>