<svg clip-rule="evenodd" fill-rule="evenodd" stroke-linejoin="round" stroke-miterlimit="2" viewBox="0 0 1200 801" xmlns="http://www.w3.org/2000/svg" xmlns:xlink="http://www.w3.org/1999/xlink"><linearGradient id="a" gradientTransform="matrix(22.69788299 21.435823 -21.435823 22.69788299 248.004435 284.50431)" gradientUnits="userSpaceOnUse" x1="0" x2="1" y1="0" y2="0"><stop offset="0" stop-color="#223216"/><stop offset=".1" stop-color="#37531c"/><stop offset=".21" stop-color="#4c7523"/><stop offset=".49" stop-color="#568526"/><stop offset="1" stop-color="#223216"/></linearGradient><linearGradient id="b" gradientTransform="matrix(22.69788299 21.435823 -21.435823 22.69788299 248.004435 284.50431)" gradientUnits="userSpaceOnUse" x1="0" x2="1" y1="0" y2="0"><stop offset="0" stop-color="#223216"/><stop offset=".1" stop-color="#37531c"/><stop offset=".21" stop-color="#4c7523"/><stop offset=".5" stop-color="#568526"/><stop offset="1" stop-color="#223216"/></linearGradient><linearGradient id="c" gradientTransform="matrix(2.46824453 11.95231498 -11.95231498 2.46824453 581.820797 210.566279)" gradientUnits="userSpaceOnUse" x1="0" x2="1" y1="0" y2="0"><stop offset="0" stop-color="#5f952f"/><stop offset="1" stop-color="#98cf67"/></linearGradient><linearGradient id="d" gradientTransform="matrix(-2.04842591 9.80697191 -9.80697191 -2.04842591 551.67339 233.92121)" gradientUnits="userSpaceOnUse" x1="0" x2="1" y1="0" y2="0"><stop offset="0" stop-color="#477813"/><stop offset="1" stop-color="#87dd2b"/></linearGradient><linearGradient id="e" gradientTransform="matrix(2.69260434 14.26931634 -14.26931634 2.69260434 503.980595 246.652613)" gradientUnits="userSpaceOnUse" x1="0" x2="1" y1="0" y2="0"><stop offset="0" stop-color="#588e28"/><stop offset="1" stop-color="#92d15a"/></linearGradient><linearGradient id="f" gradientTransform="matrix(5.93446818 13.52807613 -13.52807613 5.93446818 488.721983 237.697805)" gradientUnits="userSpaceOnUse" x1="0" x2="1" y1="0" y2="0"><stop offset="0" stop-color="#57812a"/><stop offset="1" stop-color="#93c959"/></linearGradient><linearGradient id="g" gradientTransform="matrix(-8.53019046 15.56136279 -15.56136279 -8.53019046 492.720125 272.721728)" gradientUnits="userSpaceOnUse" x1="0" x2="1" y1="0" y2="0"><stop offset="0" stop-color="#355b18"/><stop offset="1" stop-color="#71c233"/></linearGradient><linearGradient id="h" gradientTransform="matrix(-11.01560309 -8.41810483 8.41810483 -11.01560309 427.137543 182.898075)" gradientUnits="userSpaceOnUse" x1="0" x2="1" y1="0" y2="0"><stop offset="0" stop-color="#345010"/><stop offset="1" stop-color="#7cc026"/></linearGradient><linearGradient id="i" gradientTransform="matrix(-10.35430203 -4.83973581 4.83973581 -10.35430203 460.399733 152.001377)" gradientUnits="userSpaceOnUse" x1="0" x2="1" y1="0" y2="0"><stop offset="0" stop-color="#76973e"/><stop offset="1" stop-color="#acc97b"/></linearGradient><linearGradient id="j" gradientTransform="matrix(13.65937163 -10.48044698 10.48044698 13.65937163 384.236799 340.556016)" gradientUnits="userSpaceOnUse" x1="0" x2="1" y1="0" y2="0"><stop offset="0" stop-color="#599a29"/><stop offset="1" stop-color="#7fd342"/></linearGradient><linearGradient id="k" gradientTransform="matrix(15.72622507 -7.33860639 7.33860639 15.72622507 423.101664 235.495997)" gradientUnits="userSpaceOnUse" x1="0" x2="1" y1="0" y2="0"><stop offset="0" stop-color="#3c7315"/><stop offset="1" stop-color="#74d92d"/></linearGradient><linearGradient id="l" gradientTransform="matrix(-4.32296311 -8.01352962 8.01352962 -4.32296311 504.970697 202.381541)" gradientUnits="userSpaceOnUse" x1="0" x2="1" y1="0" y2="0"><stop offset="0" stop-color="#4e8d1d"/><stop offset="1" stop-color="#87d948"/></linearGradient><linearGradient id="m" gradientTransform="matrix(5.70842096 15.78569259 -15.78569259 5.70842096 486.338424 217.415624)" gradientUnits="userSpaceOnUse" x1="0" x2="1" y1="0" y2="0"><stop offset="0" stop-color="#3e7816"/><stop offset="1" stop-color="#76d931"/></linearGradient><linearGradient id="n" gradientTransform="matrix(-6.37646355 -3.74329326 3.74329326 -6.37646355 475.644257 218.786545)" gradientUnits="userSpaceOnUse" x1="0" x2="1" y1="0" y2="0"><stop offset="0" stop-color="#5d902a"/><stop offset="1" stop-color="#97d05e"/></linearGradient><linearGradient id="o" gradientTransform="matrix(0 5.8376 -5.8376 0 555.161 252.933)" gradientUnits="userSpaceOnUse" x1="0" x2="1" y1="0" y2="0"><stop offset="0" stop-color="#68a830"/><stop offset="1" stop-color="#9fd670"/></linearGradient><linearGradient id="p" gradientTransform="matrix(19.094 9.51066 -9.51066 19.094 435.235 297.74)" gradientUnits="userSpaceOnUse" x1="0" x2="1" y1="0" y2="0"><stop offset="0" stop-color="#66923a"/><stop offset="1" stop-color="#9ec874"/></linearGradient><linearGradient id="q" gradientTransform="matrix(7.64469232 -9.51283862 9.51283862 7.64469232 284.28802 216.632883)" gradientUnits="userSpaceOnUse" x1="0" x2="1" y1="0" y2="0"><stop offset="0" stop-color="#578e25"/><stop offset="1" stop-color="#91d355"/></linearGradient><linearGradient id="r" gradientTransform="matrix(.32028008 -6.34213802 6.34213802 .32028008 367.46881 227.810384)" gradientUnits="userSpaceOnUse" x1="0" x2="1" y1="0" y2="0"><stop offset="0" stop-color="#56563c"/><stop offset="1" stop-color="#9c9c72"/></linearGradient><linearGradient id="s" gradientTransform="matrix(-10.66028408 -4.30768364 4.30768364 -10.66028408 417.052286 171.998083)" gradientUnits="userSpaceOnUse" x1="0" x2="1" y1="0" y2="0"><stop offset="0" stop-color="#527c21"/><stop offset="1" stop-color="#90ce48"/></linearGradient><linearGradient id="t" gradientTransform="matrix(.9689742 -17.45160027 17.45160027 .9689742 358.433009 196.314545)" gradientUnits="userSpaceOnUse" x1="0" x2="1" y1="0" y2="0"><stop offset="0" stop-color="#274813"/><stop offset="1" stop-color="#61b32f"/></linearGradient><linearGradient id="u" gradientTransform="matrix(-.88410441 17.95479628 -17.95479628 -.88410441 488.800424 169.642166)" gradientUnits="userSpaceOnUse" x1="0" x2="1" y1="0" y2="0"><stop offset="0" stop-color="#4a651e"/><stop offset="1" stop-color="#91c53d"/></linearGradient><linearGradient id="v" gradientTransform="matrix(-2.58054144 -7.53242555 7.53242555 -2.58054144 439.472509 197.483967)" gradientUnits="userSpaceOnUse" x1="0" x2="1" y1="0" y2="0"><stop offset="0" stop-color="#568f22"/><stop offset="1" stop-color="#90d651"/></linearGradient><linearGradient id="w" gradientTransform="matrix(-5.27495911 -7.54771248 7.54771248 -5.27495911 486.7735 162.10166)" gradientUnits="userSpaceOnUse" x1="0" x2="1" y1="0" y2="0"><stop offset="0" stop-color="#69a437"/><stop offset="1" stop-color="#a0d177"/></linearGradient><linearGradient id="x" gradientTransform="matrix(-8.30592479 -7.98292442 7.98292442 -8.30592479 477.092911 154.177709)" gradientUnits="userSpaceOnUse" x1="0" x2="1" y1="0" y2="0"><stop offset="0" stop-color="#3f4c17"/><stop offset="1" stop-color="#94b236"/></linearGradient><linearGradient id="y" gradientTransform="matrix(-4.6289169 -5.07944986 5.07944986 -4.6289169 499.239417 145.873522)" gradientUnits="userSpaceOnUse" x1="0" x2="1" y1="0" y2="0"><stop offset="0" stop-color="#78b333"/><stop offset="1" stop-color="#acd978"/></linearGradient><radialGradient id="z" cx="0" cy="0" gradientTransform="matrix(-11.8352 -.6244 5.62978 -106.709 330.221 283.082)" gradientUnits="userSpaceOnUse" r="1"><stop offset="0" stop-color="#5f962b"/><stop offset="1" stop-color="#40701e"/></radialGradient><radialGradient id="A" cx="0" cy="0" gradientTransform="matrix(-2.08357 6.26689 -18.9722 -6.30776 400.881 304.246)" gradientUnits="userSpaceOnUse" r="1"><stop offset="0" stop-color="#5e9330"/><stop offset="1" stop-color="#97ce67"/></radialGradient><radialGradient id="B" cx="0" cy="0" gradientTransform="matrix(-31.4304 59.2118 -9.46958 -5.02657 344.948 250.412)" gradientUnits="userSpaceOnUse" r="1"><stop offset="0" stop-color="#447e1c"/><stop offset="1" stop-color="#7cd440"/></radialGradient><radialGradient id="C" cx="0" cy="0" gradientTransform="matrix(-10.9542 42.8737 -23.5747 -6.02334 388.92 243.904)" gradientUnits="userSpaceOnUse" r="1"><stop offset="0" stop-color="#253212"/><stop offset=".16" stop-color="#36441e"/><stop offset=".34" stop-color="#64773e"/><stop offset="1" stop-color="#70794e"/></radialGradient><radialGradient id="D" cx="0" cy="0" gradientTransform="matrix(-7.20065 9.72259 -31.2975 -20.4189 169.053 307.103)" gradientUnits="userSpaceOnUse" r="1"><stop offset="0" stop-color="#1a3c0d"/><stop offset=".08" stop-color="#17390c"/><stop offset=".17" stop-color="#15370c"/><stop offset=".5" stop-color="#14360c"/><stop offset="1" stop-color="#124309" stop-opacity="0"/></radialGradient><radialGradient id="E" cx="0" cy="0" gradientTransform="matrix(4.86092 -6.58832 20.9001 15.4203 190.561 253.18)" gradientUnits="userSpaceOnUse" r="1"><stop offset="0" stop-color="#113808"/><stop offset=".5" stop-color="#114205" stop-opacity=".61"/><stop offset="1" stop-color="#568525" stop-opacity="0"/></radialGradient><radialGradient id="F" cx="0" cy="0" gradientTransform="matrix(1.89728 -2.55778 20.2635 15.0308 165.597 203.588)" gradientUnits="userSpaceOnUse" r="1"><stop offset="0" stop-color="#15370c"/><stop offset="1" stop-color="#14360c" stop-opacity=".07"/></radialGradient><radialGradient id="G" cx="0" cy="0" gradientTransform="matrix(3.37725 -5.13632 23.0836 15.178 155.82 216.126)" gradientUnits="userSpaceOnUse" r="1"><stop offset="0" stop-color="#194d09"/><stop offset=".52" stop-color="#20520d" stop-opacity=".77"/><stop offset="1" stop-color="#356219" stop-opacity=".03"/></radialGradient><radialGradient id="H" cx="0" cy="0" gradientTransform="matrix(-11.2123 -11.7952 4.91207 -4.66933 217.139 255.288)" gradientUnits="userSpaceOnUse" r="1"><stop offset="0" stop-color="#062404"/><stop offset=".33" stop-color="#072a04" stop-opacity=".88"/><stop offset=".61" stop-color="#0c3f06" stop-opacity=".47"/><stop offset=".81" stop-color="#174a0b" stop-opacity=".36"/><stop offset="1" stop-color="#376e19" stop-opacity="0"/></radialGradient><radialGradient id="I" cx="0" cy="0" gradientTransform="matrix(5.47799 6.52477 -15.2021 12.7632 182.014 236.31)" gradientUnits="userSpaceOnUse" r="1"><stop offset="0" stop-color="#040304"/><stop offset=".56" stop-color="#12190a" stop-opacity=".81"/><stop offset="1" stop-color="#476d21" stop-opacity=".08"/></radialGradient><g fill-rule="nonzero"><path d="m301.27 468.31c21.496-20.744 43.113-42.353 67.838-59.244 24.783-16.936 52.928-28.234 81.16-37.965 22.388-7.719 43.66-14.976 62.195-30.463 17.965-15.013 30.852-33.78 36.945-56.473 1.786-6.644-5.613-1.341-6.599 2.33-15.173 56.498-72.255 67.249-119.158 86.102-49.037 19.712-86.104 52.59-123.66 88.833-2.754 2.655-3.676 11.662 1.28 6.88" fill="#564f4e"/><path d="m534.126 312.116c48.568-15.226 94.23-49.83 120.418-93.34 2.455-4.076-.986-6.025-3.422-1.976-24.907 41.382-68.175 73.812-114.307 88.277-2.376.746-6.09 8.103-2.69 7.039" fill="#564f4e"/><path d="m546.183 504.857c7.795-4.017 16.243-8.5 22.396-14.846 1.318-1.357 1.755-5.906-.637-3.44-2.569 2.647-5.582 4.95-8.785 7.02-4.115 2.666-8.54 4.952-12.727 7.11-1.496.771-2.913 5.532-.247 4.156" fill="#363636"/><path d="m698.222 397.938c1.657-2.405 2.772-5.119 4.476-7.5 3.327-4.644 8.18-8.016 12.997-10.94 1.428-.864-1.851-4.929-3.524-3.915-4.895 2.966-9.526 6.338-12.998 10.94-1.77 2.348-2.821 5.098-4.475 7.5-1.12 1.625 2.608 5.245 3.524 3.915" fill="#564f4e"/><path d="m691.255 408.712c26.021-41.922 57.83-84.189 96.888-114.654 1.905-1.486 3.801-8.912.374-6.238-40.644 31.703-73.614 75.306-100.682 118.916-2.515 4.052.936 5.98 3.42 1.976m-26.095 43.123c63.51-34.267 133.583-52.66 199.045-82.442 1.783-.812-1.955-4.415-3.572-3.68-62.185 28.292-128.531 46.305-189.46 77.413-3.208 1.638-2.834 2.518-6.013 4.233-1.781.962-1.541 5.308 0 4.476" fill="#564f4e"/><path d="m760.346 411.36c49.016-.783 98.058-2.077 147.08-2.195 2.426-.005-.54-4.2-2.203-4.196-49.02.12-98.066 1.411-147.079 2.194-2.434.04.543 4.223 2.202 4.196m-221.621-104.43c33.015-32.396 67.97-59.471 107.162-83.902 39.217-24.446 79.034-47.938 117.623-73.356 1.378-.909 2.713-5.782.248-4.16-39.25 25.858-79.755 49.76-119.649 74.621-38.84 24.212-74.16 50.963-106.862 83.051-1.359 1.336-.98 6.156 1.478 3.746m-238.669 177.435a5221.839 5221.839 0 0 1 92.684 13.01c21.512 3.209 43.013 6.552 64.403 10.503 17.099 3.159 32.149 6.48 49.722 4.845 43.526-4.052 87.924-18.543 128.028-35.494 34.817-14.718 43.547-51.561 64.858-79.613 3.193-4.205-2.455-4.718-4.863-1.55-10.692 14.08-18.031 31.075-27.638 45.94-10.603 16.4-20.38 24.467-37.99 31.624-39.916 16.23-84.267 30.363-127.474 33-16.233.99-31.87-3.746-47.72-6.586-21.01-3.764-42.13-6.957-63.244-10.095a5126.694 5126.694 0 0 0 -86.617-12.104c-3.095-.406-7.434 6.09-4.149 6.52" fill="#564f4e"/></g><path d="m295.174 497.29c.948-1.17 8.827-7.316 15.397-7.09 6.57.23 9.892-3.171 19.58-2.197 7.435.748 13.317 2.197 13.317 2.197s2.618-.034 3.411-2.197c1.078-2.926-1.322-4.009-1.362-4.544 0 0-5.21-1.457-7.094-2.062-3.027-.975-6.404-2.355-11.722-4.018-5.319-1.657-10.988-3.387-15.419-4.641-4.43-1.254-7.623-2.034-7.987-1.792-.658.44-3.019 8.507-3.896 12.513-.877 4.007-4.225 13.83-4.225 13.83z" fill="#564f4e"/><path d="m290.364 288.471c.901.951.254-2.72-.032-4.332-.516-2.901 1.745-1.501 6.143.545 1.088.503 1.885 5.216 3.445 4.33 1.274-.723 1.746-3.791 2.764-6.588 1.17-3.212 2.992-6.397 4.464-8.823 4.843-7.986 10.776-14.755 16.662-21.16 4.276-4.653 7.63-10.196 11.228-15.512 1.28-1.892 2.59-3.753 3.982-5.534 9.033-11.558 18.012-23.072 27.355-34.383 6.642-8.041 13.425-15.937 20.45-23.581 21.698-23.61 65.893-74.214 65.893-74.214h-28.178s-36.42 33.7-57.781 56.942c-7.019 7.638-13.859 15.401-20.671 23.183-9.598 10.964-19.141 21.965-29.054 32.701a110.398 110.398 0 0 1 -4.716 4.77c-4.621 4.433-9.535 8.655-13.828 13.327-5.886 6.404-10.655 13.793-17.788 19.661-2.167 1.782-4.223 3.477-6.521 5.537-2.001 1.794-1.719 2.441-4.415 4.991-1.262 1.192-2.148-6.037-4.867-2.77-2.395 2.879-.274 4.84-2.719 7.975-1 1.282-1.963.636-3.213 1.145-1.486.603 17.48 7.096 31.397 21.79z" fill="url(#a)" transform="matrix(2.63427 0 0 2.63427 -495.547 -261.6)"/><path d="m276.598 296.804c-5.281-2.75-10.643-6.826-13.814-9.117-9.515-6.873-10.736-9.722-11.905-8.351-1.097 1.289-21.343 19.975-23.676 22.435-14.506 15.294-39.97 38.568-39.97 38.568v54.727s43.055-48.365 64.753-71.975c3.671-3.996 19.479-19.746 20.189-20.424 1.851-1.77 4.933-5.598 4.423-5.863z" fill="url(#b)" transform="matrix(2.63427 0 0 2.63427 -493.224 -260.965)"/><path d="m507.027 243.126c2.401-.523 21.537-9.162 31.149-12.662 1.646-.599 5.61-1.225 7.916-1.681 3.863-.763 4.876-1.025 7.251-1.682 15.313-4.237 31.501-5.224 46.813-9.461 7.659-2.119 24.215-10.089 27.004-11.527 8.689-4.479 15.387-4.441 16.351-4.878.083-.282.161-.266.132-.559a4.477 4.477 0 0 0 -.066-.448c-.03-.149-.202-.259-.343-.337-.546.204-8.056-1.139-17.885.45-9.835 1.59-21.196 4.763-28.935 6.569-16.494 3.848-27.494 6.098-45.564 13.336-2.288.917-3.964 1.807-7.059 4.003-1.924 1.365-4.877 3.648-6.478 4.348-9.354 4.085-28.725 11.614-31.125 12.137.092.266.186.532.28.797l.279.798c.094.265.188.531.28.797z" fill="url(#c)" transform="matrix(2.63427 0 0 2.63427 -495.547 -261.6)"/><path d="m508.2 242.777c1.664-.754 13.459-5.096 22.863-4.016 7.288.837 14.671 4.156 22.008 4.156s14.367-.403 21.697-.118c8.047.313 16.855.739 21.859 1.221.277-.024.475-.219.475-.36v-.42c0-.141-.225-.337-.493-.483-6.298-1.133-12.572-4.311-21.841-6.456-7.147-1.655-14.36-3.152-21.697-3.152s-14.674-.096-22.008-.22c-10.029-.17-23.602 6.86-25.267 7.614l.618.781c.206.26 1.274.912 1.48 1.172.207.261.099.021.306.281z" fill="url(#d)" transform="matrix(2.63427 0 0 2.63427 -495.547 -261.6)"/><path d="m476.383 257.819c10.238-.729 16.801.271 26.018.038 8.294-.211 16.108-1.906 24.245-5.772 4.725-2.245 11.35-5.307 24.168-9.305-.021-.078-.043-.157-.063-.236a10.214 10.214 0 0 1 -.063-.235l-.064-.236c-.541.119-20.94.267-26.132 1.174a376.665 376.665 0 0 0 -24.369 5.084c-8.06 1.965-22.512 7.55-24.408 7.83l.223.552.222.553z" fill="url(#e)" transform="matrix(2.63427 0 0 2.63427 -495.547 -261.6)"/><path d="m440.604 271.171c1.224-.612 12.675-4.9 14.465-5.963.957-.566 5.393-3.045 10.845-4.652 4.753-1.402 10.578-1.828 14.184-3.569 8.441-4.077 15.729-7.288 23.26-11.432a52.9 52.9 0 0 0 11.703-8.79c2.75-2.744 4.394-4.938 8.225-7.81 2.4-1.798 5.576-4.547 9.098-6.69 5.238-3.188 13.191-7.9 13.565-8.109l-.171-.315-.17-.315-.17-.315c-.375.209-7.83 2.821-15.328 5.258-4.017 1.306-8.641 2.479-10.866 3.392-3.518 1.444-6.872 3.054-10.171 4.758-4.156 2.148-8.223 4.448-12.423 6.758-7.531 4.145-15.063 8.273-22.176 13.1-3.386 2.298-7.739 5.615-11.604 8.61-4.434 3.437-8.227 6.451-9.184 7.018-1.119.664-6.397 3.235-10.176 5.154-2.268 1.152-3.348 2.123-3.955 2.557-.196.556-.804.977-.266 1.641.603.745 1.119-.188 1.315-.286z" fill="url(#f)" transform="matrix(2.63427 0 0 2.63427 -495.547 -261.6)"/><path d="m440.526 271.213c21.937-7.685 27.317-1.219 31.691 1.664 4.218 2.78 13.312 11.361 18.598 15.054 5.287 3.694 18.555 10.728 20.928 12.43 4.555 3.268 18.91 15.277 19.561 15.672.101-.122.502.055.603-.068l.303-.368c.102-.122-.098-.545.004-.668-.651-.396-14.86-15.946-17.486-18.838-1.964-2.162-11.945-13.928-16.527-18.466-8.783-8.7-11.533-9.367-21.577-12.646-5.573-1.82-22.846.071-36.416 4.227-.307.31-.742.51-.904 1.045-.32.47-.305.351-.238.813.052.353.593 1.358 1.46.149z" fill="url(#g)" transform="matrix(2.63427 0 0 2.63427 -495.547 -261.6)"/><path d="m316.88 335.316.397.188.398.188c-.11-.647 6.866-13.83 13.55-23.25 4.038-5.69 7.154-6.58 1.615-27.551-1.617-6.118-9.322-19.411-13.348-23.818-.852-.932-1.448-.61-1.817-.61-.243 0-.332.386-.398.61-.066.225-.139.551 0 .736.139.184.633-.048.835.374 1.717 3.573 3.858 20.624 4.087 24.144.328 5.04-1.026 16.09-1.932 23.01-1.061 8.097.751 4.474-3.387 25.979z" fill="url(#z)" transform="matrix(2.63427 0 0 2.63427 -495.547 -261.6)"/><path d="m393.235 211.549c-.218.523-.031 1.248.427 1.483 1.473.753 1.728-.106 4.729-2.697 1.162-1.635 11.835-10.485 25.66-25.157 8.677-9.208 11.976-27.688 14.457-32.644 3.093-6.184 11.763-27.161 12.011-27.505-.007-.349-.167-1.498-.326-1.524-.158-.025-1.114 1.297-1.394 1.601-.248.344-8.948 19.744-12.512 25.626-1.794 2.964-12.194 19.128-19.794 28.402-11.026 13.456-7.942 18.187-19.443 29.044-1.124 1.061-3.098 1.655-3.815 3.371z" fill="url(#h)" transform="matrix(2.63427 0 0 2.63427 -495.547 -261.6)"/><path d="m435.679 181.723c.449-.491 14.734-14.721 18.258-19.828 5.458-7.917 8.447-16.351 10.763-22.955 1.923-5.489 8.59-23.087 8.783-23.6l-.244-.174-.244-.175c-.193.513-11.603 15.76-14.811 20.613-5.515 8.339-8.53 16.686-11.339 22.219-3.144 6.191-11.507 22.931-11.956 23.422l.395.238z" fill="url(#i)" transform="matrix(2.63427 0 0 2.63427 -495.547 -261.6)"/><path d="m339.722 288.269c10.02 3.038 14.893 3.043 19.108 7.407 8.002 8.284 11.759 20.464 16.67 30.857 2.799 5.925 5.959 11.467 10.343 16.722 3.611 4.328 8.456 11.37 10.055 12.688 6.934 5.719 11.776 8.597 13.963 10.826 2.511 2.555 6.772 6.523 11.545 12.112 9.205 10.779 20.315 24.231 20.528 24.505l.156-.123.156-.121.156-.123c-.214-.274-9.779-15.146-17.242-27.328-3.935-6.422-6.805-12.337-8.457-14.447-1.926-2.458-4.674-8.169-8.67-14.617-2.681-4.328-6.082-8.889-9.143-13.624-3.717-5.749-8.382-10.721-11.93-15.249-7.088-9.049-14.973-16.525-24.582-25.003-4.545-4.011-13.485-6.943-21.064-7.052-.228.323-.012.184-.164.481-.423.826-.031.173-.624 1.002-.48.672-1.476.997-.804 1.087z" fill="url(#j)" transform="matrix(2.63427 0 0 2.63427 -495.547 -261.6)"/><path d="m431.052 277.442c-.184 1.037.333 1.249.672 1.349s1.219-.772 1.361-.748c2.377-2.968 4.7-7.918 5.575-13.295 1.178-7.232 2.325-15.386 2.616-20.482.208-3.641.659-9.954-3.441-17.401-1.288-2.34-3.025-4.791-5.36-7.307-1.851-1.994-7.308-3.805-9.993-6.461-2.223-2.199-4.395-4.071-5.966-6.163-2.732-3.635-4.708-6.634-4.887-6.549-.179.084-.566-.085-.744 0-.414 2.357 1.309 3.844 2.746 8.301.827 2.564 1.407 5.774 2.465 8.569 1.277 3.374 2.47 6.26 3.608 8.73a81.405 81.405 0 0 1 2.404 5.845c2.286 6.17 3.932 12.33 6.928 19.301 2.016 4.69 3.636 8.111 4.049 12.746.306 3.434-1.603 11.131-2.033 13.565z" fill="url(#k)" transform="matrix(2.63427 0 0 2.63427 -495.547 -261.6)"/><path d="m487.412 210.811c5.824-4.726 10.215-5.478 15.142-8.241 4.925-2.763 11.76-6.818 17.002-10.539 2.453-1.743 12.673-5.19 12.724-5.362.043-.218.028-.179-.005-.246-.033-.066-.035-.117-.067-.183-.033-.067-.057-.086-.224-.168-.52.207-9.621 3.242-13.491 4.107-6.507 1.453-14.094 3.665-19.009 6.448-10.37 5.873-11.855 11.431-13.329 12.987-.305.322-.603 1.049 0 1.378.646.352.923-.125 1.257-.181z" fill="url(#l)" transform="matrix(2.63427 0 0 2.63427 -495.547 -261.6)"/><path d="m459.885 243.319c1.946-.658 17.61-8.656 24.022-11.732 7.512-3.603 18.001-6.312 23.882-12.757 6.757-7.405 8.455-11.474 21.133-17.932.192-.293.077-.419.005-.544s-.126-.181-.198-.306.029-.173-.454-.273c-9.846 4.958-15.752 4.528-27.064 8.988-13.725 5.411-18.096 9.868-22.918 13.641-5.602 4.381-17.056 15.702-20.538 19.473-.564.611-.896 1.441-1.229 2.17-.324.708-.967 2.02-.769 2.205.198.184 3.589-2.75 4.128-2.933z" fill="url(#m)" transform="matrix(2.63427 0 0 2.63427 -495.547 -261.6)"/><path d="m450.336 251.82c.121.096.698-.803.82-.707.574.118.794 1.287.915 1.383.122.096 1.59-2.112 1.877-2.624 5.127-9.134 8.957-15.73 11.068-18.404 2.306-2.925 11.694-12.642 15.303-18.299 3.056-4.792 3.783-12.864 8.977-22.514.108-.275-.109-.481-.244-.564-.134-.082-.25-.086-.385-.168-.135-.083-.481-.09-.707.038-1.375 2.364-10.264 13.254-14.174 18.708-3.909 5.455-9.61 14.069-12.239 20.165-1.546 3.584-3.079 7.739-9.71 20.017-.443.819-1.012 2.075-1.501 2.969z" fill="url(#n)" transform="matrix(2.63427 0 0 2.63427 -495.547 -261.6)"/><path d="m527.982 254.647c7.096 0 16.23 2.561 23.326 2.561 7.095 0 14.223-1.35 21.289-.684 7.973.751 22.233 3.957 23.352 4.025.236.002.281-.055.321-.107l.109-.153c.037-.052-.002-.133-.096-.201-1.177-.174-15.805-5.588-23.686-6.334-7.066-.669-14.194-1.608-21.289-1.608-7.096 0-16.21.921-23.306.921-.631.129-1.14.571-1.14.826 0 .752.467.707 1.12.754z" fill="url(#o)" transform="matrix(2.63427 0 0 2.63427 -495.547 -261.6)"/><path d="m436.022 275.884c.361-.101.388-.315.803-.55 7.576-4.298 8.355 7.595 5.584 12.786-3.125 5.852-4.104 10.136-7.449 15.475-3.345 5.338-6.603 9.792-11.222 17.891-.889 1.558-10.765 19.351-10.925 19.573.078.041.144.066.222.107l.236.122c.078.041.168.098.247.138.161-.221 8.154-11.325 14.526-17.02 6.931-6.181 14.266-7.822 20.915-12.888 6.829-5.203 6.381-12.442 2.892-24.316-2.319-7.885-6.045-15.41-14.783-13.863-.341.06-.465.197-1.046.468-.324.152-.873.644-.764 1.296.109.651.212.936.764.781z" fill="url(#p)" transform="matrix(2.63427 0 0 2.63427 -495.547 -261.6)"/><path d="m368.479 293.323c1.141.194 2.313.413 3.581.475 6.551.324 11.478 6.187 13.568 7.495 3.117 1.95 10.964 7.158 15.921 8.135 4.957.976 13.045-.971 18.873-.951l.139-.481c.046-.16-.207-.32-.161-.48-5.828-.02-11.379-3.524-16.877-4.804-4.919-1.147-13.691-3.982-16.321-5.233-2.227-1.061-7.751-3.378-14.435-5.747-1.462-.518-3.055-.729-4.288-.979-1.342-.025-1.684.572-1.722.979-.082.879 1.318 1.522 1.722 1.591z" fill="url(#A)" transform="matrix(2.63427 0 0 2.63427 -495.547 -261.6)"/><path d="m560.89 492.432c-.772 1.172-.366 1.923 0 2.352.363.43 2.708-.382 3.843-1.143 2.066-1.383 29.554-29.625 33.98-35.705 10.19-14.001 14.544-15.308 15.621-42.325.45-11.209-4.328-18.013-3.367-44.216-.321-.43-1.217-.517-1.823-.38-.61.14-1.585.527-1.828 1.202-2.276 24.643-9.262 34.759-11.656 41.6-3.43 9.813-3.649 32.726-4.594 40.186-.94 7.46-29.172 36.906-30.176 38.429z" fill="#689d34"/><path d="m246.34 175.002c10.009 5.883 17.007 16.148 19.938 19.538 3.074 3.554 8.695 13.42 18.619 23.126 5.152 5.039 21.494 12.501 25.98 15.264 4.487 2.764 19.873 11.82 18.252 18.767-.227.971.812.972 1.146.868 1.146-.051 1.4-.962 1.455-1.606.263-.267.003-.534 0-1.02-.035-4.972-12.965-20.315-17.217-23.252-4.336-2.995-15.657-13.215-21.2-17.819-5.545-4.603-18.257-15.847-21.686-18.417-3.428-2.571-10.536-8.993-24.786-16.102l-.251.326z" fill="url(#q)" transform="matrix(2.63427 0 0 2.63427 -495.547 -261.6)"/><path d="m315.435 310.602c-.118.455-.024.544.114.666l.415.367c.138.123.275.156.714.068.292-.418 8.993-7.469 12.733-10.732 2.074-1.81 7.329-7.931 9.993-11.449 3.377-4.456 5.097-8.058 7.244-12.382 2.146-4.325 3.495-13.954 3.682-15.804.357-3.561.892-22.154-9.956-16.644-.508.258-1.722 1.001-.97 2.159.709 1.092 1.371.509 1.66.46 7.559-1.298.31 8.357-2.953 13.158a77.89 77.89 0 0 0 -5.339 9.116c-2.147 4.323-4.474 9.29-6.432 13.244s-3.954 11.074-5.198 13.529c-2.402 4.736-5.416 13.828-5.707 14.244z" fill="url(#B)" transform="matrix(2.63427 0 0 2.63427 -495.547 -261.6)"/><path d="m376.747 286.496c.081.301.312.377.515.424s.316.142.704-.142c.222-.246 8.548-18.07 9.571-20.166 2.133-4.373 9.493-12.299 10.405-21.481.458-4.613-1.934-14.425-6.215-18.889-2.206-2.3-4.823-3.685-7.901-1.7-.239.301-.849.961-1.088 1.262-.248.311.217.585.48 1.022.169.281-.934 1.717-1.248 3.73-.611 3.905-1.711 10.086-1.673 14.721.058 7.024 2.197 17.738 1.851 20.045-.782 5.221-4.573 20.203-5.401 21.174z" fill="url(#C)" transform="matrix(2.63427 0 0 2.63427 -495.547 -261.6)"/><path d="m342.911 219.979c-1.187-.177 15.467 3.383 18.717 5.205 5.364 3.006 4.79 4.149 17.8 3.541.68-.032 1.856 1.512 2.22-.5.062-.342.094-.895-.651-1.316-7.283-4.113-11.304-5.362-18.129-5.951-3.712-.319-20.768-3.05-19.581-2.872-.818.101-1.083.486-1.149.799-.065.312.143.849.773 1.094z" fill="url(#r)" transform="matrix(2.63427 0 0 2.63427 -495.547 -261.6)"/><path d="m393.219 211.309c-.147.683-.3 1.335.741 1.921.918.518 1.282-.095 1.684-.893 1.06-2.1 6.267-14.773 16.987-31.436 6.845-10.64 10.699-23.668 12.313-33.539 1.531-9.359.804-12.176.956-12.57-.094-.337-.288-.441-.447-.426-.159.016-.341.137-.535.503-.153.394.603 1.605-5.653 10.729-3.905 5.695-10.792 20.17-15.808 31.061-7.72 16.765-1.25 17.494-9.497 32.653a8.813 8.813 0 0 0 -.741 1.997z" fill="url(#s)" transform="matrix(2.63427 0 0 2.63427 -495.547 -261.6)"/><path d="m295.792 195.712c.876-.136 23.848-2.259 35.787-2.24 13.767.023 27.895 3.026 35.571 3.026 7.677 0 26.426-.435 27.04 11.488.034.673-1.437 3.769-1 4.508 0 0 .236.639.68.847 2.612 1.223 4.089-6.094 4.431-6.905 1.018-2.41.267-5.585 0-7.642-1.661-12.805-25.09-18.863-31.396-19.264-16.316-1.038-21.217-.854-35.208 2.176-12.066 2.613-35.336 12.679-36.212 12.816-.429.212-.352.538-.3.736.05.198.09.432.607.454z" fill="url(#t)" transform="matrix(2.63427 0 0 2.63427 -495.547 -261.6)"/><path d="m436.539 182.369c.982-.659 27.774.403 41.344 4.153 22.124 6.114 28.109.344 42.053-1.597 15.542-2.163 13.53-4.357 41.266.467l.237-.619.238-.619c-12.487-3.403-24.92-7.242-41.741-11.6-13.628-3.531-28.023-2.984-42.053-4.156-16.273-1.36-41.048 11.174-42.029 11.832l.342 1.069z" fill="url(#u)" transform="matrix(2.63427 0 0 2.63427 -495.547 -261.6)"/><path d="m419.073 202.307c.168-.03.471-.296 1.035-.808 2.526-.553 9.355-2.198 13.89-3.085 4.011-.785 9.842-5.172 13.341-6.196 5.798-1.702 8.857-2.408 15.048-4.088.388-.058.305-.194.307-.291.003-.097.019-.267-.292-.292-10.497 1.176-13.756 2.406-16.137 2.676-5.914.673-9.003 1.474-13.331 2.967-2.768.955-7.635 5.134-12.362 6.878-.592.219-1.507.437-2.09.568-.327.232-.885.637-.445 1.227.258.834.61.687 1.036.444z" fill="url(#v)" transform="matrix(2.63427 0 0 2.63427 -495.547 -261.6)"/><path d="m458.954 168.186c13.493-6.392 14.648-5.253 16.679-6.012 3.883-1.447 14.079-.211 18.963-3.619 3.039-2.12 4.475-7.111 15.865-13.644l-.079-.203-.079-.202c-.358.089-13.949 3.282-20.178 6.854-5.166 2.964-11.066 5.609-15.58 7.272-2.035.75-11.362 5.681-16.224 8.618-.374.226-.296.764-.22.936.116.261.853 0 .853 0z" fill="url(#w)" transform="matrix(2.63427 0 0 2.63427 -495.547 -261.6)"/><path d="m421.373 191.863c1.124-.495 20.71-11.16 27.567-17.607 2.099-1.767 4.204-2.724 8.792-5.715 6.732-4.389 14.668-10.456 17.18-12.888 6.07-5.881 16.064-21.923 18.767-24.914 3.964-4.386 20.378-23.595 20.785-23.873l-.331-.17-.331-.169c-.407.278-19.617 17.625-23.906 21.076-3.141 2.527-17.74 18.337-21.836 22.551-4.098 4.215-16.335 17.936-21.83 22.426-3.442 2.812-24.858 17.77-25.81 18.4-.434.546-.394.84-.23.997.164.156.687.104 1.183-.114z" fill="url(#x)" transform="matrix(2.63427 0 0 2.63427 -495.547 -261.6)"/><path d="m476.593 156.974c.563-.604 13.703-7.156 19.1-9.66 6.833-3.169 14.627-8.08 18.917-10.793 3.122-1.975 16.635-9.991 18.441-11.921-.058-.154.184-.308.127-.461-.058-.154-.415-.307-.474-.461-4.342 2.211-12.349 6.268-19.387 10.078-3.25 1.758-13.886 5.051-19.765 9.495-4.746 3.588-16.799 11.95-17.363 12.554-.144.154-.355.434-.147.817.225.414.357.34.551.352z" fill="url(#y)" transform="matrix(2.63427 0 0 2.63427 -495.547 -261.6)"/><path d="m259.346 266.267c-1.486.603-3.537 2.844-4.928 4.526-1.014 1.228-1.026 6.951-2.108 8.221-1.098 1.289 23.559 20.15 25.35 18.5a438.643 438.643 0 0 1 3.84-3.514c2.282-.854 3.685-1.34 5.233-1.958 2.149-.858 3.861-2.241 4.282-3.737 2.178-2.209-28.595-23.494-31.669-22.038z" fill="url(#b)" transform="matrix(2.63427 0 0 2.63427 -496.506 -260.588)"/><path d="m152.121 299.825c-1.539 1.495-3.073 2.724-3.252 4.321-.219 1.958-.062 3.991 4.01 8.014 2.505 2.475 11.763 8.28 16.917 9.274 5.66 1.091 7.677 1.521 10.41.744 1.932-.549 2.462-1.025 3.877-2.304.328-.297.638-.886.551-1.217s-1.015-.818-1.388-1.291c-1.488-1.888-4.685-4.464-8.361-7.037-1.499-1.05-2.537-1.861-3.904-2.638-2.686-1.526-4.36-2.494-6.206-3.545-1.817-1.035-3.262-1.587-4.696-2.338-3.829-2.007-5.644-4.23-7.958-1.983z" fill="url(#D)" transform="matrix(2.71377 0 0 2.89137 -231.352 -422.497)"/><path d="m177.826 243.858s-.503 1.188 1.059 2.189c2.825 1.812 6.104 5.223 10.628 8.507 1.563 1.135 4.236 2.68 7.248 4.185 4.375 2.184 6.714 5.352 7.648 5.858.258.14-.056-2.805-.383-4.801-.109-.665-.122-.727 0-1.057.18-.486 1.285-.321 1.076-1.855-.409-3.008-1.573-3.73-3.154-6.163-1.946-2.993-4.216-3.076-6.776-5.673-3.697-3.75-9.499-2.967-12.347-2.416-2.32.449-4.269.81-4.999 1.226z" fill="url(#E)" transform="matrix(2.63427 0 0 2.63427 -268.17 -198.282)"/><path d="m160.446 196.887-3.536-.827s-2.816-1.163-2.193.827c.622 1.991.272 3.044 2.193 3.973 1.92.929 3.178 1.92 4.893 2.623 1.716.704 2.494 1.382 3.881 2.519 1.387 1.136 1.551 1.756 4.422 2.437s4.461 3.184 5.805 2.128 4.112-1.056 2.025-3.246-3.45-2.946-6.052-3.838c-2.602-.891-2.539-.925-4.15-2.623-1.611-1.697-1.088-1.799-3.159-2.254-2.072-.456-4.129-1.719-4.129-1.719z" fill="url(#F)" transform="matrix(3.0297 0 0 3.0297 -277.87 -150.772)"/><path d="m145.882 203.695s-.118 1.004-.366 2.198c-.161.769-.891 1.433-1.499 2.123-.608.689-1.937 1.834-2.517 2.642-1.199 1.672-.536 3.738 1.06 5.85 2.466 3.261 4.816 4.934 10.097 7.393 2.554 1.19 5.487 1.384 9.982 4.105 1.089.659 2.477 2.086 3.929 1.707.871-.227 1.924-1.846 2.506-2.592 1.291-1.655 2.43-2.502 3.077-3.22.594-.659 1.802-1.86 1.361-2.697-.46-.872-1.747-2.266-3.197-3.036-.871-.463-4.872-3.242-5.604-3.733-3.122-2.098-13.625-11.724-18.829-10.74z" fill="url(#G)" transform="matrix(2.63427 0 0 2.63427 -213.567 -71.141)"/><path d="m218.126 243.973s-7.885-4.533-10.631-3.381c-2.242.941-4.233 3.555-3.982 5.92.259 2.448 1.538 7.834 5.537 8.766 1.429.333 2.964 1.187 3.427 2.532 1.093 3.171 1.978 4.953 3.493.997 1.011-2.644 1.339-4.048 2.156-5.679 1.091-2.177 1.387-2.828 1.801-3.8 1.344-3.154-1.14-4.324-1.801-5.355z" fill="url(#H)" transform="matrix(3.28749 0 0 3.28749 -411.14 -358.787)"/><path d="m192.28 228.352c1.233-.569 2.867-.615 3.33 2.35.462 2.965.36 2.819-1.349 5.593-1.323 2.148-4.356 5.807-5.469 7.9-1.112 2.094-4.375 2.297-5.308 2.297-.932 0-3.344.058-4.8-.608-3.892-1.779-3.928-2.847-2.72-3.804 1.056-.837 1.92-3.322 1.715-5.785-.121-1.445 1.531-3.632 2.552-3.729 2.194-.209 2.486 4.869 3.253 3.729 1.207-1.794 6.775-7.011 8.796-7.943z" fill="url(#I)" transform="matrix(2.63427 0 0 2.63427 -269.44 -198.28)"/></svg>