<svg viewBox="0 0 1600 1380" xmlns="http://www.w3.org/2000/svg" fill-rule="evenodd" clip-rule="evenodd" stroke-linejoin="round" stroke-miterlimit="2"><path fill="none" d="M.006 0h1600.005v1380H.006z"/><g fill-rule="nonzero"><path d="M251.695 1224.597c-2.133 14.933-.833 26.267 3.9 34 4.733 7.733 12.767 11.6 24.1 11.6 10.667 0 19.233-2.933 25.7-8.8 6.467-5.867 10.433-14.067 11.9-24.6.8-5.333.7-10.033-.3-14.1s-2.533-7.733-4.6-11a40.282 40.282 0 00-7.4-8.7 97.64 97.64 0 00-8.9-7c-6-4.133-11.233-8.667-15.7-13.6-4.467-4.933-6.033-12-4.7-21.2 1.067-7.067 3.5-12.533 7.3-16.4 3.8-3.867 8.633-5.8 14.5-5.8 7.2 0 12.333 3.133 15.4 9.4s3.867 15.067 2.4 26.4h10.6c2-14.8.7-26.133-3.9-34-4.6-7.867-12.233-11.8-22.9-11.8-9.6 0-17.4 2.8-23.4 8.4-6 5.6-9.733 13.8-11.2 24.6-.533 4.133-.6 8.033-.2 11.7.4 3.667 1.5 7.167 3.3 10.5 1.8 3.333 4.3 6.633 7.5 9.9 3.2 3.267 7.267 6.633 12.2 10.1 5.467 3.867 10.267 8.067 14.4 12.6 4.133 4.533 5.667 10.933 4.6 19.2-1.067 7.333-3.9 13.2-8.5 17.6-4.6 4.4-10.167 6.6-16.7 6.6-7.6 0-13-3.1-16.2-9.3-3.2-6.2-4-14.967-2.4-26.3h-10.8zM340.095 1216.397c-2.667 18.933-2 32.633 2 41.1 4 8.467 11.667 12.7 23 12.7 8.8 0 15.733-2.533 20.8-7.6s9-13.267 11.8-24.6h-9.8c-2.267 8.4-5.033 14.3-8.3 17.7-3.267 3.4-7.7 5.1-13.3 5.1-7.6 0-12.733-3.033-15.4-9.1s-3.067-15.833-1.2-29.3c1.6.4 3.233.7 4.9.9 1.667.2 3.433.3 5.3.3 12 0 22.233-3.433 30.7-10.3 8.467-6.867 13.5-15.967 15.1-27.3 1.2-8.533-.3-15.2-4.5-20-4.2-4.8-10.633-7.2-19.3-7.2-11.733 0-20.9 4.533-27.5 13.6-6.6 9.067-11.367 23.733-14.3 44zm40.4-48.2c5.467 0 9.5 1.567 12.1 4.7 2.6 3.133 3.433 7.633 2.5 13.5-1.067 8.133-4.8 14.8-11.2 20-6.4 5.2-14.133 7.8-23.2 7.8-1.6 0-3.2-.1-4.8-.3-1.6-.2-3.2-.433-4.8-.7 2.133-15.333 5.567-26.667 10.3-34 4.733-7.333 11.1-11 19.1-11zM427.695 1214.597c2.533-18.267 5.567-30.567 9.1-36.9 3.533-6.333 9.033-9.5 16.5-9.5 6 0 10.033 1.667 12.1 5s2.967 9.267 2.7 17.8h9.6c.667-11.333-.833-19.533-4.5-24.6s-9.9-7.6-18.7-7.6c-10.8 0-18.9 4.167-24.3 12.5-5.4 8.333-9.633 23.033-12.7 44.1-2.933 20.667-2.867 34.967.2 42.9s10 11.9 20.8 11.9c8.933 0 15.933-2.533 21-7.6s8.933-13.267 11.6-24.6h-9.6c-1.867 8.4-4.367 14.3-7.5 17.7-3.133 3.4-7.7 5.1-13.7 5.1-7.6 0-12.267-3.133-14-9.4-1.733-6.267-1.267-18.533 1.4-36.8z"/><g><path d="M533.696 1258.197c-.667 4.4-.433 7.5.7 9.3 1.133 1.8 3.567 2.7 7.3 2.7.8 0 1.7-.067 2.7-.2 1-.133 2.1-.333 3.3-.6l1.4-9.2c-1.333.4-2.133.6-2.4.6-1.467 0-2.267-.667-2.4-2s-.067-2.867.2-4.6l13-93.4h-10.2l-8.8 63.8c-.8 6-1.967 11.267-3.5 15.8-1.533 4.533-3.433 8.3-5.7 11.3-2.267 3-4.868 5.267-7.8 6.8-2.934 1.533-6.2 2.3-9.8 2.3-2.934 0-5.3-.567-7.1-1.7-1.8-1.133-3.034-3.167-3.7-6.1-.668-2.933-.868-6.933-.6-12 .266-5.067.932-11.533 2-19.4l8.4-60.8h-10.4l-9.2 65.6c-2.268 16.667-2.168 28.133.3 34.4 2.466 6.267 8.166 9.4 17.1 9.4 5.2 0 9.832-.967 13.9-2.9 4.066-1.933 7.833-4.967 11.3-9.1zM571.496 1216.397c-2.667 18.933-2 32.633 2 41.1 4 8.467 11.667 12.7 23 12.7 8.8 0 15.733-2.533 20.8-7.6s9-13.267 11.8-24.6h-9.8c-2.267 8.4-5.033 14.3-8.3 17.7-3.267 3.4-7.7 5.1-13.3 5.1-7.6 0-12.733-3.033-15.4-9.1s-3.067-15.833-1.2-29.3c1.6.4 3.233.7 4.9.9 1.667.2 3.433.3 5.3.3 12 0 22.233-3.433 30.7-10.3 8.467-6.867 13.5-15.967 15.1-27.3 1.2-8.533-.3-15.2-4.5-20-4.2-4.8-10.633-7.2-19.3-7.2-11.733 0-20.9 4.533-27.5 13.6-6.6 9.067-11.367 23.733-14.3 44zm40.4-48.2c5.467 0 9.5 1.567 12.1 4.7 2.6 3.133 3.433 7.633 2.5 13.5-1.067 8.133-4.8 14.8-11.2 20-6.4 5.2-14.133 7.8-23.2 7.8-1.6 0-3.2-.1-4.8-.3-1.6-.2-3.2-.433-4.8-.7 2.133-15.333 5.567-26.667 10.3-34 4.733-7.333 11.1-11 19.1-11zM670.496 1122.197l-19.2 136.2c-.667 4.533-.433 7.633.7 9.3 1.133 1.667 3.433 2.5 6.9 2.5.933 0 1.9-.067 2.9-.2s2.167-.333 3.5-.6l1.4-9.2c-1.467.267-2.267.4-2.4.4-1.333 0-2.133-.3-2.4-.9-.267-.6-.267-1.567 0-2.9l19-134.6h-10.4zM754.296 1160.797l-4 12.4c-2.267-5.067-5.1-8.733-8.5-11-3.4-2.267-7.833-3.4-13.3-3.4-9.867 0-17.4 4.2-22.6 12.6-5.2 8.4-9.2 22.867-12 43.4-2.933 20.267-2.967 34.567-.1 42.9 2.867 8.333 9.167 12.5 18.9 12.5 5.067 0 9.833-1.033 14.3-3.1 4.467-2.067 8.433-5.1 11.9-9.1-.533 4.667-.267 7.867.8 9.6 1.067 1.733 3.333 2.6 6.8 2.6 1.067 0 2.033-.067 2.9-.2s1.9-.333 3.1-.6l1.4-9.2c-.533.133-1 .233-1.4.3-.4.067-.733.1-1 .1-1.467 0-2.267-.567-2.4-1.7s-.067-2.7.2-4.7l13-93.4h-8zm-9.8 56c-2.267 16.133-5.5 27.5-9.7 34.1-4.2 6.6-10.233 9.9-18.1 9.9-7.467 0-12.033-3.233-13.7-9.7-1.667-6.467-1.233-18.9 1.3-37.3 2.533-17.867 5.467-29.933 8.8-36.2 3.333-6.267 8.4-9.4 15.2-9.4 8.267 0 13.633 3.8 16.1 11.4 2.467 7.6 2.5 20 .1 37.2zM838.097 1268.197h11l53.2-137.4h-11l-44.6 114.8-12-114.8h-11l14.4 137.4z"/></g><g><path d="M960.897 1160.797l-4 12.4c-2.267-5.067-5.1-8.733-8.5-11-3.4-2.267-7.833-3.4-13.3-3.4-9.867 0-17.4 4.2-22.6 12.6-5.2 8.4-9.2 22.867-12 43.4-2.933 20.267-2.967 34.567-.1 42.9 2.867 8.333 9.167 12.5 18.9 12.5 5.067 0 9.833-1.033 14.3-3.1 4.467-2.067 8.433-5.1 11.9-9.1-.533 4.667-.267 7.867.8 9.6 1.067 1.733 3.333 2.6 6.8 2.6 1.067 0 2.033-.067 2.9-.2s1.9-.333 3.1-.6l1.4-9.2c-.533.133-1 .233-1.4.3-.4.067-.733.1-1 .1-1.467 0-2.267-.567-2.4-1.7s-.067-2.7.2-4.7l13-93.4h-8zm-9.8 56c-2.267 16.133-5.5 27.5-9.7 34.1-4.2 6.6-10.233 9.9-18.1 9.9-7.467 0-12.033-3.233-13.7-9.7-1.667-6.467-1.233-18.9 1.3-37.3 2.533-17.867 5.467-29.933 8.8-36.2 3.333-6.267 8.4-9.4 15.2-9.4 8.267 0 13.633 3.8 16.1 11.4 2.467 7.6 2.5 20 .1 37.2zM1002.497 1170.797c.667-4.533.3-7.667-1.1-9.4-1.4-1.733-3.833-2.6-7.3-2.6-.933 0-1.9.067-2.9.2s-2.233.333-3.7.6l-1.2 9.4c.933-.4 1.667-.6 2.2-.6 1.467 0 2.5.433 3.1 1.3.6.867.767 2.167.5 3.9l-13.2 94.6h10.4l10.6-75c1.333-9.6 4.333-16.167 9-19.7 4.667-3.533 9.8-5.3 15.4-5.3.933 0 1.933.067 3 .2s2.133.333 3.2.6l1.4-9.8c-5.733-.667-11-.267-15.8 1.2-4.8 1.467-9.333 4.933-13.6 10.4zM1050.697 1136.797c-.267 2.4.233 4.333 1.5 5.8 1.267 1.467 2.967 2.2 5.1 2.2 2.133 0 4.033-.733 5.7-2.2 1.667-1.467 2.633-3.4 2.9-5.8.4-2.267 0-4.167-1.2-5.7-1.2-1.533-2.933-2.3-5.2-2.3-2.133 0-4.033.767-5.7 2.3-1.667 1.533-2.7 3.433-3.1 5.7zm-.8 24l-13.6 97.6c-.667 4.4-.467 7.467.6 9.2 1.067 1.733 3.333 2.6 6.8 2.6 1.067 0 2.1-.067 3.1-.2s2.233-.333 3.7-.6l1.2-9.2c-1.333.267-2.133.4-2.4.4-1.2 0-1.967-.3-2.3-.9-.333-.6-.433-1.567-.3-2.9l13.6-96h-10.4zM1139.897 1160.797l-4 12.4c-2.267-5.067-5.1-8.733-8.5-11-3.4-2.267-7.833-3.4-13.3-3.4-9.867 0-17.4 4.2-22.6 12.6-5.2 8.4-9.2 22.867-12 43.4-2.933 20.267-2.967 34.567-.1 42.9 2.867 8.333 9.167 12.5 18.9 12.5 5.067 0 9.833-1.033 14.3-3.1 4.467-2.067 8.433-5.1 11.9-9.1-.533 4.667-.267 7.867.8 9.6 1.067 1.733 3.333 2.6 6.8 2.6 1.067 0 2.033-.067 2.9-.2s1.9-.333 3.1-.6l1.4-9.2c-.533.133-1 .233-1.4.3-.4.067-.733.1-1 .1-1.467 0-2.267-.567-2.4-1.7s-.067-2.7.2-4.7l13-93.4h-8zm-9.8 56c-2.267 16.133-5.5 27.5-9.7 34.1-4.2 6.6-10.233 9.9-18.1 9.9-7.467 0-12.033-3.233-13.7-9.7-1.667-6.467-1.233-18.9 1.3-37.3 2.533-17.867 5.467-29.933 8.8-36.2 3.333-6.267 8.4-9.4 15.2-9.4 8.267 0 13.633 3.8 16.1 11.4 2.467 7.6 2.5 20 .1 37.2zM1163.698 1224.597c-2.267 15.333-1.333 26.767 2.8 34.3 4.133 7.533 11.4 11.3 21.8 11.3 10.667 0 18.933-4.367 24.8-13.1 5.867-8.733 10.2-22.9 13-42.5 2.667-19.867 2.367-34.133-.9-42.8-3.267-8.667-10.033-13-20.3-13-4.8 0-9.067.933-12.8 2.8-3.733 1.867-7.333 4.933-10.8 9.2l7-48.6h-10.2l-14.4 102.4zm11-8.6c2.4-17.333 5.667-29.633 9.8-36.9 4.133-7.267 10.267-10.9 18.4-10.9 7.467 0 12.067 3.3 13.8 9.9 1.733 6.6 1.4 18.767-1 36.5-2.533 17.467-5.667 29.533-9.4 36.2-3.733 6.667-9.533 10-17.4 10-7.6 0-12.467-3.167-14.6-9.5-2.133-6.333-2-18.1.4-35.3zM1262.098 1122.197l-19.2 136.2c-.667 4.533-.433 7.633.7 9.3 1.133 1.667 3.433 2.5 6.9 2.5.933 0 1.9-.067 2.9-.2s2.167-.333 3.5-.6l1.4-9.2c-1.467.267-2.267.4-2.4.4-1.333 0-2.133-.3-2.4-.9-.267-.6-.267-1.567 0-2.9l19-134.6h-10.4zM1283.698 1216.397c-2.667 18.933-2 32.633 2 41.1 4 8.467 11.667 12.7 23 12.7 8.8 0 15.733-2.533 20.8-7.6s9-13.267 11.8-24.6h-9.8c-2.267 8.4-5.033 14.3-8.3 17.7-3.267 3.4-7.7 5.1-13.3 5.1-7.6 0-12.733-3.033-15.4-9.1s-3.067-15.833-1.2-29.3c1.6.4 3.233.7 4.9.9 1.667.2 3.433.3 5.3.3 12 0 22.233-3.433 30.7-10.3 8.467-6.867 13.5-15.967 15.1-27.3 1.2-8.533-.3-15.2-4.5-20-4.2-4.8-10.633-7.2-19.3-7.2-11.733 0-20.9 4.533-27.5 13.6-6.6 9.067-11.367 23.733-14.3 44zm40.4-48.2c5.467 0 9.5 1.567 12.1 4.7 2.6 3.133 3.433 7.633 2.5 13.5-1.067 8.133-4.8 14.8-11.2 20-6.4 5.2-14.133 7.8-23.2 7.8-1.6 0-3.2-.1-4.8-.3-1.6-.2-3.2-.433-4.8-.7 2.133-15.333 5.567-26.667 10.3-34 4.733-7.333 11.1-11 19.1-11z"/></g></g><g fill-rule="nonzero"><path d="M248.413 1055.997c-1.467 10.667-.767 18.967 2.1 24.9s7.9 8.9 15.1 8.9c6 0 11.133-2 15.4-6 4.267-4 6.933-9.4 8-16.2 1.067-7.867-.433-13.933-4.5-18.2-4.067-4.267-8.767-8.333-14.1-12.2-9.333-6.533-15.8-13-19.4-19.4-3.6-6.4-4.8-14.133-3.6-23.2 1.467-10.8 5.333-19.1 11.6-24.9 6.267-5.8 14.4-8.7 24.4-8.7 11.333 0 19.267 4.033 23.8 12.1 4.533 8.067 5.8 19.433 3.8 34.1h-13c1.467-10.533.8-18.833-2-24.9s-7.6-9.1-14.4-9.1c-5.333 0-9.8 1.8-13.4 5.4-3.6 3.6-5.867 8.733-6.8 15.4-1.2 8.533.3 15.133 4.5 19.8 4.2 4.667 9.3 9.133 15.3 13.4 6.267 4.267 11.8 9.5 16.6 15.7 4.8 6.2 6.467 14.7 5 25.5-1.467 10.933-5.6 19.3-12.4 25.1-6.8 5.8-15.533 8.7-26.2 8.7-23.867 0-33.6-15.4-29.2-46.2h13.4zM325.213 1047.997c2.933-20.267 7.767-34.9 14.5-43.9s16.167-13.5 28.3-13.5c9.2 0 15.967 2.467 20.3 7.4s5.9 11.8 4.7 20.6c-1.6 11.067-6.533 20.033-14.8 26.9-8.267 6.867-18.533 10.3-30.8 10.3a50.85 50.85 0 01-10-1c-1.733 12.8-1.4 22 1 27.6 2.4 5.6 7.2 8.4 14.4 8.4 5.333 0 9.467-1.633 12.4-4.9 2.933-3.267 5.533-8.9 7.8-16.9h12.2c-5.333 22.133-16.733 33.2-34.2 33.2-11.6 0-19.467-4.3-23.6-12.9-4.133-8.6-4.867-22.367-2.2-41.3zm41-46c-14.267 0-23.333 14-27.2 42 1.467.267 2.933.467 4.4.6 1.467.133 2.933.2 4.4.2 8.533 0 15.733-2.4 21.6-7.2 5.867-4.8 9.333-11 10.4-18.6 1.6-11.333-2.933-17-13.6-17zM418.013 1046.397c-2.533 17.467-3.033 29.233-1.5 35.3 1.533 6.067 5.767 9.1 12.7 9.1 5.6 0 9.8-1.6 12.6-4.8 2.8-3.2 5.133-8.867 7-17h12.2c-2.533 11.733-6.533 20.2-12 25.4-5.467 5.2-12.8 7.8-22 7.8-10.933 0-18.067-4-21.4-12-3.333-8-3.533-22.4-.6-43.2 3.067-21.067 7.367-35.733 12.9-44 5.533-8.267 13.967-12.4 25.3-12.4 9.2 0 15.733 2.6 19.6 7.8 3.867 5.2 5.4 13.667 4.6 25.4h-12.4c.4-8.267-.333-13.967-2.2-17.1-1.867-3.133-5.6-4.7-11.2-4.7-6.933 0-12 3.033-15.2 9.1-3.2 6.067-6 17.833-8.4 35.3zM523.613 1089.997c-6.8 8.133-15.333 12.2-25.6 12.2-9.067 0-14.8-3.167-17.2-9.5-2.4-6.333-2.4-18.233 0-35.7l9-64.4h13.2l-8.4 59.8c-2.267 15.733-2.8 26.067-1.6 31 1.2 4.933 4.667 7.4 10.4 7.4 6.8 0 12.2-2.833 16.2-8.5s6.934-14.767 8.8-27.3l8.6-62.4h13l-12.8 91.2c-.666 4.667.334 7 3 7 .268 0 1.068-.133 2.4-.4l-1.6 11c-2.666.533-5.066.8-7.2.8-4.266 0-7.1-.9-8.5-2.7-1.4-1.8-1.967-4.967-1.7-9.5zM563.614 1047.997c2.933-20.267 7.767-34.9 14.5-43.9s16.167-13.5 28.3-13.5c9.2 0 15.967 2.467 20.3 7.4s5.9 11.8 4.7 20.6c-1.6 11.067-6.533 20.033-14.8 26.9-8.267 6.867-18.533 10.3-30.8 10.3a50.85 50.85 0 01-10-1c-1.733 12.8-1.4 22 1 27.6 2.4 5.6 7.2 8.4 14.4 8.4 5.333 0 9.467-1.633 12.4-4.9 2.933-3.267 5.533-8.9 7.8-16.9h12.2c-5.333 22.133-16.733 33.2-34.2 33.2-11.6 0-19.467-4.3-23.6-12.9-4.133-8.6-4.867-22.367-2.2-41.3zm41-46c-14.267 0-23.333 14-27.2 42 1.467.267 2.933.467 4.4.6 1.467.133 2.933.2 4.4.2 8.533 0 15.733-2.4 21.6-7.2 5.867-4.8 9.333-11 10.4-18.6 1.6-11.333-2.933-17-13.6-17zM677.614 954.197l-18.6 132c-.533 2.933.467 4.4 3 4.4 1.067 0 1.933-.067 2.6-.2l-1.8 11c-2.667.533-5.2.8-7.6.8-4.4 0-7.267-1.067-8.6-3.2-1.333-2.133-1.667-6.067-1-11.8l18.8-133h13.2z"/><g><path d="M760.814 992.597l-12.6 91.2c-.8 4.667.133 7 2.8 7 .267 0 1.067-.133 2.4-.4l-1.6 11c-2.533.533-4.933.8-7.2.8-3.867 0-6.5-.867-7.9-2.6-1.4-1.733-1.967-4.933-1.7-9.6-7.067 8.133-15.867 12.2-26.4 12.2-9.733 0-16.033-4.233-18.9-12.7-2.867-8.467-2.833-22.833.1-43.1 2.8-20.267 6.8-34.633 12-43.1 5.2-8.467 12.667-12.7 22.4-12.7 10.4 0 17.733 4.733 22 14.2l4.6-12.2h10zm-20.4 55.6c2.267-16.533 2.267-28.367 0-35.5-2.267-7.133-7.267-10.7-15-10.7-6.4 0-11.167 2.933-14.3 8.8-3.133 5.867-5.9 17.4-8.3 34.6-2.4 17.867-2.833 29.9-1.3 36.1 1.533 6.2 5.7 9.3 12.5 9.3 7.467 0 13.167-3.2 17.1-9.6 3.933-6.4 7.033-17.4 9.3-33zM821.814 962.797h14l11 111 42.6-111h13.8l-53 137.4h-14l-14.4-137.4z"/></g><g><path d="M971.615 992.597l-12.6 91.2c-.8 4.667.133 7 2.8 7 .267 0 1.067-.133 2.4-.4l-1.6 11c-2.533.533-4.933.8-7.2.8-3.867 0-6.5-.867-7.9-2.6-1.4-1.733-1.967-4.933-1.7-9.6-7.067 8.133-15.867 12.2-26.4 12.2-9.733 0-16.033-4.233-18.9-12.7-2.867-8.467-2.833-22.833.1-43.1 2.8-20.267 6.8-34.633 12-43.1 5.2-8.467 12.667-12.7 22.4-12.7 10.4 0 17.733 4.733 22 14.2l4.6-12.2h10zm-20.4 55.6c2.267-16.533 2.267-28.367 0-35.5-2.267-7.133-7.267-10.7-15-10.7-6.4 0-11.167 2.933-14.3 8.8-3.133 5.867-5.9 17.4-8.3 34.6-2.4 17.867-2.833 29.9-1.3 36.1 1.533 6.2 5.7 9.3 12.5 9.3 7.467 0 13.167-3.2 17.1-9.6 3.933-6.4 7.033-17.4 9.3-33zM1008.215 1002.797c6.267-8.133 14.333-12.2 24.2-12.2 1.067 0 2.8.133 5.2.4l-1.8 12.2c-1.2-.4-3.133-.6-5.8-.6-5.733 0-10.967 1.8-15.7 5.4-4.733 3.6-7.833 10.4-9.3 20.4l-10 71.8h-13.2l12.8-92.2c.667-4-.667-6-4-6-.4 0-1.133.2-2.2.6l1.4-11.2c2.8-.533 5.4-.8 7.8-.8 3.867 0 6.7.867 8.5 2.6 1.8 1.733 2.5 4.933 2.1 9.6zM1056.215 967.797c.533-2.667 1.767-4.867 3.7-6.6 1.933-1.733 4.1-2.6 6.5-2.6 2.667 0 4.7.867 6.1 2.6 1.4 1.733 1.9 3.933 1.5 6.6-.933 6.267-4.333 9.4-10.2 9.4-2.4 0-4.333-.9-5.8-2.7-1.467-1.8-2.067-4.033-1.8-6.7zm12.2 24.8l-13.2 93.2c-.4 3.2.667 4.8 3.2 4.8.8 0 1.6-.067 2.4-.2l-1.4 11c-2.8.533-5.467.8-8 .8-4.267 0-7.133-1.1-8.6-3.3-1.467-2.2-1.733-6.1-.8-11.7l13.2-94.6h13.2zM1157.816 992.597l-12.6 91.2c-.8 4.667.133 7 2.8 7 .267 0 1.067-.133 2.4-.4l-1.6 11c-2.533.533-4.933.8-7.2.8-3.868 0-6.5-.867-7.9-2.6-1.4-1.733-1.968-4.933-1.7-9.6-7.068 8.133-15.868 12.2-26.4 12.2-9.734 0-16.034-4.233-18.9-12.7-2.868-8.467-2.834-22.833.1-43.1 2.8-20.267 6.8-34.633 12-43.1 5.2-8.467 12.666-12.7 22.4-12.7 10.4 0 17.732 4.733 22 14.2l4.6-12.2h10zm-20.4 55.6c2.266-16.533 2.266-28.367 0-35.5-2.268-7.133-7.268-10.7-15-10.7-6.4 0-11.168 2.933-14.3 8.8-3.134 5.867-5.9 17.4-8.3 34.6-2.4 17.867-2.834 29.9-1.3 36.1 1.532 6.2 5.7 9.3 12.5 9.3 7.466 0 13.166-3.2 17.1-9.6 3.932-6.4 7.032-17.4 9.3-33zM1187.616 954.197h13l-7 48.6c6.533-8.133 14.6-12.2 24.2-12.2 10 0 16.6 4.3 19.8 12.9 3.2 8.6 3.467 22.7.8 42.3-2.8 20.267-7.167 34.733-13.1 43.4-5.933 8.667-14.567 13-25.9 13-21.867 0-30.533-15.8-26-47.4l14.2-100.6zm-.6 93.6c-2.267 16.667-2.433 28-.5 34 1.933 6 6.5 9 13.7 9 7.467 0 12.9-3.1 16.3-9.3 3.4-6.2 6.3-17.9 8.7-35.1 2.4-17.2 2.8-28.9 1.2-35.1-1.6-6.2-5.867-9.3-12.8-9.3-7.6 0-13.367 3.433-17.3 10.3-3.933 6.867-7.033 18.7-9.3 35.5zM1287.416 954.197l-18.6 132c-.533 2.933.467 4.4 3 4.4 1.067 0 1.933-.067 2.6-.2l-1.8 11c-2.667.533-5.2.8-7.6.8-4.4 0-7.267-1.067-8.6-3.2-1.333-2.133-1.667-6.067-1-11.8l18.8-133h13.2zM1298.216 1047.997c2.933-20.267 7.767-34.9 14.5-43.9s16.167-13.5 28.3-13.5c9.2 0 15.967 2.467 20.3 7.4s5.9 11.8 4.7 20.6c-1.6 11.067-6.533 20.033-14.8 26.9-8.267 6.867-18.533 10.3-30.8 10.3a50.85 50.85 0 01-10-1c-1.733 12.8-1.4 22 1 27.6 2.4 5.6 7.2 8.4 14.4 8.4 5.333 0 9.467-1.633 12.4-4.9 2.933-3.267 5.533-8.9 7.8-16.9h12.2c-5.333 22.133-16.733 33.2-34.2 33.2-11.6 0-19.467-4.3-23.6-12.9-4.133-8.6-4.867-22.367-2.2-41.3zm41-46c-14.267 0-23.333 14-27.2 42 1.467.267 2.933.467 4.4.6 1.467.133 2.933.2 4.4.2 8.533 0 15.733-2.4 21.6-7.2 5.867-4.8 9.333-11 10.4-18.6 1.6-11.333-2.933-17-13.6-17z"/></g></g><g fill-rule="nonzero"><path d="M211.884 887.4c0 10 1.8 17.866 5.4 23.6 3.6 5.732 8.933 8.6 16 8.6 5.733 0 10.4-1.834 14-5.5 3.6-3.668 5.4-8.7 5.4-15.1 0-7.2-2.333-12.9-7-17.1-4.667-4.2-10.067-8.1-16.2-11.7-10-6.268-17.567-12.6-22.7-19-5.133-6.4-7.7-14.268-7.7-23.6 0-10.8 3.033-19.3 9.1-25.5 6.067-6.2 14.5-9.3 25.3-9.3 12.267 0 21.367 4.2 27.3 12.6 5.933 8.4 8.9 19.866 8.9 34.4h-16.2c0-10-1.767-17.867-5.3-23.6-3.533-5.733-8.567-8.6-15.1-8.6-4.933 0-8.933 1.633-12 4.9-3.067 3.267-4.6 8.033-4.6 14.3 0 7.732 2.333 13.8 7 18.2 4.667 4.4 10.6 8.866 17.8 13.4 7.067 4.266 13.667 9.5 19.8 15.7 6.133 6.2 9.2 14.766 9.2 25.7 0 10.932-3.433 19.4-10.3 25.4-6.867 6-15.767 9-26.7 9-12.133 0-21.5-3.834-28.1-11.5-6.6-7.668-9.9-19.434-9.9-35.3h16.6zM306.484 882.4c.133 14.932 1.434 25.1 3.9 30.5 2.468 5.4 7.1 8.1 13.9 8.1 5.6 0 9.668-1.6 12.2-4.8 2.534-3.2 4.134-8.6 4.8-16.2h15.8c-2 22.8-13 34.2-33 34.2-12.266 0-21-4.268-26.2-12.8-5.2-8.534-7.8-22.934-7.8-43.2 0-20.268 2.6-34.634 7.8-43.1 5.2-8.468 13.934-12.7 26.2-12.7 12.4 0 21.234 4.2 26.5 12.6 5.268 8.4 7.9 22.4 7.9 42v5.4h-52zm35.4-12.6c-.266-13.068-1.632-22.034-4.1-26.9-2.466-4.868-6.966-7.3-13.5-7.3-6.532 0-11.066 2.432-13.6 7.3-2.532 4.866-3.933 13.832-4.2 26.9h35.4zM391.885 878.4c0 16.8 1.067 28.1 3.2 33.9 2.133 5.8 6.6 8.7 13.4 8.7 5.2 0 8.933-1.534 11.2-4.6 2.267-3.068 3.667-8.534 4.2-16.4h15.4c-.667 12.132-3.633 20.866-8.9 26.2-5.267 5.332-12.9 8-22.9 8-11.6 0-19.8-4.034-24.6-12.1-4.8-8.068-7.2-22.568-7.2-43.5 0-20.934 2.367-35.534 7.1-43.8 4.733-8.268 13.167-12.4 25.3-12.4 9.867 0 17.4 2.632 22.6 7.9 5.2 5.266 8.133 14.032 8.8 26.3h-15.6c-.667-7.868-2.133-13.334-4.4-16.4-2.267-3.068-6-4.6-11.2-4.6-6.667 0-11.067 2.9-13.2 8.7-2.133 5.8-3.2 17.166-3.2 34.1z"/><g><path d="M470.285 883.4c0 15.332.933 25.432 2.8 30.3 1.867 4.866 5.6 7.3 11.2 7.3 6.8 0 11.633-2.668 14.5-8 2.867-5.334 4.3-14.534 4.3-27.6v-61h16.6v107.8h-12.4l-3.8-10.4c-5.867 8.266-14.267 12.4-25.2 12.4-9.333 0-15.767-3.3-19.3-9.9-3.533-6.6-5.3-18.834-5.3-36.7v-63.2h16.6v59zM557.285 882.4c.133 14.932 1.433 25.1 3.9 30.5 2.467 5.4 7.1 8.1 13.9 8.1 5.6 0 9.667-1.6 12.2-4.8 2.533-3.2 4.133-8.6 4.8-16.2h15.8c-2 22.8-13 34.2-33 34.2-12.267 0-21-4.268-26.2-12.8-5.2-8.534-7.8-22.934-7.8-43.2 0-20.268 2.6-34.634 7.8-43.1 5.2-8.468 13.933-12.7 26.2-12.7 12.4 0 21.233 4.2 26.5 12.6 5.267 8.4 7.9 22.4 7.9 42v5.4h-52zm35.4-12.6c-.267-13.068-1.633-22.034-4.1-26.9-2.467-4.868-6.967-7.3-13.5-7.3s-11.067 2.432-13.6 7.3c-2.533 4.866-3.933 13.832-4.2 26.9h35.4zM632.686 786.2h16.6v146h-16.6zM675.286 856.6c1.2-22.8 12-34.2 32.4-34.2 10.933 0 18.733 3.632 23.4 10.9 4.667 7.266 7 19.7 7 37.3v44.8l2.2 16.8h-15.8l-2-9.8c-2.933 4-6.6 6.966-11 8.9-4.4 1.932-9 2.9-13.8 2.9-8.133 0-14.5-2.568-19.1-7.7-4.6-5.134-6.9-12.1-6.9-20.9 0-12.534 4.5-22 13.5-28.4 9-6.4 21.033-9.6 36.1-9.6 0-12.4-.933-20.834-2.8-25.3-1.867-4.468-5.533-6.7-11-6.7-10.133 0-15.667 7-16.6 21h-15.6zm46.2 23c-22.267 0-33.4 8.332-33.4 25 0 10.932 4.933 16.4 14.8 16.4 5.6 0 10.1-1.968 13.5-5.9 3.4-3.934 5.1-10.168 5.1-18.7v-16.8zM796.886 794.8h17.6l26.2 107.2 26.4-107.2h17.6l-35.2 137.4h-17.6l-35-137.4z"/></g><g><path d="M894.286 856.6c1.2-22.8 12-34.2 32.4-34.2 10.934 0 18.734 3.632 23.4 10.9 4.668 7.266 7 19.7 7 37.3v44.8l2.2 16.8h-15.8l-2-9.8c-2.932 4-6.6 6.966-11 8.9-4.4 1.932-9 2.9-13.8 2.9-8.133 0-14.5-2.568-19.1-7.7-4.6-5.134-6.9-12.1-6.9-20.9 0-12.534 4.5-22 13.5-28.4 9-6.4 21.034-9.6 36.1-9.6 0-12.4-.932-20.834-2.8-25.3-1.866-4.468-5.532-6.7-11-6.7-10.133 0-15.667 7-16.6 21h-15.6zm46.2 23c-22.267 0-33.4 8.332-33.4 25 0 10.932 4.933 16.4 14.8 16.4 5.6 0 10.1-1.968 13.5-5.9 3.4-3.934 5.1-10.168 5.1-18.7v-16.8zM988.087 824.4h12.6l3.6 10.2c2.8-4.4 6.3-7.568 10.5-9.5 4.2-1.933 8.633-2.9 13.3-2.9 1.2 0 2.867.133 5 .4v14.2c-1.733-.4-3.667-.6-5.8-.6-6.133 0-11.433 1.866-15.9 5.6-4.467 3.732-6.7 10.8-6.7 21.2v69.2h-16.6V824.4zM1051.287 932.2V824.4h16.6v107.8h-16.6zm-2.2-133.4c0-3.067 1.033-5.6 3.1-7.6s4.567-3 7.5-3 5.4 1 7.4 3 3 4.533 3 7.6c0 3.067-1 5.6-3 7.6s-4.467 3-7.4 3c-2.933 0-5.433-1-7.5-3s-3.1-4.533-3.1-7.6zM1094.887 856.6c1.2-22.8 12-34.2 32.4-34.2 10.933 0 18.733 3.632 23.4 10.9 4.667 7.266 7 19.7 7 37.3v44.8l2.2 16.8h-15.8l-2-9.8c-2.933 4-6.6 6.966-11 8.9-4.4 1.932-9 2.9-13.8 2.9-8.133 0-14.5-2.568-19.1-7.7-4.6-5.134-6.9-12.1-6.9-20.9 0-12.534 4.5-22 13.5-28.4 9-6.4 21.033-9.6 36.1-9.6 0-12.4-.933-20.834-2.8-25.3-1.867-4.468-5.533-6.7-11-6.7-10.133 0-15.667 7-16.6 21h-15.6zm46.2 23c-22.267 0-33.4 8.332-33.4 25 0 10.932 4.933 16.4 14.8 16.4 5.6 0 10.1-1.968 13.5-5.9 3.4-3.934 5.1-10.168 5.1-18.7v-16.8zM1182.487 786.2h16.6v48.4c5.2-8.134 13.2-12.2 24-12.2 10.134 0 17.468 4.266 22 12.8 4.534 8.532 6.8 22.666 6.8 42.4 0 19.866-2.332 34.266-7 43.2-4.666 8.932-12.132 13.4-22.4 13.4-10.533 0-18.467-4-23.8-12l-3.6 10h-12.6v-146zm16.2 92.4c0 16 1.367 27.066 4.1 33.2 2.733 6.132 7.7 9.2 14.9 9.2 7.067 0 11.834-2.934 14.3-8.8 2.468-5.868 3.7-17.134 3.7-33.8 0-16.668-1.232-27.968-3.7-33.9-2.466-5.934-7.233-8.9-14.3-8.9-7.2 0-12.167 3.1-14.9 9.3-2.733 6.2-4.1 17.432-4.1 33.7zM1275.488 786.2h16.6v146h-16.6zM1333.288 882.4c.133 14.932 1.433 25.1 3.9 30.5 2.467 5.4 7.1 8.1 13.9 8.1 5.6 0 9.667-1.6 12.2-4.8 2.533-3.2 4.133-8.6 4.8-16.2h15.8c-2 22.8-13 34.2-33 34.2-12.267 0-21-4.268-26.2-12.8-5.2-8.534-7.8-22.934-7.8-43.2 0-20.268 2.6-34.634 7.8-43.1 5.2-8.468 13.933-12.7 26.2-12.7 12.4 0 21.233 4.2 26.5 12.6 5.267 8.4 7.9 22.4 7.9 42v5.4h-52zm35.4-12.6c-.267-13.068-1.633-22.034-4.1-26.9-2.467-4.868-6.967-7.3-13.5-7.3s-11.067 2.432-13.6 7.3c-2.533 4.866-3.933 13.832-4.2 26.9h35.4z"/></g></g><g fill-rule="nonzero"><path d="M205.543 718c-1.333 8.932-.9 15.932 1.3 21 2.2 5.066 6.3 7.6 12.3 7.6 4.4 0 8.267-1.434 11.6-4.3 3.333-2.868 5.4-6.968 6.2-12.3.8-6.4-.633-11.5-4.3-15.3-3.667-3.8-8.033-7.434-13.1-10.9-8-5.468-14.3-11.4-18.9-17.8-4.6-6.4-6.167-14.934-4.7-25.6 1.6-11.2 5.867-19.967 12.8-26.3 6.933-6.333 16.067-9.5 27.4-9.5 13.2 0 22.033 4.367 26.5 13.1 4.467 8.732 5.7 20.366 3.7 34.9h-20.4c1.2-8.668.767-15.6-1.3-20.8-2.067-5.2-5.7-7.8-10.9-7.8-3.867 0-7.267 1.333-10.2 4-2.933 2.666-4.8 6.732-5.6 12.2-.933 6.266.233 11.366 3.5 15.3 3.267 3.932 8.3 8.232 15.1 12.9 6.267 4.266 12 9.6 17.2 16 5.2 6.4 7 15.332 5.4 26.8-1.867 12-6.633 20.8-14.3 26.4-7.667 5.6-16.9 8.4-27.7 8.4-12.533 0-21.7-3.834-27.5-11.5-5.8-7.668-7.567-19.834-5.3-36.5h21.2zM280.143 710.8c2.8-20.134 7.8-34.7 15-43.7s17.668-13.5 31.4-13.5c10.534 0 18.234 2.7 23.1 8.1 4.868 5.4 6.568 12.966 5.1 22.7-1.466 10.266-6.1 18.832-13.9 25.7-7.8 6.866-18.3 10.3-31.5 10.3-3.6 0-6.666-.268-9.2-.8-1.466 10.532-1.3 18.032.5 22.5 1.8 4.466 5.568 6.7 11.3 6.7 4.268 0 7.6-1.334 10-4 2.4-2.668 4.534-7.6 6.4-14.8h19c-5.6 24-18.4 36-38.4 36-24.267 0-33.867-18.4-28.8-55.2zm43.2-40c-10.932 0-17.932 11-21 33 2.668.532 4.934.8 6.8.8 6.8 0 12.334-1.768 16.6-5.3 4.268-3.534 6.8-8.368 7.6-14.5 1.468-9.334-1.866-14-10-14zM388.744 710c-2.133 15.332-2.767 25.632-1.9 30.9.867 5.266 3.9 7.9 9.1 7.9 4.133 0 7.267-1.368 9.4-4.1 2.133-2.734 3.867-7.7 5.2-14.9h20c-2.267 12.8-6.633 22.032-13.1 27.7-6.467 5.666-14.767 8.5-24.9 8.5-11.6 0-19.4-4.068-23.4-12.2-4-8.134-4.467-22.934-1.4-44.4 3.067-20.934 7.567-35.468 13.5-43.6 5.933-8.134 15.167-12.2 27.7-12.2 10.133 0 17.6 2.766 22.4 8.3 4.8 5.532 6.467 14.832 5 27.9h-20.2c.667-7.068.267-11.968-1.2-14.7-1.467-2.734-4.2-4.1-8.2-4.1-5.067 0-8.767 2.666-11.1 8-2.333 5.332-4.633 15.666-6.9 31z"/><g><path d="M492.544 753.4c-6.4 8.4-15.267 12.6-26.6 12.6-9.067 0-14.767-3.468-17.1-10.4-2.333-6.934-2.167-20 .5-39.2l8.6-60.8h21.4l-8 57.4c-2.133 15.2-2.8 24.966-2 29.3.8 4.332 3.6 6.5 8.4 6.5 5.733 0 10.033-2.368 12.9-7.1 2.867-4.734 5.233-13.9 7.1-27.5l8.2-58.6h21.2l-11.8 85.2c-.8 5.332.933 8 5.2 8 .8 0 1.467-.134 2-.4l-2.2 16.4c-4.133.8-7.733 1.2-10.8 1.2-5.6 0-9.667-.968-12.2-2.9-2.533-1.934-4.133-5.168-4.8-9.7zM540.344 710.8c2.8-20.134 7.8-34.7 15-43.7s17.667-13.5 31.4-13.5c10.534 0 18.234 2.7 23.1 8.1 4.868 5.4 6.568 12.966 5.1 22.7-1.466 10.266-6.1 18.832-13.9 25.7-7.8 6.866-18.3 10.3-31.5 10.3-3.6 0-6.667-.268-9.2-.8-1.467 10.532-1.3 18.032.5 22.5 1.8 4.466 5.567 6.7 11.3 6.7 4.267 0 7.6-1.334 10-4 2.4-2.668 4.533-7.6 6.4-14.8h19c-5.6 24-18.4 36-38.4 36-24.267 0-33.867-18.4-28.8-55.2zm43.2-40c-10.933 0-17.933 11-21 33 2.667.532 4.933.8 6.8.8 6.8 0 12.333-1.768 16.6-5.3 4.267-3.534 6.8-8.368 7.6-14.5 1.468-9.334-1.867-14-10-14zM668.345 618l-17.4 123.8c-.533 4.666 1.267 7 5.4 7 1.067 0 1.867-.134 2.4-.4l-2.4 16.4c-4.133.8-7.867 1.2-11.2 1.2-7.2 0-11.933-1.734-14.2-5.2-2.267-3.468-2.733-9.8-1.4-19l17.6-123.8h21.2zM757.145 655.6l-12 85.2c-.667 5.332.933 8 4.8 8 1.333 0 2.333-.134 3-.4l-2.4 16.4c-4 .8-7.6 1.2-10.8 1.2-9.6 0-14.733-4-15.4-12-8.4 8-17.6 12-27.6 12-9.6 0-15.833-4.434-18.7-13.3-2.867-8.868-2.9-23.368-.1-43.5 2.8-19.868 6.8-34.1 12-42.7 5.2-8.6 12.4-12.9 21.6-12.9 10.667 0 18.267 4.6 22.8 13.8l6.4-11.8h16.4zm-28.6 54.8c2-14.4 2.133-24.6.4-30.6s-5.733-9-12-9c-5.067 0-8.767 2.466-11.1 7.4-2.333 4.932-4.567 15-6.7 30.2-2.267 16.266-2.867 27.066-1.8 32.4 1.067 5.332 4.2 8 9.4 8 6 0 10.667-2.9 14-8.7 3.333-5.8 5.933-15.7 7.8-29.7zM817.345 626.4h22.4l8.2 100 36.6-100h22.6l-53.2 137.6h-22.4l-14.2-137.6z"/></g><g><path d="M980.146 655.6l-12 85.2c-.667 5.332.933 8 4.8 8 1.333 0 2.333-.134 3-.4l-2.4 16.4c-4 .8-7.6 1.2-10.8 1.2-9.6 0-14.733-4-15.4-12-8.4 8-17.6 12-27.6 12-9.6 0-15.833-4.434-18.7-13.3-2.868-8.868-2.9-23.368-.1-43.5 2.8-19.868 6.8-34.1 12-42.7 5.2-8.6 12.4-12.9 21.6-12.9 10.667 0 18.267 4.6 22.8 13.8l6.4-11.8h16.4zm-28.6 54.8c2-14.4 2.133-24.6.4-30.6s-5.733-9-12-9c-5.067 0-8.767 2.466-11.1 7.4-2.333 4.932-4.567 15-6.7 30.2-2.267 16.266-2.867 27.066-1.8 32.4 1.067 5.332 4.2 8 9.4 8 6 0 10.667-2.9 14-8.7 3.333-5.8 5.933-15.7 7.8-29.7zM1024.948 666.4c3.067-4.268 6.967-7.468 11.7-9.6 4.733-2.134 9.433-3.2 14.1-3.2.933 0 2.333.132 4.2.4l-2.8 19.8c-1.733-.4-3.4-.6-5-.6-6.4 0-12.067 1.966-17 5.9-4.933 3.932-8.133 11.432-9.6 22.5l-8.8 62.4h-21.4l12-84.6c.933-5.734-.8-8.6-5.2-8.6-.667 0-1.533.2-2.6.6l2.2-16.6c4.667-.8 8.4-1.2 11.2-1.2 5.2 0 9.3.9 12.3 2.7 3 1.8 4.567 5.166 4.7 10.1zM1072.748 628.8c.533-3.733 2.2-6.867 5-9.4 2.8-2.533 5.933-3.8 9.4-3.8 3.467 0 6.267 1.267 8.4 3.8s2.933 5.667 2.4 9.4c-.533 3.733-2.2 6.833-5 9.3-2.8 2.467-5.933 3.7-9.4 3.7-3.467 0-6.267-1.233-8.4-3.7s-2.933-5.567-2.4-9.3zm19.6 26.8l-12.2 85.4c-.533 5.2 1.267 7.8 5.4 7.8 1.067 0 1.933-.134 2.6-.4l-2.4 16.4c-4.4.8-8.2 1.2-11.4 1.2-7.2 0-11.933-1.734-14.2-5.2-2.267-3.468-2.733-9.8-1.4-19l12.2-86.2h21.4zM1187.948 655.6l-12 85.2c-.667 5.332.933 8 4.8 8 1.333 0 2.333-.134 3-.4l-2.4 16.4c-4 .8-7.6 1.2-10.8 1.2-9.6 0-14.733-4-15.4-12-8.4 8-17.6 12-27.6 12-9.6 0-15.833-4.434-18.7-13.3-2.867-8.868-2.9-23.368-.1-43.5 2.8-19.868 6.8-34.1 12-42.7 5.2-8.6 12.4-12.9 21.6-12.9 10.667 0 18.267 4.6 22.8 13.8l6.4-11.8h16.4zm-28.6 54.8c2-14.4 2.133-24.6.4-30.6s-5.733-9-12-9c-5.067 0-8.767 2.466-11.1 7.4-2.333 4.932-4.567 15-6.7 30.2-2.267 16.266-2.867 27.066-1.8 32.4 1.067 5.332 4.2 8 9.4 8 6 0 10.667-2.9 14-8.7 3.333-5.8 5.933-15.7 7.8-29.7zM1216.749 618h21.2l-6.8 48.4c3.067-3.868 6.867-6.968 11.4-9.3 4.533-2.334 9.4-3.5 14.6-3.5 9.2 0 15.3 4.166 18.3 12.5 3 8.332 3.167 22.166.5 41.5-3.067 21.6-7.7 36.732-13.9 45.4-6.2 8.666-15.767 13-28.7 13-13.733 0-22.833-4.1-27.3-12.3-4.468-8.2-5.368-21.834-2.7-40.9l13.4-94.8zm7.8 92.8c-2.133 14.932-2.5 25-1.1 30.2 1.4 5.2 5.1 7.8 11.1 7.8 5.867 0 10.067-2.568 12.6-7.7 2.533-5.134 4.933-15.568 7.2-31.3 2.133-15.734 2.667-26.168 1.6-31.3-1.067-5.134-4.4-7.7-10-7.7-6.133 0-10.7 2.866-13.7 8.6-3 5.732-5.567 16.2-7.7 31.4zM1332.149 618l-17.4 123.8c-.533 4.666 1.267 7 5.4 7 1.067 0 1.867-.134 2.4-.4l-2.4 16.4c-4.133.8-7.867 1.2-11.2 1.2-7.2 0-11.933-1.734-14.2-5.2-2.267-3.468-2.733-9.8-1.4-19l17.6-123.8h21.2zM1341.949 710.8c2.8-20.134 7.8-34.7 15-43.7s17.667-13.5 31.4-13.5c10.533 0 18.233 2.7 23.1 8.1 4.867 5.4 6.567 12.966 5.1 22.7-1.467 10.266-6.1 18.832-13.9 25.7-7.8 6.866-18.3 10.3-31.5 10.3-3.6 0-6.667-.268-9.2-.8-1.467 10.532-1.3 18.032.5 22.5 1.8 4.466 5.567 6.7 11.3 6.7 4.267 0 7.6-1.334 10-4 2.4-2.668 4.533-7.6 6.4-14.8h19c-5.6 24-18.4 36-38.4 36-24.267 0-33.867-18.4-28.8-55.2zm43.2-40c-10.933 0-17.933 11-21 33 2.667.532 4.933.8 6.8.8 6.8 0 12.333-1.768 16.6-5.3 4.267-3.534 6.8-8.368 7.6-14.5 1.467-9.334-1.867-14-10-14z"/></g></g><g fill-rule="nonzero"><path d="M178.767 548.8c0 10 1.8 17.867 5.4 23.6 3.6 5.733 8.933 8.6 16 8.6 5.733 0 10.4-1.833 14-5.5 3.6-3.667 5.4-8.7 5.4-15.1 0-7.2-2.333-12.9-7-17.1-4.667-4.2-10.067-8.1-16.2-11.7-10-6.267-17.567-12.6-22.7-19-5.133-6.4-7.7-14.267-7.7-23.6 0-10.8 3.033-19.3 9.1-25.5 6.067-6.2 14.5-9.3 25.3-9.3 12.267 0 21.367 4.2 27.3 12.6 5.933 8.4 8.9 19.867 8.9 34.4h-16.2c0-10-1.767-17.867-5.3-23.6-3.533-5.733-8.567-8.6-15.1-8.6-4.933 0-8.933 1.633-12 4.9-3.067 3.267-4.6 8.033-4.6 14.3 0 7.733 2.333 13.8 7 18.2 4.667 4.4 10.6 8.867 17.8 13.4 7.067 4.267 13.667 9.5 19.8 15.7 6.133 6.2 9.2 14.767 9.2 25.7s-3.433 19.4-10.3 25.4c-6.867 6-15.767 9-26.7 9-12.133 0-21.5-3.833-28.1-11.5-6.6-7.667-9.9-19.433-9.9-35.3h16.6zM273.368 543.8c.133 14.933 1.433 25.1 3.9 30.5 2.467 5.4 7.1 8.1 13.9 8.1 5.6 0 9.667-1.6 12.2-4.8 2.533-3.2 4.133-8.6 4.8-16.2h15.8c-2 22.8-13 34.2-33 34.2-12.267 0-21-4.267-26.2-12.8-5.2-8.533-7.8-22.933-7.8-43.2 0-20.267 2.6-34.633 7.8-43.1 5.2-8.467 13.933-12.7 26.2-12.7 12.4 0 21.233 4.2 26.5 12.6 5.267 8.4 7.9 22.4 7.9 42v5.4h-52zm35.4-12.6c-.267-13.067-1.633-22.033-4.1-26.9-2.467-4.867-6.967-7.3-13.5-7.3s-11.067 2.433-13.6 7.3c-2.533 4.867-3.933 13.833-4.2 26.9h35.4zM358.768 539.8c0 16.8 1.067 28.1 3.2 33.9 2.133 5.8 6.6 8.7 13.4 8.7 5.2 0 8.933-1.533 11.2-4.6 2.267-3.067 3.667-8.533 4.2-16.4h15.4c-.667 12.133-3.633 20.867-8.9 26.2-5.267 5.333-12.9 8-22.9 8-11.6 0-19.8-4.033-24.6-12.1-4.8-8.067-7.2-22.567-7.2-43.5s2.367-35.533 7.1-43.8c4.733-8.267 13.167-12.4 25.3-12.4 9.867 0 17.4 2.633 22.6 7.9 5.2 5.267 8.133 14.033 8.8 26.3h-15.6c-.667-7.867-2.133-13.333-4.4-16.4-2.267-3.067-6-4.6-11.2-4.6-6.667 0-11.067 2.9-13.2 8.7-2.133 5.8-3.2 17.167-3.2 34.1z"/><g><path d="M449.768 544.8c0 15.333.933 25.433 2.8 30.3 1.867 4.867 5.6 7.3 11.2 7.3 6.8 0 11.633-2.667 14.5-8 2.867-5.333 4.3-14.533 4.3-27.6v-61h16.6v107.8h-12.4l-3.8-10.4c-5.867 8.267-14.267 12.4-25.2 12.4-9.333 0-15.767-3.3-19.3-9.9-3.533-6.6-5.3-18.833-5.3-36.7v-63.2h16.6v59zM541.968 543.8c.133 14.933 1.433 25.1 3.9 30.5 2.467 5.4 7.1 8.1 13.9 8.1 5.6 0 9.668-1.6 12.2-4.8 2.534-3.2 4.134-8.6 4.8-16.2h15.8c-2 22.8-13 34.2-33 34.2-12.267 0-21-4.267-26.2-12.8-5.2-8.533-7.8-22.933-7.8-43.2 0-20.267 2.6-34.633 7.8-43.1 5.2-8.467 13.933-12.7 26.2-12.7 12.4 0 21.234 4.2 26.5 12.6 5.268 8.4 7.9 22.4 7.9 42v5.4h-52zm35.4-12.6c-.266-13.067-1.632-22.033-4.1-26.9-2.466-4.867-6.966-7.3-13.5-7.3-6.533 0-11.067 2.433-13.6 7.3-2.533 4.867-3.933 13.833-4.2 26.9h35.4zM621.969 447.6h16.6v146h-16.6zM667.969 518c1.2-22.8 12-34.2 32.4-34.2 10.933 0 18.733 3.633 23.4 10.9 4.667 7.267 7 19.7 7 37.3v44.8l2.2 16.8h-15.8l-2-9.8c-2.933 4-6.6 6.967-11 8.9-4.4 1.933-9 2.9-13.8 2.9-8.133 0-14.5-2.567-19.1-7.7-4.6-5.133-6.9-12.1-6.9-20.9 0-12.533 4.5-22 13.5-28.4 9-6.4 21.033-9.6 36.1-9.6 0-12.4-.933-20.833-2.8-25.3-1.867-4.467-5.533-6.7-11-6.7-10.133 0-15.667 7-16.6 21h-15.6zm46.2 23c-22.267 0-33.4 8.333-33.4 25 0 10.933 4.933 16.4 14.8 16.4 5.6 0 10.1-1.967 13.5-5.9 3.4-3.933 5.1-10.167 5.1-18.7V541zM789.57 456.2h17.6l26.2 107.2 26.4-107.2h17.6l-35.2 137.4h-17.6l-35-137.4z"/></g><g><path d="M895.17 518c1.2-22.8 12-34.2 32.4-34.2 10.933 0 18.733 3.633 23.4 10.9 4.667 7.267 7 19.7 7 37.3v44.8l2.2 16.8h-15.8l-2-9.8c-2.933 4-6.6 6.967-11 8.9-4.4 1.933-9 2.9-13.8 2.9-8.133 0-14.5-2.567-19.1-7.7-4.6-5.133-6.9-12.1-6.9-20.9 0-12.533 4.5-22 13.5-28.4 9-6.4 21.033-9.6 36.1-9.6 0-12.4-.933-20.833-2.8-25.3-1.867-4.467-5.533-6.7-11-6.7-10.133 0-15.667 7-16.6 21h-15.6zm46.2 23c-22.267 0-33.4 8.333-33.4 25 0 10.933 4.933 16.4 14.8 16.4 5.6 0 10.1-1.967 13.5-5.9 3.4-3.933 5.1-10.167 5.1-18.7V541zM994.372 485.8h12.6l3.6 10.2c2.8-4.4 6.3-7.567 10.5-9.5 4.2-1.933 8.633-2.9 13.3-2.9 1.2 0 2.867.133 5 .4v14.2c-1.733-.4-3.667-.6-5.8-.6-6.133 0-11.433 1.867-15.9 5.6-4.467 3.733-6.7 10.8-6.7 21.2v69.2h-16.6V485.8zM1057.572 593.6V485.8h16.6v107.8h-16.6zm-2.2-133.4c0-3.067 1.033-5.6 3.1-7.6s4.567-3 7.5-3 5.4 1 7.4 3 3 4.533 3 7.6c0 3.067-1 5.6-3 7.6s-4.467 3-7.4 3c-2.933 0-5.433-1-7.5-3s-3.1-4.533-3.1-7.6zM1101.172 518c1.2-22.8 12-34.2 32.4-34.2 10.933 0 18.733 3.633 23.4 10.9 4.667 7.267 7 19.7 7 37.3v44.8l2.2 16.8h-15.8l-2-9.8c-2.933 4-6.6 6.967-11 8.9-4.4 1.933-9 2.9-13.8 2.9-8.133 0-14.5-2.567-19.1-7.7-4.6-5.133-6.9-12.1-6.9-20.9 0-12.533 4.5-22 13.5-28.4 9-6.4 21.033-9.6 36.1-9.6 0-12.4-.933-20.833-2.8-25.3-1.867-4.467-5.533-6.7-11-6.7-10.133 0-15.667 7-16.6 21h-15.6zm46.2 23c-22.267 0-33.4 8.333-33.4 25 0 10.933 4.933 16.4 14.8 16.4 5.6 0 10.1-1.967 13.5-5.9 3.4-3.933 5.1-10.167 5.1-18.7V541zM1188.773 447.6h16.6V496c5.2-8.133 13.2-12.2 24-12.2 10.133 0 17.467 4.267 22 12.8 4.533 8.533 6.8 22.667 6.8 42.4 0 19.867-2.333 34.267-7 43.2s-12.133 13.4-22.4 13.4c-10.533 0-18.467-4-23.8-12l-3.6 10h-12.6v-146zm16.2 92.4c0 16 1.367 27.067 4.1 33.2 2.733 6.133 7.7 9.2 14.9 9.2 7.067 0 11.833-2.933 14.3-8.8 2.467-5.867 3.7-17.133 3.7-33.8 0-16.667-1.233-27.967-3.7-33.9s-7.233-8.9-14.3-8.9c-7.2 0-12.167 3.1-14.9 9.3-2.733 6.2-4.1 17.433-4.1 33.7zM1281.773 447.6h16.6v146h-16.6zM1339.573 543.8c.133 14.933 1.433 25.1 3.9 30.5 2.467 5.4 7.1 8.1 13.9 8.1 5.6 0 9.667-1.6 12.2-4.8 2.533-3.2 4.133-8.6 4.8-16.2h15.8c-2 22.8-13 34.2-33 34.2-12.267 0-21-4.267-26.2-12.8-5.2-8.533-7.8-22.933-7.8-43.2 0-20.267 2.6-34.633 7.8-43.1 5.2-8.467 13.933-12.7 26.2-12.7 12.4 0 21.233 4.2 26.5 12.6 5.267 8.4 7.9 22.4 7.9 42v5.4h-52zm35.4-12.6c-.267-13.067-1.633-22.033-4.1-26.9-2.467-4.867-6.967-7.3-13.5-7.3s-11.067 2.433-13.6 7.3c-2.533 4.867-3.933 13.833-4.2 26.9h35.4z"/></g></g><g fill-rule="nonzero"><path d="M176.92 373.8c-1.066 7.733-.732 13.867 1 18.4 1.734 4.533 5.134 6.8 10.2 6.8 3.334 0 6.334-1.1 9-3.3 2.668-2.2 4.334-5.433 5-9.7.668-5.467-.732-9.9-4.2-13.3-3.466-3.4-7.6-6.7-12.4-9.9a84.688 84.688 0 01-18.4-16.8c-5.333-6.533-7.133-15.667-5.4-27.4 1.6-11.333 6.1-20.367 13.5-27.1 7.4-6.733 17.234-10.1 29.5-10.1 14.4 0 23.8 4.633 28.2 13.9 4.4 9.267 5.6 21.033 3.6 35.3h-25.2c1.068-7.333.8-13.333-.8-18s-4.532-7-8.8-7c-2.666 0-5.266 1.033-7.8 3.1-2.532 2.067-4.132 5.433-4.8 10.1-.666 4.667.3 8.767 2.9 12.3 2.6 3.533 7.5 7.767 14.7 12.7 3.068 2.133 6.168 4.5 9.3 7.1 3.134 2.6 5.868 5.6 8.2 9 2.334 3.4 4.068 7.367 5.2 11.9 1.134 4.533 1.3 9.8.5 15.8-1.866 12.667-6.932 21.733-15.2 27.2-8.266 5.467-17.932 8.2-29 8.2-13.066 0-22.8-3.8-29.2-11.4-6.4-7.6-8.4-20.2-6-37.8h26.4zM250.12 367c2.8-20 8-34.467 15.6-43.4s18.668-13.4 33.2-13.4c11.468 0 19.768 2.833 24.901 8.5 5.133 5.667 6.967 13.7 5.5 24.1-1.333 9.6-5.767 17.867-13.3 24.8s-18.167 10.4-31.9 10.4c-3.6 0-6.467-.267-8.6-.8-1.333 9.2-1.3 15.633.1 19.3 1.4 3.667 4.433 5.5 9.1 5.5 3.733 0 6.6-1.2 8.6-3.6 2-2.4 3.733-6.867 5.2-13.4h23.6c-5.6 25.333-19.333 38-41.2 38-25.733 0-36-18.667-30.8-56zm44.8-35.8c-8.666 0-14.266 9-16.8 27 1.468.267 2.5.433 3.1.5.6.067 1.368.1 2.3.1 11.468 0 17.8-5.267 19-15.8 1.2-7.867-1.332-11.8-7.6-11.8zM369.321 366.8c-1.867 13.867-2.633 23.2-2.3 28 .333 4.8 2.567 7.2 6.7 7.2 3.067 0 5.433-1.233 7.1-3.7 1.667-2.467 3.033-6.967 4.1-13.5h25.4c-2 13.467-6.6 23.2-13.8 29.2-7.2 6-16.2 9-27 9-12 0-20.233-4.133-24.7-12.4-4.467-8.267-5.167-23.267-2.1-45 3.067-20.8 7.733-35.233 14-43.3s16.067-12.1 29.4-12.1c10.8 0 18.9 2.867 24.3 8.6 5.4 5.733 7.167 15.6 5.3 29.6h-25.6c.8-6.4.667-10.833-.4-13.3-1.067-2.467-3.133-3.7-6.2-3.7-4 0-6.867 2.4-8.6 7.2-1.733 4.8-3.6 14.2-5.6 28.2z"/><g><path d="M471.721 410c-6 8.667-15.067 13-27.2 13-9.2 0-14.9-3.633-17.1-10.9-2.2-7.267-1.9-21.1.9-41.5l8.2-58.4h26.8l-7.6 55.6c-1.067 7.467-1.8 13.467-2.2 18-.4 4.533-.433 8-.1 10.4.333 2.4 1.067 3.967 2.2 4.7 1.133.733 2.767 1.1 4.9 1.1 4.933 0 8.433-2.1 10.5-6.3 2.067-4.2 4.1-13.433 6.1-27.7l7.8-55.8h26.8l-11.2 81c-.932 5.867 1.268 8.8 6.6 8.8.8 0 1.468-.133 2-.4l-2.8 20c-4.666.933-9 1.4-13 1.4-12 0-19.2-4.333-21.6-13zM524.522 367c2.8-20 8-34.467 15.6-43.4s18.667-13.4 33.2-13.4c11.467 0 19.767 2.833 24.9 8.5 5.133 5.667 6.967 13.7 5.5 24.1-1.333 9.6-5.767 17.867-13.3 24.8s-18.167 10.4-31.9 10.4c-3.6 0-6.467-.267-8.6-.8-1.333 9.2-1.3 15.633.1 19.3 1.4 3.667 4.433 5.5 9.1 5.5 3.733 0 6.6-1.2 8.6-3.6 2-2.4 3.733-6.867 5.2-13.4h23.6c-5.6 25.333-19.333 38-41.2 38-25.733 0-36-18.667-30.8-56zm44.8-35.8c-8.667 0-14.267 9-16.8 27 1.467.267 2.5.433 3.1.5.6.067 1.367.1 2.3.1 11.467 0 17.8-5.267 19-15.8 1.2-7.867-1.333-11.8-7.6-11.8zM661.922 275l-16.8 118.4c-.267 3.067.067 5.267 1 6.6.933 1.333 2.933 2 6 2 1.067 0 1.867-.133 2.4-.4l-2.8 20c-4.8.933-9.333 1.4-13.6 1.4-8.933 0-14.867-2.133-17.8-6.4s-3.533-12.267-1.8-24l16.6-117.6h26.8zM754.322 312.2l-11.4 81c-.667 5.867 1.4 8.8 6.2 8.8 1.467 0 2.533-.133 3.2-.4l-2.8 20c-4.667.933-9.067 1.4-13.2 1.4-6.267 0-10.867-.933-13.8-2.8-2.933-1.867-4.8-4.933-5.6-9.2-9.2 8-18.6 12-28.2 12-9.6 0-15.833-4.6-18.7-13.8-2.867-9.2-2.967-23.733-.3-43.6 2.8-19.6 6.833-33.733 12.1-42.4 5.267-8.667 12.3-13 21.1-13 10.667 0 18.4 4.467 23.2 13.4l7.6-11.4h20.6zm-33.8 54c1.867-12.933 2.067-22 .6-27.2-1.467-5.2-4.8-7.8-10-7.8-4.133 0-7.133 2.167-9 6.5s-3.733 13.367-5.6 27.1c-2.267 15.333-3.033 25.367-2.3 30.1.733 4.733 3.233 7.1 7.5 7.1 4.933 0 8.833-2.733 11.7-8.2 2.867-5.467 5.233-14.667 7.1-27.6zM814.123 283.4h28.2l6.2 92.4 32.6-92.4h28.4l-53.2 137.6h-28.2l-14-137.6z"/></g><g><path d="M985.523 312.2l-11.4 81c-.667 5.867 1.4 8.8 6.2 8.8 1.467 0 2.533-.133 3.2-.4l-2.8 20c-4.667.933-9.067 1.4-13.2 1.4-6.267 0-10.867-.933-13.8-2.8-2.933-1.867-4.8-4.933-5.6-9.2-9.2 8-18.6 12-28.2 12-9.6 0-15.833-4.6-18.7-13.8-2.867-9.2-2.967-23.733-.3-43.6 2.8-19.6 6.833-33.733 12.1-42.4 5.267-8.667 12.3-13 21.1-13 10.667 0 18.4 4.467 23.2 13.4l7.6-11.4h20.6zm-33.8 54c1.867-12.933 2.067-22 .6-27.2-1.467-5.2-4.8-7.8-10-7.8-4.133 0-7.133 2.167-9 6.5s-3.733 13.367-5.6 27.1c-2.267 15.333-3.033 25.367-2.3 30.1.733 4.733 3.233 7.1 7.5 7.1 4.933 0 8.833-2.733 11.7-8.2 2.867-5.467 5.233-14.667 7.1-27.6zM1036.125 323.2c2.933-4 6.933-7.167 12-9.5s9.933-3.5 14.6-3.5c1.6 0 2.8.067 3.6.2l-3.4 24.8c-2.133-.267-3.6-.4-4.4-.4-6.933 0-12.867 2.067-17.8 6.2s-8.2 12.067-9.8 23.8l-8 56.2h-26.8l11.2-79.6c1.067-6.8-.867-10.2-5.8-10.2-1.2 0-2.2.133-3 .4l2.8-20c5.067-.933 9.6-1.4 13.6-1.4 6 0 10.9.9 14.7 2.7 3.8 1.8 5.967 5.233 6.5 10.3zM1083.725 283.8c.533-4.4 2.467-8.133 5.8-11.2 3.334-3.067 7.134-4.6 11.4-4.6 4.134 0 7.468 1.533 10 4.6 2.534 3.067 3.468 6.8 2.8 11.2-.666 4.4-2.666 8.1-6 11.1-3.332 3-7.066 4.5-11.2 4.5-4.267 0-7.633-1.5-10.1-4.5-2.467-3-3.367-6.7-2.7-11.1zm24.4 28.4l-11.4 80c-.4 3.333-.166 5.8.7 7.4.868 1.6 2.9 2.4 6.1 2.4 1.2 0 2.068-.133 2.6-.4l-3 20c-4.8.933-9.332 1.4-13.6 1.4-8.933 0-14.833-2.133-17.7-6.4-2.867-4.267-3.5-12.267-1.9-24l11.4-80.4h26.8zM1207.726 312.2l-11.4 81c-.667 5.867 1.4 8.8 6.2 8.8 1.467 0 2.533-.133 3.2-.4l-2.8 20c-4.667.933-9.067 1.4-13.2 1.4-6.267 0-10.867-.933-13.8-2.8-2.933-1.867-4.8-4.933-5.6-9.2-9.2 8-18.6 12-28.2 12-9.6 0-15.833-4.6-18.7-13.8-2.867-9.2-2.967-23.733-.3-43.6 2.8-19.6 6.833-33.733 12.1-42.4 5.267-8.667 12.3-13 21.1-13 10.667 0 18.4 4.467 23.2 13.4l7.6-11.4h20.6zm-33.8 54c1.867-12.933 2.067-22 .6-27.2-1.467-5.2-4.8-7.8-10-7.8-4.133 0-7.133 2.167-9 6.5s-3.733 13.367-5.6 27.1c-2.267 15.333-3.033 25.367-2.3 30.1.733 4.733 3.233 7.1 7.5 7.1 4.933 0 8.833-2.733 11.7-8.2 2.867-5.467 5.233-14.667 7.1-27.6zM1235.926 275h26.8l-6.8 48.2c3.067-3.6 7.033-6.667 11.9-9.2 4.867-2.533 10.033-3.8 15.5-3.8 8.8 0 14.567 4.067 17.3 12.2 2.733 8.133 2.767 21.733.1 40.8-3.2 22.533-8 38.133-14.4 46.8-6.4 8.667-16.533 13-30.4 13-15.6 0-25.7-4.3-30.3-12.9-4.6-8.6-5.433-23.3-2.5-44.1l12.8-91zm13.4 92.4c-1.867 13.733-2.267 22.933-1.2 27.6 1.067 4.667 4.133 7 9.2 7 4.667 0 8-2.233 10-6.7 2-4.467 4.067-14.033 6.2-28.7 2-14.667 2.633-24.233 1.9-28.7-.733-4.467-3.433-6.7-8.1-6.7-5.067 0-8.833 2.5-11.3 7.5-2.467 5-4.7 14.567-6.7 28.7zM1362.126 275l-16.8 118.4c-.267 3.067.067 5.267 1 6.6.933 1.333 2.933 2 6 2 1.067 0 1.867-.133 2.4-.4l-2.8 20c-4.8.933-9.333 1.4-13.6 1.4-8.933 0-14.867-2.133-17.8-6.4s-3.533-12.267-1.8-24l16.6-117.6h26.8zM1371.126 367c2.8-20 8-34.467 15.6-43.4s18.668-13.4 33.2-13.4c11.468 0 19.768 2.833 24.9 8.5 5.134 5.667 6.968 13.7 5.5 24.1-1.332 9.6-5.766 17.867-13.3 24.8-7.532 6.933-18.166 10.4-31.9 10.4-3.6 0-6.467-.267-8.6-.8-1.333 9.2-1.3 15.633.1 19.3 1.4 3.667 4.434 5.5 9.1 5.5 3.734 0 6.6-1.2 8.6-3.6 2-2.4 3.734-6.867 5.2-13.4h23.6c-5.6 25.333-19.332 38-41.2 38-25.733 0-36-18.667-30.8-56zm44.8-35.8c-8.666 0-14.266 9-16.8 27 1.468.267 2.5.433 3.1.5.6.067 1.368.1 2.3.1 11.468 0 17.8-5.267 19-15.8 1.2-7.867-1.332-11.8-7.6-11.8z"/></g></g><g fill-rule="nonzero"><path d="M162.545 198.2c-1.067 7.2-.867 12.9.6 17.1 1.467 4.2 4.533 6.3 9.2 6.3 2.8 0 5.4-.867 7.8-2.6 2.4-1.733 3.867-4.533 4.4-8.4.667-5.067-.7-9.2-4.1-12.4-3.4-3.2-7.433-6.333-12.1-9.4-3.2-2.133-6.4-4.5-9.6-7.1-3.2-2.6-6-5.667-8.4-9.2-2.4-3.533-4.2-7.6-5.4-12.2-1.2-4.6-1.4-9.967-.6-16.1 1.6-11.467 6.233-20.633 13.9-27.5 7.667-6.867 17.833-10.3 30.5-10.3 14.933 0 24.6 4.733 29 14.2 4.4 9.467 5.6 21.267 3.6 35.4h-27.6c.933-6.667.733-12.2-.6-16.6-1.333-4.4-3.867-6.6-7.6-6.6-2.267 0-4.533.9-6.8 2.7-2.267 1.8-3.667 4.833-4.2 9.1-.667 4 .2 7.633 2.6 10.9 2.4 3.267 7.2 7.433 14.4 12.5 3.2 2.133 6.367 4.5 9.5 7.1 3.133 2.6 5.9 5.633 8.3 9.1 2.4 3.467 4.167 7.467 5.3 12s1.3 9.867.5 16c-1.867 13.067-7.1 22.3-15.7 27.7-8.6 5.4-18.433 8.1-29.5 8.1-13.333 0-23.367-3.8-30.1-11.4-6.734-7.6-8.834-20.4-6.3-38.4h29zM234.945 191.6c2.8-20 8.067-34.433 15.8-43.3 7.733-8.867 19.067-13.3 34-13.3 12 0 20.633 2.9 25.9 8.7 5.267 5.8 7.167 14.033 5.7 24.7-1.333 9.333-5.633 17.467-12.9 24.4s-17.967 10.4-32.1 10.4c-3.333 0-6.133-.2-8.4-.6-1.2 8.4-1.233 14.233-.1 17.5 1.133 3.267 3.833 4.9 8.1 4.9 3.467 0 6.033-1.1 7.7-3.3 1.667-2.2 3.233-6.433 4.7-12.7h26c-5.733 26-20 39-42.8 39-26.267 0-36.8-18.8-31.6-56.4zm45.4-33.6c-7.467 0-12.333 8-14.6 24 1.733.267 3.267.4 4.6.4 9.867 0 15.4-4.6 16.6-13.8 1.067-7.067-1.133-10.6-6.6-10.6zM359.345 191.6c-1.867 13.2-2.7 22.067-2.5 26.6.2 4.533 2.033 6.8 5.5 6.8 2.667 0 4.7-1.133 6.1-3.4 1.4-2.267 2.567-6.533 3.5-12.8h28c-1.867 13.733-6.6 23.7-14.2 29.9-7.6 6.2-16.933 9.3-28 9.3-12.133 0-20.533-4.2-25.2-12.6-4.667-8.4-5.533-23.467-2.6-45.2 3.067-20.8 7.8-35.2 14.2-43.2 6.4-8 16.533-12 30.4-12 11.2 0 19.6 2.933 25.2 8.8 5.6 5.867 7.4 16 5.4 30.4h-28.4c.933-6 .967-10.167.1-12.5s-2.633-3.5-5.3-3.5c-3.467 0-5.9 2.267-7.3 6.8-1.4 4.533-3.033 13.4-4.9 26.6z"/><g><path d="M461.346 234.8c-5.867 8.8-15.068 13.2-27.6 13.2-9.2 0-14.9-3.733-17.1-11.2-2.2-7.467-1.834-21.667 1.1-42.6l8-57.2h29.6l-7.6 54.6c-1.068 7.467-1.834 13.4-2.3 17.8-.468 4.4-.534 7.767-.2 10.1.332 2.333 1.032 3.833 2.1 4.5 1.067.667 2.6 1 4.6 1 2.267 0 4.1-.367 5.5-1.1 1.4-.733 2.6-2.3 3.6-4.7 1-2.4 1.933-5.8 2.8-10.2.867-4.4 1.833-10.267 2.9-17.6l7.6-54.4h29.6l-11 78.8c-.933 6.133 1.533 9.2 7.4 9.2.8 0 1.467-.067 2-.2l-3 21.8c-5.2.933-9.933 1.4-14.2 1.4-12.933 0-20.867-4.4-23.8-13.2zM516.546 191.6c2.8-20 8.067-34.433 15.8-43.3 7.733-8.867 19.067-13.3 34-13.3 12 0 20.633 2.9 25.9 8.7 5.267 5.8 7.167 14.033 5.7 24.7-1.333 9.333-5.633 17.467-12.9 24.4s-17.967 10.4-32.1 10.4c-3.333 0-6.133-.2-8.4-.6-1.2 8.4-1.233 14.233-.1 17.5 1.133 3.267 3.833 4.9 8.1 4.9 3.467 0 6.033-1.1 7.7-3.3 1.667-2.2 3.233-6.433 4.7-12.7h26c-5.733 26-20 39-42.8 39-26.267 0-36.8-18.8-31.6-56.4zm45.4-33.6c-7.467 0-12.333 8-14.6 24 1.733.267 3.267.4 4.6.4 9.867 0 15.4-4.6 16.6-13.8 1.067-7.067-1.133-10.6-6.6-10.6zM658.546 100l-16.4 115.8c-.8 6.133 1.733 9.2 7.6 9.2 1.2 0 2.067-.067 2.6-.2l-3.2 21.8c-5.2.933-10.133 1.4-14.8 1.4-9.867 0-16.4-2.367-19.6-7.1-3.2-4.733-3.867-13.567-2-26.5l16.2-114.4h29.6zM752.746 137l-11 78.8c-.8 6.267 1.467 9.4 6.8 9.4 1.467 0 2.533-.133 3.2-.4l-3 21.8c-5.067.933-9.867 1.4-14.4 1.4-6.667 0-11.633-.933-14.9-2.8-3.267-1.867-5.433-4.933-6.5-9.2-9.333 8-18.8 12-28.4 12-9.6 0-15.833-4.667-18.7-14-2.867-9.333-2.967-23.933-.3-43.8 2.8-19.467 6.8-33.533 12-42.2 5.2-8.667 12.2-13 21-13 4.933 0 9.5 1.2 13.7 3.6 4.2 2.4 7.433 5.6 9.7 9.6l8.2-11.2h22.6zm-36.4 53.6c1.733-12.133 1.967-20.6.7-25.4-1.267-4.8-4.233-7.2-8.9-7.2-3.733 0-6.4 1.967-8 5.9-1.6 3.933-3.333 12.433-5.2 25.5-2.133 14.8-2.9 24.433-2.3 28.9.6 4.467 2.7 6.7 6.3 6.7 4.533 0 8.1-2.6 10.7-7.8 2.6-5.2 4.833-14.067 6.7-26.6zM812.147 108.4h31.2l5.2 88.6 30.6-88.6h31.2l-53 137.6h-31.2l-14-137.6z"/></g><g><path d="M988.147 137l-11 78.8c-.8 6.267 1.467 9.4 6.8 9.4 1.467 0 2.533-.133 3.2-.4l-3 21.8c-5.067.933-9.867 1.4-14.4 1.4-6.667 0-11.633-.933-14.9-2.8-3.267-1.867-5.433-4.933-6.5-9.2-9.333 8-18.8 12-28.4 12-9.6 0-15.833-4.667-18.7-14-2.867-9.333-2.967-23.933-.3-43.8 2.8-19.467 6.8-33.533 12-42.2 5.2-8.667 12.2-13 21-13 4.933 0 9.5 1.2 13.7 3.6 4.2 2.4 7.433 5.6 9.7 9.6l8.2-11.2h22.6zm-36.4 53.6c1.733-12.133 1.967-20.6.7-25.4-1.267-4.8-4.233-7.2-8.9-7.2-3.733 0-6.4 1.967-8 5.9-1.6 3.933-3.333 12.433-5.2 25.5-2.133 14.8-2.9 24.433-2.3 28.9.6 4.467 2.7 6.7 6.3 6.7 4.533 0 8.1-2.6 10.7-7.8 2.6-5.2 4.833-14.067 6.7-26.6zM1041.75 148.2c2.8-3.867 6.8-7.033 12-9.5 5.2-2.467 10.133-3.7 14.8-3.7 1.6 0 2.733.067 3.4.2l-3.8 27.2c-.933-.133-2.267-.2-4-.2-7.2 0-13.268 2.1-18.2 6.3-4.934 4.2-8.268 12.367-10 24.5l-7.4 53h-29.6l10.8-77.2c1.066-7.333-1-11-6.2-11-1.2 0-2.2.133-3 .4l3-21.8c5.466-.933 10.4-1.4 14.8-1.4 6.4 0 11.7.933 15.9 2.8 4.2 1.867 6.7 5.333 7.5 10.4zM1089.15 107.8c.667-4.667 2.8-8.667 6.4-12 3.6-3.333 7.667-5 12.2-5 4.533 0 8.167 1.667 10.9 5 2.733 3.333 3.767 7.333 3.1 12-.667 4.667-2.833 8.667-6.5 12s-7.767 5-12.3 5-8.133-1.667-10.8-5c-2.667-3.333-3.667-7.333-3-12zm27 29.2l-11 77.2c-.533 3.733-.3 6.467.7 8.2 1 1.733 3.233 2.6 6.7 2.6 1.2 0 2.067-.067 2.6-.2l-3.2 21.8c-5.2.933-10.133 1.4-14.8 1.4-9.867 0-16.4-2.367-19.6-7.1-3.2-4.733-3.867-13.567-2-26.5l11-77.4h29.6zM1217.55 137l-11 78.8c-.8 6.267 1.467 9.4 6.8 9.4 1.467 0 2.533-.133 3.2-.4l-3 21.8c-5.067.933-9.867 1.4-14.4 1.4-6.667 0-11.633-.933-14.9-2.8-3.267-1.867-5.433-4.933-6.5-9.2-9.333 8-18.8 12-28.4 12-9.6 0-15.833-4.667-18.7-14-2.867-9.333-2.967-23.933-.3-43.8 2.8-19.467 6.8-33.533 12-42.2 5.2-8.667 12.2-13 21-13 4.933 0 9.5 1.2 13.7 3.6 4.2 2.4 7.433 5.6 9.7 9.6l8.2-11.2h22.6zm-36.4 53.6c1.733-12.133 1.967-20.6.7-25.4-1.267-4.8-4.233-7.2-8.9-7.2-3.733 0-6.4 1.967-8 5.9-1.6 3.933-3.333 12.433-5.2 25.5-2.133 14.8-2.9 24.433-2.3 28.9.6 4.467 2.7 6.7 6.3 6.7 4.533 0 8.1-2.6 10.7-7.8 2.6-5.2 4.833-14.067 6.7-26.6zM1245.35 100h29.6l-6.8 48.2c2.933-3.467 6.933-6.533 12-9.2 5.067-2.667 10.4-4 16-4 8.533 0 14.133 4.033 16.8 12.1 2.667 8.067 2.667 21.5 0 40.3-3.2 22.933-8.1 38.767-14.7 47.5-6.6 8.733-17.033 13.1-31.3 13.1-16.4 0-26.967-4.367-31.7-13.1-4.733-8.733-5.567-23.967-2.5-45.7l12.6-89.2zm16.2 92.2c-1.867 13.067-2.333 21.8-1.4 26.2.933 4.4 3.733 6.6 8.4 6.6 4.267 0 7.233-2.033 8.9-6.1 1.667-4.067 3.5-13.233 5.5-27.5 2-14.133 2.733-23.233 2.2-27.3-.533-4.067-2.933-6.1-7.2-6.1-4.667 0-8.1 2.267-10.3 6.8-2.2 4.533-4.233 13.667-6.1 27.4zM1376.95 100l-16.4 115.8c-.8 6.133 1.733 9.2 7.6 9.2 1.2 0 2.068-.067 2.6-.2l-3.2 21.8c-5.2.933-10.133 1.4-14.8 1.4-9.867 0-16.4-2.367-19.6-7.1-3.2-4.733-3.867-13.567-2-26.5l16.2-114.4h29.6zM1385.55 191.6c2.8-20 8.068-34.433 15.8-43.3 7.734-8.867 19.068-13.3 34-13.3 12 0 20.634 2.9 25.9 8.7 5.268 5.8 7.168 14.033 5.7 24.7-1.332 9.333-5.632 17.467-12.9 24.4-7.266 6.933-17.966 10.4-32.1 10.4-3.332 0-6.132-.2-8.4-.6-1.2 8.4-1.232 14.233-.1 17.5 1.134 3.267 3.834 4.9 8.1 4.9 3.468 0 6.034-1.1 7.7-3.3 1.668-2.2 3.234-6.433 4.7-12.7h26c-5.732 26-20 39-42.8 39-26.266 0-36.8-18.8-31.6-56.4zm45.4-33.6c-7.466 0-12.332 8-14.6 24 1.734.267 3.268.4 4.6.4 9.868 0 15.4-4.6 16.6-13.8 1.068-7.067-1.132-10.6-6.6-10.6z"/></g></g></svg>