<?xml version="1.0" encoding="UTF-8" standalone="no"?><!DOCTYPE svg PUBLIC "-//W3C//DTD SVG 1.1//EN" "http://www.w3.org/Graphics/SVG/1.1/DTD/svg11.dtd"><svg width="100%" height="100%" viewBox="0 0 512 512" version="1.1" xmlns="http://www.w3.org/2000/svg" xmlns:xlink="http://www.w3.org/1999/xlink" xml:space="preserve" xmlns:serif="http://www.serif.com/" style="fill-rule:evenodd;clip-rule:evenodd;stroke-linejoin:round;stroke-miterlimit:2;"><rect id="favicon" x="0" y="0" width="512" height="512" style="fill:none;"/><clipPath id="_clip1"><rect x="0" y="0" width="512" height="512"/></clipPath><g clip-path="url(#_clip1)"><path id="Hanko-Logo" serif:id="Hanko Logo" d="M256,5.355c141.29,0 256,112.31 256,250.645c0,138.335 -114.71,250.645 -256,250.645c-141.29,0 -256,-112.31 -256,-250.645c0,-138.335 114.71,-250.645 256,-250.645Zm-39.273,27.124c-22.389,3.75 -43.685,10.652 -63.395,20.22l-0.023,168.009c35.516,-3.988 63.171,-33.519 63.247,-69.367c0.001,-0.553 0.171,-118.862 0.171,-118.862Zm16.254,118.557c-0,0.581 -0.718,10.792 -1.511,15.182l106.557,-0c9.093,0 16.254,-9.399 16.254,-18.301l0,-26.258c0,-11.378 -9.038,-18.301 -16.254,-18.301c-7.216,0 -16.254,7.443 -16.254,18.301c0,17.179 -14.617,34.215 -32.163,34.215c-17.494,0 -32.853,-17.087 -32.853,-34.215l0,-26.258c0,-17.174 14.684,-34.215 32.225,-34.215l85.572,-0c-34.69,-20.294 -75.242,-31.959 -118.555,-31.959c-7.768,0 -15.447,0.375 -23.019,1.108l0,120.701Zm-159.262,244.826c17.475,21.795 38.937,40.383 63.305,54.707l0.021,-159.281c-35.274,3.933 -62.767,33.044 -63.296,68.474c0.033,0.295 -0.03,36.1 -0.03,36.1Zm363.362,-131.982c-13.298,0 -45.237,0.077 -45.237,0.077l1.036,174.95c29.274,-21.045 53.319,-48.66 69.861,-80.618l-25.659,0c-17.79,0 -32.233,-14.141 -32.233,-31.559c0,-17.418 14.443,-31.559 32.233,-31.559c8.819,0 15.979,-7.01 15.979,-15.645c0,-8.635 -7.16,-15.645 -15.979,-15.645Zm-300.026,-43.152l0.021,-159.326c-24.468,14.374 -46.006,33.046 -63.524,54.946c0,0 0.196,35.729 0.089,36.252c0.71,35.308 28.199,64.262 63.413,68.128Zm-79.538,152.154l-0.029,-11.9c-0.094,-44.767 34.888,-81.652 79.56,-85.693l0.005,-38.565c-44.729,-3.987 -79.774,-40.897 -79.679,-85.704l0.087,-11.808c-20.997,34.121 -33.08,74.085 -33.08,116.789c0,42.743 12.104,82.74 33.136,116.881Zm175.399,-13.248c0.043,0.331 0.065,122.033 0.065,122.033c7.572,0.733 15.251,1.108 23.019,1.108c13.558,0 26.845,-1.143 39.767,-3.336l0,-60.894c-24.416,-0.994 -43.886,-20.687 -43.886,-44.822l-0,-70.596c0,-4.392 3.642,-7.957 8.127,-7.957l43.733,0c10.197,-0 19.977,-3.966 27.188,-11.026c5.649,-5.531 9.359,-12.605 10.701,-20.211l-112.467,-0.053c-4.485,-0.002 -8.125,-3.569 -8.123,-7.961c0.002,-4.392 3.646,-7.955 8.131,-7.953l112.298,0.053c-3.47,-17.293 -19.034,-30.339 -37.713,-30.346l-43.75,-0.015c-4.485,-0.002 -8.126,-3.568 -8.124,-7.96c0.002,-4.392 3.645,-7.956 8.13,-7.954l43.75,0.015c27.678,0.01 50.549,20.144 54.181,46.268l17.553,0.008l-0.218,-36.782c-0.141,-23.748 19.279,-43.177 43.531,-43.553l50.23,-0.779c-15.526,-35.511 -40.049,-66.37 -70.754,-89.821l-109.301,0c-9.072,0 -15.971,9.418 -15.971,18.301l0,26.258c0,8.927 7.481,18.301 16.599,18.301c9.068,0 15.909,-9.423 15.909,-18.301c0,-20.922 18.604,-34.215 32.508,-34.215c13.904,0 32.508,12.292 32.508,34.215l0,26.258c0,17.154 -14.988,34.215 -32.508,34.215l-111.089,0c-11.752,29.753 -39.949,51.507 -73.631,54.576l-0.005,38.575c44.216,3.969 79.008,40.134 79.614,84.351Zm204.165,-48.55c-8.819,0 -15.979,7.01 -15.979,15.645c0,8.635 7.16,15.645 15.979,15.645l33.119,0c11.225,-26.627 17.419,-55.798 17.419,-86.374c0,-25.631 -4.352,-50.275 -12.373,-73.26l-56.181,0.872c-15.341,0.238 -27.624,12.527 -27.535,27.549l0.218,36.882c0,0 32.242,-0.077 45.332,-0.077c17.79,0 32.233,14.141 32.233,31.559c0,17.418 -14.443,31.559 -32.233,31.559Zm-79.03,-47.143c-1.459,11.841 -6.926,22.936 -15.629,31.456c-10.259,10.044 -24.173,15.687 -38.681,15.687l-35.606,0l0,62.639c0,15.957 13.189,28.905 29.488,28.947l12.464,0.03c16.329,-0 29.566,-12.96 29.566,-28.948l-0,-38.721c-0,-4.392 3.642,-7.957 8.127,-7.957c4.485,-0 8.127,3.565 8.127,7.957l0,38.721c-0,24.142 -19.477,43.83 -43.886,44.822l0,57.51c23.12,-5.631 44.872,-14.668 64.667,-26.533l-1.099,-185.603l-17.538,-0.008Zm-204.751,27.339l-0.023,167.996c19.725,9.582 41.04,16.493 63.45,20.247l-0.057,-118.862c-0.076,-35.889 -27.795,-65.447 -63.37,-69.38Z" style="fill:#900b20;"/></g></svg>