<svg clip-rule="evenodd" fill-rule="evenodd" stroke-linejoin="round" stroke-miterlimit="2" viewBox="0 0 512 512" xmlns="http://www.w3.org/2000/svg" xmlns:xlink="http://www.w3.org/1999/xlink"><clipPath id="a"><path clip-rule="evenodd" d="m0 0h512v512h-512z"/></clipPath><path d="m0 0h512v512h-512z" fill="none"/><g clip-path="url(#a)"><path d="m256-0c141.29 0 256 114.71 256 256s-114.71 256-256 256-256-114.71-256-256 114.71-256 256-256zm20.149 493.38c14.676-1.232 28.976-3.796 42.777-7.572-5.519-19.957-10.948-49.882-12.325-81.622-12.534 11.069-29.789 14.44-48.103 15.027-4.179 11.837-10.323 24.183-19.16 37.212 2.13 2.707 4.449 5.5 6.947 8.309 10.893 12.242 21.039 21.086 26.108 25.511.894.781 2.324 1.965 3.755 3.135zm41.373-392.178c-2.215-30.843.162-59.568 3.223-74.506l-4.133-1.126c-6.711 12.917-17.769 23.92-31.447 33.292 4.984 11.979 16.245 25.663 26.106 36.178 1.968 2.098 4.142 4.21 6.252 6.162zm82.141-35.193c-16.366-12.399-34.38-22.734-53.655-30.614-4.184 22.016-6.112 75.679 7.911 116.67 8.216 24.017 22.128 43.916 46.684 46.612l-1.195-131.442c-.004-.433.085-.842.255-1.225zm-55.423 411.31c21.198-8.468 40.898-19.896 58.59-33.77l-1.524-167.63c-33.245 2.787-51.276 24.252-60.262 52.126-15.6 48.388-6.265 114.523 3.197 149.274zm85.113-57.99c20.601-21.856 37.12-47.601 48.332-76.012-.434-3.152-.988-7.111-1.296-9.06-1.817-11.506-4.119-30.178-18.396-43.374-6.89-6.368-16.533-11.237-29.963-13.636l1.323 142.081zm38.273-272.748c-10.923-21.066-24.9-40.299-41.343-57.109l1.009 108.376c11.182-1.508 19.685-4.876 25.895-10.391 8.445-7.499 12.89-18.44 14.35-32.264.704-5.437.089-8.611.089-8.611zm-262.687 139.266c-.658 14.192-4.795 32.7-27.36 48.618-10.464 7.382-20.414 11.422-19.123 27.511.992 12.368 4.052 20.206 9.465 24.75 5.494 4.612 12.581 5.945 20.059 6.193-.664-21.272 1.887-40.433 2.435-44.527.977-7.294 7.691-12.423 14.985-11.446s12.423 7.691 11.446 14.985c-.534 3.989-3.216 23.892-2.004 44.871.731 12.651 2.706 25.808 8.164 35.345l.038.066c17.435-30.189 18-56.125 15.861-81.074-.629-7.332 4.814-13.795 12.146-14.424s13.795 4.814 14.424 12.146c1.211 14.128 1.659 28.513-.452 43.583 13.964-.93 26.343-4.987 31.447-20.774 7.496-23.187-15.204-35.141-17.53-36.543-10.848-6.54-17.808-12.383-22.804-19.195-5.589-7.621-8.776-16.65-11.402-30.401-7.735.45-19.771.627-39.796.317zm65.607-6.775c1.55 9.397 3.218 15.802 7.095 21.088 3.242 4.42 8.028 7.884 15.068 12.128 2.018 1.217 11.867 7.088 20.118 17.48.851-3.366 1.794-6.673 2.837-9.908.502-1.557 1.025-3.099 1.571-4.624-9.104-13.739-20.07-31.859-31.329-47.856-4.104 4.392-9.159 8.497-15.36 11.69zm220.993 12.769c1.767-11.692 2.684-23.661 2.684-35.842 0-23.175-3.316-45.581-9.5-66.77-3.524 7.014-8.101 13.081-13.828 18.167-10.112 8.98-24.125 15.108-43.353 17.227l.238 25.598c22.319 3.042 37.59 11.167 48.315 21.08 6.759 6.247 11.73 13.315 15.444 20.541zm-190.818-49.407c10.317 13.741 20.973 30.567 30.308 45.103 14.829-21.792 37.257-36.462 70.034-38.382l-.215-23.638c-37.47-2.229-60.007-29.303-72.159-64.821-2.628-7.682-4.745-15.755-6.426-23.995l-3.566-1.552c-4.236-1.408-15.402-9.631-26.878-21.868-11.043-11.775-22.643-27.101-29.53-41.238-10.951 5.386-22.662 10.139-34.3 14.491l.457 1.576c1.748 5.909 4.184 13.015 7.998 17.652 5.648 6.867 15.318 13.055 24.484 16.7 6.838 2.719 10.182 10.479 7.463 17.317s-10.479 10.182-17.317 7.463c-13.277-5.28-27.043-14.592-35.225-24.539-5.936-7.217-10.167-18.216-12.882-27.194-7.804 2.74-15.271 5.366-22.11 7.96-3.933 1.491-7.698 3.649-10.863 6.42-4.543 3.978-2.658 10.073-.433 15.715 3.47 8.796 9.933 17.141 15.131 21.323 3.207 2.58 4.904 6.344 4.971 10.164 20.646-1.55 41.958-2.533 60.054-.153 19.946 2.624 36.249 9.556 46.033 21.918 9.866 12.467 14.143 31.094 6.437 58.911-.258.931-.724 2.559-1.466 4.669.054.071.108.143 0 0zm0 0c-.054-.072-.108-.144 0 0zm-154.948-144.85c1.73-2.776 3.934-5.378 6.655-7.76 5.537-4.848 12.092-8.681 18.974-11.29 25.322-9.602 59.665-19.485 86.939-34.481 12.314-6.771 23.217-14.463 30.385-24.042-10.699-1.473-21.623-2.233-32.724-2.233-131.478 0-238.222 106.744-238.222 238.222 0 43.288 11.571 83.894 31.786 118.893 11.277-137.992 12.412-226.49 15.149-236.401.581-2.103 3.499-12.491 9.785-21.853 5.024-7.481 12.101-14.119 21.158-17.164 6.655-2.238 7.181-1.817 50.117-1.889zm-72.549 311.136c39.844 47.623 97.938 79.466 163.481 84.73-3.288-3.311-6.778-6.985-10.341-10.99-14.793-16.626-24.049-32.783-26.501-37.067-4.25-7.427-7.169-16.436-9.058-26.007-14.802-.427-29.217-3.158-40.029-12.235-9.604-8.062-17.141-21.1-18.901-43.042-1.054-13.133 1.309-22.265 5.971-29.571h-14.228c.638 4.838 1.035 10.045.79 14.783-.448 8.658-3.225 15.992-7.602 20.467-8.735 8.931-20.715 11.857-32.968 11.149-2.663-.154-5.331-.488-7.941-.938l-1.541 18.326c-.182 2.114-.83 7.78-1.133 10.396zm80.38-89.866c2.714-2.03 5.599-4.058 8.604-6.178 12.328-8.697 15.517-18.842 16.192-27.405l-15.189-.436c-7.355-.225-13.145-6.379-12.92-13.734s6.379-13.145 13.734-12.92c76.901 2.349 82.141 1.29 89.13-.756 7.488-2.193 12.637-6.669 16.16-11.372-4.172-4.59-8.232-8.203-12.17-10.223-6.307-3.234-16.779-4.509-28.743-5.383-20.984-1.533-46.091-.971-65.369-1.431-7.357-.176-13.187-6.291-13.011-13.648s6.291-13.187 13.648-13.011c19.664.47 45.272-.069 66.675 1.495 16.296 1.19 30.377 3.844 38.968 8.25 3.127 1.604 6.393 3.861 9.743 6.66 1.458-10.28.128-17.868-4.216-23.358-5.954-7.523-16.462-10.431-28.6-12.028-20.533-2.701-45.546-.478-68.398 1.409-7.334.606-13.78-4.857-14.385-12.191-.222-2.688.371-5.257 1.573-7.463-.451-.423-.905-.862-1.362-1.317h-33.115c.418 3.099.734 6.338.835 9.485.21 6.502-.559 12.67-2.388 17.339-3.301 8.431-10.287 13.754-18.231 16.541-8.671 3.041-18.225 2.786-19.975 2.722-1.627-.06-2.963-.131-4.19-.243l-.707 14.956h56.262c7.359 0 13.333 5.974 13.333 13.333s-5.974 13.333-13.333 13.333h-16.859c.638 4.838 1.035 10.045.79 14.783-.448 8.658-3.225 15.992-7.602 20.467-8.735 8.931-20.715 11.857-32.968 11.149-1.215-.07-2.432-.178-3.644-.317l-.674 10.511h59.274c6.557 0 12.015 4.743 13.126 10.982zm-8.079-181.707c-1.471-3.401-2.663-6.87-3.467-10.317-.202-.866-.382-1.73-.538-2.592-15.352-.029-24.103-.183-29.591-.178-4.523.004-5.63-.029-7.772.691-3.36 1.13-5.655 3.979-7.519 6.754-1.259 1.875-2.3 3.816-3.149 5.642h52.037zm-56.763 26.667c-.294 5.327-.6 11.725-.94 19.139 1.147.152 2.382.241 3.954.299.774.028 4.431.189 8.291-.701.885-.204 1.789-.466 2.648-.834.521-.224 1.235-.236 1.457-.803 1.065-2.719.685-6.648.322-10.472-.216-2.275-.535-4.529-.89-6.628h-14.84zm-9.38 170.725-1.38 18.77 2.497.454c5.813.945 12.287 1.796 16.681-2.084.151-1.02.707-5.002.598-7.555-.139-3.252-.557-6.578-1.057-9.585zm5.166-83.259-1.071 19.429c5.461.839 11.315 1.304 15.385-2.29.151-1.02.707-5.002.598-7.555-.139-3.252-.557-6.578-1.057-9.585h-13.855z" fill="#e7050f"/></g></svg>