<svg clip-rule="evenodd" fill-rule="evenodd" stroke-linejoin="round" stroke-miterlimit="2" viewBox="0 0 1024 1024" xmlns="http://www.w3.org/2000/svg"><path d="M589.6 797.333c-1.366 56.26-.254 111.088 4.015 134.948 2.92 16.309 44.898 15.856 49.703 0 8.284-27.334-5.93-109.66 0-164.008 6.13-56.177 22.162-115.915 36.77-173.047 14.348-56.11 88.143-186.905 97.38-177.732 0 0-9.254 63.638-12.932 146.296-2.593 58.253-12.932 125.95-12.932 187.48-.003 74.589 24.5 170.288 25.863 198.93.436 9.126 16.621 16.855 24.514 12.257 10.327-6.017 35.59-28.052 37.446-48.353 4.198-45.886-10.283-151.221-12.257-226.96-2.155-82.768-.676-269.65-.676-269.65s30.733 39.938 44.042 61.284c13.469 21.602 27.165 44.309 36.77 68.32 12.257 30.643 29.005 75.87 36.77 115.533 8.173 41.725 2.012 90.876 12.257 134.825 4.444 19.054 12.533 47.828 21.312 75.728-13.97 30.092-32.17 56.988-53.298 75.894-44.252 39.591-119.289 54.59-183.258 57.731-28.549 1.4-67.168 1.196-110.704-.064v-.923s-14.54-44.201-68.555-41.08c-17.493 1.01-39.15-15.32-61.284-24.514-22.131-9.196-32.857-12.052-36.77-36.77s-16.86-74.38 19.527-69.231c46.805 6.622 80.296-19.411 85.798-36.77 2.683-8.465 11.946-5.335 20.5-.124zm-282.32-634.22c11.642 1.004 24.785 3.009 28.941 9.245 8.172 12.256-4.69 44.942 0 61.284 4.26 14.837 21.574 22.805 28.15 36.77 6.734 14.3 17.062 38.813 12.257 49.028s-32.191 6.127-41.08 12.256c-7.524 5.185-20.52 20.613-12.258 24.514 12.975 6.127 75.09 2.043 90.108 12.257 13.513 9.19 14.19 40.918 0 49.027-14.299 8.172-71.498-4.085-85.798 0-7.856 2.245-8.07 23.223 0 24.514 38.321 6.127 191.6 16.342 229.92 12.257 12.188-1.3 11.082-31.536 0-36.77-12.975-6.13-64.877 10.214-77.851 0s-10.932-51.07 0-61.285 50.577 4.085 65.594 0c11.151-3.033 35.584 3.32 24.514-24.514-7.88-19.817-131.212 10.16-151.392-12.256-8.024-8.915 7.533-51.907-12.257-73.541-8.72-9.535-24.134-31.361-20.88-36.771s30.086-4.462 40.407 4.31c12.862 10.932 23.076 51.79 36.77 61.284 12.491 8.66 37.827.495 45.392-4.31 6.899-4.38 4.055-17.418 0-24.513-8.17-14.3-46.265-51.07-49.028-61.285-2.76-10.214 23.404-5.92 32.46 0 15.625 10.215 44.83 53.113 61.285 61.285 11.764 5.841 47.92 11.217 37.446-12.257-6.004-13.459-46.553-56.307-49.027-73.541-1.759-12.257-1.427-12.257 3.634-24.514 3.12-7.552 6.927-20.176 0-24.514-13.342-8.357-46.701-40.742-52.661-61.284-3.05-10.515 9.75-26.001 6.888-33.543 74.155-.288 148.522 2.324 205.71 10.016 141.054 18.97 210.994 77.964 256.892 157.587l-.096.765c-4.48 36.673 6.13 65.37-12.257 98.055-7.22 12.839-13.98 19.761-24.514 24.514-13.58 6.127-40.98 15.624-56.972 12.257-38.813-8.172-25.194-31.009-23.84-61.285 1.11-24.81.72-59.573 0-85.797-.653-23.884 4.805-57.25-4.31-71.55s-42.643-18.48-50.377-14.248c-8.172 4.47-20.942 22.48-24.514 36.77-4.087 16.342 0 40.856 0 61.284v73.541c0 16.342 6.015 38.813 0 49.028-6.016 10.214-25.387 10.214-36.096 12.257-9.215 1.758-20.25 5.065-28.148 0-8.06-5.168-18.76-18.756-20.204-31.009-3.367-28.598 4.198-108.598 0-140.587-2.48-18.902-14.862-49.4-25.19-51.345-10.324-1.947-32.77 9.834-36.77 39.672-3.67 27.387-2.042 87.96 0 121.984 1.66 27.641 2.627 59.528 12.257 82.162 10.548 24.789 70.992 25.997 98.055 24.514 8.752-.478 28.623 1.762 24.513 9.505-25.095 47.279-88.024 87.928-106.675 128.956-23.614 51.946-41.78 112.552-49.027 171.596-2.558 20.833-4.586 47.74-5.984 76.476-4.898.43-9.288-.042-9.91-2.935-1.48-6.916-5.983-32.517-61.284-36.77-55.298-4.255-63.305-22.624-61.284-36.771 2.024-14.147 33.068-12.964 49.028-12.257 15.962.707 10.91-39.41 24.513-36.77 13.605 2.639 35.396 28.634 49.028 12.256 13.633-16.379-9.88-24.407-24.514-36.77-14.631-12.363-21.534-48.377-24.514-73.541-2.977-25.165-21.526-35.99-36.77-41.081-15.242-5.093-87.371 0-110.312 0-9.106 0-16.828-2.51-27.32 0-14.42 3.449-28.838 20.783-21.707 33.134 6.689 11.581 122.479 10.765 147.082 12.257 24.605 1.492 20.26 10.62 0 23.838-12.941 8.445-96.968-1.895-122.568 0-25.599 1.894-44.553 28.48-24.514 37.446 14.424 6.455 128.051-.4 147.082 4.31 21.862 5.412-1.312 18.122-12.257 28.15-10.942 10.027-139.148-15.613-159.339-4.31-20.19 11.302-30.032 26.95-12.257 33.134 17.778 6.184 36.277-9.571 32.46 7.947s-6.944 14.777-24.513 28.148c-11.447 8.714-29.523 19.123-53.338 20.88s-37.24 23.687-49.027 49.027c-11.787 25.337 11.827 62.208 24.514 73.54 12.686 11.331 24.603 20.006 53.337 8.621 7.962-3.152 16.117-.377 24.514 0 8.397.38 14.804 5.372 12.257 32.46-2.545 27.09 15.132 31.597 24.514 36.77s27.722 40.416 49.027 49.028c21.453 8.673 69.888 9.318 90.108 20.204 9.298 5.005 12.86 12.522 13.9 19.458-96.573-5.524-193.355-13.156-249.386-18.471-58.165-5.52-134.032-4.899-170.995-38.523-8.856-8.056-16.003-18.374-21.843-30.19 11.185-24.738 24.357-67.932 32.47-91.613 10.468-30.556 4.086-71.991 24.515-93.745 20.428-21.751 77.02-17.666 98.054-36.77 20.427-18.553 5.68-65.595 28.148-77.851 7.175-3.914 28.332 3.972 33.136-4.31 4.805-8.285 10.3-41.209-4.31-45.394-23.908-6.847-115.946 10.327-139.137 4.31-13.037-3.381-11.865-34.033 0-40.404 16.344-8.777 78.233 1.325 98.054-12.257 19.824-13.582 11.273-56.367 20.88-69.23 7.504-10.046 31.966 1.662 36.77-7.947 4.805-9.608 8.051-44.64-7.946-49.702-23.907-7.567-114.96 11.763-135.501 4.31-15.835-5.745-3.078-42.057 12.256-49.027 22.472-10.214 108.47 13.123 122.569-12.257 10.214-18.386-5.04-85.29 16.569-89.434 12.125-2.324 23.838-18.816 23.838-33.134 0-12.257-80.124-19.133-113.948-12.257-29.607 6.02-60.03 17.49-61.284 0-.653-9.113 3.28-22.83 12.256-24.513 26.219-4.916 106.319-5.89 154.912-9.245zm65.711 499.518c10.215-8.172 51.072-8.172 61.285 0 10.214 8.172-2.043 36.77 0 49.027 1.502 9.01 4.324 19.98 12.256 24.514 14.302 8.172 61.285 16.342 73.541 24.514 6.8 4.531 7.31 20.858 0 24.513-8.17 4.085-34.725 2.043-49.027 0-12.789-1.827-26.556-16.341-36.77-12.256-10.213 4.084-21.625 22.325-24.514 36.77-4.085 20.429 2.045 71.499 0 85.798-.576 4.043-9.367 2.89-12.257 0-6.127-6.13-19.855-22.797-24.514-36.77-6.127-18.387-6.127-57.2-12.256-73.542-4.056-10.82-16.342-17.935-24.514-15.893-8.17 2.045-12.257 24.065-24.514 28.15s-40.855-6.13-49.027-12.257c-6.536-4.902-6.38-19.408 0-24.513 10.214-8.172 42.9-16.342 61.284-24.514 16.699-7.42 40.858-12.257 49.027-24.514 8.172-12.257-10.212-40.855 0-49.027zM283.628 24.387c-.478 11.11 3.495 26.537 7.202 37.659 14.3 42.898 15.355 51.182 8.62 61.284-6.732 10.102-32.714-1.702-49.027-.676-30.64 1.93-104.674-12.37-134.825 12.257-30.149 24.626-37.67 90.446-46.067 135.501-8.237 44.204-4.31 89.86-4.31 134.825 0 53.113.165 99.017 4.31 183.853 2.312 47.29-6.271 134.65-24.887 183.53-6.716 17.634-11.429 29.161-15.086 37.452-1.279-10.127-2.403-20.053-3.515-29.52C13.496 673.533-5.541 418.274 1.529 301.674c4.654-76.746 23.852-174.827 66.942-220.73S193.9 31.953 260.074 26.263c7.365-.634 15.238-1.262 23.554-1.875zm729.805 300.865c20.833 125.906 6.158 309.982-3.99 415.124-3.494-42.723-8.682-85.379-19.297-126.772-13.905-54.216-16.344-98.055-61.285-159.34-17.084-23.297-52.62-46.525-65.596-61.283-6.578-7.484-21.589-23.771-12.257-27.268 10.214-3.826 49.263 7.995 73.541 4.31 26.222-3.978 70.414-1.93 83.789-28.185 2.261-4.438 3.914-10.079 5.095-16.586zm-890.825 288.59s-15.153 16.007-12.99 38.022c2.166 22.016 26.582 15.995 26.582 15.995s40.542-.893 45.73-12.188c5.19-11.293 12.877-37.937 2.99-44.909s-52.271 1.435-62.312 3.08zm13.465-180.19c12.256-9.607 56.506-13.437 65.323-3.9 8.818 9.535 7.053 40.97-5.253 51.52-9.43 8.086-63.592 9.315-68.288 6.127-13.354-9.065-4.04-44.137 8.218-53.747zm4.039-187.753c-15.802 5.837-26.98 50.608-12.257 49.027 14.725-1.582 45.407 14.506 60.116 3.476 16.341-12.257 41.414 2.489 53.44-7.029s19.702-32.565 5.344-40.37-86.826-12.425-106.643-5.104zm197.937-224.95c22.54-1.21 46.757-2.266 71.884-3.071 4.89 21.156 54.813 73.885 60.44 93.195 3.437 11.804-12.731 22.876-23.84 28.148-14.187 6.735-44.94 10.822-61.285 12.257-9.695.853-19.369-2.587-29.053-3.532 2.954-3.739 4.765-8.01 4.54-12.359-1.5-28.957-23.65-62.692-28.148-73.541-4.982-12.017 4.412-29.842 5.462-41.097z" fill="#e7050f"/></svg>