<svg clip-rule="evenodd" fill-rule="evenodd" stroke-linejoin="round" stroke-miterlimit="2" viewBox="0 0 188 171" xmlns="http://www.w3.org/2000/svg"><path d="m62.293 146.105 3.37 4.557 3.38 3.045 1.52-1.124.068-10.201.808-7.929 2.294-4.14 3.777.403 4.888 3.433 8.312.056 1.15-2.637s1.538-3.768-1.48-4.544c-3.017-.777-4.9-1.921-7.542-2.318-2.641-.396-6.414-1.176-6.414-1.176l-2.61-5.307.434-8.31-11.713-.078.353 3.78-.036 5.29-2.286 3.007-6.806.71-7.2 2.976-4.177 3.372-.028 4.155 7.925 1.566 3.804-4.132 4.172-2.24 4.12 5.319zm-33.602-3.624-3.779-.026-3.002-3.043-.715-6.05 7.546 1.562zm-11.405 10.502-4.52-2.297 1.547-5.278 4.54-.726.72 5.295zm136.554-136.618.033-4.912 4.15.784 1.108 3.785 3.759 3.049.724 4.538-1.91 3.388-4.153-.784-4.13-3.806.42-6.042zm-73.543 149.507-7.543-1.94-5.283-1.168-4.134-3.428-3.747-4.56-4.896-2.3-1.472-6.054.033-4.911-5.28-1.169-4.554 2.991-6.413-1.553-2.995-4.177-.717-5.672 1.183-7.548 4.562-4.126 5.687-2.985 7.556.05.395-2.64 4.174-2.618.774-2.64-8.31-.433-1.497-2.277 2.29-3.385 20.025.134s9.44.819 10.573.826c1.133.008 3.036-1.87 3.036-1.87l1.156-3.392-2.262-.77-19.647-.132-7.176-.425.03-4.535 2.27-.362 4.914-.345 8.307.81 10.204-.308 3.408-1.11 1.163-4.527-4.528-.786-16.246-.109-8.315.322-1.109-3.786 2.285-2.629 15.114.101 12.47-.295 6.78 3.068 1.068 9.831 2.606 5.686 4.134 3.428 3.753 3.803-2.667 3.382-4.147-1.539-5.274-2.302-1.174 6.037-4.541 1.104-6.043-.418 1.101 4.92 6.793 1.178 6.419.798 5.649 2.682 1.865 3.414 3.025-.358.426-7.176.81-7.93 3.83-7.908 3.476-11.312 3.847-10.176 4.959-7.145 6.464-6.002 5.702-5.251.776-3.018-2.64-.773-11.711-.078-4.905-1.167-4.517-2.675-2.991-4.554.459-12.087-.65-15.873 1.183-7.55 5.688-2.984 3.387 1.911.716 6.05-.436 8.688-.52 21.156 4.139 2.672 4.544-1.481 6.8.045 4.91.41.022-3.4-.203-26.072.033-4.911 3.453-7.911 5.668.038 1.866 3.413-.07 10.578-.85 13.974.685 10.585 2.243 3.415 6.424.043 6.798.423 4.55-2.237 1.921-4.899 2.3-4.897.83-11.33.049-7.177 2.67-3.76 4.914-.346.281 14.36.27 16.248-.429 7.555-8.328 2.588-9.459 1.826-13.217-.844 1.852 5.302 6.768 4.957 5.26 4.569 4.883 4.19.351 4.158 3.362 5.69 1.462 7.188 2.597 7.196 1.829 9.08 2.254 1.905 1.462 7.567-.458 11.709c6.799.423 4.928-2.234 4.928-2.234l.033-4.911-1.08-7.943.045-6.8.78-3.773-1.096-5.676.806-7.172-3.749-4.56-1.871-2.656.03-4.534 3.045-3.38.422-6.42 1.908-3.011.553-26.066s-.192-27.96-.182-29.472c.01-1.513-3.36-6.068-3.36-6.068l-1.87-2.657s-2.628-2.663-4.888-3.812c-2.259-1.148-11.334-.076-11.334-.076l-13.226.29s-3.418 2.622-4.924 1.856-1.87-3.035-1.87-3.035l-11.714.3-21.536-.144c-3.023-.02-7.951 2.591-7.951 2.591l-5.768.812-7.551-.712-4.346.066-1.244 2.354 1.87 3.034 3.382 2.668 6.022 3.441-.413 5.286-3.78.354-.025 3.777 1.115 2.652 5.259 4.57 3.756 3.424 1.099 5.298-6.422-.42s-4.513-3.053-5.262-4.191c-.748-1.14-2.621-3.419-2.621-3.419l-3.366-5.313-4.91-.032-1.538 3.768 3.749 4.56 4.133 3.427 2.246 3.037-1.906 2.633s-3.397-.401-4.91-.411c-1.511-.01-3.367-4.934-3.367-4.934s-3.367-4.934-3.738-6.07c-.37-1.135-4.521-1.92-4.521-1.92l-5.3 1.477-.777 3.394 2.996 3.8 1.479 4.92-.05 7.557 5.288.036 8.684 1.19 12.847-.291 1.494 2.655-2.284 2.63-6.43 1.09-7.927-1.187-1.53 2.634 1.482 4.544-.028 4.156 5.29.036 10.198.446-.412 4.91-35.514-.238-5.66-1.171 1.167-4.905 7.552.806 8.693-.698.777-3.016.796-6.04-7.939.702-10.57-1.581.792-5.285 4.534.03 4.923-1.857.025-3.778s-1.112-3.03-1.105-4.163c.008-1.133-4.137-2.672-4.137-2.672l-4.12-5.695.41-4.532.788-4.906-3.396-.779-7.557-.05-13.224.29-11.335-.076-3.418 2.622 1.866 3.414 4.912.032 2.65-.739 10.206-.687s12.843.464 14.351.851c1.51.388-1.163 4.528-1.163 4.528l-4.92 1.1-.418 6.042-.42 6.42-.791 5.285-3.404.355-7.558.327-12.09-.08-2.658 1.87-1.171 5.66 2.632 1.907 16.624.111 7.174.803-.416 5.665-5.294.721-.41 4.53-1.164 4.904-1.167 4.905-4.16.728-9.443-.441-6.43 1.09 1.07 9.453 3.398.4 12.47-.294 9.45-.692-.423 6.798-5.289-.035-.797 6.04-1.16 4.148-4.562 4.125-6.816 2.221-8.335 3.346-3.028.736-1.201 10.193-3.05 4.137-2.322 8.295-1.914 3.765-.814 8.685 3.766 1.915 5.29-.343 2.631 2.284-2.292 3.764 3.778.025 3.035-1.868 2.63 2.283 1.876 1.903 6.425-.336 3.416-2.243 4.91.41 1.11 3.408 12.084.837 19.264.884 15.116-.276-1.119-2.275zm87.728-10.748-3.43 4.511-3.03 1.113-5.274-2.302-.351-4.159 3.421-3 3.408-1.11 5.294-.72zm-14.47-39.769-4.498-5.319 1.542-4.524 3.017.776 2.226 6.06zm-23.857 8.152-5.695 4.12 1.489 3.41 2.236 4.548-3.418 2.621-3.757-3.046-5.63-5.705 1.173-6.039 2.285-2.629 2.655-1.493 3.433-4.889 5.292-.343.348 4.537-.41 4.908zm57.98 30.992.057-8.689.421-6.42-2.264-.393-2.267-.015-1.16 4.147.704 7.562-1.22 12.838-3.029 1.113.046-6.8-.698-9.073-3.726-7.58-.305-10.961.056-8.311-1.437-11.345s-4.47-9.476-4.839-10.612c-.37-1.136-2.205-9.46-2.205-9.46l-5.608-8.728-5.238-7.97-7.515-6.095-.055 8.312-1.635 18.504-.242 36.27 1.767 18.147-2.7 8.294-2.67 3.76-4.51-3.43-1.074-9.075.487-16.243.078-11.712 1.17-5.66-.647-16.252.84-12.463.498-18.133-3.807 4.51-8.373 9.011-3.842 9.42-4.594 9.038-3.483 12.445-3.078 8.292-.048 7.178 1.46 7.567-1.217 12.46-.085 12.845-8.311-.056.022-3.4.833-11.707-.312-9.826-4.154-.405-4.188 4.884-4.922 1.479-6.045-.04-5.672.716-.78 3.774-.801 6.796 1.1 4.919 5.276 1.925 6.028 2.684 3.39 1.534 4.912.033 8.3 1.567 3.38 3.045 5.291.035 10.955.451 14.734.099 10.955.451 13.22.466 5.68-1.85 7.56-.706 9.444.44.79-5.283-.699-8.318zm-127.512-142.538.737 2.65-.79 5.284 2.632 1.906 3.392 1.157 5.298-1.098 6.434-1.846 4.172-2.24 1.915-3.765-1.872-2.657-1.864-3.791-1.873-2.28-3.003-3.042s-16.997-.87-18.894.251l-1.148 2.26 1.492 3.032zm-39.734 65.855 10.581-.307 1.92-4.522s-.729-4.16-1.862-4.168c-1.134-.008-6.806.71-6.806.71l-5.296 1.098-1.158 3.771-1.157 3.393zm8.528-32.436s2.656-1.493 5.297-1.097c2.642.394 4.527 1.163 4.527 1.163l1.133.008 1.53-3.013-.349-4.158-6.793-1.18-9.07.318-6.793-1.18-1.57 8.682 2.262.769zm-23.563 77.297 2.317-7.541.804-7.174 2.338-10.562-.696-9.073 1.2-9.817-.317-9.07 1.551-6.034s-.73-3.784-1.098-5.297c-.368-1.515-1.11-3.409-1.11-3.409l1.937-7.165-.334-6.803-.722-4.916s.036-5.29.426-7.176c.39-1.888 2.299-4.897 2.299-4.897l1.537-3.767 6.063-2.606 7.558-.327 8.313.055 6.047-.336 6.798.422 1.912-3.387.408-4.531-1.778-2.468s-1.31-1.898-1.402-2.182c-.093-.283-.55-2.553-.55-2.553l-10.956-.074s-10.204.31-13.605.286c-3.4-.022-8.692.32-9.83 1.069-1.14.748-3.799 2.996-5.69 3.362-1.893.364-4.177 2.994-5.314 3.742-1.14.748-2.29 3.386-2.29 3.386l-.783 60.448s2.25 2.66 2.24 4.17c-.01 1.511.868 39.678-.653 41.181-1.521 1.5-2.393 18.874-2.393 18.874l3.43-4.51 1.167-4.905zm8.769-11.654 4.15.784 5.301-1.855 4.915-.344.404-3.776-1.114-3.03-6.8-.045-4.532-.409-2.291 3.764-.033 4.91z" fill="#f04540" fill-rule="nonzero"/></svg>