<svg clip-rule="evenodd" fill-rule="evenodd" stroke-linejoin="round" stroke-miterlimit="2" viewBox="0 0 515 201" xmlns="http://www.w3.org/2000/svg"><g fill-rule="nonzero"><path d="m13.927 177.175c-4.032 0-7.392-.96-10.176-2.88-2.88-1.824-4.224-5.472-4.224-10.848v-43.104c0-4.992 1.344-8.64 4.032-10.848s5.952-3.36 9.888-3.36c10.272.192 18.24.384 23.904.672l5.664.192v6.144h-27.648c-5.472 0-8.16 2.784-8.16 8.448v16.704l31.584.48v5.856l-31.584.48v16.608c0 3.264.768 5.472 2.304 6.624s3.648 1.728 6.24 1.728h27.264v6.144c-12.192.672-21.888.96-29.088.96zm63.168-25.632 18.048 25.248h-7.872l-14.688-20.544-14.304 20.544h-7.679l18.048-26.016-18.048-25.248h7.776l14.88 20.64 14.016-20.544 7.872-.096-18.048 26.016zm44.832 25.824c-5.28 0-9.504-.768-12.672-2.208s-5.568-4.128-7.104-7.968c-1.632-3.744-2.4-9.12-2.4-16.128s.768-12.48 2.4-16.32c1.632-3.744 3.936-6.336 7.104-7.776s7.392-2.112 12.672-2.112 9.504.672 12.672 2.112c3.168 1.536 5.568 4.128 7.2 7.872 1.632 3.84 2.4 9.216 2.4 16.224s-.768 12.384-2.4 16.128c-1.632 3.84-3.936 6.528-7.104 7.968s-7.488 2.208-12.768 2.208zm0-6.24c3.552 0 6.336-.48 8.352-1.44 2.016-.864 3.552-2.784 4.608-5.664s1.632-7.2 1.632-12.96-.48-10.08-1.536-12.96c-1.056-2.784-2.688-4.704-4.704-5.664-2.016-.864-4.8-1.344-8.352-1.344s-6.336.48-8.352 1.344c-2.016.96-3.552 2.88-4.608 5.664-1.152 2.88-1.632 7.2-1.632 12.96s.48 10.08 1.632 12.96c1.056 2.88 2.592 4.8 4.608 5.664 2.016.96 4.8 1.44 8.352 1.44zm61.056-64.992h27.84c5.472 0 9.984 1.44 13.344 4.416s4.992 8.448 4.992 16.416c0 6.816-1.248 11.712-3.84 14.496s-5.76 4.608-9.6 5.376l14.496 29.952h-7.776l-13.728-28.896-5.28-.096-12.768-.288v29.28h-7.68zm26.688 35.52c3.744 0 6.72-1.056 8.832-3.072 2.016-2.016 3.072-5.952 3.072-11.616 0-5.376-1.056-9.024-3.168-11.04-2.112-1.92-4.992-2.88-8.736-2.88h-19.008v28.608zm50.209 35.712c-5.473 0-9.793-.768-12.769-2.4-3.072-1.632-5.28-4.32-6.624-8.064s-2.016-9.024-2.016-15.84.672-12.192 2.112-15.936c1.344-3.744 3.552-6.432 6.624-7.968s7.296-2.304 12.768-2.304c4.704 0 8.448.48 11.232 1.536s4.896 2.784 6.24 5.184c1.344 2.496 2.016 5.952 2.016 10.272s-1.248 7.488-3.744 9.408c-2.592 2.016-6.144 2.976-10.848 2.976h-18.816c.096 4.416.48 7.776 1.344 10.176.864 2.496 2.4 4.224 4.608 5.28 2.208 1.152 5.472 1.728 9.696 1.728h16.512v4.608c-3.456.48-6.528.768-9.216 1.056-2.688.192-5.76.288-9.12.288zm4.32-28.128c2.975 0 5.087-.576 6.431-1.632s2.016-2.976 2.016-5.664c0-4.32-.96-7.296-2.784-8.928-1.92-1.536-5.184-2.4-9.888-2.4-3.744 0-6.528.576-8.544 1.632s-3.36 2.976-4.224 5.568-1.248 6.432-1.248 11.424h18.24zm73.823-19.488-11.52.96c1.248.864 2.4 1.632 3.264 2.496.768.96 1.632 2.208 2.304 3.936.672 1.824.96 4.032.96 6.72 0 4.512-1.44 8.16-4.32 11.136s-7.488 4.416-13.824 4.416h-8.16c-2.88 0-5.088.384-6.528 1.248s-2.208 2.208-2.208 4.224c0 1.44.48 2.496 1.632 3.168 1.056.672 2.304 1.056 3.744 1.056h16.992c5.952 0 10.368 1.152 13.344 3.456 2.88 2.304 4.32 5.856 4.32 10.656v2.112c0 4.704-1.632 8.448-4.8 11.04-3.264 2.592-7.968 3.936-14.112 3.936h-14.304c-5.184 0-9.312-1.056-12.288-3.168-3.072-2.208-4.608-5.376-4.608-9.504v-2.304c0-2.784.768-5.184 2.304-7.2s3.552-3.552 6.048-4.608c-1.632-.768-2.784-1.824-3.648-3.168-.864-1.248-1.248-2.784-1.248-4.416 0-4.896 2.88-7.872 8.64-9.12-3.36-1.344-5.664-3.36-7.008-6.048-1.44-2.592-2.112-5.568-2.112-8.832 0-11.04 6.624-16.512 19.776-16.512h27.36zm-23.904 23.808c4.512 0 7.584-.96 9.408-2.88 1.728-1.92 2.592-4.512 2.592-7.68 0-7.776-3.744-11.616-11.136-11.616h-5.472c-3.84 0-6.72.864-8.736 2.496-2.016 1.728-2.976 4.512-2.976 8.448 0 7.488 3.552 11.232 10.56 11.232zm-7.968 21.504c-3.072 0-5.664.768-7.776 2.304-2.208 1.44-3.264 3.744-3.264 6.72v2.112c0 5.664 3.84 8.544 11.424 8.544h11.904c3.936 0 7.008-.768 9.216-2.208 2.112-1.536 3.168-3.84 3.168-6.912v-1.92c0-2.784-.864-4.896-2.592-6.336-1.728-1.536-4.704-2.304-8.832-2.304zm56.64 2.304c-10.272 0-15.36-5.28-15.36-15.744v-36.096h7.584v34.176c0 4.128.96 6.912 2.784 8.544s4.608 2.4 8.352 2.4c2.88 0 5.568-.384 8.064-1.248 2.496-.768 5.088-2.016 7.872-3.648v-40.224h7.584v51.264h-5.952l-1.632-5.664c-6.528 4.128-12.96 6.24-19.296 6.24zm54.624-.48c-4.512 0-7.968-1.248-10.08-3.744-2.208-2.496-3.36-6.72-3.36-12.768v-56.832h7.584v55.872c0 4.224.576 7.104 1.728 8.64s2.976 2.496 5.472 2.784l5.184.576v5.472zm24.768.48c-3.84 0-6.912-1.152-9.312-3.456-2.496-2.304-3.648-5.472-3.648-9.408v-3.648c0-4.128 1.344-7.488 4.128-9.888 2.688-2.4 6.624-3.648 11.904-3.648h17.376v-6.336c0-3.456-.96-6.048-2.784-7.68-1.92-1.632-5.376-2.496-10.464-2.496h-15.936v-4.512c6.048-1.056 12.288-1.536 18.72-1.536 6.24 0 10.752 1.248 13.728 3.744 2.88 2.592 4.32 6.624 4.32 12.096v36.192h-5.856l-1.44-5.856c-.48.384-1.824 1.152-4.128 2.208-2.4 1.056-5.088 2.016-8.064 2.88a27.727 27.727 0 0 1 -8.544 1.344zm3.36-5.664c1.728 0 3.84-.288 6.336-.96s4.8-1.344 6.816-2.016 3.264-1.152 3.936-1.44v-16.128l-15.648.672c-3.552.096-6.048.96-7.68 2.592-1.728 1.632-2.496 3.744-2.496 6.528v2.304c0 2.976.864 5.088 2.592 6.432 1.632 1.344 3.744 2.016 6.144 2.016zm38.977-46.176h5.76l1.823 8.928c2.496-2.976 5.184-5.376 8.064-7.008s6.048-2.496 9.504-2.496c1.728 0 3.36.192 4.8.48v7.776c-2.88-.288-4.704-.48-5.568-.48-3.36 0-6.336.576-8.736 1.824-2.496 1.248-5.184 3.168-8.064 5.856v36.384h-7.584v-51.264z" fill="#7ca04d"/><path d="m92.455 73.447c-4.608 0-8.64-1.056-12.096-3.072s-5.184-6.24-5.184-12.576v-39.648c0-5.76 1.632-9.888 4.8-12.48 3.168-2.496 6.912-3.744 11.424-3.744 9.792 0 20.064.384 30.72 1.248v11.904h-26.496c-4.128 0-6.24 1.92-6.24 5.856v10.272l28.128.768v11.232l-28.128.768v9.792c0 4.224 2.016 6.336 5.952 6.336h26.784v11.904c-8.544.96-18.432 1.44-29.664 1.44zm67.585-25.44 17.471 24.96h-14.4l-11.328-16.224-10.176 16.224h-14.4l17.472-26.496-17.472-25.056h14.304l11.424 16.32 10.176-16.32h14.4zm42.911 25.44c-5.856 0-10.464-.864-13.824-2.496s-5.856-4.32-7.392-8.16c-1.632-3.744-2.4-9.024-2.4-15.744 0-7.008.768-12.384 2.4-16.224 1.536-3.744 4.032-6.432 7.392-7.968 3.36-1.44 7.968-2.208 13.824-2.208s10.56.768 13.92 2.304c3.36 1.632 5.856 4.32 7.488 8.064 1.536 3.84 2.304 9.216 2.304 16.032s-.768 12.192-2.304 15.936c-1.536 3.84-4.032 6.528-7.392 8.064-3.36 1.632-8.064 2.4-14.016 2.4zm0-11.328c2.496 0 4.416-.384 5.664-1.056s2.208-2.016 2.88-4.224c.672-2.112.96-5.376.96-9.792s-.288-7.68-.96-9.888c-.672-2.112-1.632-3.456-2.88-4.224-1.248-.672-3.168-.96-5.664-.96-2.4 0-4.32.288-5.568.96-1.248.768-2.208 2.112-2.88 4.224-.672 2.208-.96 5.472-.96 9.888s.288 7.68.96 9.792c.672 2.208 1.632 3.552 2.88 4.224s3.168 1.056 5.568 1.056zm58.56-60.192h27.936c13.536 0 20.256 6.24 20.256 18.624 0 4.224-.864 7.68-2.592 10.272-1.728 2.688-4.128 4.416-7.296 5.28 3.456.864 6.336 2.688 8.736 5.568 2.304 2.88 3.456 6.816 3.456 11.712 0 7.008-1.728 12.096-5.28 15.072s-8.928 4.512-16.032 4.512h-29.184zm28.032 29.28c2.016 0 3.648-.768 4.896-2.304 1.152-1.536 1.728-3.552 1.728-6.144 0-2.784-.576-4.896-1.824-6.144s-2.976-1.92-4.992-1.92h-13.631v16.512h13.824zm.768 28.992c5.472 0 8.16-3.072 8.16-9.312 0-2.688-.768-4.8-2.208-6.432-1.536-1.536-3.552-2.304-5.952-2.304h-14.591v18.048h14.592zm52.8 13.248c-5.856 0-10.464-.864-13.824-2.496s-5.856-4.32-7.392-8.16c-1.632-3.744-2.4-9.024-2.4-15.744 0-7.008.768-12.384 2.4-16.224 1.536-3.744 4.032-6.432 7.392-7.968 3.36-1.44 7.968-2.208 13.824-2.208s10.56.768 13.92 2.304c3.36 1.632 5.856 4.32 7.488 8.064 1.536 3.84 2.304 9.216 2.304 16.032s-.768 12.192-2.304 15.936c-1.536 3.84-4.032 6.528-7.392 8.064-3.36 1.632-8.064 2.4-14.016 2.4zm0-11.328c2.496 0 4.416-.384 5.664-1.056s2.208-2.016 2.88-4.224c.672-2.112.96-5.376.96-9.792s-.288-7.68-.96-9.888c-.672-2.112-1.632-3.456-2.88-4.224-1.248-.672-3.168-.96-5.664-.96-2.4 0-4.32.288-5.568.96-1.248.768-2.208 2.112-2.88 4.224-.672 2.208-.96 5.472-.96 9.888s.288 7.68.96 9.792c.672 2.208 1.632 3.552 2.88 4.224s3.168 1.056 5.568 1.056zm49.249 11.04c-5.473 0-9.505-1.344-12.097-4.128-2.688-2.688-4.032-6.912-4.032-12.672v-56.64h14.208v54.528c0 2.784.384 4.704 1.248 5.856.864 1.248 2.208 1.92 4.128 2.208l3.936.576v10.272h-7.392zm30.815.384c-6.24 0-10.848-2.016-13.824-6.048-3.072-4.032-4.608-10.656-4.608-19.776 0-6.528.576-11.712 1.824-15.648 1.152-3.936 3.168-6.816 5.952-8.64s6.72-2.784 11.616-2.784c4.224 0 8.64.768 13.152 2.4v-23.328h14.304v73.248h-12l-2.304-4.896c-1.824 1.536-3.936 2.784-6.528 3.84s-5.088 1.632-7.584 1.632zm4.992-11.424c3.072 0 6.144-.96 9.12-2.88v-25.92c-1.632-.672-3.168-1.152-4.416-1.536-1.344-.288-2.688-.48-4.128-.48-2.496 0-4.416.384-5.76 1.248-1.44.864-2.4 2.496-3.072 4.704-.672 2.304-.96 5.568-.96 9.792 0 4.032.288 7.104.96 9.216.576 2.208 1.536 3.648 2.88 4.512 1.248.864 3.072 1.344 5.376 1.344z" fill="#b0bc04"/></g></svg>