<svg
    xmlns="http://www.w3.org/2000/svg"
    xml:space="preserve"
    style="fill-rule:evenodd;clip-rule:evenodd;stroke-linejoin:round;stroke-miterlimit:2"
    viewBox="0 0 29 29"
><path d="M0 0h28.8v28.8H0z" style="fill:none" /><path
        d="M14.4 1.8C21.354 1.8 27 7.446 27 14.4S21.354 27 14.4 27 1.8 21.354 1.8 14.4 7.446 1.8 14.4 1.8m-1.933 1.364c-1.102.189-2.15.535-3.12 1.016l-.001 8.446a3.52 3.52 0 0 0 3.113-3.487zm.8 5.96c0 .029-.035.543-.074.763h5.245c.448 0 .8-.472.8-.92v-1.32c0-.572-.445-.92-.8-.92s-.8.374-.8.92c0 .864-.719 1.72-1.583 1.72-.861 0-1.617-.859-1.617-1.72v-1.32c0-.863.723-1.72 1.586-1.72h4.212a11.34 11.34 0 0 0-6.968-1.551v6.068ZM5.428 21.431a11.5 11.5 0 0 0 3.116 2.75l.001-8.007a3.52 3.52 0 0 0-3.115 3.442c.002.015-.001 1.815-.001 1.815Zm17.884-6.635c-.655 0-2.227.004-2.227.004l.051 8.795a11.46 11.46 0 0 0 3.438-4.053h-1.263a1.587 1.587 0 0 1 0-3.172.786.786 0 0 0 0-1.572ZM8.545 12.627l.001-8.009A11.5 11.5 0 0 0 5.419 7.38s.01 1.796.004 1.822a3.52 3.52 0 0 0 3.121 3.425ZM4.63 20.276l-.001-.598a4.32 4.32 0 0 1 3.916-4.308v-1.939a4.32 4.32 0 0 1-3.922-4.308l.004-.594A11.34 11.34 0 0 0 2.999 14.4c0 2.149.596 4.159 1.631 5.876m8.633-.666c.002.017.003 6.135.003 6.135a11.5 11.5 0 0 0 3.09-.112v-3.061a2.255 2.255 0 0 1-2.16-2.253V16.77a.4.4 0 0 1 .4-.4h2.152a1.89 1.89 0 0 0 1.865-1.57l-5.536-.003a.4.4 0 1 1 0-.8l5.527.003a1.895 1.895 0 0 0-1.856-1.526l-2.153-.001a.4.4 0 1 1 0-.8l2.153.001A2.694 2.694 0 0 1 19.415 14h.864l-.011-1.849a2.176 2.176 0 0 1 2.143-2.189l2.472-.039a11.45 11.45 0 0 0-3.482-4.515h-5.38c-.447 0-.786.473-.786.92v1.32c0 .449.368.92.817.92.446 0 .783-.474.783-.92 0-1.052.916-1.72 1.6-1.72s1.6.618 1.6 1.72v1.32c0 .862-.738 1.72-1.6 1.72h-5.468a4.32 4.32 0 0 1-3.624 2.744v1.939a4.32 4.32 0 0 1 3.919 4.24Zm10.049-2.441a.786.786 0 0 0 0 1.572h1.63c.552-1.339.857-2.805.857-4.342a11.4 11.4 0 0 0-.609-3.683l-2.765.044c-.755.012-1.36.63-1.355 1.385l.011 1.854s1.587-.004 2.231-.004a1.587 1.587 0 0 1 0 3.172Zm-3.89-2.37a2.694 2.694 0 0 1-2.673 2.37h-1.752v3.149c0 .802.649 1.453 1.451 1.455l.613.002c.804 0 1.455-.652 1.455-1.455v-1.947a.4.4 0 1 1 .8 0v1.947a2.255 2.255 0 0 1-2.16 2.253v2.891a11.3 11.3 0 0 0 3.183-1.334l-.054-9.33zM9.344 16.173l-.001 8.445c.971.482 2.02.829 3.123 1.018l-.003-5.975a3.52 3.52 0 0 0-3.119-3.488"
    /></svg>
