<svg clip-rule="evenodd" fill-rule="evenodd" stroke-linejoin="round" stroke-miterlimit="2" viewBox="0 0 486 311" xmlns="http://www.w3.org/2000/svg"><g fill="#002856" fill-rule="nonzero"><path d="m48.709 10.097c9.648 0 11.016 10.872 11.016 18.288 0 7.632-1.8 17.856-11.448 17.856h-6.696v-36.144zm.288-4.608h-13.104v45.36h12.384c12.816 0 17.28-11.52 17.28-22.608 0-10.944-3.6-22.752-16.56-22.752zm42.048 21.888h-15.336c.864-3.96 3.672-8.568 8.208-8.568s7.128 4.536 7.128 8.568zm5.76 4.104c-.072-1.224-.072-2.448-.144-3.672-.432-6.624-5.112-13.32-12.24-13.32-9.432 0-14.976 9.144-14.976 17.784 0 8.424 3.312 19.656 13.608 19.656 4.104 0 9.216-2.664 12.312-5.328l-1.728-3.456c-2.304 1.584-7.272 4.464-10.008 4.464-6.552 0-8.568-9.72-8.568-14.76v-1.368zm10.224-30.6h-5.328v35.784c0 4.104.36 10.296 1.8 14.184h5.688c-1.44-4.68-2.16-9.216-2.16-14.184zm13.824 14.688h-5.328v35.28h5.328zm-6.912-9.864c0 2.16 1.872 3.672 3.96 3.672s4.104-1.584 4.104-3.816c0-2.16-1.872-3.672-3.96-3.672s-4.104 1.584-4.104 3.816zm37.08 42.12-1.8-3.384c-2.016 1.296-5.544 3.168-7.92 3.168-6.984 0-9.144-9.216-9.144-14.76 0-5.184 2.232-14.04 8.712-14.04 2.304 0 4.968 1.08 6.696 2.52l2.448-3.24c-2.304-2.232-6.048-3.6-9.216-3.6-9.936 0-14.112 10.656-14.112 19.08 0 8.64 4.248 18.36 14.184 18.36 3.456 0 7.56-1.872 10.152-4.104zm9.432-32.256h-5.328v35.28h5.328zm-6.912-9.864c0 2.16 1.872 3.672 3.96 3.672s4.104-1.584 4.104-3.816c0-2.16-1.872-3.672-3.96-3.672s-4.104 1.584-4.104 3.816zm26.784 13.104c5.976 0 8.568 9.072 8.568 14.472s-2.592 14.328-8.568 14.328-8.568-8.928-8.568-14.328 2.592-14.472 8.568-14.472zm0-4.32c-9.72 0-14.04 10.512-14.04 18.792s4.392 18.648 14.04 18.648 14.04-10.368 14.04-18.648-4.32-18.792-14.04-18.792zm46.944 33.84c-1.512-.144-1.512-1.728-1.512-2.88v-29.88h-5.472v27.792c-2.376 2.16-7.56 4.104-10.728 4.104-3.6 0-4.032-2.016-4.032-5.112v-26.784h-5.472v26.784c0 6.336 2.304 9.576 9 9.576 3.816 0 8.424-1.584 11.376-4.104.36 2.592 2.52 4.104 5.04 4.104zm27.648-6.624c0-4.608-2.376-7.632-6.48-9.648l-6.624-3.24c-2.16-1.08-4.968-2.448-4.968-5.256 0-3.384 3.456-4.824 6.408-4.824 2.88 0 6.12 1.512 8.136 3.528l2.88-2.88c-2.448-3.312-6.84-4.896-10.872-4.896-5.76 0-11.952 2.736-11.952 9.36 0 4.464 2.448 7.2 6.264 9.144l7.488 3.744c2.304 1.152 4.464 2.664 4.464 5.544 0 3.888-3.528 5.4-6.912 5.4-2.736 0-6.408-2.16-8.568-3.816l-2.016 3.888c2.664 2.376 6.696 4.176 10.296 4.176 6.336 0 12.456-3.096 12.456-10.224zm44.424-22.32c0 5.976-3.6 10.584-9.792 10.584-1.944 0-3.6-.72-5.328-1.512v-18.36h4.032c5.976 0 11.088 2.736 11.088 9.288zm7.92 31.464v-1.728l-13.392-14.832c7.344-1.44 11.232-7.704 11.232-14.832 0-10.008-7.776-13.968-16.848-13.968h-9.792v45.36h5.76v-17.64a15.62 15.62 0 0 0 2.52 1.08l14.904 16.56zm15.408-32.04c5.976 0 8.568 9.072 8.568 14.472s-2.592 14.328-8.568 14.328-8.568-8.928-8.568-14.328 2.592-14.472 8.568-14.472zm0-4.32c-9.72 0-14.04 10.512-14.04 18.792s4.392 18.648 14.04 18.648 14.04-10.368 14.04-18.648-4.32-18.792-14.04-18.792zm63.72 36.36v-26.784c0-6.48-3.024-9.576-9.504-9.576-3.168 0-8.28 1.728-10.8 3.744-1.656-3.168-5.112-3.744-8.352-3.744-3.528 0-6.912 1.656-9.72 3.672v-2.592h-5.472v35.28h5.472v-28.224c2.52-2.016 5.832-3.672 9.216-3.672 3.528 0 4.536 1.872 4.536 5.112v26.784h5.472v-26.784c0-.648 0-1.224-.072-1.872 2.448-2.016 6.048-3.24 9.216-3.24 3.528 0 4.536 1.872 4.536 5.112v26.784zm24.192-14.976c0 4.68-3.24 11.736-8.712 11.736-3.168 0-4.896-2.664-4.896-5.616 0-1.224.432-2.664.936-3.744l12.672-5.328zm10.584 14.616-1.368-2.736c-.36.288-1.008.432-1.44.432-1.368 0-2.304-.792-2.304-2.16v-21.96c0-6.552-4.32-9.576-10.512-9.576-4.536 0-9.432 2.736-12.24 6.264l2.016 3.384c2.232-2.52 6.192-5.184 9.72-5.184 3.24 0 5.544 1.656 5.544 5.112v4.536l-16.92 7.2c-.936 1.728-2.088 4.464-2.088 6.408 0 5.688 3.312 9.72 9.216 9.72 4.176 0 8.64-2.232 9.864-6.48 0 3.816 2.52 6.336 6.336 6.336 1.368 0 3.024-.576 4.176-1.296zm28.944.36v-26.784c0-5.4-1.296-9.576-8.784-9.576-3.816 0-9 1.944-11.448 3.672v-2.592h-5.472v35.28h5.472v-28.224c1.656-1.44 6.552-3.672 10.512-3.672 3.6 0 4.248 1.944 4.248 5.112v26.784z"/><path d="m99.253 109.361c0-11.088-3.888-22.752-16.92-22.752h-13.608v45.36h12.96c12.816 0 17.568-11.376 17.568-22.608zm-7.92.144c0 6.48-1.296 15.696-9.648 15.696h-5.184v-31.824h5.544c8.352 0 9.288 9.864 9.288 16.128zm39.312 4.392c0-1.584-.072-3.168-.072-4.752-.216-6.696-5.832-13.536-12.816-13.536-9.72 0-15.408 8.928-15.408 17.856s3.456 19.584 14.112 19.584c4.032 0 9.288-2.808 12.384-5.4l-2.52-4.896c-2.448 1.872-6.408 3.888-9.432 3.888-5.184 0-6.912-7.416-6.912-11.448 0-.432 0-.864.072-1.296zm-7.56-6.264h-12.024c.792-3.24 2.52-6.408 6.192-6.408s5.544 3.096 5.832 6.408zm20.736 24.336c-1.584-5.4-2.448-8.928-2.448-14.76v-35.28h-7.416v35.28c0 8.28 1.296 12.744 2.088 14.76zm11.376 0v-35.28h-7.416v35.28zm1.296-44.352c0-2.664-2.232-4.608-4.824-4.608-2.664 0-5.112 2.232-5.112 4.968 0 2.664 2.232 4.608 4.824 4.608 2.664 0 5.112-2.232 5.112-4.968zm28.728 40.608-2.592-5.184c-2.088 1.656-5.616 3.6-8.28 3.6-5.544 0-7.272-8.424-7.272-12.672 0-4.032 2.016-12.024 7.056-12.024 2.16 0 4.824 1.008 6.48 2.448l3.816-4.464c-2.304-2.88-6.84-4.32-10.368-4.32-10.08 0-14.544 10.368-14.544 19.08 0 8.424 4.68 18.36 14.328 18.36 3.888 0 8.496-2.16 11.376-4.824zm9.576 3.744v-35.28h-7.416v35.28zm1.296-44.352c0-2.664-2.232-4.608-4.824-4.608-2.664 0-5.112 2.232-5.112 4.968 0 2.664 2.232 4.608 4.824 4.608 2.664 0 5.112-2.232 5.112-4.968zm31.968 26.712c0-8.784-4.68-18.72-14.4-18.72s-14.4 9.936-14.4 18.72c0 8.856 4.68 18.72 14.4 18.72s14.4-9.864 14.4-18.72zm-7.56 0c0 6.408-2.592 12.24-6.84 12.24s-6.84-5.832-6.84-12.24c0-6.336 2.592-12.24 6.84-12.24s6.84 5.904 6.84 12.24zm40.608 14.544s-1.44-1.08-1.44-3.456v-28.728h-7.56v26.064c-2.232 1.656-5.76 3.6-8.496 3.6-2.664 0-3.096-1.152-3.096-3.456v-26.208h-7.56v26.208c0 6.696 2.664 10.152 9.72 10.152 3.384 0 7.848-2.232 10.584-4.32.576 1.872 3.24 4.104 5.544 4.32zm28.152-6.696c0-3.528-1.8-7.056-5.04-8.712l-8.784-4.464c-1.368-.648-3.384-1.8-3.384-3.6 0-2.448 2.736-3.96 4.896-3.96 2.448 0 5.4 1.152 7.128 2.952l3.96-3.888c-2.232-3.312-7.2-4.896-10.944-4.896-6.408 0-12.528 3.384-12.528 10.368 0 2.88 1.296 5.976 3.888 7.344 3.24 1.728 6.552 3.384 9.792 5.112 1.656.864 3.6 2.232 3.6 4.32 0 3.168-2.664 4.248-5.4 4.248-2.52 0-6.048-1.872-8.064-3.312l-2.808 5.04c2.736 2.16 7.128 4.32 10.656 4.32 6.624 0 13.032-3.528 13.032-10.872zm50.472-3.888c0-5.112-3.312-9.936-8.568-10.728 3.672-1.728 6.12-5.904 6.12-9.936 0-8.136-7.2-11.016-14.256-11.016h-11.808v44.424c3.816 1.008 7.992 2.016 11.952 2.016 9 0 16.56-5.04 16.56-14.76zm-10.224-19.8c0 3.96-2.664 6.264-6.552 6.264h-3.888v-11.592h3.888c4.032 0 6.552.72 6.552 5.328zm2.376 19.8c0 5.472-3.672 7.848-8.856 7.848-1.296 0-2.664-.288-3.96-.648v-13.896h3.6c4.896 0 9.216.72 9.216 6.696zm38.592-3.96c0-8.784-4.68-18.72-14.4-18.72s-14.4 9.936-14.4 18.72c0 8.856 4.68 18.72 14.4 18.72s14.4-9.864 14.4-18.72zm-7.56 0c0 6.408-2.592 12.24-6.84 12.24s-6.84-5.832-6.84-12.24c0-6.336 2.592-12.24 6.84-12.24s6.84 5.904 6.84 12.24zm21.384 17.64c-1.584-5.4-2.448-8.928-2.448-14.76v-35.28h-7.416v35.28c0 8.28 1.296 12.744 2.088 14.76zm32.976-4.32c-2.232 0-2.376-.936-2.376-3.096v-42.624h-7.56v14.832s-3.672-1.152-6.624-1.152c-11.088 0-14.112 10.296-14.112 20.304 0 9.288 5.04 17.136 13.032 17.136 4.536 0 7.272-3.168 8.424-5.4.432 1.872 1.152 3.6 2.736 4.68 1.296.864 4.176.72 4.176.72zm-9.936-12.24c0 3.672-2.304 11.448-7.2 11.088-5.04-.36-5.76-7.992-5.76-11.376 0-5.76.864-12.888 6.624-12.888 2.592 0 6.336 1.152 6.336 1.152z"/><path d="m33.553 191.498c2.16-14.04-2.232-22.968-13.248-22.968h-13.176l-7.056 45.36h12.96c9.36 0 18.144-7.2 20.52-22.392zm-7.416-6.696c0 7.56-2.448 22.032-12.456 22.032h-4.608l4.896-31.248h5.4c5.688 0 6.768 4.536 6.768 9.216zm37.368 1.368c0-6.12-3.384-8.64-9.216-8.64-11.88 0-17.856 12.888-17.856 23.256 0 6.984 3.24 14.184 11.232 14.184 7.704 0 12.888-5.544 12.888-5.544l-3.24-4.32s-3.744 3.528-8.496 3.528c-3.384 0-4.608-5.184-4.608-7.848v-1.008c6.768-1.296 19.296-5.04 19.296-13.608zm-7.632-.432c0 4.896-7.056 6.696-10.8 7.56 1.08-3.456 3.96-9.504 8.496-9.504 1.296 0 2.304.576 2.304 1.944zm22.176-21.888h-7.632l-5.04 35.064c-1.224 8.928.576 14.472 1.008 15.768l7.272-2.016s-1.872-5.256-.72-13.32zm12.024 14.76h-7.632l-5.328 35.28h7.56zm2.16-9.072c0-2.592-2.16-4.608-4.752-4.608-.936 0-1.8.216-2.592.72-1.512.864-2.592 2.448-2.592 4.248 0 .864.288 1.656.648 2.304a4.902 4.902 0 0 0 4.176 2.304c.648 0 1.368-.144 2.016-.432a4.995 4.995 0 0 0 2.736-2.808c.216-.504.36-1.152.36-1.728zm25.2 11.664c-.792-.792-2.88-3.672-9.144-3.672-3.024 0-7.776 1.944-11.304 5.976-3.384 3.96-5.76 10.728-5.76 16.992 0 3.6.72 6.984 2.52 9.576 2.088 3.024 5.328 4.896 9.72 4.896 6.768 0 12.168-6.84 12.168-6.84l-3.528-4.32s-4.608 4.536-7.992 4.536c-3.312 0-5.256-3.672-5.256-8.784 0-1.08.144-2.232.288-3.456 1.224-7.848 5.544-12.096 8.568-12.096 3.744 0 5.184 2.016 5.184 2.016zm12.096-2.592h-7.632l-5.328 35.28h7.56zm2.16-9.072c0-2.592-2.16-4.608-4.752-4.608-.936 0-1.8.216-2.592.72-1.512.864-2.592 2.448-2.592 4.248 0 .864.288 1.656.648 2.304a4.902 4.902 0 0 0 4.176 2.304c.648 0 1.368-.144 2.016-.432a4.995 4.995 0 0 0 2.736-2.808c.216-.504.36-1.152.36-1.728zm10.656 45.432c10.872 0 17.064-12.888 17.064-22.32 0-7.272-3.24-15.12-11.664-15.12-10.8 0-17.064 13.032-17.064 22.464 0 7.272 3.312 14.976 11.664 14.976zm9.576-23.4c0 5.112-2.16 16.776-8.928 16.776-4.104 0-4.824-4.032-4.824-7.272 0-5.112 2.16-16.848 8.928-16.848 4.104 0 4.824 4.104 4.824 7.344zm11.16 12.96c-.864 5.328-.576 10.44 7.92 10.44 4.176 0 8.28-3.6 10.512-6.84 0 0-.576 3.24.288 4.68 1.512 2.52 5.904 2.16 5.904 2.16l2.736-4.248s-2.16-.288-1.8-2.736l4.608-29.376h-7.632l-3.24 21.024c-2.304 3.384-6.12 8.568-9.504 8.568-1.8 0-2.664-.36-2.232-3.24l4.104-26.352h-7.632zm57.312-21.888s-3.888-5.112-10.584-5.112c-6.264 0-12.384 3.096-13.464 9.792-.648 4.536 1.368 7.776 4.032 9.288l7.2 4.032c2.304 1.224 2.88 2.304 2.592 3.816-.36 2.304-2.16 3.888-5.688 3.888-2.952 0-5.76-2.088-7.056-3.096l-3.96 5.4s4.896 4.32 10.08 4.32c8.208 0 12.672-4.608 13.824-9.504 1.224-5.76-.648-9.072-4.104-10.944l-6.336-3.384c-1.584-.864-3.096-1.656-3.096-3.24 0-1.8 1.944-3.888 5.184-3.888 4.464 0 7.056 2.664 7.056 2.664zm41.76 6.84c3.384-1.512 7.344-5.544 7.344-11.016 0-7.56-5.832-9.936-12.528-9.936h-11.304l-6.768 44.352c3.168.792 8.352 2.088 11.52 2.088 9.072 0 16.704-5.256 18.144-14.544.144-.72.216-1.44.216-2.088 0-4.608-2.304-7.776-6.624-8.856zm-5.832-14.472c4.104 0 5.4.936 5.4 4.32 0 4.248-3.384 7.416-7.704 7.344h-3.168l1.728-11.664zm4.536 23.328c0 5.832-4.104 9.72-9.864 9.72-1.08 0-3.456-.648-3.456-.648l2.232-13.752h3.456c3.456 0 7.632.216 7.632 4.68zm22.176 16.632c10.872 0 17.064-12.888 17.064-22.32 0-7.272-3.24-15.12-11.664-15.12-10.8 0-17.064 13.032-17.064 22.464 0 7.272 3.312 14.976 11.664 14.976zm9.576-23.4c0 5.112-2.16 16.776-8.928 16.776-4.104 0-4.824-4.032-4.824-7.272 0-5.112 2.16-16.848 8.928-16.848 4.104 0 4.824 4.104 4.824 7.344zm24.048-27.72h-7.632l-5.04 35.064c-1.224 8.928.576 14.472 1.008 15.768l7.272-2.016s-1.872-5.256-.72-13.32zm12.888 51.12c8.784 0 13.32-7.272 14.544-15.12l3.816-24.048c.144-.792.216-1.656.216-2.448 0-3.456-1.224-7.416-3.168-10.296l-5.976 2.808s1.584 3.528 1.584 6.552c0 2.664-.864 7.704-.864 7.704s-2.808-2.592-6.264-2.592c-9.288 0-16.776 11.16-16.776 22.464 0 8.064 4.032 14.976 12.888 14.976zm9-28.224-1.584 9.72c-.648 4.176-1.656 12.024-7.2 12.024-4.392 0-5.328-4.392-5.328-8.064 0-6.84 3.24-16.128 9.072-16.128 2.088 0 5.04 2.448 5.04 2.448zm41.976-18.216h-7.92l-6.624 45.36h7.848zm19.44 10.08h-6.12l.864-6.264h-6.912l-.792 6.264h-4.392l-.864 5.76 4.032.576-3.096 20.952c-.072.72-.144 1.368-.144 2.088 0 4.464 2.016 6.984 7.056 6.984 3.528 0 6.408-1.512 9.072-3.888l-2.232-5.184c-1.656 1.368-3.096 2.52-5.4 2.52-.936 0-1.224-.936-1.224-1.728 0-.216.072-.432.072-.576l3.168-21.168h5.832zm30.312 34.704-1.584-4.896s-.648.36-1.728.36c-1.008 0-.72-1.512-.36-3.96 0 0 3.528-24.696 3.6-25.992-4.176-.792-7.344-1.296-10.512-1.296-12.744 0-18.36 17.352-18.36 27 0 4.68 1.224 10.44 7.056 10.44 7.128 0 11.52-7.488 11.52-7.488l-.288 2.016c-.432 2.52 1.584 5.472 4.752 5.472 2.664 0 5.904-1.656 5.904-1.656zm-7.992-28.728s-1.152 7.848-1.944 11.664c-.792 3.888-6.048 11.52-9.288 11.52-2.088 0-1.944-1.368-1.872-3.168.072-5.904 3.456-20.16 10.656-20.16.792 0 2.448.144 2.448.144zm24.264-20.736h-7.632l-5.04 35.064c-1.224 8.928.576 14.472 1.008 15.768l7.272-2.016s-1.872-5.256-.72-13.32zm12.024 14.76h-7.632l-5.328 35.28h7.56zm2.16-9.072c0-2.592-2.16-4.608-4.752-4.608-.936 0-1.8.216-2.592.72-1.512.864-2.592 2.448-2.592 4.248 0 .864.288 1.656.648 2.304a4.902 4.902 0 0 0 4.176 2.304c.648 0 1.368-.144 2.016-.432a4.995 4.995 0 0 0 2.736-2.808c.216-.504.36-1.152.36-1.728zm25.2 11.664c-.792-.792-2.88-3.672-9.144-3.672-3.024 0-7.776 1.944-11.304 5.976-3.384 3.96-5.76 10.728-5.76 16.992 0 3.6.72 6.984 2.52 9.576 2.088 3.024 5.328 4.896 9.72 4.896 6.768 0 12.168-6.84 12.168-6.84l-3.528-4.32s-4.608 4.536-7.992 4.536c-3.312 0-5.256-3.672-5.256-8.784 0-1.08.144-2.232.288-3.456 1.224-7.848 5.544-12.096 8.568-12.096 3.744 0 5.184 2.016 5.184 2.016z"/><path d="m46.866 275.989c3.24.648 5.904 1.944 7.848 3.888 2.016 1.944 3.024 4.32 3.024 7.128 0 2.232-.576 4.392-1.872 6.408-1.224 2.016-2.952 3.672-5.184 4.968-2.304 1.224-4.68 2.016-7.272 2.304s-6.264.432-11.088.432h-16.344l.432-1.584h1.296c1.512 0 2.736-.288 3.672-.792 1.008-.576 1.728-1.152 2.088-1.872s.936-2.232 1.584-4.536l9.216-30.312c.72-2.376 1.08-3.888 1.08-4.464 0-1.656-1.512-2.52-4.536-2.52h-1.008l.504-1.584h15.336c2.664 0 4.752.144 6.264.36 1.584.216 3.096.864 4.68 1.8 1.656.936 2.808 2.16 3.672 3.528.864 1.44 1.224 2.952 1.224 4.608 0 2.88-1.224 5.4-3.672 7.704s-6.12 3.816-10.944 4.536zm-10.296-.792h3.672c3.456 0 6.264-.504 8.352-1.44 2.016-.864 3.672-2.376 4.824-4.32 1.224-2.016 1.8-4.32 1.8-6.984 0-1.8-.504-3.312-1.44-4.608-.936-1.224-1.944-2.016-3.096-2.304s-2.88-.504-5.328-.504h-2.592zm-.504 1.584-5.04 16.632c-.432 1.44-.648 2.448-.648 2.952 0 2.16 2.232 3.24 6.84 3.24s8.136-1.512 10.512-4.392c2.448-2.88 3.6-6.336 3.6-10.44 0-2.016-.504-3.672-1.512-4.968s-2.232-2.16-3.528-2.52c-1.368-.288-3.528-.504-6.408-.504zm45.054-4.896h4.248l-6.264 20.592c-.936 2.952-1.368 4.752-1.368 5.4 0 .504.072.864.288 1.08s.576.36 1.008.36c1.584 0 3.456-1.872 5.544-5.544h1.512a19.169 19.169 0 0 1 -3.96 5.76c-1.656 1.728-3.24 2.592-4.68 2.592-1.08 0-1.944-.432-2.52-1.224-.576-.864-.864-1.872-.864-3.024 0-1.008.216-2.232.648-3.816-1.008 1.8-2.52 3.6-4.536 5.4-2.016 1.728-3.888 2.664-5.688 2.664-1.584 0-3.024-.72-4.176-2.088-1.224-1.44-1.8-3.312-1.8-5.688 0-3.168.936-6.552 2.736-10.224a28.22 28.22 0 0 1 7.128-9.144c2.952-2.448 5.472-3.672 7.56-3.672 1.224 0 2.16.288 2.88.936.72.576 1.224 1.44 1.44 2.592zm-18.36 23.544c0 1.512.216 2.736.72 3.456.432.792 1.152 1.224 2.088 1.224 1.584 0 3.384-1.152 5.544-3.456 2.232-2.232 4.104-5.688 5.688-10.44 1.584-4.68 2.376-7.848 2.376-9.504 0-1.008-.216-1.872-.72-2.52-.504-.72-1.224-1.08-2.232-1.08-2.808 0-5.76 2.88-8.856 8.496s-4.608 10.224-4.608 13.824z"/><path d="m100.596 293.413c0 2.16-.792 4.176-2.52 5.976-1.656 1.8-4.104 2.736-7.416 2.736-2.376 0-4.176-.576-5.4-1.656-1.224-1.008-1.8-2.16-1.8-3.384 0-.648.144-1.224.504-1.728.36-.432.864-.648 1.44-.648 1.224 0 1.872.648 1.872 1.944 0 .36-.072.792-.216 1.368-.072.216-.144.432-.144.576 0 .576.36 1.008 1.08 1.44s1.584.648 2.592.648c1.584 0 3.024-.504 4.32-1.512s1.944-2.376 1.944-4.104c0-1.584-.936-3.96-2.736-7.272-2.088-3.744-3.168-6.552-3.168-8.28 0-2.304.936-4.176 2.664-5.688 1.8-1.584 3.816-2.376 6.12-2.376 1.656 0 3.096.432 4.248 1.296 1.224.864 1.8 1.728 1.8 2.736 0 1.224-.504 1.8-1.584 1.8-.72 0-1.296-.648-1.656-2.016-.36-1.584-1.368-2.304-3.024-2.304-1.368 0-2.52.36-3.528 1.08-.936.72-1.44 1.656-1.44 2.88 0 1.584.792 3.744 2.304 6.552 1.512 2.52 2.52 4.464 3.024 5.76.504 1.368.72 2.736.72 4.176zm27.18-.288h1.512c-.792 3.168-1.872 5.472-3.312 6.912-1.512 1.368-2.952 2.088-4.464 2.088-3.024 0-4.536-1.944-4.536-5.76 0-.504.072-1.656.216-3.456.288-2.952.36-4.68.36-5.04 0-2.232-.864-3.384-2.664-3.384-.864 0-1.656.288-2.52.864a4.831 4.831 0 0 0 -1.728 2.232c-.36.864-.936 2.52-1.728 5.04l-2.736 9h-4.176l12.456-40.896c.648-2.088.936-3.312.936-3.672 0-.576-.144-.936-.432-1.152-.36-.288-1.08-.36-2.376-.36h-1.224l.432-1.512c3.816-.072 6.624-.504 8.352-1.296h.936l-9.648 31.752c5.472-6.048 9.288-9.72 11.304-11.088 2.088-1.368 3.816-2.088 5.328-2.088 2.088 0 3.096.792 3.096 2.304 0 .576-.216 1.08-.576 1.512-.432.36-.936.576-1.44.576s-1.08-.216-1.872-.72c-.576-.36-1.08-.504-1.656-.504-2.232 0-5.976 2.952-11.16 8.928.504-.144.792-.216 1.08-.216 3.744 0 5.76 3.816 6.048 11.448.072 2.016.288 3.24.504 3.816.216.504.72.792 1.368.792.792 0 1.656-.576 2.52-1.8a13.012 13.012 0 0 0 1.8-4.32z"/><path d="m143.85 292.117h1.728c-3.024 6.696-6.84 10.008-11.52 10.008-1.872 0-3.456-.72-4.68-2.016-1.224-1.368-1.8-3.168-1.8-5.472 0-2.952.792-6.192 2.304-9.864 1.584-3.672 3.816-6.84 6.696-9.432 2.88-2.664 5.328-4.032 7.488-4.032 1.296 0 2.304.432 3.024 1.296.648.792 1.008 1.872 1.008 3.096 0 2.52-1.296 4.968-3.816 7.272-2.52 2.376-6.336 4.608-11.376 6.768-.648 2.016-1.008 3.96-1.008 5.76 0 1.512.288 2.664.864 3.384.576.792 1.44 1.152 2.592 1.152 3.24 0 6.048-2.664 8.496-7.92zm-10.44-4.176a27.425 27.425 0 0 0 8.136-5.616c2.448-2.376 3.672-4.608 3.672-6.552 0-.864-.216-1.512-.576-1.944s-.936-.648-1.656-.648c-1.368 0-3.024 1.368-4.968 4.104-1.872 2.736-3.456 6.264-4.608 10.656z"/><path d="m147.396 280.813h-1.512c1.008-2.592 2.232-4.824 3.672-6.696 1.512-1.872 3.024-2.808 4.464-2.808 1.008 0 1.728.432 2.232 1.224.504.864.72 2.088.72 3.672 0 2.088-.504 4.968-1.584 8.712.144-.216.576-1.08 1.152-2.52 1.728-3.888 3.312-6.696 4.608-8.424 1.296-1.8 2.592-2.664 3.96-2.664.792 0 1.44.288 1.944.792s.72 1.152.72 1.872-.216 1.296-.576 1.728c-.432.432-.936.648-1.512.648s-1.224-.36-1.872-1.152c-.288-.288-.576-.432-.792-.432-1.224 0-3.024 2.808-5.4 8.424-2.448 5.688-4.464 10.944-5.904 15.912l-.792 2.52h-4.248l5.616-18.576c1.008-3.6 1.584-5.976 1.584-7.272 0-.648-.072-1.152-.288-1.512-.144-.36-.432-.504-.792-.504-.792 0-1.728.864-2.88 2.52s-2.016 3.168-2.52 4.536z"/><path d="m164.856 276.781h-1.44c1.08-3.6 2.592-5.472 4.536-5.472 1.008 0 2.016.864 3.024 2.592.432.648.864 1.008 1.368 1.008.576 0 1.008-.504 1.368-1.44.432-1.44 1.008-2.16 1.656-2.16.576 0 .864.288.864.792s-.36 1.44-1.08 2.808c-2.88 5.256-4.752 9.288-5.832 12.168s-1.656 5.472-1.656 7.704c0 1.656.36 2.952 1.08 3.816.72.936 1.512 1.368 2.448 1.368 2.736 0 5.4-2.16 7.992-6.408 2.592-4.32 3.888-8.424 3.888-12.456 0-1.584-.36-3.24-1.008-4.824-.432-.936-.648-1.8-.648-2.52 0-1.656.576-2.448 1.8-2.448.72 0 1.296.432 1.728 1.296.432.792.648 1.872.648 3.312 0 3.096-.648 6.912-2.016 11.448s-3.312 8.136-5.904 10.8c-2.52 2.592-5.184 3.96-7.992 3.96-1.872 0-3.312-.576-4.464-1.728-1.08-1.152-1.656-2.736-1.656-4.824s.576-4.464 1.728-6.984c1.152-2.592 3.096-5.904 5.76-9.864.432-.576.864-1.224 1.152-1.8.36-.576.576-.864.648-1.08-.936.648-1.728.936-2.52.936s-1.44-.288-2.016-.864-1.152-.864-1.656-.864c-.72 0-1.368.576-1.8 1.728z"/><path d="m195.96 255.829c0-.864.36-1.584.936-2.16s1.296-.864 2.16-.864 1.584.288 2.16.864.864 1.296.864 2.16-.288 1.584-.864 2.16c-.576.648-1.296.936-2.16.936s-1.584-.288-2.16-.936c-.648-.648-.936-1.368-.936-2.16zm2.592 37.584h1.728a20.172 20.172 0 0 1 -4.32 6.048c-1.728 1.728-3.456 2.664-5.112 2.664-1.08 0-2.088-.432-2.88-1.224-.864-.792-1.296-1.944-1.296-3.456 0-1.224.72-3.6 2.016-7.128l4.032-10.728c.936-2.52 1.368-4.032 1.368-4.536s-.072-.864-.288-1.08-.576-.36-1.008-.36c-.936 0-2.016.72-3.24 2.16-1.296 1.368-2.16 2.664-2.664 3.816h-1.728c1.296-2.52 2.808-4.536 4.464-6.048 1.656-1.44 3.168-2.232 4.608-2.232 1.08 0 2.016.432 2.736 1.152.648.72 1.008 1.728 1.008 2.952s-.576 3.528-1.872 6.84l-3.384 9.144c-1.224 3.312-1.8 5.328-1.8 6.192 0 .72.072 1.224.36 1.512.288.36.648.504 1.224.504 1.728 0 3.744-2.016 6.048-6.192zm13.734-.72h1.584c-2.376 6.264-5.472 9.432-9.216 9.432-1.296 0-2.304-.432-3.096-1.296s-1.152-1.944-1.152-3.24c0-1.224.792-4.392 2.304-9.36l8.208-27.144c.72-2.304 1.08-3.672 1.08-4.032 0-.576-.216-.936-.504-1.152-.288-.288-1.08-.36-2.376-.36h-1.368l.432-1.512c3.888-.072 6.768-.504 8.568-1.224h.864l-11.304 37.224c-.144.576-.504 1.656-1.008 3.24-.72 2.016-1.008 3.528-1.008 4.608 0 .72.144 1.224.36 1.584.288.36.72.504 1.224.504.792 0 1.8-.504 3.024-1.656 1.152-1.08 2.304-2.952 3.384-5.616zm13.662 0h1.584c-2.376 6.264-5.472 9.432-9.216 9.432-1.296 0-2.304-.432-3.096-1.296s-1.152-1.944-1.152-3.24c0-1.224.792-4.392 2.304-9.36l8.208-27.144c.72-2.304 1.08-3.672 1.08-4.032 0-.576-.216-.936-.504-1.152-.288-.288-1.08-.36-2.376-.36h-1.368l.432-1.512c3.888-.072 6.768-.504 8.568-1.224h.864l-11.304 37.224c-.144.576-.504 1.656-1.008 3.24-.72 2.016-1.008 3.528-1.008 4.608 0 .72.144 1.224.36 1.584.288.36.72.504 1.224.504.792 0 1.8-.504 3.024-1.656 1.152-1.08 2.304-2.952 3.384-5.616z"/><path d="m242.274 292.117h1.728c-3.024 6.696-6.84 10.008-11.52 10.008-1.872 0-3.456-.72-4.68-2.016-1.224-1.368-1.8-3.168-1.8-5.472 0-2.952.792-6.192 2.304-9.864 1.584-3.672 3.816-6.84 6.696-9.432 2.88-2.664 5.328-4.032 7.488-4.032 1.296 0 2.304.432 3.024 1.296.648.792 1.008 1.872 1.008 3.096 0 2.52-1.296 4.968-3.816 7.272-2.52 2.376-6.336 4.608-11.376 6.768-.648 2.016-1.008 3.96-1.008 5.76 0 1.512.288 2.664.864 3.384.576.792 1.44 1.152 2.592 1.152 3.24 0 6.048-2.664 8.496-7.92zm-10.44-4.176a27.425 27.425 0 0 0 8.136-5.616c2.448-2.376 3.672-4.608 3.672-6.552 0-.864-.216-1.512-.576-1.944s-.936-.648-1.656-.648c-1.368 0-3.024 1.368-4.968 4.104-1.872 2.736-3.456 6.264-4.608 10.656zm44.513 11.592-.504 1.584h-20.088l.504-1.584h1.08c1.44 0 2.664-.288 3.672-.792 1.008-.576 1.728-1.152 2.088-1.872.36-.648.864-2.232 1.584-4.536l9.144-30.312c.792-2.376 1.152-3.816 1.152-4.392 0-1.728-1.512-2.592-4.536-2.592h-1.296l.504-1.584h18.72l-.504 1.584h-.936c-1.152 0-2.16.216-3.096.648-.936.36-1.584.936-1.944 1.656-.36.648-1.008 2.52-1.944 5.4l-8.856 29.232c-.72 2.232-1.008 3.672-1.008 4.248 0 1.152.504 1.944 1.44 2.52 1.008.504 2.16.792 3.456.792zm21.51-27.216-.432 1.584h-5.328l-4.608 15.336c-1.584 5.04-2.304 7.992-2.304 8.784 0 .576.072 1.008.36 1.296.216.288.576.432 1.08.432.792 0 1.944-.792 3.312-2.376s2.52-3.6 3.6-6.048h1.584c-1.44 3.528-3.096 6.192-4.896 7.992-1.872 1.872-3.528 2.808-5.04 2.808-1.224 0-2.16-.432-2.88-1.296s-1.08-1.872-1.08-3.168c0-1.152.72-4.032 2.16-8.784l4.536-14.976h-4.824l.504-1.584h4.824l3.24-10.656h4.176l-3.24 10.656z"/><path d="m316.343 271.885h4.248l-6.264 20.592c-.936 2.952-1.368 4.752-1.368 5.4 0 .504.072.864.288 1.08s.576.36 1.008.36c1.584 0 3.456-1.872 5.544-5.544h1.512a19.169 19.169 0 0 1 -3.96 5.76c-1.656 1.728-3.24 2.592-4.68 2.592-1.08 0-1.944-.432-2.52-1.224-.576-.864-.864-1.872-.864-3.024 0-1.008.216-2.232.648-3.816-1.008 1.8-2.52 3.6-4.536 5.4-2.016 1.728-3.888 2.664-5.688 2.664-1.584 0-3.024-.72-4.176-2.088-1.224-1.44-1.8-3.312-1.8-5.688 0-3.168.936-6.552 2.736-10.224a28.22 28.22 0 0 1 7.128-9.144c2.952-2.448 5.472-3.672 7.56-3.672 1.224 0 2.16.288 2.88.936.72.576 1.224 1.44 1.44 2.592zm-18.36 23.544c0 1.512.216 2.736.72 3.456.432.792 1.152 1.224 2.088 1.224 1.584 0 3.384-1.152 5.544-3.456 2.232-2.232 4.104-5.688 5.688-10.44 1.584-4.68 2.376-7.848 2.376-9.504 0-1.008-.216-1.872-.72-2.52-.504-.72-1.224-1.08-2.232-1.08-2.808 0-5.76 2.88-8.856 8.496s-4.608 10.224-4.608 13.824zm35.388-2.736h1.584c-2.376 6.264-5.472 9.432-9.216 9.432-1.296 0-2.304-.432-3.096-1.296s-1.152-1.944-1.152-3.24c0-1.224.792-4.392 2.304-9.36l8.208-27.144c.72-2.304 1.08-3.672 1.08-4.032 0-.576-.216-.936-.504-1.152-.288-.288-1.08-.36-2.376-.36h-1.368l.432-1.512c3.888-.072 6.768-.504 8.568-1.224h.864l-11.304 37.224c-.144.576-.504 1.656-1.008 3.24-.72 2.016-1.008 3.528-1.008 4.608 0 .72.144 1.224.36 1.584.288.36.72.504 1.224.504.792 0 1.8-.504 3.024-1.656 1.152-1.08 2.304-2.952 3.384-5.616z"/><path d="m344.369 255.829c0-.864.36-1.584.936-2.16s1.296-.864 2.16-.864 1.584.288 2.16.864.864 1.296.864 2.16-.288 1.584-.864 2.16c-.576.648-1.296.936-2.16.936s-1.584-.288-2.16-.936c-.648-.648-.936-1.368-.936-2.16zm2.592 37.584h1.728a20.172 20.172 0 0 1 -4.32 6.048c-1.728 1.728-3.456 2.664-5.112 2.664-1.08 0-2.088-.432-2.88-1.224-.864-.792-1.296-1.944-1.296-3.456 0-1.224.72-3.6 2.016-7.128l4.032-10.728c.936-2.52 1.368-4.032 1.368-4.536s-.072-.864-.288-1.08-.576-.36-1.008-.36c-.936 0-2.016.72-3.24 2.16-1.296 1.368-2.16 2.664-2.664 3.816h-1.728c1.296-2.52 2.808-4.536 4.464-6.048 1.656-1.44 3.168-2.232 4.608-2.232 1.08 0 2.016.432 2.736 1.152.648.72 1.008 1.728 1.008 2.952s-.576 3.528-1.872 6.84l-3.384 9.144c-1.224 3.312-1.8 5.328-1.8 6.192 0 .72.072 1.224.36 1.512.288.36.648.504 1.224.504 1.728 0 3.744-2.016 6.048-6.192z"/><path d="m363.791 291.109h1.368c-1.08 3.384-2.736 6.048-4.752 7.992-2.088 2.016-4.248 3.024-6.48 3.024-1.872 0-3.384-.72-4.536-2.16s-1.728-3.384-1.728-5.976c0-3.024.792-6.336 2.304-9.936 1.584-3.528 3.744-6.552 6.624-9 2.808-2.448 5.256-3.744 7.416-3.744 1.296 0 2.304.432 3.168 1.224s1.296 1.728 1.296 2.88c0 1.656-.648 2.52-1.944 2.52-1.368 0-2.088-.936-2.16-2.808-.072-1.368-.576-2.088-1.584-2.088-1.296 0-2.88 1.224-4.608 3.672s-3.168 5.688-4.464 9.72c-1.224 4.032-1.872 7.128-1.872 9.216 0 1.296.36 2.376 1.08 3.168.648.792 1.44 1.224 2.448 1.224 1.368 0 2.88-.792 4.536-2.448 1.584-1.584 2.88-3.744 3.888-6.48zm33.534 19.216h-2.448c-7.848-9.72-11.736-20.88-11.736-33.408 0-11.808 3.744-22.464 11.376-31.896h2.376c-3.672 4.104-6.552 8.928-8.568 14.472-2.016 5.616-3.024 11.304-3.024 17.208 0 7.272 1.152 13.896 3.528 19.728 2.304 5.904 5.112 10.512 8.496 13.896zm12.726-38.8c-1.008-2.232-1.584-4.392-1.584-6.336 0-2.232.72-4.32 2.016-6.192 1.296-1.944 2.952-3.456 4.968-4.608 2.088-1.224 4.176-1.8 6.336-1.8 2.448 0 4.464.72 6.12 2.016 1.584 1.368 2.448 2.952 2.448 4.824 0 1.44-.432 2.736-1.224 3.96-.792 1.152-1.584 1.728-2.448 1.728-.432 0-.648-.216-.648-.648 0-.144.144-.504.36-1.08.36-.936.576-1.8.576-2.808 0-1.368-.576-2.52-1.728-3.384s-2.52-1.296-4.176-1.296c-2.592 0-5.04 1.008-7.272 3.168s-3.384 4.608-3.384 7.416c0 1.224.144 2.232.504 3.096.288.864.576 1.44.864 1.656.288.288.648.432 1.152.432 3.24 0 4.824.936 4.824 2.808 0 .432-.144.936-.504 1.296-.288.432-.792.648-1.44.648-.792 0-1.656-.432-2.808-1.44-1.224-1.008-2.376-1.512-3.528-1.512-1.44 0-2.88.72-4.176 2.16-1.368 1.512-2.016 3.24-2.016 5.256 0 3.888 1.944 7.56 5.832 11.088 3.888 3.456 8.712 5.184 14.544 5.184 5.472 0 10.152-1.368 14.04-4.104 3.96-2.664 5.904-5.976 5.904-9.792 0-2.52-1.008-4.68-2.88-6.552-1.944-1.872-4.536-2.808-7.848-2.808-2.592 0-4.968.72-7.056 2.16-2.088 1.512-3.096 3.312-3.096 5.472 0 1.296.36 2.376 1.08 3.24.792.864 1.512 1.296 2.376 1.296s1.368-.504 1.368-1.512l-.072-1.08c0-1.008.288-1.872.792-2.52.576-.648 1.296-1.008 2.16-1.008s1.512.288 2.16.864c.576.576.936 1.368.936 2.376 0 1.512-.504 2.736-1.584 3.744-1.008.936-2.304 1.44-3.888 1.44-1.872 0-3.528-.648-4.896-2.016s-2.088-3.024-2.088-4.968c0-2.88 1.224-5.472 3.672-7.848 2.376-2.376 6.768-3.6 13.104-3.6 5.688 0 9.864-.792 12.456-2.304 2.52-1.584 3.816-3.96 3.816-7.056 0-1.944-.576-3.456-1.728-4.68-1.152-1.152-2.592-1.8-4.32-1.8-.864 0-1.512.144-1.944.36-.432.288-.648.648-.648 1.152 0 .36.216.792.576 1.44.576.72.864 1.512.864 2.232 0 .864-.36 1.656-1.008 2.304-.72.648-1.512.936-2.52.936-1.152 0-2.016-.36-2.664-1.08a4.37 4.37 0 0 1 -.864-2.664c0-1.584.72-3.024 2.304-4.248 1.584-1.296 3.528-1.944 5.976-1.944s4.536.936 6.192 2.736 2.448 4.032 2.448 6.552c0 2.448-.648 4.608-2.088 6.624s-3.24 3.384-5.4 4.176c-2.16.864-5.184 1.368-9.144 1.44 3.744 2.664 5.688 6.048 5.688 10.224 0 3.096-1.152 6.12-3.456 9.072-2.304 2.88-5.112 5.04-8.352 6.408-3.312 1.44-7.272 2.16-12.024 2.16-3.816 0-6.912-.432-9.216-1.296-2.376-.792-4.68-2.016-6.768-3.6-2.16-1.584-3.888-3.528-5.112-5.832-1.224-2.376-1.8-4.824-1.8-7.488 0-3.24.864-5.904 2.736-8.136s4.608-3.528 8.208-4.104z"/><path d="m455.915 310.325c3.312-3.384 6.12-7.992 8.424-13.896 2.304-5.832 3.528-12.456 3.528-19.728 0-5.616-1.008-11.232-2.88-16.776-1.872-5.616-4.824-10.584-8.712-14.904h2.448c7.56 9.432 11.304 20.088 11.304 31.896 0 12.528-3.888 23.688-11.736 33.408z"/></g></svg>