<svg clip-rule="evenodd" fill-rule="evenodd" stroke-linejoin="round" stroke-miterlimit="2" viewBox="0 0 30 30" xmlns="http://www.w3.org/2000/svg"><path d="M17.138 22.862c-.037 1.55-.007 3.061.11 3.719.081.45 1.238.437 1.37 0 .229-.753-.163-3.022 0-4.52.17-1.547.611-3.193 1.014-4.768.395-1.546 2.428-5.15 2.683-4.897 0 0-.255 1.753-.356 4.031-.072 1.605-.357 3.47-.357 5.166 0 2.055.675 4.692.713 5.482.012.251.458.464.675.337.285-.165.981-.773 1.032-1.332.116-1.264-.283-4.167-.338-6.254-.059-2.28-.018-7.43-.018-7.43s.847 1.1 1.213 1.689c.372.595.749 1.22 1.014 1.882.337.844.799 2.09 1.013 3.184.225 1.15.055 2.504.338 3.715.122.525.345 1.318.587 2.086-.385.83-.887 1.57-1.469 2.092-1.22 1.09-3.287 1.504-5.05 1.59-.786.039-1.85.033-3.05-.001v-.026s-.4-1.218-1.889-1.132c-.482.028-1.079-.422-1.689-.675-.61-.254-.905-.332-1.013-1.013s-.464-2.05.538-1.908c1.29.182 2.213-.535 2.364-1.013.074-.234.33-.147.565-.004zM9.358 5.386c.322.028.684.083.798.255.226.338-.129 1.239 0 1.689.118.409.595.628.776 1.013.186.394.47 1.07.338 1.351s-.887.169-1.132.338c-.207.143-.566.568-.338.675.358.169 2.07.056 2.483.338.372.253.391 1.127 0 1.35-.394.226-1.97-.112-2.364 0-.217.063-.223.64 0 .676 1.056.17 5.28.45 6.335.338.336-.036.306-.869 0-1.013-.357-.169-1.787.281-2.145 0s-.301-1.407 0-1.689 1.394.113 1.808 0c.307-.083.98.092.675-.675-.217-.546-3.616.28-4.172-.338-.22-.246.208-1.43-.337-2.026-.24-.263-.665-.865-.576-1.014s.83-.123 1.114.12c.354.3.636 1.426 1.013 1.688.344.238 1.042.013 1.25-.119.19-.12.112-.48 0-.675-.224-.394-1.274-1.408-1.35-1.69-.076-.28.645-.162.894 0 .43.282 1.235 1.464 1.689 1.69.324.16 1.32.309 1.032-.338-.166-.371-1.283-1.552-1.351-2.027-.049-.337-.04-.337.1-.675.086-.208.19-.556 0-.676-.368-.23-1.287-1.122-1.451-1.688-.084-.29.269-.717.19-.925 2.043-.007 4.092.065 5.668.276 3.887.523 5.814 2.149 7.079 4.343l-.003.02c-.123 1.011.169 1.802-.338 2.703-.199.354-.385.544-.675.675-.374.17-1.13.43-1.57.338-1.07-.225-.694-.854-.657-1.689.03-.683.02-1.641 0-2.364-.018-.658.132-1.577-.119-1.971s-1.175-.51-1.388-.393c-.225.123-.577.62-.675 1.013-.113.45 0 1.126 0 1.689v2.026c0 .45.165 1.07 0 1.351-.166.282-.7.282-.995.338-.254.048-.558.14-.776 0-.222-.142-.517-.517-.556-.854-.093-.788.115-2.993 0-3.874-.069-.521-.41-1.362-.694-1.415-.285-.054-.903.27-1.014 1.093-.1.755-.056 2.424 0 3.361.046.762.073 1.64.338 2.264.29.683 1.956.717 2.702.676.241-.013.789.048.675.262-.691 1.302-2.425 2.422-2.939 3.553-.65 1.431-1.151 3.101-1.35 4.728a30.32 30.32 0 00-.166 2.108c-.135.011-.256-.001-.273-.081-.04-.19-.165-.896-1.689-1.013-1.523-.118-1.744-.624-1.688-1.014.056-.39.91-.357 1.35-.337.44.02.301-1.086.676-1.014.375.073.976.79 1.351.338.376-.451-.272-.672-.675-1.013-.404-.34-.594-1.333-.676-2.026-.082-.694-.593-.992-1.013-1.132-.42-.14-2.408 0-3.04 0-.25 0-.463-.07-.752 0-.398.095-.795.572-.599.913.185.319 3.375.296 4.053.337.678.041.558.293 0 .657-.356.233-2.672-.052-3.377 0-.705.052-1.228.785-.676 1.032.398.178 3.529-.011 4.053.119.603.149-.036.5-.338.775-.301.277-3.834-.43-4.39-.118-.556.311-.828.742-.338.913.49.17 1-.264.895.219s-.192.407-.676.775c-.315.24-.813.527-1.47.576s-1.026.652-1.35 1.35c-.325.699.325 1.715.675 2.027.35.312.678.551 1.47.237.22-.086.444-.01.675 0 .232.01.408.148.338.895-.07.746.417.87.675 1.013s.764 1.114 1.351 1.351c.591.239 1.926.257 2.483.557a.704.704 0 01.383.536 203.098 203.098 0 01-6.872-.509c-1.602-.152-3.693-.135-4.711-1.062a2.766 2.766 0 01-.602-.831c.308-.682.671-1.872.895-2.525.288-.842.112-1.984.675-2.583.563-.6 2.122-.487 2.702-1.013.563-.511.156-1.808.776-2.145.197-.108.78.11.913-.12.132-.227.283-1.135-.12-1.25-.658-.189-3.194.285-3.833.119-.36-.093-.327-.938 0-1.113.45-.242 2.156.036 2.702-.338.546-.374.31-1.553.575-1.908.207-.277.88.046 1.013-.219.133-.265.222-1.23-.219-1.37-.658-.208-3.167.325-3.733.12-.437-.159-.085-1.16.337-1.352.62-.281 2.99.362 3.378-.337.281-.507-.14-2.35.456-2.465.334-.064.657-.518.657-.913 0-.337-2.208-.527-3.14-.337-.816.165-1.654.482-1.688 0-.018-.251.09-.63.337-.676.723-.135 2.93-.162 4.269-.255zm1.812 13.765c.281-.226 1.407-.226 1.688 0 .282.225-.056 1.013 0 1.35.042.249.12.551.338.676.394.225 1.689.45 2.026.676.188.124.202.574 0 .675-.225.113-.956.056-1.35 0-.353-.05-.732-.45-1.014-.338-.281.113-.596.615-.675 1.013-.113.563.056 1.97 0 2.365-.016.111-.258.08-.338 0-.169-.17-.547-.629-.675-1.014-.17-.506-.17-1.576-.338-2.026-.112-.298-.45-.494-.676-.438-.225.056-.337.663-.675.776s-1.126-.17-1.351-.338c-.18-.135-.176-.535 0-.675.281-.226 1.182-.45 1.689-.676.46-.204 1.125-.338 1.35-.675.226-.338-.28-1.126 0-1.351zM8.707 1.564c-.013.306.096.731.199 1.038.394 1.182.423 1.41.237 1.688-.185.279-.901-.047-1.35-.018-.845.053-2.885-.341-3.716.337-.83.679-1.038 2.493-1.27 3.734-.226 1.218-.118 2.476-.118 3.715 0 1.464.005 2.729.119 5.066.063 1.303-.173 3.71-.686 5.057-.185.486-.315.804-.416 1.032-.035-.279-.066-.552-.097-.813C1.264 19.45.74 12.417.934 9.204c.128-2.114.657-4.817 1.845-6.082s3.456-1.35 5.28-1.507c.202-.017.42-.034.648-.051zm20.11 8.29c.574 3.47.17 8.542-.11 11.439-.096-1.177-.24-2.353-.532-3.493-.383-1.494-.45-2.702-1.688-4.39-.471-.643-1.45-1.283-1.808-1.69-.181-.206-.595-.655-.338-.751.282-.105 1.358.22 2.027.119.722-.11 1.94-.053 2.309-.777.062-.122.107-.278.14-.457zM4.27 17.806s-.417.441-.358 1.048c.06.607.733.44.733.44s1.117-.024 1.26-.335c.143-.311.355-1.046.082-1.238s-1.44.04-1.717.085zm.371-4.965c.338-.265 1.557-.37 1.8-.107.243.262.195 1.129-.144 1.42-.26.222-1.753.256-1.882.168-.368-.25-.111-1.216.226-1.48zm.112-5.173c-.436.16-.744 1.394-.338 1.35.406-.043 1.251.4 1.656.096.45-.337 1.142.069 1.473-.193s.543-.898.147-1.113-2.392-.342-2.938-.14zm5.454-6.199a92.303 92.303 0 011.98-.085c.135.583 1.51 2.036 1.666 2.568.095.326-.35.63-.657.776-.39.186-1.238.298-1.689.338-.267.023-.533-.071-.8-.098a.514.514 0 00.125-.34c-.041-.798-.652-1.728-.776-2.026-.137-.332.122-.823.15-1.133z" fill="#e7050f"/></svg>