<svg clip-rule="evenodd" fill-rule="evenodd" stroke-linejoin="round" stroke-miterlimit="2" viewBox="0 0 96 96" xmlns="http://www.w3.org/2000/svg"><path d="m731.881 1636.327c84.442 0 152.999 68.556 152.999 152.998 0 84.443-68.557 152.999-152.999 152.999s-152.999-68.556-152.999-152.999c0-84.442 68.557-152.998 152.999-152.998zm12.042 294.869c8.771-.736 17.317-2.269 25.566-4.525-3.299-11.927-6.543-29.812-7.366-48.782-7.491 6.616-17.804 8.63-28.749 8.981-2.498 7.074-6.17 14.453-11.451 22.24 1.273 1.618 2.659 3.287 4.152 4.966 6.51 7.316 12.574 12.602 15.604 15.247.534.466 1.389 1.174 2.244 1.873zm24.727-234.385c-1.324-18.434.096-35.601 1.926-44.529l-2.471-.673c-4.01 7.72-10.619 14.296-18.794 19.897 2.979 7.159 9.709 15.337 15.602 21.622 1.176 1.254 2.475 2.516 3.737 3.683zm49.091-21.033c-9.781-7.411-20.547-13.587-32.067-18.297-2.5 13.158-3.652 45.23 4.729 69.728 4.91 14.353 13.225 26.246 27.9 27.857l-.714-78.556c-.002-.259.05-.503.152-.732zm-33.123 245.819c12.669-5.061 24.443-11.89 35.016-20.183l-.911-100.184c-19.869 1.666-30.645 14.495-36.016 31.153-9.323 28.92-3.744 68.445 1.911 89.214zm50.868-34.657c12.312-13.062 22.185-28.449 28.886-45.429-.26-1.883-.591-4.25-.775-5.415-1.086-6.876-2.462-18.036-10.994-25.922-4.118-3.806-9.881-6.716-17.908-8.149zm22.873-163.008c-6.528-12.591-14.881-24.085-24.708-34.132l.603 64.771c6.682-.901 11.765-2.914 15.476-6.21 5.047-4.482 7.704-11.021 8.576-19.283.421-3.249.053-5.146.053-5.146zm-156.995 83.232c-.393 8.482-2.866 19.544-16.351 29.057-6.254 4.412-12.201 6.827-11.429 16.442.593 7.392 2.421 12.076 5.657 14.792 3.283 2.756 7.519 3.553 11.988 3.701-.397-12.713 1.128-24.165 1.456-26.612.583-4.359 4.596-7.424 8.955-6.841 4.36.584 7.425 4.597 6.841 8.956-.319 2.384-1.922 14.279-1.198 26.817.437 7.561 1.618 15.424 4.88 21.124l.022.04c10.421-18.043 10.758-33.543 9.48-48.454-.376-4.382 2.876-8.245 7.258-8.62 4.382-.376 8.245 2.877 8.621 7.258.724 8.444.991 17.041-.27 26.048 8.345-.556 15.744-2.98 18.794-12.416 4.48-13.857-9.087-21.002-10.477-21.84-6.483-3.908-10.643-7.401-13.628-11.472-3.341-4.555-5.245-9.951-6.815-18.169-4.623.269-11.816.374-23.784.189zm39.21-4.049c.926 5.617 1.923 9.445 4.24 12.604 1.938 2.642 4.798 4.712 9.006 7.248 1.206.727 7.092 4.236 12.023 10.447.508-2.012 1.072-3.988 1.696-5.921.3-.931.613-1.852.938-2.763-5.44-8.212-11.994-19.041-18.723-28.601-2.453 2.625-5.474 5.078-9.18 6.986zm132.077 7.632c1.056-6.988 1.604-14.141 1.604-21.422 0-13.85-1.982-27.241-5.678-39.905-2.106 4.192-4.841 7.818-8.265 10.858-6.043 5.367-14.418 9.029-25.909 10.295l.142 15.299c13.339 1.818 22.465 6.673 28.876 12.598 4.039 3.734 7.01 7.958 9.23 12.277zm-114.043-29.529c6.166 8.213 12.535 18.269 18.114 26.956 8.862-13.024 22.266-21.791 41.856-22.939l-.129-14.127c-22.394-1.332-35.863-17.513-43.126-38.74-1.57-4.592-2.836-9.417-3.84-14.341l-2.132-.928c-2.531-.841-9.205-5.756-16.063-13.069-6.6-7.038-13.533-16.197-17.649-24.646-6.545 3.219-13.544 6.059-20.499 8.66l.273.943c1.044 3.531 2.5 7.778 4.78 10.549 3.376 4.104 9.155 7.802 14.633 9.981 4.086 1.625 6.085 6.262 4.46 10.349s-6.263 6.085-10.35 4.46c-7.935-3.155-16.162-8.721-21.052-14.666-3.547-4.313-6.076-10.887-7.698-16.252-4.665 1.638-9.127 3.207-13.215 4.757-2.35.891-4.601 2.181-6.492 3.837-2.715 2.377-1.589 6.02-.259 9.392 2.074 5.257 5.937 10.244 9.044 12.744 1.916 1.541 2.931 3.791 2.971 6.074 12.339-.926 25.076-1.514 35.891-.091 11.921 1.568 21.665 5.71 27.512 13.099 5.896 7.451 8.452 18.583 3.846 35.208-.154.556-.432 1.53-.876 2.79.033.043.065.086 0 0zm0 0c-.032-.043-.064-.086 0 0zm-92.605-86.569c1.034-1.659 2.352-3.215 3.978-4.638 3.309-2.897 7.227-5.188 11.339-6.748 15.134-5.739 35.659-11.645 51.959-20.607 7.36-4.047 13.876-8.644 18.16-14.369-6.394-.88-12.923-1.335-19.558-1.335-78.578 0-142.374 63.795-142.374 142.373 0 25.871 6.916 50.14 18.997 71.057 6.74-82.471 7.418-135.362 9.054-141.286.347-1.257 2.091-7.465 5.848-13.06 3.002-4.471 7.232-8.438 12.645-10.258 3.978-1.338 4.292-1.086 29.952-1.129zm-43.359 185.95c23.813 28.462 58.533 47.493 97.705 50.639-1.965-1.979-4.05-4.175-6.18-6.568-8.841-9.937-14.373-19.593-15.839-22.154-2.54-4.438-4.284-9.822-5.413-15.542-8.846-.256-17.461-1.888-23.923-7.313-5.74-4.818-10.244-12.61-11.296-25.723-.63-7.849.782-13.307 3.568-17.674h-8.503c.381 2.892.618 6.004.472 8.835-.268 5.175-1.928 9.558-4.543 12.232-5.221 5.338-12.381 7.087-19.704 6.664-1.591-.092-3.186-.292-4.746-.561l-.921 10.952c-.109 1.263-.496 4.65-.677 6.213zm48.039-53.708c1.623-1.214 3.346-2.426 5.143-3.693 7.367-5.197 9.273-11.261 9.677-16.378l-9.078-.261c-4.396-.134-7.856-3.812-7.722-8.208s3.812-7.856 8.208-7.722c45.961 1.404 49.092.771 53.269-.452 4.476-1.31 7.553-3.986 9.658-6.796-2.493-2.743-4.92-4.903-7.273-6.11-3.77-1.933-10.028-2.694-17.179-3.217-12.54-.916-27.546-.58-39.068-.855-4.396-.105-7.881-3.76-7.776-8.157s3.76-7.881 8.157-7.776c11.752.281 27.057-.041 39.848.893 9.74.712 18.155 2.298 23.29 4.931 1.869.958 3.821 2.307 5.823 3.98.871-6.144.076-10.679-2.52-13.96-3.558-4.496-9.838-6.234-17.093-7.188-12.271-1.615-27.22-.286-40.877.842-4.384.362-8.236-2.903-8.598-7.286-.133-1.607.222-3.142.94-4.46-.269-.253-.541-.516-.814-.788h-19.791c.25 1.853.439 3.788.499 5.669.126 3.886-.334 7.572-1.427 10.363-1.973 5.038-6.148 8.22-10.896 9.885-5.182 1.818-10.892 1.666-11.938 1.627-.972-.036-1.77-.078-2.504-.145l-.422 8.938h33.625c4.398 0 7.969 3.571 7.969 7.969s-3.571 7.969-7.969 7.969h-10.076c.382 2.891.619 6.003.472 8.835-.268 5.174-1.927 9.557-4.543 12.232-5.221 5.338-12.38 7.086-19.703 6.663-.727-.042-1.454-.107-2.178-.19l-.403 6.282h35.425c3.919 0 7.181 2.835 7.845 6.564zm-4.828-108.598c-.879-2.033-1.592-4.106-2.072-6.166-.121-.518-.229-1.034-.322-1.549-9.175-.017-14.405-.109-17.685-.107-2.703.002-3.365-.017-4.645.413-2.008.675-3.38 2.378-4.494 4.037-.752 1.12-1.375 2.281-1.882 3.372zm-33.925 15.937c-.175 3.184-.358 7.008-.562 11.439.686.091 1.424.144 2.363.179.463.017 2.648.112 4.955-.419.529-.123 1.07-.279 1.583-.499.311-.134.738-.141.87-.48.637-1.625.41-3.973.193-6.258-.13-1.36-.32-2.707-.532-3.962zm-5.606 102.034-.824 11.218 1.492.271c3.474.565 7.343 1.074 9.969-1.245.091-.61.423-2.99.358-4.515-.083-1.944-.333-3.932-.632-5.729zm3.088-49.759-.64 11.611c3.263.502 6.763.78 9.195-1.368.09-.61.422-2.989.357-4.515-.083-1.944-.333-3.931-.632-5.728z" fill="#e7050f" transform="matrix(.29412 0 0 .29412 -167.261039 -478.276846)"/></svg>