<?xml version="1.0" encoding="UTF-8" standalone="no"?><!DOCTYPE svg PUBLIC "-//W3C//DTD SVG 1.1//EN" "http://www.w3.org/Graphics/SVG/1.1/DTD/svg11.dtd"><svg width="100%" height="100%" viewBox="0 0 97 97" version="1.1" xmlns="http://www.w3.org/2000/svg" xmlns:xlink="http://www.w3.org/1999/xlink" xml:space="preserve" xmlns:serif="http://www.serif.com/" style="fill-rule:evenodd;clip-rule:evenodd;stroke-linejoin:round;stroke-miterlimit:2;"><rect id="webfeeds-logo" x="0.877" y="0.885" width="96" height="96" style="fill:none;"/><path id="Hanko-Logo" serif:id="Hanko Logo" d="M48.826,4.826c24.836,0 45,19.742 45,44.059c0,24.317 -20.164,44.059 -45,44.059c-24.836,0 -45,-19.742 -45,-44.059c0,-24.317 20.164,-44.059 45,-44.059Zm-6.903,4.768c-3.936,0.659 -7.679,1.872 -11.144,3.554l-0.004,29.533c6.243,-0.701 11.104,-5.892 11.118,-12.193c0,-0.097 0.03,-20.894 0.03,-20.894Zm2.857,20.84c-0,0.102 -0.126,1.897 -0.266,2.669l18.731,-0c1.598,0 2.857,-1.652 2.857,-3.217l0,-4.616c0,-2 -1.589,-3.217 -2.857,-3.217c-1.268,0 -2.857,1.308 -2.857,3.217c0,3.02 -2.569,6.014 -5.654,6.014c-3.075,0 -5.775,-3.004 -5.775,-6.014l0,-4.616c0,-3.019 2.581,-6.014 5.665,-6.014l15.042,-0c-6.098,-3.567 -13.226,-5.618 -20.84,-5.618c-1.365,0 -2.715,0.066 -4.046,0.195l0,21.217Zm-27.995,43.036c3.072,3.831 6.844,7.099 11.128,9.617l0.004,-27.999c-6.201,0.691 -11.033,5.809 -11.126,12.036c0.006,0.052 -0.005,6.346 -0.005,6.346Zm63.872,-23.2c-2.338,0 -7.952,0.014 -7.952,0.014l0.182,30.753c5.146,-3.699 9.373,-8.554 12.28,-14.171l-4.51,0c-3.127,0 -5.666,-2.486 -5.666,-5.548c0,-3.062 2.539,-5.548 5.666,-5.548c1.55,0 2.809,-1.232 2.809,-2.75c0,-1.518 -1.259,-2.75 -2.809,-2.75Zm-52.739,-7.585l0.004,-28.006c-4.301,2.527 -8.087,5.809 -11.166,9.659c0,0 0.034,6.28 0.016,6.372c0.125,6.206 4.957,11.296 11.147,11.976Zm-13.981,26.746l-0.005,-2.092c-0.017,-7.869 6.133,-14.353 13.985,-15.063l0.001,-6.779c-7.862,-0.701 -14.023,-7.189 -14.006,-15.065l0.015,-2.076c-3.691,5.998 -5.815,13.023 -5.815,20.529c0,7.513 2.128,14.544 5.825,20.546Zm30.832,-2.329c0.008,0.058 0.011,21.451 0.011,21.451c1.331,0.129 2.681,0.195 4.046,0.195c2.383,0 4.719,-0.201 6.99,-0.586l0,-10.704c-4.292,-0.175 -7.714,-3.636 -7.714,-7.879l-0,-12.409c0,-0.772 0.64,-1.399 1.429,-1.399l7.687,0c1.793,-0 3.512,-0.697 4.779,-1.938c0.993,-0.972 1.645,-2.216 1.881,-3.553l-19.77,-0.009c-0.788,-0 -1.428,-0.627 -1.428,-1.399c0,-0.772 0.641,-1.398 1.429,-1.398l19.74,0.009c-0.61,-3.04 -3.346,-5.333 -6.629,-5.334l-7.69,-0.003c-0.788,-0 -1.428,-0.627 -1.428,-1.399c0,-0.772 0.641,-1.398 1.429,-1.398l7.69,0.003c4.865,0.002 8.886,3.541 9.524,8.133l3.085,0.001l-0.038,-6.466c-0.025,-4.174 3.389,-7.59 7.652,-7.656l8.829,-0.137c-2.729,-6.242 -7.04,-11.667 -12.437,-15.789l-19.213,0c-1.595,0 -2.807,1.656 -2.807,3.217l0,4.616c0,1.569 1.315,3.217 2.918,3.217c1.594,0 2.797,-1.656 2.797,-3.217c0,-3.678 3.27,-6.014 5.714,-6.014c2.444,0 5.714,2.161 5.714,6.014l0,4.616c0,3.015 -2.635,6.014 -5.714,6.014l-19.527,0c-2.066,5.23 -7.022,9.054 -12.943,9.593l-0.001,6.781c7.772,0.698 13.888,7.055 13.995,14.827Zm35.888,-8.534c-1.55,0 -2.809,1.232 -2.809,2.75c0,1.518 1.259,2.75 2.809,2.75l5.822,0c1.973,-4.681 3.062,-9.808 3.062,-15.183c0,-4.505 -0.765,-8.837 -2.175,-12.878l-9.875,0.153c-2.697,0.042 -4.856,2.202 -4.84,4.843l0.038,6.483c0,0 5.668,-0.014 7.968,-0.014c3.127,0 5.666,2.486 5.666,5.548c0,3.062 -2.539,5.548 -5.666,5.548Zm-13.892,-8.287c-0.256,2.081 -1.218,4.032 -2.747,5.529c-1.803,1.766 -4.249,2.758 -6.799,2.758l-6.259,0l0,11.011c0,2.805 2.318,5.081 5.183,5.088l2.191,0.005c2.87,-0 5.197,-2.278 5.197,-5.088l-0,-6.806c-0,-0.772 0.64,-1.399 1.429,-1.399c0.788,-0 1.429,0.627 1.429,1.399l0,6.806c-0,4.244 -3.424,7.704 -7.714,7.879l0,10.109c4.064,-0.99 7.888,-2.578 11.367,-4.664l-0.193,-32.626l-3.083,-0.001Zm-35.991,4.806l-0.004,29.531c3.467,1.684 7.214,2.899 11.153,3.559l-0.01,-20.894c-0.013,-6.309 -4.886,-11.504 -11.139,-12.196Z" style="fill:#900b20;"/></svg>