<svg clip-rule="evenodd" fill-rule="evenodd" stroke-linejoin="round" stroke-miterlimit="2" viewBox="0 0 805 159" xmlns="http://www.w3.org/2000/svg"><g fill="#d8bb34" fill-rule="nonzero"><path d="m21.724 141.401c11.088 0 21.528-3.672 21.528-17.136v-16.632c0-13.464-10.44-17.136-21.528-17.136h-19.944v46.8c0 3.96 6.12 4.104 6.768 4.104zm0-44.856c7.632 0 13.68 2.808 13.68 11.736v15.264c0 8.928-6.048 11.808-13.68 11.808h-12.096v-38.808zm34.488 41.256c0 4.104 7.56 4.104 7.56 4.104v-33.408c0-4.104-7.272-4.104-7.56-4.104zm0-41.184c0 .936 1.08 1.728 2.16 1.728h5.328v-5.472c0-.864-1.224-1.8-2.088-1.8h-5.4zm41.76 38.448s-3.024 1.656-7.56 1.656c-5.184 0-7.56-2.232-7.56-5.4 0-7.488 13.608-4.896 15.12-9.216zm-22.608-3.744c0 8.208 6.984 10.944 13.968 10.944 4.032 0 7.344-1.296 10.8-1.296 1.656 0 3.384.216 5.184 1.008v-25.992c0-7.56-5.328-11.952-15.192-11.952-6.408 0-13.752 2.16-13.752 7.776 0 1.728.648 3.744 2.376 6.12 0-5.544 4.968-7.92 11.376-7.92 6.12 0 7.632 2.448 7.632 5.616-2.736 6.264-22.392 2.016-22.392 15.696zm72.432-26.928s-7.344 0-7.848 4.032l-1.44 11.52c-1.224 10.008-7.128 15.048-7.128 15.048-.072 0-5.904-4.824-7.2-15.048l-1.44-11.52c-.504-4.032-7.776-4.032-7.776-4.032l1.44 14.112c1.656 16.56 14.832 24.264 14.976 24.336.216-.072 13.104-7.776 14.904-24.336zm9.72 26.784c0 5.76 2.376 10.728 7.56 10.728 1.584 0 3.384-.36 5.112-2.304-4.464 0-5.112-6.624-5.112-10.728v-37.8c0-4.032-7.128-4.104-7.56-4.104zm53.064-15.048c0-7.56-5.256-12.096-16.488-12.096-11.16 0-16.416 4.536-16.416 12.096v14.04c0 7.56 5.256 12.096 16.416 12.096 11.232 0 16.488-4.536 16.488-12.096zm-7.56 12.96c0 4.68-1.512 7.416-8.928 7.416-7.344 0-8.856-2.736-8.856-7.416v-11.88c0-4.68 1.512-7.416 8.856-7.416 7.416 0 8.928 2.736 8.928 7.416zm84.528 8.928c0 4.104 7.848 4.104 7.848 4.104v-47.52c0-4.104-7.272-4.104-9.36-4.104a12485.61 12485.61 0 0 0 -14.832 30.816l-12.528-26.928c-1.872-4.032-5.832-3.888-6.12-3.888h-5.256v47.52c0 4.104 7.848 4.104 7.848 4.104v-32.976c0-3.168-.576-6.768-.576-6.768l11.88 25.416c2.52 4.104 7.128 4.104 7.128 4.104l14.544-29.736s-.576 3.816-.576 6.984zm48.888-9.36c-.072 4.68-5.112 7.488-12.024 7.488-6.048 0-8.496-2.376-8.496-7.056v-3.96c1.944 1.08 4.968 1.512 7.344 1.512 10.944 0 14.76-5.256 14.76-11.232 0-6.84-4.968-11.376-14.688-11.376s-14.976 4.536-14.976 12.096v14.04c0 7.56 6.048 12.096 16.056 12.096 7.704 0 14.04-3.024 14.04-8.136 0-1.656-.648-3.456-2.016-5.472zm-20.52-11.448c0-4.68 1.512-7.416 7.272-7.416 5.328 0 7.272 2.304 7.272 5.616 0 3.24-2.088 5.112-8.136 5.112-2.592 0-6.048-.864-6.408-1.008zm56.448-15.192c0 3.384.648 5.4.648 5.4s-2.952-3.384-10.296-3.384c-7.2 0-13.464 4.464-13.464 11.88v14.4c0 7.632 5.544 11.952 15.264 11.952 3.312 0 6.696-1.224 10.08-1.224 1.584 0 3.6.216 5.328 1.008v-50.112c0-4.896-7.128-4.824-7.56-4.824zm0 33.192s-2.664 1.296-6.984 1.296c-6.696 0-8.568-2.376-8.568-7.272v-12.24c0-5.04 2.88-7.2 6.84-7.2 4.32 0 8.712 2.664 8.712 6.48zm20.52 2.592c0 4.104 7.56 4.104 7.56 4.104v-33.408c0-4.104-7.272-4.104-7.56-4.104zm0-41.184c0 .936 1.08 1.728 2.16 1.728h5.328v-5.472c0-.864-1.224-1.8-2.088-1.8h-5.4zm28.08 11.88c0-4.032-7.56-4.104-7.56-4.104v26.568c0 8.928 7.344 11.304 14.328 11.304 4.032 0 7.272-1.512 10.728-1.512 2.592 0 4.752.864 5.616 1.296v-33.552c0-4.104-7.56-4.104-7.56-4.104v30.744s-3.312 1.224-7.776 1.224c-5.76 0-7.776-2.376-7.776-6.48zm59.184 29.304c0 4.032 7.56 4.104 7.56 4.104v-26.64c.072-3.24 4.104-5.4 8.208-5.4 4.464 0 7.344 2.016 7.344 6.84v21.096c0 3.96 7.56 4.104 7.56 4.104v-26.136c0-8.136-6.696-11.736-13.968-11.736-8.136 0-11.736 2.808-12.456 3.456-2.448-2.448-6.984-3.456-11.088-3.456-4.032 0-7.416 1.584-11.016 1.584-2.448 0-5.256-1.44-5.256-1.44v33.624c0 4.104 7.56 4.104 7.56 4.104v-30.672s3.24-1.296 7.704-1.296c5.76 0 7.848 2.088 7.848 6.48zm101.736-32.544v-2.16c0-9.504-7.488-12.6-17.928-12.6h-15.696v47.52c0 4.032 7.848 4.104 7.848 4.104v-23.4c10.224 2.016 13.176 10.008 17.928 18.864 2.016 3.744 5.472 4.392 7.776 4.392 1.368 0 3.24-.432 3.24-.432-4.032-5.976-7.632-18.864-16.992-23.4 8.064 0 13.824-4.968 13.824-12.888zm-17.928-8.712c6.84 0 10.08 1.872 10.08 7.632 0 5.616-2.448 8.496-9.504 8.496h-8.424v-16.128zm56.952 32.112c-.072 4.68-5.112 7.488-12.024 7.488-6.048 0-8.496-2.376-8.496-7.056v-3.96c1.944 1.08 4.968 1.512 7.344 1.512 10.944 0 14.76-5.256 14.76-11.232 0-6.84-4.968-11.376-14.688-11.376s-14.976 4.536-14.976 12.096v14.04c0 7.56 6.048 12.096 16.056 12.096 7.704 0 14.04-3.024 14.04-8.136 0-1.656-.648-3.456-2.016-5.472zm-20.52-11.448c0-4.68 1.512-7.416 7.272-7.416 5.328 0 7.272 2.304 7.272 5.616 0 3.24-2.088 5.112-8.136 5.112-2.592 0-6.048-.864-6.408-1.008zm63.004-13.032c-2.16.936-3.96 1.296-5.616 1.296-3.384 0-6.84-1.44-10.8-1.44-6.912 0-13.608 3.024-13.608 11.16v3.744c0 2.808.936 5.904 2.664 7.776-2.088 2.448-3.6 4.536-3.6 7.416 0 7.416 6.48 8.136 13.392 8.136h3.528c4.68 0 7.92.432 7.92 4.392 0 3.672-2.16 6.408-9.216 6.408s-12.312-2.16-12.672-7.56c-1.512 2.088-2.16 3.96-2.16 5.616 0 4.896 6.192 7.704 15.192 7.704 11.232 0 16.344-5.112 16.344-12.528 0-9.72-7.992-9.864-15.192-9.864h-2.376c-5.472 0-8.496-.504-8.496-4.104 0-.936.288-2.16.504-3.312 0 0 3.312 2.088 9.216 2.088 9.72 0 14.976-4.536 14.976-12.168zm-7.488 13.68c0 4.752-1.512 7.488-7.488 7.488-6.048 0-7.488-2.736-7.488-7.488v-1.584c0-4.68 1.728-6.624 7.416-6.624 4.176 0 7.2 1.368 7.56 1.512zm26.564-9.36c0-4.032-7.56-4.104-7.56-4.104v26.568c0 8.928 7.344 11.304 14.328 11.304 4.032 0 7.272-1.512 10.728-1.512 2.592 0 4.752.864 5.616 1.296v-33.552c0-4.104-7.56-4.104-7.56-4.104v30.744s-3.312 1.224-7.776 1.224c-5.76 0-7.776-2.376-7.776-6.48zm35.71 22.68c0 5.76 2.376 10.728 7.56 10.728 1.584 0 3.384-.36 5.112-2.304-4.464 0-5.112-6.624-5.112-10.728v-37.8c0-4.032-7.128-4.104-7.56-4.104zm42.12 3.888s-3.024 1.656-7.56 1.656c-5.184 0-7.56-2.232-7.56-5.4 0-7.488 13.608-4.896 15.12-9.216zm-22.608-3.744c0 8.208 6.984 10.944 13.968 10.944 4.032 0 7.344-1.296 10.8-1.296 1.656 0 3.384.216 5.184 1.008v-25.992c0-7.56-5.328-11.952-15.192-11.952-6.408 0-13.752 2.16-13.752 7.776 0 1.728.648 3.744 2.376 6.12 0-5.544 4.968-7.92 11.376-7.92 6.12 0 7.632 2.448 7.632 5.616-2.736 6.264-22.392 2.016-22.392 15.696zm56.158-21.096c4.176 0 7.704 1.944 7.704 6.192 1.008-1.368 2.664-3.456 2.664-6.12 0-4.392-4.032-6.264-9.072-6.264-4.104 0-6.912 1.512-10.008 1.512-1.44 0-3.096-.36-4.968-1.296v33.48c0 4.176 7.56 4.176 7.56 4.176v-30.672s3.024-1.008 6.12-1.008z"/><path d="m195.172 55.169c12.168 0 23.688-4.032 23.688-18.576v-15.192c0-14.544-11.52-18.576-23.688-18.576h-22.32v46.8c0 5.256 8.28 5.544 9.144 5.544zm0-43.56c6.336 0 11.304 2.448 11.304 10.44v13.824c0 8.064-4.968 10.584-11.304 10.584h-9.936v-34.848zm35.208 38.52c0 5.544 12.096 5.544 12.096 5.544v-33.408c0-5.328-11.088-5.544-12.096-5.544zm.216-40.176c0 1.296 1.584 2.664 3.816 2.664h7.704v-6.912c0-1.08-1.584-2.736-3.744-2.736h-7.776zm44.208 37.152s-2.664.792-5.256.792c-2.448 0-4.896-.72-4.896-4.104 0-4.608 8.208-3.456 10.152-6.48zm-6.192-22.176c4.68 0 5.976 2.016 5.976 3.744-3.312 4.824-22.032 2.376-22.032 15.552 0 9.072 7.776 11.808 15.84 11.808 4.248 0 8.28-1.296 12.096-1.296 2.016 0 4.176.216 6.192 1.296v-26.784c0-8.352-6.192-12.888-17.928-12.888-4.968 0-15.192 1.44-15.192 8.712 0 2.232.648 4.824 3.312 8.352 0-6.84 6.192-8.496 11.736-8.496zm64.08-8.208s-11.736 0-12.528 5.328l-1.44 10.08c-1.44 10.008-4.968 12.888-4.968 12.888s-3.384-2.232-4.896-12.888l-1.44-10.08c-.792-5.328-12.456-5.328-12.456-5.328l1.656 14.328c1.944 17.064 16.992 25.848 17.136 25.92.144-.072 15.12-8.856 17.208-25.92zm8.28 26.784c0 6.48 3.096 12.168 9.936 12.168 2.088 0 4.68-.36 6.552-3.384-4.32-.36-4.392-7.128-4.392-11.088v-36.36c0-5.472-11.304-5.544-12.096-5.544zm60.696-13.608c0-8.424-5.976-13.536-18.648-13.536-12.816 0-18.792 5.112-18.792 13.536v12.6c0 8.496 5.976 13.536 18.792 13.536 12.672 0 18.648-5.04 18.648-13.536zm-12.096 11.52c0 3.96-1.152 6.192-6.552 6.192-5.544 0-6.696-2.232-6.696-6.192v-10.44c0-3.96 1.152-6.12 6.696-6.12 5.4 0 6.552 2.16 6.552 6.12zm47.376 8.208c0 5.472 9.216 5.544 9.216 5.544h8.856c12.312 0 20.808-4.032 20.808-14.04v-1.584c0-4.464-2.52-9.288-6.48-10.872 3.384-1.296 5.76-6.336 5.76-10.512v-1.44c0-10.512-8.424-13.896-20.088-13.896h-18.072zm18.648-16.488c5.472 0 7.848 2.088 7.848 6.912 0 4.68-2.52 6.408-8.424 6.408h-5.688v-13.32zm-.576-21.528c5.184 0 7.704 1.368 7.704 5.472 0 4.752-1.872 7.344-7.128 7.344h-6.264v-12.816zm31.248 31.896c0 6.48 3.096 12.168 9.936 12.168 2.088 0 4.68-.36 6.552-3.384-4.32-.36-4.392-7.128-4.392-11.088v-36.36c0-5.472-11.304-5.544-12.096-5.544zm44.784 3.6s-2.664.792-5.256.792c-2.448 0-4.896-.72-4.896-4.104 0-4.608 8.208-3.456 10.152-6.48zm-6.192-22.176c4.68 0 5.976 2.016 5.976 3.744-3.312 4.824-22.032 2.376-22.032 15.552 0 9.072 7.776 11.808 15.84 11.808 4.248 0 8.28-1.296 12.096-1.296 2.016 0 4.176.216 6.192 1.296v-26.784c0-8.352-6.192-12.888-17.928-12.888-4.968 0-15.192 1.44-15.192 8.712 0 2.232.648 4.824 3.312 8.352 0-6.84 6.192-8.496 11.736-8.496zm58.608 15.192c-.072 3.6-4.248 7.128-10.44 7.128-5.112 0-7.56-1.944-7.56-7.344v-7.632c0-6.768 3.96-7.344 7.848-7.344 4.032 0 8.64 2.52 8.64 8.928 2.376-3.456 3.384-6.408 3.384-8.784 0-7.344-9.792-8.712-14.616-8.712-11.16 0-17.352 5.112-17.352 13.536v12.6c0 8.496 6.984 13.536 18.072 13.536 9.216 0 14.688-4.176 14.688-9.504 0-1.872-1.08-4.176-2.664-6.408zm46.368-22.32c-2.232-.72-4.824-1.08-7.416-1.08-1.584 0-5.544.072-7.56 3.96-2.808 5.256-4.824 8.352-7.344 9.432v-25.272c0-5.544-12.096-5.544-12.096-5.544v50.832c0 5.544 12.096 5.544 12.096 5.544v-16.416c12.312 3.168 6.624 16.416 17.856 16.416 1.728 0 7.056-1.224 7.056-1.224-5.472-10.296-5.328-15.768-15.48-20.16 6.912-3.672 8.136-10.224 12.888-16.488z"/></g></svg>