<svg clip-rule="evenodd" fill-rule="evenodd" stroke-linejoin="round" stroke-miterlimit="2" viewBox="0 0 1500 937" xmlns="http://www.w3.org/2000/svg" xmlns:xlink="http://www.w3.org/1999/xlink"><clipPath id="a"><path clip-rule="evenodd" d="m2430.25 144.507h2222.67v1507.95h-2222.67z"/></clipPath><g transform="matrix(.674864 0 0 .621375 -1640.085 -89.7933)"><path d="m2430.25 144.507h2222.67v1507.95h-2222.67z" fill="none"/><g clip-path="url(#a)"><path d="m2180.38 0h1500v937h-1500z" fill="#f1f0e9" transform="matrix(1.48178 0 0 1.60933 -800.599 144.507)"/><path d="m92.71 44.408-40.119-40.117c-2.31-2.311-6.057-2.311-8.369 0l-8.33 8.332 10.567 10.567c2.456-.83 5.272-.273 7.229 1.685 1.969 1.97 2.521 4.81 1.67 7.275l10.186 10.185c2.465-.85 5.307-.3 7.275 1.671 2.75 2.75 2.75 7.206 0 9.958-2.752 2.751-7.208 2.751-9.961 0-2.068-2.07-2.58-5.11-1.531-7.658l-9.5-9.499v24.997c.67.332 1.303.774 1.861 1.332 2.75 2.75 2.75 7.206 0 9.959-2.75 2.749-7.209 2.749-9.957 0-2.75-2.754-2.75-7.21 0-9.959.68-.679 1.467-1.193 2.307-1.537v-25.23c-.84-.344-1.625-.853-2.307-1.537-2.083-2.082-2.584-5.14-1.516-7.698l-10.417-10.419-27.51 27.507c-2.311 2.313-2.311 6.06 0 8.371l40.121 40.118c2.31 2.311 6.056 2.311 8.369 0l39.932-39.932c2.311-2.311 2.311-6.06 0-8.371z" fill="#f05133" fill-rule="nonzero" transform="matrix(9.01249 0 0 8.92744 3104.474235 465.49916)"/></g></g></svg>